<svg xmlns="http://www.w3.org/2000/svg" viewBox="0 0 95.21 87.4"><defs><style>.cls-1{fill:#4e7eaf;}</style></defs><g id="Capa_2" data-name="Capa 2"><g id="Capa_1-2" data-name="Capa 1"><path class="cls-1" d="M57.93,68.82v6.49c1,0,1.94,0,2.9,0a9.3,9.3,0,0,1,9.08,9.21c0,2.32-.45,2.87-2.79,2.87-6.88,0-13.76,0-20.63,0H28.27c-2.57,0-3.06-.53-3-3.07a9.32,9.32,0,0,1,8.9-9c1,0,2,0,3.05,0v-6.5H10.68C3.64,68.81,0,65.19,0,58.21V10.45C0,3.8,3.69.06,10.31,0Q24.16,0,38,0c.49,0,1.12-.14,1.45.11.61.47,1.45,1.17,1.44,1.77s-.83,1.44-1.48,1.72a7.06,7.06,0,0,1-2.57.13H20.58V51.92H91.47V50.06q0-19.89,0-39.77c0-4.37-2.1-6.5-6.48-6.51q-13.47,0-26.95,0H56.36c-1.28,0-2.24-.51-2.23-1.91S55.07.07,56.27,0h1.12Q71.06,0,84.72,0c6.86,0,10.48,3.69,10.48,10.6q0,23.79,0,47.57c0,7-3.62,10.6-10.68,10.61H57.93ZM3.9,55.9C3,62.12,5,65.2,11.8,65.15c24.1-.19,48.2-.07,72.29-.08A24.07,24.07,0,0,0,86.5,65a5.29,5.29,0,0,0,4.83-4.43,32.89,32.89,0,0,0,0-4.67ZM16.61,52V19.9H3.83V52Zm24.5,17v3.85c0,1.3,0,2.6,0,3.9,0,1.59-.74,2.41-2.39,2.37-1.42,0-2.85-.05-4.27,0a5,5,0,0,0-5,4.46h36.5a5.2,5.2,0,0,0-5-4.46c-1.3-.06-2.6,0-3.9,0-2.34,0-2.82-.47-2.84-2.84s0-4.78,0-7.27ZM3.74,15.85h13v-12c-2.85,0-5.45-.13-8,0A5.3,5.3,0,0,0,3.76,9C3.67,11.25,3.74,13.47,3.74,15.85Z"/><path class="cls-1" d="M78.55,27.17c-.83,2.91-1.67,5.81-2.49,8.72-.34,1.23-.91,2.23-2.34,2.23s-2-1-2.35-2.22c-.85-2.95-1.75-5.9-2.9-8.85-.5,2.69-1,5.37-1.5,8.06-.07.36-.11.73-.19,1.1-.26,1.16-.92,1.95-2.2,1.73s-1.65-1.18-1.44-2.38c.69-4,1.4-7.91,2.1-11.86.2-1.1.42-2.19.59-3.29.21-1.38.66-2.6,2.29-2.68s2.11,1,2.48,2.31c.77,2.67,1.55,5.33,2.34,8a4,4,0,0,0,1,1.8c.91-3.19,1.83-6.37,2.73-9.56.37-1.31.82-2.59,2.46-2.55s2.13,1.36,2.39,2.8c.89,4.79,1.8,9.59,2.76,14.37.26,1.34.35,2.63-1.25,3S80.81,37,80.55,35.6c-.52-2.84-1.1-5.67-1.66-8.5Z"/><path class="cls-1" d="M50.94,33a11.26,11.26,0,0,1-.07,3.29A2.94,2.94,0,0,1,49,38c-.47.08-1.67-1.07-1.68-1.69-.14-5.57-.15-11.14,0-16.71,0-.65,1.11-1.69,1.83-1.81a17.29,17.29,0,0,1,4.82,0,6.12,6.12,0,0,1,5.28,5.44,5.86,5.86,0,0,1-4,6.19c-.39.14-.8.25-2,.63,1.87,1.64,3.44,3,5,4.39,1,.93,1.6,2,.42,3.18s-2.14.42-3-.52l-4.21-4.4Zm.07-6.4a23.73,23.73,0,0,0,4.16-1.73c.33-.22.23-1.72-.16-2.31-1-1.45-2.5-1.18-4-.94Z"/><path class="cls-1" d="M26.74,28.35c.16-4.27,1.74-7.43,5.21-9.4a9.1,9.1,0,0,1,9.54.1c1.54.88,2,2.55.77,3.23a3.31,3.31,0,0,1-2.65-.08c-3.48-1.64-7.18-.35-8.6,3.16a6.55,6.55,0,0,0,3.89,8.76,4.53,4.53,0,0,0,5-1c.94-1,2-1.47,3.05-.42s.45,2.24-.5,3.18c-4.72,4.67-13.22,1.94-15.2-4.9A21.86,21.86,0,0,1,26.74,28.35Z"/><path class="cls-1" d="M49.71,2.17c-.65.51-1.23,1.3-2,1.47A1.47,1.47,0,0,1,45.83,2,2.5,2.5,0,0,1,47.41.22c.7-.08,1.51.72,2.27,1.14Z"/><path class="cls-1" d="M10.58,33.42c.48.67,1.25,1.28,1.4,2a1.49,1.49,0,0,1-1.71,1.87,2.52,2.52,0,0,1-1.73-1.65c-.06-.7.77-1.48,1.21-2.23Z"/><path class="cls-1" d="M12.33,27.61c-.72.46-1.48,1.31-2.17,1.26a2.51,2.51,0,0,1-1.66-1.7,1.47,1.47,0,0,1,1.8-1.74c.73.13,1.35.88,2,1.35Z"/><path class="cls-1" d="M10.34,41.29c.81,1.23,1.54,1.88,1.64,2.61.16,1.13-.65,1.84-1.82,1.79s-1.92-.82-1.66-1.94C8.66,43,9.44,42.45,10.34,41.29Z"/></g></g></svg>