<svg xmlns="http://www.w3.org/2000/svg" viewBox="0 0 85.79 87.18"><defs><style>.cls-1{fill:#90b20a;}</style></defs><g id="Capa_2" data-name="Capa 2"><g id="Capa_1-2" data-name="Capa 1"><path class="cls-1" d="M76,61.56c-1.24.88-2.38,1.74-3.58,2.5-1.71,1.09-3.31,2-3.81,4.41-.27,1.37-2.54,2.21-3.45,3.6s-.79,3.72-1.93,4.6c-2,1.56-3.46,3.75-5.39,5.07a41.3,41.3,0,0,1-8.48,4.88c-3.56,1.36-7.14,0-10.56-1.21a3.54,3.54,0,0,0-3.05,0c-2.75,1.3-5.26-.29-6.24-3.49-1.58-.11-3.22.16-4.48-.41s-2-2-3.17-3.19c-3.58.73-6.14-.9-6.35-5.29l-1.06-.19A4.5,4.5,0,0,1,10.7,67c.42-1.84-1.63-4-3.44-3.69C5.6,63.62.69,61.23.18,59.63A4.27,4.27,0,0,1,.35,56.7c4-7.47,8.08-14.9,12.19-22.31,1.05-1.91,2.63-2.31,4.6-1.32.75.38,1.48.8,2.21,1.21,2.61,1.42,2.94,2.12,2.32,5.46,2.53.66,5.09,1.37,7.68,2,.27.06.8-.39,1-.73a6.59,6.59,0,0,1,5.3-3.11c6.23-.76,12.46-1.62,18.71-.2a28.48,28.48,0,0,1,3.13,1,8.29,8.29,0,0,0,6,.14c.07-3,4.13-6.61,7-6.15A3.8,3.8,0,0,1,73,34.3c4.19,7.44,8.28,14.93,12.35,22.44a3,3,0,0,1-1.22,4.33c-.82.52-1.68,1-2.54,1.42C79,63.89,78.18,63.77,76,61.56Zm-25.32,21c-2.55-1.13-4.54-2-6.54-2.9-1.07-.46-2-1.23-1.24-2.33a2.65,2.65,0,0,1,2.42-.51c2.43.89,4.71,2.16,7.13,3a4.41,4.41,0,0,0,3.08-.12c1.67-.79,1.56-2-.08-2.86-2.67-1.44-5.34-2.89-8-4.3-1.07-.56-1.72-1.35-1.05-2.48S48,69.28,49,69.82c.45.27.92.49,1.37.73,2.8,1.5,5.6,3,8.38,4.5,1.4.76,2.26,0,2.85-1.09.46-.85.69-1.72-.57-2.41-4.09-2.23-8.1-4.59-12.15-6.89-1-.55-1.87-1.23-1.2-2.44s1.82-.83,2.84-.23c3.46,2,6.89,4.12,10.4,6.05a6,6,0,0,0,3.11.72,2,2,0,0,0,1.57-3.37,11.33,11.33,0,0,0-2.84-3.15c-6.08-3.92-12.19-7.79-18.45-11.42-1.23-.72-3.14-.48-4.71-.35-.66.05-1.29.91-1.88,1.47A16.14,16.14,0,0,1,26,56.23c-1.42,0-3-.38-3.26-1.9a5.59,5.59,0,0,1,.68-3.54c1.22-2.09,2.78-4,4.26-6.06l-7.78-2.36L10.18,60,13,63.4c3.48-4.17,7.17-3.15,9.08.62,4.7-3.26,7.53-1.87,8.53,4.18,3.78.7,5,2.34,4.66,5.79,1.6,1.13,3.46,1.82,4.17,3.13s.4,3.35.55,5.36C43.07,83.41,46.54,85.14,50.72,82.55Zm14.55-41a12.51,12.51,0,0,1-9.92-.32,14.37,14.37,0,0,0-3.18-.79c-5.51-.86-11-.22-16.4.69A4.91,4.91,0,0,0,33,42.83c-2.28,2.89-4.37,5.93-6.52,8.93a13.62,13.62,0,0,0-.8,1.42c4.67-.13,8.52-1.34,11.24-5.11C37.27,47.56,38,47,38.56,47c3.51.42,7,.39,10.34,2.39,6.74,4.08,13.52,8,19.32,13.73l6.45-4.46ZM15.34,35.65,3,58.32l3.57,2L18.92,37.56Zm51.3,2L79.13,60.29l3.5-2L70.17,35.64ZM27.53,66.84c-.4-.44-.74-1.15-1.11-1.17a2.52,2.52,0,0,0-1.81.65c-1.75,2-3.38,4.08-5.07,6.12-.66.8-1.23,1.66-.22,2.51s1.78.17,2.44-.64c1.63-2,3.28-4,4.9-6A12.44,12.44,0,0,0,27.53,66.84Zm4.85,5.84c-.35-.38-.65-1-1-1a2.2,2.2,0,0,0-1.7.42,34.76,34.76,0,0,0-3.53,4.33c-.34.51,0,1.46,0,2.2.72-.14,1.69,0,2.13-.46A46,46,0,0,0,31.71,74,7.53,7.53,0,0,0,32.38,72.68Zm-17.24-3c.13,0,.47,0,.61-.19a48.16,48.16,0,0,0,3.11-3.89c.19-.26-.15-1.24-.5-1.43a1.85,1.85,0,0,0-1.69,0,21,21,0,0,0-2.82,3.42A1.34,1.34,0,0,0,15.14,69.72Zm22.62,9.71a13.78,13.78,0,0,0-2-1.49,22.29,22.29,0,0,0-3,3.26c-.08.11,1.21,1.44,1.26,1.41C35.19,81.73,36.27,80.74,37.76,79.43Z"/><path class="cls-1" d="M42.81,0A15.56,15.56,0,1,1,27.25,15.55,15.56,15.56,0,0,1,42.81,0Zm0,28A12.44,12.44,0,1,0,30.37,15.51,12.42,12.42,0,0,0,42.79,28Z"/><path class="cls-1" d="M39.58,18.73a9.32,9.32,0,0,0,1,.75c.66.37,1.41,1,2,.93A8.69,8.69,0,0,0,45.12,19a10.21,10.21,0,0,0-2.07-1.84c-.83-.41-1.91-.31-2.79-.66a4.31,4.31,0,0,1-2.93-3.77,4.45,4.45,0,0,1,2.32-4.38c.78-.49,1.79-.64,1.79-2,0-.32.86-.92,1.28-.89a3,3,0,0,1,1.5,1c.59.55,1.05,1.23,1.61,1.8s1.2.75,1.41,1.28a7.19,7.19,0,0,1,.2,2.25,14.37,14.37,0,0,1-2.37-.12c-1-.22-2-.87-3-.86-.57,0-1.12,1-1.67,1.51A9.79,9.79,0,0,0,42,13.82c.4.25,1,.14,1.52.22,2.52.38,4.32,1.92,4.69,4s-.68,3.76-3,5.12c-.4.24-.57.85-.92,1.22s-1,1.18-1.49,1.19-1.05-.71-1.52-1.16-.8-1-1.25-1.43A14.35,14.35,0,0,1,38,21C37.27,20,38.13,18.66,39.58,18.73Z"/></g></g></svg>