<svg xmlns="http://www.w3.org/2000/svg" viewBox="0 0 105.36 87.4"><defs><style>.cls-1{fill:#4e7eaf;}</style></defs><g id="Capa_2" data-name="Capa 2"><g id="Capa_1-2" data-name="Capa 1"><path class="cls-1" d="M20.53,80.87c-.53,6.52-.53,6.52-7,6.52-3.25,0-6.5,0-9.75,0C1.25,87.36,0,86.18,0,83.65Q0,65.43,0,47.19c0-2.63,1.23-3.81,4-3.84,4,0,8,0,12.08,0,3.18,0,4.28,1.15,4.34,4.37,0,.62.07,1.23.11,2,.83-.09,1.53-.14,2.21-.23s1.39-.24,2.37-.4V46.86q0-14.94,0-29.89c0-4.62,2.09-6.7,6.74-6.71H49.29c0-2.08,0-4,0-6,0-3.1,1.14-4.27,4.17-4.27H74c3,0,4.07,1.15,4.1,4.11,0,2,0,3.93,0,6.14H89.89c2,0,4.1,0,6.15,0,4.12.06,6.27,2.21,6.27,6.31q0,19.71,0,39.42a7,7,0,0,0,1.56,4.81c2.57,3.21,1.82,5.75-2,7.29Q85.49,74.71,69.08,81.25c-13.28,5.32-26.89,6-40.75,2.74a29,29,0,0,1-4-1.33C23.09,82.17,21.91,81.54,20.53,80.87ZM20.4,53.05V71.34c0,6,.47,6.68,6.2,8.71.59.21,1.2.4,1.82.56a63.77,63.77,0,0,0,40.29-2.74Q84.6,71.44,100.5,65.06a12.79,12.79,0,0,0,1.4-.78c-2.8-5.21-7.48-6.93-12.73-4.74C81.43,62.77,73.7,66.06,66,69.27a10.35,10.35,0,0,1-3.66.93c-5.51.1-11,0-16.54,0-1.16,0-2.43-.07-2.43-1.66S44.55,67,45.73,67H61a11.44,11.44,0,0,0,2.11-.1,4.6,4.6,0,0,0-.61-9.15,43,43,0,0,0-5.08,0,24.83,24.83,0,0,1-14.61-3.44,18.75,18.75,0,0,0-11.63-2.42C27.68,52.21,24.17,52.62,20.4,53.05Zm8.19-37.51V48.68c9.72-.08,9.67,0,18.44,3.86a26.68,26.68,0,0,0,7.76,1.73c2.51.29,5.08,0,7.62.08a8,8,0,0,1,8,7.54c0,.54.07,1.09.12,1.86,5.1-2.13,10.08-4.07,15-6.27,4.33-2,8.63-3.16,13.33-1V15.62L97.17,17.9C92.08,25.11,87,32.31,81.91,39.55a3.67,3.67,0,0,1-3.51,1.83c-2.31-.11-4.64,0-7.17,0,0,1.21,0,2.19,0,3.16.09,1.86-.64,2.72-2.61,2.67-3.39-.1-6.79-.06-10.18,0-1.53,0-2.21-.68-2.21-2.16V41.35c-2.43,0-4.48-.12-6.51,0a4.52,4.52,0,0,1-4.55-2.29C40.89,32.78,36.42,26.6,32,20.37Zm2.75-1.86c5.74,8.13,11.27,16,16.81,23.77A1.36,1.36,0,0,0,49,38c2.36,0,4.72,0,7.27,0,0-1.31,0-2.29,0-3.27-.06-1.74.63-2.6,2.49-2.56,3.39.07,6.78.05,10.17,0,1.61,0,2.34.72,2.34,2.29,0,1.11,0,2.22,0,3.56,2.06,0,3.89-.09,5.7,0A3.14,3.14,0,0,0,80,36.49c4.9-7.07,9.9-14.08,14.87-21.11.34-.49.62-1,1-1.7ZM3.47,46.76V83.92H16.91V46.76ZM52.81,3.45v6.69H74.66V3.45Zm14.92,40.3v-8H59.66v8Z"/><path class="cls-1" d="M63.77,21.28c.56,0,1.24-.2,1.64,0,.63.38,1.49,1.09,1.47,1.64s-.89,1.32-1.55,1.54a4.46,4.46,0,0,1-2.68,0,8.74,8.74,0,0,1-2.2-1.65c.75-.55,1.49-1.13,2.28-1.61.26-.15.69,0,1,0Z"/><path class="cls-1" d="M53.71,24.58c-.5,0-1.1.18-1.46,0-.64-.4-1.55-1-1.56-1.59s.85-1.38,1.5-1.61a8.83,8.83,0,0,1,2.73-.09c1.21,0,2.32.43,2.07,1.73-.12.64-1.27,1.15-2,1.58-.32.19-.83,0-1.25,0Z"/><path class="cls-1" d="M73.58,24.57c-.56,0-1.25.2-1.66-.05a3,3,0,0,1-1.44-1.68c-.06-.45.78-1.34,1.36-1.49a6.5,6.5,0,0,1,3.13,0c.71.19,1.25,1,1.87,1.57A12.79,12.79,0,0,1,75,24.55c-.35.22-1,0-1.46,0Z"/><path class="cls-1" d="M7.74,78.66c1-1.11,1.63-2.32,2.37-2.41,1.58-.2,1.76,1.17,1.76,2.46s-.17,2.69-1.71,2.5C9.39,81.12,8.77,79.81,7.74,78.66Z"/></g></g></svg>