<svg xmlns="http://www.w3.org/2000/svg" viewBox="0 0 49.94 88.93"><defs><style>.cls-1{fill:#90b20a;}</style></defs><g id="Capa_2" data-name="Capa 2"><g id="Capa_1-2" data-name="Capa 1"><path class="cls-1" d="M49.94,43.77q0,17.28,0,34.55c0,6.59-4,10.6-10.57,10.6q-14.47,0-28.95,0C4.08,88.92,0,84.85,0,78.51Q0,43.79,0,9.06C0,3.42,3.44,0,9.1,0H40.82c5.75,0,9.12,3.41,9.12,9.21Q50,26.49,49.94,43.77Zm-47-32.56V69.32H47.06V11.21ZM47.08,8.29C46.83,5,44.73,2.87,41.61,2.81s-6.24,0-9.36,0c-7.91,0-15.82,0-23.74,0-3,0-6,2.72-5.52,5.52ZM22.89,80.57c-.65-1.27-1.69-2.59-2-4.06-.39-1.86,1-3.14,2.62-4.13H2.86c-.26,4.71,2.42,8.07,6.61,8.17C14.08,80.65,18.69,80.57,22.89,80.57Zm3.48,0h1.86c4,0,8.08.06,12.11,0a6.76,6.76,0,0,0,6.58-8.23H26.5C30,75,30,77.84,26.37,80.58Zm20.41.26a11.42,11.42,0,0,1-8,2.55q-13-.11-26,0c-3.41,0-6.76,0-9.69-2.56C3.94,84,6.33,86.08,9.31,86.1q15.66.11,31.34,0A6.43,6.43,0,0,0,46.78,80.84Zm-19.9-4.38c-.83-.65-1.37-1.38-1.78-1.32s-1,.8-1.49,1.25c.47.46.89,1.19,1.43,1.3S26,77.07,26.88,76.46Z"/><path class="cls-1" d="M44.39,40.47c0,4,0,8,0,12a6.93,6.93,0,0,1-7.3,7.29q-12.12,0-24.25,0a6.92,6.92,0,0,1-7.28-7.31q0-12.15,0-24.29a6.91,6.91,0,0,1,7.29-7.29q12.14,0,24.26,0a6.92,6.92,0,0,1,7.28,7.3C44.41,32.26,44.39,36.37,44.39,40.47ZM25.05,23.63h-12c-3.1,0-4.75,1.61-4.76,4.66q0,12.06,0,24.11C8.35,55.25,10,57,12.86,57Q25,57,37.1,57c2.83,0,4.49-1.71,4.5-4.57q0-12,0-24.11c0-3-1.66-4.62-4.6-4.63C33,23.62,29,23.63,25.05,23.63Z"/><path class="cls-1" d="M27,4.18a6.08,6.08,0,0,1,2.05.05c.57.23,1,.9,1.45,1.37-.5.45-.95,1.21-1.51,1.29a13.34,13.34,0,0,1-3.94,0c-.54-.09-1-.88-1.45-1.36a6.15,6.15,0,0,1,1.52-1.3A5.11,5.11,0,0,1,27,4.18Z"/><path class="cls-1" d="M20.87,7.57c-.66-1-1.32-1.51-1.31-2.05s.89-1.31,1.22-1.23a2.08,2.08,0,0,1,1.34,1.34C22.2,6.05,21.51,6.63,20.87,7.57Z"/><path class="cls-1" d="M25,25A15.29,15.29,0,1,1,9.71,40.17,15.29,15.29,0,0,1,25,25ZM37.45,40.35A12.48,12.48,0,1,0,25,52.79,12.52,12.52,0,0,0,37.45,40.35Z"/><path class="cls-1" d="M22.09,44.52c1.08-3.2,2-6.06,3.05-8.87a1.8,1.8,0,0,1,1.62-.73,1.81,1.81,0,0,1,.88,1.57c-.84,2.88-1.81,5.73-2.86,8.54a1.71,1.71,0,0,1-1.52.69C22.75,45.58,22.4,44.87,22.09,44.52Z"/><path class="cls-1" d="M18.67,40.3a9.33,9.33,0,0,1,1.71,1.88A2,2,0,0,1,20.33,44a1.81,1.81,0,0,1-1.76.1,21.2,21.2,0,0,1-2.94-2.9c-.83-.95-.21-1.8.57-2.33,1.27-.87,1.73-3.17,3.88-2.4.32.11.52,1.41.3,2S19.35,39.59,18.67,40.3Z"/><path class="cls-1" d="M31.28,40.3a10,10,0,0,1-1.71-1.88,2,2,0,0,1,.05-1.78,1.81,1.81,0,0,1,1.76-.1,21.13,21.13,0,0,1,2.94,2.89c.83,1,.22,1.8-.57,2.34-1.27.87-1.73,3.16-3.88,2.4-.32-.11-.52-1.41-.3-2S30.61,41,31.28,40.3Z"/></g></g></svg>