<svg xmlns="http://www.w3.org/2000/svg" viewBox="0 0 90.52 90.5"><defs><style>.cls-1{fill:#4e7eaf;stroke:#4e7eaf;stroke-miterlimit:10;stroke-width:2.07px;}</style></defs><g id="Capa_2" data-name="Capa 2"><g id="Capa_1-2" data-name="Capa 1"><path class="cls-1" d="M25.31,79c2.6,5.73,2.6,5.73-2.39,8.34-1.08.56-2.16,1.14-3.26,1.66-1.86.88-3.22.51-4.16-1.28q-7-13.38-14-26.8c-1-1.88-.49-3.25,1.38-4.28s3.56-1.89,5.36-2.79c2.09-1.06,3.43-.63,4.55,1.4.37.68.73,1.38,1.16,2.19,4-2.09,7.85-4.24,11.82-6.08a13.05,13.05,0,0,1,5.42-1.2c5.44,0,10.87.41,16.31.64,6,.25,8.81,2.93,9.19,9.13.64-.3,1.21-.54,1.76-.83,6.44-3.35,12.87-6.74,19.33-10.06a7.63,7.63,0,0,1,8.48.59,7.49,7.49,0,0,1,3.06,7.74,7.27,7.27,0,0,1-3.89,5.48Q67.78,72.13,50,81.31c-2.3,1.19-4.74,1-7.17.45-4.59-1-9.18-2-13.79-2.92A17.34,17.34,0,0,0,25.31,79Zm-.88-1.49c1.93-1.35,3.76-1.2,5.67-.77,4.35,1,8.72,1.89,13.08,2.81,2.06.43,4.13.71,6.1-.32C60.92,73.18,72.59,67.16,84.16,61A7.12,7.12,0,0,0,87,57.21a4.92,4.92,0,0,0-1.93-5.69,5.45,5.45,0,0,0-6.2-.53Q67.44,56.91,56,62.92a4.76,4.76,0,0,0-1.27,1,8,8,0,0,1-6.89,2.74c-1.4-.09-2.81-.09-4.21-.15-2.51-.11-5-.17-7.51-.39-.5,0-.94-.71-1.4-1.09a7.1,7.1,0,0,1,1.44-1,4,4,0,0,1,1.46,0c3.54.15,7.08.34,10.62.45a5.65,5.65,0,0,0,5.85-3.81c1.26-3.69-1.19-7.24-5.39-7.52-4.51-.3-9.07-.11-13.55-.65A18.42,18.42,0,0,0,22.8,55.32c-2.47,1.52-5.13,2.73-7.79,4.13ZM10.12,55.46c-.37.16-.54.22-.7.3-1.79.93-3.62,1.79-5.34,2.84a1.84,1.84,0,0,0-.33,1.74C8.18,69,12.69,77.58,17.15,86.21c.53,1,1.09,1.12,2,.59q2.31-1.3,4.71-2.46c.92-.45,1.08-1,.6-1.88q-6.8-13-13.56-26A6.34,6.34,0,0,0,10.12,55.46Z"/><path class="cls-1" d="M52.58,44.57c-3.91,0-7.82,0-11.73,0-3.48,0-5.16-1.7-5.16-5.16a17,17,0,1,1,34,0c0,3.32-1.75,5.11-5.06,5.13C60.64,44.58,56.61,44.57,52.58,44.57Zm.11-2.22c4,0,8,0,11.93,0,2.1,0,2.85-.8,2.88-2.89a14.8,14.8,0,1,0-29.6,0c0,2.12.74,2.87,2.86,2.88C44.74,42.37,48.72,42.35,52.69,42.35Z"/><path class="cls-1" d="M61.52,10A8.86,8.86,0,1,1,52.75,1,8.78,8.78,0,0,1,61.52,10ZM59.3,10a6.56,6.56,0,0,0-6.54-6.72A6.65,6.65,0,0,0,46,9.81a6.73,6.73,0,0,0,6.58,6.76A6.63,6.63,0,0,0,59.3,10Z"/><path class="cls-1" d="M37.16,27.14c-.66.52-1.06,1.05-1.57,1.19A6.29,6.29,0,0,0,30.94,33c-.14.48-.78,1.12-1.2,1.12s-1.09-.63-1.22-1.1a6.29,6.29,0,0,0-4.62-4.66,1.81,1.81,0,0,1-1.15-1.19c0-.4.59-1.11,1.05-1.24a6.35,6.35,0,0,0,4.75-4.77,1.82,1.82,0,0,1,1.27-1c.32-.05,1,.58,1.09,1A6.51,6.51,0,0,0,35.82,26C36.26,26.08,36.59,26.61,37.16,27.14Zm-8.32-2.05,1.85.17L27.78,28l0-1.78,2.76,2.85-2-.3,3.14-2.54-.16,1.87Z"/><path class="cls-1" d="M79.94,12.47c-.61.53-1,1.09-1.47,1.23a6.4,6.4,0,0,0-4.75,4.77,1.8,1.8,0,0,1-1.27,1c-.32,0-1-.57-1.08-1a6.41,6.41,0,0,0-4.74-4.78,1.89,1.89,0,0,1-1.08-1.24c-.06-.3.55-1,1-1.1a6.54,6.54,0,0,0,4.88-4.88,1.61,1.61,0,0,1,1.13-.94,1.56,1.56,0,0,1,1.15.91,6.55,6.55,0,0,0,4.86,4.89C79,11.46,79.33,12,79.94,12.47ZM71.72,10.6l1.91.15-3,2.55,0-1.65,2.79,2.85-1.82-.2,3.07-2.52-.29,1.55Z"/></g></g></svg>