<svg xmlns="http://www.w3.org/2000/svg" viewBox="0 0 113.25 82.95"><defs><style>.cls-1{fill:#90b20a;}</style></defs><g id="Capa_2" data-name="Capa 2"><g id="Capa_1-2" data-name="Capa 1"><path class="cls-1" d="M107.42,56.31a32.71,32.71,0,0,1,3.26,1.09,3.94,3.94,0,0,1,2.54,4.32c-.62,5.62-1.07,11.26-2,16.82-.23,1.41-1.76,2.92-3.08,3.73-1.16.7-2.88.66-4.34.66q-47.17,0-94.35,0a14.65,14.65,0,0,1-4.18-.51,4.65,4.65,0,0,1-3.47-4.28C1.27,72.84.63,67.54.05,62.24c-.3-2.74.7-4.31,3.3-5.21.8-.28,1.64-.44,2.27-.61V51.64q0-20.25,0-40.5C5.63,4.1,9.72,0,16.72,0H96.45c7,0,11.14,4.08,11.14,11.1q0,21,0,41.91C107.59,54.09,107.48,55.18,107.42,56.31ZM71,64.9c.26-1.79.59-3.47.73-5.18.18-2.26,1.11-3.26,3.59-3.22,8.41.13,16.83,0,25.25,0,2.69,0,3.2-.44,3.2-3.09q0-21.55,0-43.11c0-4-2.67-6.55-6.74-6.56q-40.47,0-80.94,0a6.24,6.24,0,0,0-6.67,6.63c0,14.37,0,28.74,0,43.11,0,2.08.72,3.09,3.06,3.05,8.5-.11,17,0,25.49-.09,2.35,0,3.28.89,3.49,3.06.17,1.78.5,3.54.76,5.34ZM37.6,60.33h-30c-.71,0-1.42,0-2.12,0-1.22.11-1.77.65-1.6,2C4.4,66.68,4.8,71,5.29,75.27c.45,3.9.48,3.9,4.47,3.9h95.55a2.12,2.12,0,0,0,2.42-2.2c.38-4.46.91-8.9,1.42-13.34.37-3.18.33-3.28-3-3.28q-14.28,0-28.55,0c-.68,0-1.36.07-2,.11-.33,1.88-.6,3.58-.93,5.27-.42,2.19-1.73,3.13-4,3.12q-14-.09-28.08,0c-2.4,0-3.67-1-4.09-3.3C38.2,63.86,37.92,62.18,37.6,60.33Z"/><path class="cls-1" d="M27.22,32.81c0-4.24.07-8.48,0-12.71A2.83,2.83,0,0,1,29.35,17c8.35-3.22,16.64-6.59,25-9.73a6.49,6.49,0,0,1,4.22,0c8.29,3.12,16.5,6.48,24.78,9.64a3.2,3.2,0,0,1,2.39,3.48q-.1,12.36,0,24.72A3.53,3.53,0,0,1,83.18,49c-8.43,3.22-16.8,6.6-25.22,9.82a4.74,4.74,0,0,1-3.09,0c-8.43-3.22-16.79-6.6-25.22-9.83a3.3,3.3,0,0,1-2.46-3.68c.13-4.15,0-8.31,0-12.47ZM31,22c0,7.42.06,14.39,0,21.36a2.58,2.58,0,0,0,2,2.86c6.45,2.44,12.85,5,19.28,7.53.62.24,1.28.39,2.27.69,0-7.62,0-15,0-22.3a1.89,1.89,0,0,0-1.05-1.3C46.13,27.88,38.77,25,31,22Zm33.15,7a36.85,36.85,0,0,1-3.54,1.26c-1.85.45-2.36,1.5-2.31,3.38.15,4.94,0,9.88,0,14.82V54.3a4.7,4.7,0,0,0,1-.11c7.08-2.77,14.18-5.51,21.21-8.41a3,3,0,0,0,1.26-2.31c.1-6.51.06-13,0-19.53,0-.58-.15-1.15-.24-1.89a48.9,48.9,0,0,1-4.84,1.87c-1.73.48-2.28,1.37-2.26,3.17.08,7.07,0,7.07-6.7,9.31a1.45,1.45,0,0,0-.22.09c-2,.62-2.9,0-3.08-2.15C64.43,32.65,64.32,31,64.17,29Zm-2.38-3.46c-6.17-2.4-12.32-4.55-18.26-7.17a8.44,8.44,0,0,0-8.85.85c.79.35,1.49.68,2.21,1,5.18,2.05,10.48,3.84,15.5,6.21C55.81,28,58.66,27.56,61.79,25.56ZM51.36,12.72c6.43,2.53,12.71,4.77,18.78,7.48,3.13,1.4,5.44.36,8.17-1.15-6.07-2.39-12-4.48-17.7-7.06C57.33,10.51,54.52,10.54,51.36,12.72ZM68.52,31.87c2.82-.5,2.25,0,2.3-5.54,0-2.23-.93-2.86-4.82-3.46C69.73,25,67,29.07,68.52,31.87ZM45.82,14.64l-.26.58L59,20.37l.18-.49Z"/></g></g></svg>