<svg xmlns="http://www.w3.org/2000/svg" viewBox="0 0 95.8 87.74"><defs><style>.cls-1{fill:#90b20a;}</style></defs><g id="Capa_2" data-name="Capa 2"><g id="Capa_1-2" data-name="Capa 1"><path class="cls-1" d="M82.42,66.31c2.75,2.73,5.47,5.38,8.12,8.1a18.75,18.75,0,0,1,1.67,2.41,5.93,5.93,0,0,0,1.19,1.5,5.09,5.09,0,0,1,2.31,5.33,4.87,4.87,0,0,1-4,4,5,5,0,0,1-5.43-2.43c-.16-.26-.28-.68-.5-.75-4.13-1.31-6.07-5.2-9.13-7.76a20.08,20.08,0,0,1-2.19-2.56,28.36,28.36,0,0,1-12,4.26c-11.57,1-20.53-3.39-26.86-13.06a3.18,3.18,0,0,0-3.1-1.67c-8.79.06-17.58,0-26.37,0C1.83,63.7,0,61.85,0,57.54V6.09c0-4.21,1.81-6,6-6H20.41c1,0,2.19-.06,2.18,1.37s-1.18,1.34-2.21,1.34H6c-2.5,0-3.24.73-3.26,3.21,0,2.3,0,4.6,0,7.06H82.79c0-2.79.11-5.64-.09-8.47,0-.63-1.14-1.32-1.88-1.72-.49-.27-1.22-.08-1.85-.08H30a4.39,4.39,0,0,1-1.67-.06c-.53-.25-1.23-.81-1.25-1.27s.68-1,1.19-1.31c.31-.2.85-.06,1.28-.06q25.06,0,50.13,0c4.17,0,6,1.86,6,6.06q0,11.24,0,22.45c0,.32.12.71,0,.92a20.5,20.5,0,0,1-1.44,1.79c-.43-.57-1.2-1.13-1.23-1.73-.15-2.42-.07-4.86-.07-7.29V16H2.81c0,.66-.09,1.26-.09,1.87q0,19.73,0,39.47c0,3,.61,3.62,3.61,3.62H31.39c.54,0,1.09-.05,1.84-.09-2.73-8-2.43-15.68,1.46-23.08a27.06,27.06,0,0,1,12.44-12,27.7,27.7,0,0,1,32.42,6.05C87.56,40.31,90,54.23,82.42,66.31ZM59.19,75.87a25,25,0,1,0-25-25.14A24.94,24.94,0,0,0,59.19,75.87Zm17.42-3c2.73,2.7,5.41,5.38,8.11,8,.29.3.75.68,1.08.64,1.76-.24,2.31.78,2.94,2.17a2.78,2.78,0,0,0,2.37,1.18,2.23,2.23,0,0,0,.49-4.24c-1.33-.62-2.27-1.18-2.06-2.83a1.47,1.47,0,0,0-.46-1Q85,72.68,80.79,68.56Z"/><path class="cls-1" d="M31.82,31.94a13.07,13.07,0,1,1-13-13.12A13.12,13.12,0,0,1,31.82,31.94Zm-8.54-1.55c-.27-3-.77-5.72-3-8.09v8.09Zm-3,11.26a13,13,0,0,0,3-8.24h-3ZM17.2,30.36V22.25c-2.2,2.55-2.68,5.22-3,8.11Zm-3,3c.47,3,.82,5.71,3.06,8.15V33.34Zm14.77-3a10.24,10.24,0,0,0-4.19-6.92l1.53,6.92ZM8.69,33.46c.42,3.07,2.05,5.58,4.09,6.46-.36-1.46-.81-2.94-1.09-4.44C11.25,33.09,11.3,33.08,8.69,33.46Zm2.61-3.08,1.41-6.68a8.87,8.87,0,0,0-4,6.68Zm13.48,9.86a9.7,9.7,0,0,0,4.08-7c-1.15.36-2.51-.8-2.89,1.08S25.22,38.05,24.78,40.24Z"/><path class="cls-1" d="M17.67,49.8c2.73,0,5.47,0,8.21,0,1,0,2,.12,2,1.39s-1,1.34-2.05,1.34q-8.31,0-16.61,0c-1,0-2-.18-2-1.4s1.06-1.32,2.05-1.32Z"/><path class="cls-1" d="M11.34,58.34a11,11,0,0,1-2.76-.06c-.55-.16-.94-.91-1.4-1.39.45-.43.89-1.19,1.37-1.23a34.28,34.28,0,0,1,5.55,0A1.77,1.77,0,0,1,15.28,57a1.84,1.84,0,0,1-1.17,1.31,12.16,12.16,0,0,1-2.77.06Z"/><path class="cls-1" d="M11.87,8.76c-.77.5-1.56,1.43-2.3,1.39A2.48,2.48,0,0,1,7.81,8.39,2.52,2.52,0,0,1,9.5,6.56c.75-.06,1.57.83,2.36,1.31Z"/><path class="cls-1" d="M17.61,6.14c.49.78,1.4,1.61,1.32,2.34a2.71,2.71,0,0,1-1.88,1.71,1.57,1.57,0,0,1-1.82-2c.15-.77,1-1.41,1.5-2.11Z"/><path class="cls-1" d="M26.81,8.88c-.79.46-1.63,1.34-2.37,1.26a2.64,2.64,0,0,1-1.7-1.87,1.56,1.56,0,0,1,2-1.77c.78.19,1.42,1,2.12,1.54Z"/><path class="cls-1" d="M37,50.81c0-11.64,9.13-21.55,20.49-22.24a22.3,22.3,0,0,1,24,20.36c1.2,11.22-7,21.9-18.41,23.84a12.72,12.72,0,0,1-3.52.27c-.58-.06-1.08-.85-1.61-1.32.5-.43.94-1.12,1.51-1.25,1.87-.44,3.85-.47,5.68-1,9.22-2.85,14.68-11.67,13.45-21.53-1.12-9-9.09-16.17-18.43-16.67a19.59,19.59,0,0,0-8.71,37.54c.46.19,1.05.25,1.36.58a9.23,9.23,0,0,1,1,1.73,11,11,0,0,1-2,.74c-.37.07-.81-.27-1.21-.44A22.22,22.22,0,0,1,37,50.81Z"/><path class="cls-1" d="M76.71,50.88A6.75,6.75,0,1,1,70,44.07,6.79,6.79,0,0,1,76.71,50.88ZM70,54.79a4,4,0,1,0-4-4A4,4,0,0,0,70,54.79Z"/><path class="cls-1" d="M46.75,57.88A25.08,25.08,0,0,1,42.81,56a2.24,2.24,0,0,1-.58-2.13c.49-1,1.34-.51,2.2,0a9.12,9.12,0,0,0,3.1.87c.35,0,1-.59,1.11-1a1.65,1.65,0,0,0-.8-1.24c-1-.56-2.33-.74-3.2-1.45s-2-2-2-3a5,5,0,0,1,1.87-3.3c1.51-1.21,4.65-.73,6.05.69.37.39.34,1.17.49,1.77a6.29,6.29,0,0,1-1.93.43c-.83-.09-1.61-.61-2.44-.7-.42,0-.89.46-1.34.72.31.38.56.89,1,1.12.76.42,1.61.65,2.4,1,2.2,1,3.24,2.65,2.82,4.47C51,56.23,49.15,57.59,46.75,57.88Z"/><path class="cls-1" d="M56.93,46.86v2.63a10.58,10.58,0,0,1,2.66.06c.52.14,1.25.81,1.25,1.26s-.7,1.14-1.22,1.28a10.71,10.71,0,0,1-2.68.06v2.63a10.07,10.07,0,0,1,2.69.06c.62.17,1.09.89,1.63,1.37-.52.43-1,1.15-1.57,1.23a26.93,26.93,0,0,1-3.92.07A1.54,1.54,0,0,1,54,55.79c0-3.31,0-6.61,0-9.91,0-.19,0-.48.08-.54.65-.43,1.38-1.19,2-1.13,1.68.17,3.76-1,5,.88.58.91-.24,1.65-1.26,1.75S58,46.86,56.93,46.86Z"/></g></g></svg>