<svg xmlns="http://www.w3.org/2000/svg" viewBox="0 0 96.39 87.18"><defs><style>.cls-1{fill:#4e7eaf;}</style></defs><g id="Capa_2" data-name="Capa 2"><g id="Capa_1-2" data-name="Capa 1"><path class="cls-1" d="M27.43,75.36a6.43,6.43,0,0,0-.36,1c-.52,4.45-3.18,6.88-7.34,8.09C18,85,16.31,86,14.55,86.66c-.62.23-1.75.27-2-.08a3,3,0,0,1-.17-2.19,21.11,21.11,0,0,1,1.22-2.93c-2.36-1-2.52-1.41-1.26-3.6-2.39-.69-4.68-1.53-7-2C2.15,75.25,0,73.13,0,70Q0,38,0,6c0-3.62,2.51-6,6.3-6,7.65,0,15.3,0,23,0h60c5,0,7.09,2.13,7.1,7.09V68.8c0,5-2.14,7.08-7.13,7.08-6.39,0-12.79,0-19.19.06A3.24,3.24,0,0,0,67.79,77c-10.3,13.75-29.58,13.5-39.52-.56C28.06,76.18,27.84,75.89,27.43,75.36Zm42.92-2.49h19c3.15,0,4-.86,4-4.06V22.91c0-.66-.06-1.32-.09-2H3v11Q3,50.57,3,69.29c0,2.56,1,3.49,3.48,3.62a12.86,12.86,0,0,0,7.25-1.42,18.6,18.6,0,0,1,4.12-1.8,5.88,5.88,0,0,1,3.17,0,37.22,37.22,0,0,1,4.56,2C22.35,60,25,50.24,34.87,43.43c8.42-5.8,17.63-6,26.16-.32C71.81,50.26,74.28,60.55,70.35,72.87ZM3,17.57H93.36V7.46C93.36,3.74,92.67,3,89,3H7.35a11.92,11.92,0,0,0-1.69,0,2.68,2.68,0,0,0-2.6,2.72C3,9.67,3,13.55,3,17.57ZM30.19,73.66c5.14,9.73,18.13,13.33,28,7.92A20.92,20.92,0,1,0,37.65,45.14C27,51.39,25.4,64.1,29,70.86l3-1.35c-2.09-11.8,1.78-19.7,11-22.68A17.21,17.21,0,0,1,57.73,77.54c-6,4-16.92,5-24.37-5.28ZM36.45,71A14,14,0,0,0,55.79,75.2,14.18,14.18,0,1,0,40.43,51.37c-6.56,4.22-7.72,13-5.22,16.72a16.25,16.25,0,0,1,1.88-.79c1.33-.36,1.47-1.1,1.22-2.37a9.92,9.92,0,0,1,6.47-11.2,10.07,10.07,0,0,1,9.68,17.36,9.78,9.78,0,0,1-13.05-.51c-1.13-1.11-2-1.23-3.19-.49C37.7,70.4,37.12,70.63,36.45,71Zm6.77-3.09a6.58,6.58,0,0,0,9,1.1,7.06,7.06,0,0,0-7.1-12.15,6.75,6.75,0,0,0-3.52,8.4c1.65-.71,3.31-1.41,5-2.14,1-.46,2.14-.63,2.44.64.13.57-.59,1.66-1.22,2A38.77,38.77,0,0,1,43.22,67.87Zm-29.68,7a7.09,7.09,0,0,0,8.51-1.37C18.69,70.78,16.37,74.32,13.54,74.91Zm3.23,7.35c5.62-1.68,6.24-2.18,6.82-5.7C20.83,78.05,17.29,78.16,16.77,82.26Z"/><path class="cls-1" d="M73.83,45.11h2.4V38.92c0-.56-.17-1.23.07-1.66a7.88,7.88,0,0,1,1.49-1.57c.49.54,1.33,1.05,1.39,1.65a51.85,51.85,0,0,1,.08,5.44c0,.74,0,1.47,0,2.3h2.41V35.86c0-.57,0-1.13,0-1.69,0-1.14.29-2.22,1.55-2a2.57,2.57,0,0,1,1.41,1.95c.15,3,.07,6,.07,9v1.95H87V28.72c0-1.16,0-2.46,1.6-2.44s1.43,1.29,1.43,2.36V45l.51-.37c.81.73,2.3,1.47,2.3,2.21,0,2-1.85,1.38-3,1.39-6.32,0-12.65,0-19,0-1.19,0-2.89.39-2.85-1.43,0-.71,1.43-1.39,2.22-2.09l.59.39c0-1.48,0-3,0-4.44,0-1.13.29-2.08,1.62-2s1.42,1,1.41,2C73.82,42.11,73.83,43.59,73.83,45.11Z"/><path class="cls-1" d="M6.93,34.81c0-2.63,0-5.27,0-7.9,0-1.68.69-2.37,2.37-2.34,3.38.06,6.76.05,10.15,0,1.57,0,2.3.63,2.3,2.23q0,8.07,0,16.16c0,1.58-.66,2.25-2.28,2.21-3.38-.06-6.77-.09-10.15,0-1.86.05-2.42-.79-2.39-2.49C7,40.07,6.93,37.44,6.93,34.81ZM18.58,42V27.63c-2.6,0-5.1,0-7.59.05a1.43,1.43,0,0,0-1,1C10,33.09,10,37.52,10,42Z"/><path class="cls-1" d="M79.38,28.37l-7.27,5.19-3.5,2.52c-.9.66-1.88,1.35-2.77.17s.13-2,1.06-2.69l9-6.45c.34-.25.66-.53,1.12-.89a5.1,5.1,0,0,1-1.74-.67,1.64,1.64,0,0,1-.43-1.45A2.26,2.26,0,0,1,76.33,23a23,23,0,0,1,5,.3,2.4,2.4,0,0,1,1.38,1.76,32.91,32.91,0,0,1-.24,4.3c0,1-.3,1.94-1.53,1.93s-1.56-.83-1.52-1.91A9.39,9.39,0,0,0,79.38,28.37Z"/><path class="cls-1" d="M37.82,28.58H27.11c-1.15,0-2.28-.11-2.22-1.59.05-1.33,1.13-1.44,2.2-1.44H48.5c1.11,0,2.13.22,2.14,1.52s-1,1.52-2.12,1.51C45,28.56,41.38,28.58,37.82,28.58Z"/><path class="cls-1" d="M37.85,36.18H27c-1.09,0-2.25-.2-2-1.52a2.53,2.53,0,0,1,1.93-1.44q10.88-.16,21.77,0a2.54,2.54,0,0,1,1.93,1.45c.2,1.29-.93,1.52-2,1.51Z"/><path class="cls-1" d="M14.78,10.39c0,4.56.17,4.29-4.29,4.26-.51,0-1,0-1.51,0-1.83.18-2.48-.72-2.4-2.45.06-1.37,0-2.75,0-4.12A1.61,1.61,0,0,1,8.47,6.28c1.25,0,2.5,0,3.75,0,2.35,0,2.54.22,2.56,2.61Zm-5.15-1,.1,2.23,2-.1-.1-2.13Z"/><path class="cls-1" d="M34.64,10.54c0,4.11,0,4.11-4.11,4.11s-4.14,0-4.14-4.09c0-4.28,0-4.28,4.31-4.28C34.64,6.28,34.64,6.28,34.64,10.54Zm-3.11,1V9.44h-2v2.09Z"/><path class="cls-1" d="M20.38,14.65c-.56,0-1.13,0-1.69,0-1.48.09-2.23-.53-2.18-2.08s0-2.88,0-4.32.66-2,2.07-2,2.75.05,4.13,0,2,.71,2,2.06,0,2.51,0,3.76c0,2.23-.37,2.55-2.67,2.56Zm-.75-3,2-.17v-2h-2Z"/></g></g></svg>