<svg xmlns="http://www.w3.org/2000/svg" viewBox="0 0 87.28 87.26"><defs><style>.cls-1{fill:#4e7eaf;}</style></defs><g id="Capa_2" data-name="Capa 2"><g id="Capa_1-2" data-name="Capa 1"><path class="cls-1" d="M56.75,69.47c-1.25,5.79,1.34,9.74,5.36,12.7,1.3,1,3.72.38,5.62.56s4.52-.77,4.56,2.1c0,3-2.77,2.32-4.66,2.32q-24.09.06-48.18,0c-.74,0-1.62.24-2.18-.08a14.43,14.43,0,0,1-2.4-2.18,14.47,14.47,0,0,1,2.41-2.11,4.28,4.28,0,0,1,2.18-.07c3.44.31,6.38-.15,8.72-3.28a13.16,13.16,0,0,0,2.52-9.83c-1-.05-2-.14-3-.14-6.18,0-12.37,0-18.55,0C3.32,69.41,0,66.17,0,60.34Q0,34.75,0,9.17C0,3.33,3.31,0,9.13,0Q43.6,0,78.06,0c5.86,0,9.17,3.27,9.18,9.06q.08,25.59,0,51.17c0,6-3.29,9.18-9.32,9.21C70.92,69.5,63.91,69.47,56.75,69.47ZM4.47,52.92H82.61a9.82,9.82,0,0,0,.18-1.25q0-21.29,0-42.58c0-3.49-1.4-4.62-5.37-4.62H9.88c-4.28,0-5.4,1.13-5.4,5.44q0,18.8,0,37.6Zm78,4.86H4.77C3.89,63.45,5.15,65,10.44,65h66.4C82.12,65,83.39,63.44,82.5,57.78ZM56,82.58c-3.53-3.92-4.22-8.29-4-12.94H35.54a41.6,41.6,0,0,1-.85,6.66,43.89,43.89,0,0,1-2.84,6.28Z"/><path class="cls-1" d="M61.26,19.26a26.41,26.41,0,0,1-5.28-.1c-1-.21-1.82-1.34-2.72-2.06.86-.76,1.68-2.11,2.58-2.18,3.67-.25,7.37-.11,11.06-.1,1.88,0,2.61,1.15,2.63,2.85q0,5.26,0,10.51c0,1.53-.52,2.82-2.34,2.76s-2.1-1.46-2.09-3V22.72c-.92.77-1.53,1.2-2.06,1.72-4.64,4.62-9.31,9.21-13.87,13.9-1.81,1.86-3.3,1.94-5.09,0-2.91-3.17-6-6.23-9.12-9.53L23.11,40.68c-.52.52-1,1.32-1.6,1.48-.94.24-2.36.41-2.89-.1a2.84,2.84,0,0,1-.16-2.83c4.84-5.06,9.82-10,14.82-14.9,1.28-1.26,2.51-.58,3.6.52q3.79,3.82,7.63,7.62c.64.64,1.32,1.24,1.84,1.73Z"/></g></g></svg>