<svg xmlns="http://www.w3.org/2000/svg" viewBox="0 0 85.23 88.1"><defs><style>.cls-1{fill:#90b20a;}</style></defs><g id="Capa_2" data-name="Capa 2"><g id="Capa_1-2" data-name="Capa 1"><path class="cls-1" d="M82.22,35.22H59.47c-1,0-2.11,0-2.15-1.37s1-1.53,2.16-1.53H82.19c0-2.57.08-5,0-7.45-.07-1.42-1.28-1.39-2.34-1.39H62.63c-1.44,0-2.87,0-4.3,0-1.06,0-2-.37-1.81-1.49a2.29,2.29,0,0,1,1.74-1.34q11.35-.13,22.7,0a4.16,4.16,0,0,1,4.15,3.65,11.69,11.69,0,0,1,.11,2.05q0,27.95,0,55.89c0,4.4-1.48,5.89-5.85,5.89H5.77C1.52,88.1,0,86.57,0,82.3V26.4c0-4.33,1.46-5.82,5.73-5.82H25.85c.52,0,1.13-.15,1.52.07a7.07,7.07,0,0,1,1.42,1.42,9,9,0,0,1-1.49,1.35c-.34.2-.89,0-1.35,0H5.66c-2.38,0-2.65.27-2.65,2.68,0,2,0,4,0,6.16H26c1,0,1.9.24,1.9,1.45S27,35.22,26,35.22H3v2.06Q3,59.8,3,82.33c0,2.62.18,2.81,2.85,2.81h73.6c2.55,0,2.76-.21,2.76-2.73V35.22Z"/><path class="cls-1" d="M51.38,54.56c-1.25,1.49-.76,4-3.33,4.33.56,1.16,1.11,2.21,1.58,3.29.64,1.46.1,2.41-1.49,2.44q-5.49.09-11,0c-1.68,0-2.2-1-1.5-2.54.45-1,1-2,1.2-2.47l-3.11-5-6.61,4.45c-2.53,1.71-2.95,1.58-4.07-1.21a55.76,55.76,0,0,1-2-5.28A3.52,3.52,0,0,1,21.35,50c2.46-3.59,5.12-7,7.59-10.63a4.51,4.51,0,0,0,.69-2.8C28.4,23.09,32.09,11.26,41,1.1c1.31-1.49,2-1.47,3.32.1,7.53,8.7,11.56,18.72,11.45,30.31a16.27,16.27,0,0,1-.15,3.77c-.58,2.29.38,3.91,1.69,5.6,2.22,2.85,4.22,5.86,6.42,8.72a3,3,0,0,1,.39,3.46c-.85,1.81-1.49,3.72-2.26,5.57s-1.45,2-3,.94C56.36,57.93,53.9,56.25,51.38,54.56ZM42.61,3.76A42.11,42.11,0,0,0,33,24c-1.86,10.77.62,20.93,4.42,30.89a1.62,1.62,0,0,0,1.21.82q4,.12,8.08,0a1.62,1.62,0,0,0,1.18-.87c3.54-9.29,6-18.78,4.7-28.85A41.9,41.9,0,0,0,42.61,3.76ZM30.43,42.4c-2.19,3-4.25,5.81-6.27,8.64A1.36,1.36,0,0,0,24,52.11c.51,1.43,1.11,2.83,1.73,4.36L33,51.59Zm29.1,14.08c.62-1.53,1.18-2.78,1.61-4.07A1.76,1.76,0,0,0,61,51c-2-2.84-4.06-5.63-6.23-8.61-.87,3.18-1.68,6.12-2.52,9.18Zm-13.65,5.1c-1.07-3-1.09-2.95-4.28-2.82-1.87.07-1.61,1.7-2.37,2.82Z"/><path class="cls-1" d="M38.15,71.22a7.86,7.86,0,0,1-.06,2.38,1.91,1.91,0,0,1-1.36,1.14,1.78,1.78,0,0,1-1.33-1.16,20.22,20.22,0,0,1,0-4.6,1.93,1.93,0,0,1,1.36-1.31c.48,0,1.16.78,1.36,1.35a6.7,6.7,0,0,1,.06,2.2Z"/><path class="cls-1" d="M49.87,71.29a9.35,9.35,0,0,1,0,2.37c-.14.47-.84,1.12-1.23,1.09s-1.39-.64-1.43-1.06a24,24,0,0,1,0-4.94c0-.44.89-1,1.41-1.1s1.12.62,1.24,1.09a10.82,10.82,0,0,1,0,2.55Z"/><path class="cls-1" d="M41.2,74.09a6.37,6.37,0,0,1,.06-2.19,2.19,2.19,0,0,1,1.43-1.27c.37-.06,1.22.73,1.27,1.2a19.57,19.57,0,0,1,0,4.59,1.88,1.88,0,0,1-1.4,1.25c-.48,0-1.12-.8-1.32-1.38a7,7,0,0,1-.05-2.2Z"/><path class="cls-1" d="M9.42,27.8c-.89.7-1.47,1.47-1.91,1.41s-1-.85-1.57-1.32c.47-.47.9-1.24,1.42-1.31S8.45,27.19,9.42,27.8Z"/><path class="cls-1" d="M13.26,25.87c.68.94,1.44,1.56,1.34,2-.14.57-.93,1-1.44,1.47-.44-.49-1.2-.95-1.24-1.47S12.58,26.8,13.26,25.87Z"/><path class="cls-1" d="M19,30c-.62-1-1.29-1.63-1.21-2.12s.91-1.28,1.37-1.25A1.91,1.91,0,0,1,20.47,28C20.51,28.46,19.76,29,19,30Z"/><path class="cls-1" d="M42.62,33.75a7.32,7.32,0,1,1,7.29-7.32A7.29,7.29,0,0,1,42.62,33.75Zm.24-11.69A4.37,4.37,0,1,0,47,26.67,4.42,4.42,0,0,0,42.86,22.06Z"/></g></g></svg>