<svg xmlns="http://www.w3.org/2000/svg" viewBox="0 0 78.8 87.74"><defs><style>.cls-1{fill:#90b20a;}</style></defs><g id="Capa_2" data-name="Capa 2"><g id="Capa_1-2" data-name="Capa 1"><path class="cls-1" d="M39.3,87.74H2.81c-2.44,0-2.89-.48-2.8-2.93a25.24,25.24,0,0,1,16.64-22.6c2.1-.74,4.2-1.48,6.33-2.1a3.82,3.82,0,0,0,2.22-1.88c1.73-2.67,2.48-5-.22-7.72-1.06-1-1.65-2.09-3.4-2.17-2.67-.13-4.44-2.32-4.43-5.16a3.15,3.15,0,0,0-1.3-2.64,6,6,0,0,1-2-3.71,107.76,107.76,0,0,1,.3-15C15.63,8.31,29.19-1.76,42.67.26,56,2.24,65,12.68,65.11,26.12c0,3.2,0,6.4,0,9.59,0,3.85-1.94,6-5.73,5.88-2,0-2.74.46-3,2.52a16.1,16.1,0,0,1-4.14,8.68,1.76,1.76,0,0,0-.32,2.08c1.2,3.82,3.85,5.62,7.64,6.52A24,24,0,0,1,74.94,72.54,25.87,25.87,0,0,1,78.79,85c.1,2.21-.43,2.73-2.65,2.74ZM55,29.31c-.75-.17-1-.26-1.3-.29A32,32,0,0,1,35.83,21.1a2.23,2.23,0,0,0-1.55-.38c-4.75.62-7.6,3.83-10,7.56a1.54,1.54,0,0,0-.13,1q.78,7.14,1.63,14.27a2.22,2.22,0,0,0,.57,1.36c.86.73,4.57-.21,5.42-.93a9.54,9.54,0,0,1,3.68-2.16,14.89,14.89,0,0,1,4.76,0,4.64,4.64,0,0,1,4,3.11c.76,1.85.27,3.48-.76,5.17C41.84,52.6,33.37,52.73,32,50c-1-1.91-2.42-1.59-4.24-1.33.46.66.77,1.19,1.16,1.65,3.56,4.23,8.13,5.88,13.47,4.66A13.11,13.11,0,0,0,52.68,44.61C53.81,39.64,54.22,34.5,55,29.31Zm-30.25,34c-14.5,3.26-20.25,11-21,20.95H36.32C31.76,77.45,27.23,71,24.72,63.27Zm50.55,21a22.84,22.84,0,0,0-5.56-13c-4-4.8-9.81-6.14-15.61-8-2.49,7.73-7.09,14.24-11.62,21ZM54.61,25.62c1.24-6.49-3.91-13.68-10.83-15a32.16,32.16,0,0,0-6.13-.34A13.83,13.83,0,0,0,24.52,20.47a16.24,16.24,0,0,0-.3,1.63c.21,0,.29,0,.32,0a8.3,8.3,0,0,0,.64-.54,15.9,15.9,0,0,1,8.94-4.32A4.26,4.26,0,0,1,38,18.35,27.21,27.21,0,0,0,54.61,25.62ZM20.49,23.91c0-.45.06-.83.11-1.21C21.54,15.5,25.26,10.3,32.16,8a28.27,28.27,0,0,1,8.92-1A17.14,17.14,0,0,1,57.79,20.28c.28,1.2.4,2.43.59,3.61h3.14A22.19,22.19,0,0,0,38.22,3.48C27.19,4,17.28,13.65,17.38,23.91Zm18.61,43-6,6.32,6.3,9.44,6.21-9.38Zm9.8-10.39L42,63.86l5.77,5.78c1-2.41,2.12-5,3.15-7.55a2.43,2.43,0,0,0,0-1.62C50.33,59.17,49.63,57.93,48.9,56.48ZM31.28,70.1l5.32-5.62-7.29-7.29c-.51,1.51-1.71,3.19-1.4,4.52C28.58,64.52,30,67.15,31.28,70.1Zm-14-42.6a2.5,2.5,0,0,0-.15.44c0,2.34,0,4.67,0,7,0,3.14,1,3.88,4.2,2.93L20.52,27.5Zm41,0c-.28,3.59-.54,7-.82,10.71.83,0,1.5,0,2.16,0,1.09,0,2-.44,2-1.63.06-3,0-6,0-9.07Zm-20.7,21v-.06c.57,0,1.24.19,1.68-.05a10.55,10.55,0,0,0,1.83-1.6c-.58-.56-1.09-1.46-1.77-1.62a8.09,8.09,0,0,0-3.53,0,2.16,2.16,0,0,0-1.38,1.53c0,.54.75,1.25,1.34,1.59A4.51,4.51,0,0,0,37.57,48.52Zm4.49,10.2H36.51l2.73,3ZM20.68,41.87c-.26,2.42,0,2.88,1.69,2.9C22.09,41.74,22.09,41.74,20.68,41.87Z"/><path class="cls-1" d="M70.36,78.51c-.31.32-.68,1-1.2,1.15a2.09,2.09,0,0,1-1.78-.5,56.37,56.37,0,0,1-4.29-5.22,2.21,2.21,0,0,1,0-2.09c.36-.43,1.75-.68,2-.38,1.8,1.91,3.43,4,5.09,6C70.31,77.66,70.27,77.94,70.36,78.51Z"/><path class="cls-1" d="M60.18,70c-.69.41-1.42,1.19-2.07,1.12S56.57,70,56.68,69.54A2.51,2.51,0,0,1,58.41,68c.53-.06,1.18.85,1.78,1.33Z"/></g></g></svg>