<svg xmlns="http://www.w3.org/2000/svg" viewBox="0 0 95.1 87.74"><defs><style>.cls-1{fill:#4e7eaf;}</style></defs><g id="Capa_2" data-name="Capa 2"><g id="Capa_1-2" data-name="Capa 1"><path class="cls-1" d="M14.3,82.34H11.44c-.08.54-.16,1-.24,1.49A4,4,0,0,1,7.42,87.3a49.24,49.24,0,0,1-5,0A2.28,2.28,0,0,1,0,84.8Q0,75,0,65.13a2.2,2.2,0,0,1,2.29-2.4,47.28,47.28,0,0,1,5.19,0c2.34.16,3.27,1.35,4,4.85h2.93c0-.9,0-1.75,0-2.59a7.14,7.14,0,0,1,7.11-7.08,3.42,3.42,0,0,0,2.13-1c2.08-2.29,4-4.7,6-7.05,2.65-3.09,6.65-3.57,9.55-1.18s3.23,6.55.59,9.74c-1.61,2-3.25,3.87-5.11,6.07.8.06,1.3.13,1.81.13,4.45,0,8.91,0,13.36,0a3.93,3.93,0,0,1,3.52,1.63,2.3,2.3,0,0,0,1.47.77,23.64,23.64,0,0,0,3.15,0c1.52,0,2.85.28,3.56,2,1.71-.55,3.34-1.06,5-1.63a1.88,1.88,0,0,0,.8-.66c2.59-3.45,5-7,7.8-10.32a6.08,6.08,0,0,1,9.16,8,2.43,2.43,0,0,1-2.11.75c-1.08-.5-.7-1.46-.13-2.34,1.24-2,1-3.78-.6-4.91s-3.41-.78-4.85,1c-2.15,2.7-4.27,5.42-6.44,8.19l4,5.67c1.14-1.44,2.17-2.73,3.19-4,.63-.81,1.48-1.45,2.29-.56a2.4,2.4,0,0,1-.1,2.2,41.65,41.65,0,0,1-3.17,4.11,3,3,0,0,1-3.35.88,5,5,0,0,0-2.4-.08c-2.08.57-4.11,1.32-6.17,2-1.42.46-2.91.67-3.28,2.65-.11.58-1.35,1.12-2.17,1.38a7.33,7.33,0,0,1-2.39,0c-1.67-.07-3.1-.14-4.13,1.8A5,5,0,0,1,49,85.11c-8.43.86-16.87,1.51-25.32,2.23-1.6.13-3.2.29-4.8.38-3.28.18-4.32-.81-4.43-4.14C14.39,83.23,14.34,82.87,14.3,82.34Zm2.84-7.93c0,3,0,6.06,0,9.09,0,1.25.41,1.57,1.64,1.47,9.79-.86,19.58-1.66,29.37-2.48,2-.17,2.83-.93,2.85-2.89,0-3.59,0-7.17,0-10.76,0-1.14-.45-1.49-1.54-1.48-3.09,0-6.21-.26-9.27.08-6,.67-11.21-.7-15.36-5.3,0,0-.1-.07-.14-.11a4.34,4.34,0,0,0-5-.87,4.51,4.51,0,0,0-2.59,4.54C17.16,68.6,17.14,71.51,17.14,74.41ZM2.88,84.5a22.07,22.07,0,0,0,4-.07c.61-.13,1.52-1,1.54-1.56q.17-7.86,0-15.73a2.18,2.18,0,0,0-1.33-1.59,25.92,25.92,0,0,0-4.24-.07ZM31.55,63.89c2.31-2.73,4.5-5.23,6.56-7.83a3.8,3.8,0,0,0-5.76-4.93c-2.31,2.55-4.48,5.22-6.8,8ZM53.92,78.66c1.42,0,2.7.06,4,0,.34,0,.93-.51.93-.8.08-2.61.05-5.23.05-7.83h-5Zm-39.64.78V70.67H11.39v8.77Zm56-7C68.74,69.7,68.74,69.7,66,70.6l-2.1.7c-2.61.87-2.65.94-1.94,3.91Z"/><path class="cls-1" d="M31.35,20.22c-.88-.75-2-1.57-2.92-2.53a2.45,2.45,0,0,1,0-3.78q2.89-3,5.91-5.91c1.31-1.26,2.59-1.22,3.94,0,.5.45,1,.94,1.44,1.44s.82.93,1.1,1.26l10-4.18c0-1.08,0-2.31,0-3.55,0-2,.91-2.91,3-2.94,2.65,0,5.32,0,8,0,2,0,2.77.9,2.86,2.85.16,3.79.18,3.73,3.67,5.06,2.06.8,4,1.81,6.42,2.89C75.53,10,76.38,8.9,77.35,8a2.46,2.46,0,0,1,3.78,0q3.08,3,6,6a2.41,2.41,0,0,1,0,3.64c-.94,1-2,1.84-2.79,2.55,1.29,3.39,2.42,6.43,3.66,9.43a1.78,1.78,0,0,0,1.44.71c6.44-.37,5.57,1.66,5.56,5.82,0,1.67,0,3.35,0,5,0,2.12-1,3.06-3.08,3.08q-5.94,0-11.88,0c-2.28,0-3-1-2.9-3.27.09-2.76.37-5.63-.24-8.26a19.65,19.65,0,0,0-29-12.6c-.21.12-.43.36-.64.35-.75,0-1.51-.17-2.26-.27.29-.71.36-1.75.89-2.08A20.94,20.94,0,0,1,59.4,14.74c13,1.24,21.71,11.55,20.85,24.63,0,.55-.06,1.11-.1,1.83H92.09V33.15c-1.38,0-2.78,0-4.18,0a2.36,2.36,0,0,1-2.42-1.85C84.27,28.15,83,25,81.63,21.93a2.4,2.4,0,0,1,.49-3.16l3-2.7L78.81,9.94c-.75.89-1.61,1.92-2.49,2.94-1,1.18-2.07,1.07-3.45.41a79.11,79.11,0,0,0-8.69-3.6c-1.62-.55-2.39-1.31-2.27-3,.09-1.22,0-2.44,0-3.78H53.62c0,1.45,0,2.86,0,4.26a2.34,2.34,0,0,1-1.85,2.41c-3.16,1.19-6.27,2.5-9.36,3.89-1.17.52-2.11.57-3-.39L36.49,10l-6,6.14c.88.81,1.85,1.74,2.84,2.63s1.1,2,.49,3.31c-1.38,3-2.62,6.09-3.79,9.19a2.43,2.43,0,0,1-2.56,1.93c-1.29,0-2.59,0-4,0v8.07H35.1c.18-2.85.18-5.74.59-8.56a19.63,19.63,0,0,1,4.2-9.18c.59-.75,1.25-1.56,2.3-.77s.59,1.6,0,2.41a19.71,19.71,0,0,0-3.92,15.54c.41,2.66-.42,3.55-3.06,3.56q-5.67,0-11.32,0c-2.48,0-3.38-.89-3.4-3.34s0-5,0-7.42c0-2.14.91-3,3.05-3.11,3.64-.17,3.58-.19,4.91-3.63C29.23,24.66,30.23,22.68,31.35,20.22Z"/><path class="cls-1" d="M50.82,28.31a11.28,11.28,0,0,1,.06-2.84c.16-.57.86-1,1.31-1.46.45.49,1.12.93,1.29,1.5a10.58,10.58,0,0,1,.05,2.66h2.88a11,11,0,0,1,.06-2.77c.15-.54.9-.92,1.38-1.38.42.45,1.09.85,1.21,1.37a13,13,0,0,1,.06,2.81H62a11,11,0,0,1,.06-2.69c.15-.57.83-1,1.28-1.5.46.48,1.16.89,1.33,1.46a10.31,10.31,0,0,1,.06,2.69c2.13,0,3.49.75,3.24,3.29a9.32,9.32,0,0,1,2.61.06c.62.2,1.07.91,1.59,1.39a6.14,6.14,0,0,1-1.68,1.3,8.55,8.55,0,0,1-2.44,0V37a11.9,11.9,0,0,1,2.69.18c.56.18,1,.88,1.43,1.34-.49.45-.91,1.14-1.48,1.3a10.35,10.35,0,0,1-2.63.06v2.85a10.44,10.44,0,0,1,2.64,0c.57.16,1,.85,1.47,1.3-.47.46-.88,1.16-1.44,1.32a10.37,10.37,0,0,1-2.7.06c.11,2.2-.79,3.42-3.29,3.26a9.25,9.25,0,0,1-.06,2.6c-.19.61-.9,1-1.38,1.57-.43-.5-1.08-.94-1.25-1.52a9.47,9.47,0,0,1,0-2.52H59.11a12.23,12.23,0,0,1,0,2.71c-.13.51-.91,1.31-1.2,1.24a2.24,2.24,0,0,1-1.39-1.3,10.16,10.16,0,0,1-.06-2.67H53.53a10.09,10.09,0,0,1-.05,2.59c-.16.56-.84,1-1.29,1.47-.45-.47-1.15-.87-1.31-1.43a10.19,10.19,0,0,1-.06-2.67c-2.22,0-3.47-.87-3.27-3.34a11.16,11.16,0,0,1-2.79-.06A2.19,2.19,0,0,1,43.48,44c-.07-.31.72-1.07,1.23-1.21a12,12,0,0,1,2.71-.05V39.82a10,10,0,0,1-2.68-.07,2.14,2.14,0,0,1-1.26-1.41c-.06-.32.74-1.07,1.25-1.2a11.41,11.41,0,0,1,2.7,0V34.25h-2c-1,0-2-.09-2-1.35s1.05-1.45,2.09-1.47c.61,0,1.22,0,2,0C47.49,29.31,48.27,28,50.82,28.31ZM65,31.17H50.55V45.65H65Z"/><path class="cls-1" d="M62.48,38.45c0,4.73,0,4.73-4.81,4.73-4.62,0-4.62,0-4.62-4.55,0-4.92,0-4.92,5-4.92C62.48,33.71,62.48,33.71,62.48,38.45Zm-6.62,1.79h3.76V36.63H55.86Z"/></g></g></svg>