<svg xmlns="http://www.w3.org/2000/svg" viewBox="0 0 90.97 91"><defs><style>.cls-1{fill:#4e7eaf;}</style></defs><g id="Capa_2" data-name="Capa 2"><g id="Capa_1-2" data-name="Capa 1"><path class="cls-1" d="M77,74.13c5.34-2.28,9.78-1.32,12.49,2.75A9.06,9.06,0,0,1,76.75,89.34c-4-2.75-4.86-7.12-2.59-12.4l-13.4-13.4A23.94,23.94,0,0,1,47.39,69c0,.49-.06.89-.12,1.28-.28,1.77.23,2.74,2.12,3.49A8.74,8.74,0,0,1,54.32,84,9.07,9.07,0,1,1,41.26,73.87c2.66-1.4,2.66-1.4,2.31-4.78a24.33,24.33,0,0,1-13.21-5.47L17,77.25a8.21,8.21,0,0,1,.45,8,12.46,12.46,0,0,1-4,4.52,8.68,8.68,0,0,1-11.23-2,9,9,0,0,1-.32-11.31c2.84-3.73,7.36-4.56,12-2.29L27.33,60.61a24.3,24.3,0,0,1-5.45-13.35,20.19,20.19,0,0,1-2.34,0c-1.12-.14-1.61.28-2,1.37A8.5,8.5,0,0,1,10,54.45a8.59,8.59,0,0,1-8.49-4.09,9,9,0,1,1,15.64-9.07C18.5,44,18.5,44,21.9,43.52a23.94,23.94,0,0,1,5.4-13.13L13.85,16.93C8.07,19,3.84,18,1.29,13.7A9.06,9.06,0,0,1,14.44,1.77c3.8,2.81,4.67,7.34,2.37,12.13L30.32,27.31a24.14,24.14,0,0,1,13.38-5.4,15.84,15.84,0,0,1,0-2.07c.18-1.3-.26-1.93-1.58-2.42a8.76,8.76,0,0,1-5.68-8.93,9.06,9.06,0,1,1,13.17,8.62C47,18.49,47,18.54,47.47,21.89a24.06,24.06,0,0,1,13.16,5.43L74.08,13.9C71.93,8.26,72.93,4,77.15,1.36a9.06,9.06,0,0,1,12.13,13C86.51,18.21,82,19.1,77.06,16.83L63.64,30.29a24.34,24.34,0,0,1,5.43,13.39,15,15,0,0,0,3.15-.06c.49-.11,1-.84,1.2-1.4a9.11,9.11,0,1,1,.49,7.51c-.41-.77-.56-2.06-1.14-2.27a10.56,10.56,0,0,0-3.42-.1,62.16,62.16,0,0,1-2.07,7.09,62.14,62.14,0,0,1-3.54,6.46ZM39.49,45.19c-3.94-4.92-4-9.92-.3-13.5a9,9,0,0,1,12.13-.42,8.79,8.79,0,0,1,3.11,5.6,9.4,9.4,0,0,1-3,8.24c2.67,1.68,5,3.67,5.75,6.63a81.57,81.57,0,0,1,1.4,8.7c5.87-4.22,8.5-13.65,5.87-21.37A20.08,20.08,0,0,0,26,40.51C24.15,48,27.17,57.21,32.8,60.63,32.27,54.27,33.41,48.68,39.49,45.19Zm15.16,14h0c0-.95,0-1.89,0-2.84a9.15,9.15,0,0,0-18.29,0c-.08,1.89,0,3.78-.05,5.67a1.78,1.78,0,0,0,1.34,2A20.09,20.09,0,0,0,51,64.73c3.67-1,3.66-1,3.66-4.86ZM50.94,38.42a5.45,5.45,0,1,0-5.59,5.26A5.45,5.45,0,0,0,50.94,38.42ZM51,9.11a5.46,5.46,0,1,0-5.59,5.45A5.46,5.46,0,0,0,51,9.11ZM9.28,40a5.45,5.45,0,1,0,5.28,5.56A5.44,5.44,0,0,0,9.28,40ZM81.65,50.92a5.45,5.45,0,1,0-5.24-5.61A5.45,5.45,0,0,0,81.65,50.92ZM50.94,81.8a5.46,5.46,0,1,0-5.46,5.57A5.45,5.45,0,0,0,50.94,81.8ZM14.56,9a5.49,5.49,0,1,0-5.48,5.54A5.52,5.52,0,0,0,14.56,9Zm72.83.12a5.49,5.49,0,1,0-5.6,5.42A5.53,5.53,0,0,0,87.39,9.14ZM14.57,81.9A5.49,5.49,0,1,0,9,87.37,5.52,5.52,0,0,0,14.57,81.9Zm72.82,0a5.49,5.49,0,1,0-5.55,5.47A5.53,5.53,0,0,0,87.39,81.9Z"/></g></g></svg>