<svg xmlns="http://www.w3.org/2000/svg" viewBox="0 0 88.95 88.97"><defs><style>.cls-1{fill:#90b20a;}</style></defs><g id="Capa_2" data-name="Capa 2"><g id="Capa_1-2" data-name="Capa 1"><path class="cls-1" d="M0,44.3Q0,27,0,9.74C0,3.67,3.66,0,9.72,0h34c6.63,0,11,5.35,9.57,11.89-.12.54-1,.93-1.44,1.39-.5-.53-1.26-1-1.41-1.61a16.86,16.86,0,0,1-.1-3.11,5.88,5.88,0,0,0-4.91-5.49A1.7,1.7,0,0,0,43.28,4.2C42.57,5.84,41.69,7.41,40.9,9a4.66,4.66,0,0,1-4.55,2.85q-9.64-.06-19.28,0A4.65,4.65,0,0,1,12.5,9.06C11.66,7.34,10.86,5.61,9.91,4a2.12,2.12,0,0,0-1.59-.87,5.62,5.62,0,0,0-5.2,4.76A16.28,16.28,0,0,0,3,10.27V78.69C3,83.88,5.07,86,10.23,86q16.41,0,32.82,0c4.81,0,6.33-1.27,7.41-5.93.13-.58,1-1,1.59-1.44.44.65,1.24,1.3,1.24,2a8.73,8.73,0,0,1-8.87,8.4c-7.64,0-15.28,0-22.92,0-4.11,0-8.22,0-12.33,0A8.87,8.87,0,0,1,0,79.72C0,67.91,0,56.1,0,44.3ZM12.85,3.08C13.76,4.9,14.44,6.5,15.36,8a2.5,2.5,0,0,0,1.85.92q9.46.11,18.92,0a2.36,2.36,0,0,0,1.78-.76c1-1.54,1.7-3.22,2.62-5Z"/><path class="cls-1" d="M88.94,45.92q0,10.06,0,20.14c0,5.83-3.68,9.56-9.54,9.57q-20.13,0-40.27,0c-5.82,0-9.47-3.77-9.51-9.63,0-2.49-.05-5,0-7.46a1.92,1.92,0,0,0-1.24-2c-4.56-2.38-9.08-4.83-13.62-7.24-1.4-.74-2.89-1.41-2.92-3.3s1.42-2.6,2.84-3.34c4.55-2.4,9.07-4.86,13.63-7.24a2,2,0,0,0,1.31-2.13c-.08-2.55-.05-5.1,0-7.64.08-5.62,3.82-9.33,9.43-9.33q20.22,0,40.44,0c5.73,0,9.44,3.72,9.45,9.45Q89,35.85,88.94,45.92ZM14.86,46c5.55,3,10.84,5.81,16.16,8.59a2.64,2.64,0,0,1,1.65,2.72c-.08,2.95,0,5.9,0,8.86,0,4.11,2.36,6.48,6.44,6.48q20.23,0,40.46,0c3.93,0,6.37-2.31,6.38-6.19q.06-20.49,0-41c0-3.73-2.35-6.12-6.09-6.13q-20.58-.09-41.16,0c-3.71,0-6,2.49-6,6.2,0,3.06,0,6.13,0,9.2a2.54,2.54,0,0,1-1.56,2.6c-3.79,2-7.55,4-11.33,6Z"/><path class="cls-1" d="M26.58,83c-3.64,0-7.29,0-10.93,0-1.14,0-2.25-.14-2.24-1.53S14.58,80,15.69,80h22c1.09,0,2.25.07,2.23,1.53S38.78,83,37.69,83Z"/><path class="cls-1" d="M66.84,59.34C66,64,63.48,66.48,59.78,66.71c-4,.24-6.52-2-8.13-7.37H43.91c-3.3,0-4.48-1.69-3.44-4.83.92-2.74,2-5.44,2.73-8.23a32.11,32.11,0,0,0,1.23-6.77,14.86,14.86,0,0,1,29.68-.25,37.16,37.16,0,0,0,1.36,7.29c.77,2.84,1.86,5.59,2.77,8.39.85,2.6-.4,4.34-3.15,4.39S69.66,59.34,66.84,59.34Zm8.68-3.09c-.26-.81-.46-1.46-.67-2.1C73.25,49,71.33,44.09,70.94,38.6c-.45-6.34-6-10.66-12.16-10.42s-10.72,5-11.37,11.43a67.38,67.38,0,0,1-2.1,9.76c-.6,2.31-1.48,4.54-2.25,6.88ZM54.94,59.42c.37,3,2.34,4.57,5,4.24a3.83,3.83,0,0,0,3.51-4.24Z"/></g></g></svg>