<svg xmlns="http://www.w3.org/2000/svg" viewBox="0 0 406.68 141.91"><defs><style>.cls-1{fill:#fff;}</style></defs><g id="Capa_2" data-name="Capa 2"><g id="Capa_1-2" data-name="Capa 1"><g id="jivSiH"><path class="cls-1" d="M348.09,88c-1.14.86-2.44,1.84-3.75,2.81A176.12,176.12,0,0,1,326,102.93a2.6,2.6,0,0,0-.84.93c-3.39,5.65-6.64,11.39-10.18,16.94a58.3,58.3,0,0,1-12.54,14.36,27.71,27.71,0,0,1-13.94,6.37,19.74,19.74,0,0,1-7-.23c-4.95-1.09-9.83-5.55-7.85-13,1.22-4.6,4-8.13,7.44-11.23A56.81,56.81,0,0,1,294.93,108c5.74-2.75,11.58-5.31,17.36-8a3.77,3.77,0,0,0,1.56-1.31c.93-1.51,1.72-3.11,2.56-4.68l-.2-.19-1.15.79a20.56,20.56,0,0,1-11.07,4c-4.51.18-8.34-1-11-5-.77.61-1.5,1.21-2.26,1.78a93.6,93.6,0,0,1-19.74,11,3.3,3.3,0,0,0-1.71,1.54,131.7,131.7,0,0,1-13.51,20.6c-3.72,4.46-7.87,8.44-13.22,10.92a25.29,25.29,0,0,1-16,2.1c-4.58-.93-7.73-4.06-8.34-8.21a14.28,14.28,0,0,1,1.63-8.49,30.85,30.85,0,0,1,9.63-10.92,69.8,69.8,0,0,1,16.11-8.57c4-1.62,8.14-3,12.21-4.49a2.47,2.47,0,0,0,.93-.55A23.4,23.4,0,0,0,262.93,93c-.25.2-.49.41-.74.6a27.16,27.16,0,0,1-11.83,5.78c-6.59,1.3-15.19-3.66-13.29-13.42,1-5,3.49-9.31,6.52-13.33a43.71,43.71,0,0,1,7.46-7.69,1.16,1.16,0,0,0-.37-.11,19.11,19.11,0,0,1-9-1.2c-2.18-.8-2.79-.42-3.45,1.85A76.81,76.81,0,0,1,226,90.63a35.2,35.2,0,0,1-10.88,9.87,19.66,19.66,0,0,1-12.78,2.69,11.63,11.63,0,0,1-9.77-8.36c0-.11-.1-.21-.45-.57a5.34,5.34,0,0,1-.64,1c-3.44,3.43-7.23,6.34-11.95,7.8a16.54,16.54,0,0,1-9.21.52c-6.06-1.6-9.54-5.78-11.23-11.64,0-.14-.07-.28-.14-.57-.34.23-.61.4-.86.6A63.25,63.25,0,0,1,145,100.14c-5.62,2.47-11.37,3.21-17.26,1.07A15.72,15.72,0,0,1,118.45,93c0-.1-.12-.2-.18-.3-1.66,1.25-3.28,2.54-5,3.72a36.92,36.92,0,0,1-16.17,6.64c-5.74.8-11.28.29-16.27-2.94a34.88,34.88,0,0,1-3.25-2.85,1.17,1.17,0,0,0-.89-.23c-1.84.36-3.66.81-5.5,1.17a5.45,5.45,0,0,1-1.56,0A3.78,3.78,0,0,1,66.94,92a8,8,0,0,1,2.53-2.1,39.31,39.31,0,0,1,4.56-2c.47-.19.66-.38.64-.92-.5-9.53,2.73-17.78,8.75-25A36.3,36.3,0,0,1,99.48,50.51a16,16,0,0,1,8.44-1,9.29,9.29,0,0,1,7.48,8.83c.36,5.94-1.75,11-5.3,15.65-3.84,5-8.75,8.72-14,12-.78.49-1.57,1-2.46,1.5a6.91,6.91,0,0,0,5.8,2.78,22.12,22.12,0,0,0,12.09-4.06c1.65-1.12,3.2-2.41,4.76-3.66a1.73,1.73,0,0,0,.59-1,91.33,91.33,0,0,1,8.38-27.24,93.59,93.59,0,0,1,20.17-28.29c4.88-4.58,10.16-8.6,16.46-11.08a17.58,17.58,0,0,1,9.39-1.4,5.56,5.56,0,0,1,5,5.76,24.65,24.65,0,0,1-2.12,9.68,92.15,92.15,0,0,1-10,18.16,200.42,200.42,0,0,1-27.57,32.64,1.78,1.78,0,0,0-.48,1.19c.13,3.46,2.67,5.81,6.38,6a14.07,14.07,0,0,0,8.69-2.32c2.48-1.66,4.83-3.52,7.2-5.32a1.68,1.68,0,0,0,.51-.93A115.72,115.72,0,0,1,183.5,27.62a112.16,112.16,0,0,1,17.56-17.56c3.47-2.68,7.12-5.1,11.42-6.27a15.78,15.78,0,0,1,3.74-.54c4-.08,6.49,2.29,6.7,6.3a30.92,30.92,0,0,1-2,11.58,82.42,82.42,0,0,1-10.59,20.13C201,54.84,189.86,66.83,177.77,78a1.84,1.84,0,0,0-.77,1.73,24,24,0,0,0,.73,4.34,6.59,6.59,0,0,0,9.41,3.8,26,26,0,0,0,3.78-2.61,1.42,1.42,0,0,0,.45-.86c1-7,4.13-13,8.41-18.54a41.18,41.18,0,0,1,15.3-12.68A16.72,16.72,0,0,1,224,51.38a5.52,5.52,0,0,1,2.16.72,3.18,3.18,0,0,1,.63,5.06,9.34,9.34,0,0,1-1.88,1.49,26.23,26.23,0,0,0-7,6.32,53.79,53.79,0,0,0-8,12.27,15,15,0,0,0-1.48,6.7c.11,2.82,2,3.81,4.57,3.38a6.92,6.92,0,0,0,3.65-2.24,31.61,31.61,0,0,0,5.5-7.73,59.79,59.79,0,0,0,6-16.3c1-4.62,6.19-9.92,12.92-6.82,7.15,3.29,14.21,2.94,21.29-.15l7.18-3.15a9.39,9.39,0,0,1,6.47-.82,6.06,6.06,0,0,1,2.5,1.45c1.92,1.94,1.42,4.46-.89,5.88a70.19,70.19,0,0,0-7.36,4.9,43.38,43.38,0,0,0-12.11,14.75,18.21,18.21,0,0,0-1.46,4.44c-.47,2.41,1,3.75,3.35,3.35a11.43,11.43,0,0,0,5.14-2.6,29,29,0,0,0,7.56-9.68c2-3.9,4.17-7.76,6.52-11.47a18.17,18.17,0,0,1,8.14-7.44,14.9,14.9,0,0,1,4.44-1.14c2.55-.19,4.17,1.43,4.34,4a17.61,17.61,0,0,1-1.57,7.63A84.72,84.72,0,0,1,285.29,81c-3,4.41-6.11,8.74-9.17,13.11a2.33,2.33,0,0,0-.47,1c1.25-.63,2.53-1.22,3.76-1.89a53.87,53.87,0,0,0,12-8.87,2.11,2.11,0,0,0,.59-.9,33,33,0,0,1,6.21-12.17,61.11,61.11,0,0,1,24.4-19.27,29.16,29.16,0,0,1,11.9-2.69,9.1,9.1,0,0,1,3.24.57,3.14,3.14,0,0,1,1.42,5,6.93,6.93,0,0,1-3.43,2.39,57.81,57.81,0,0,0-14.09,8A37.57,37.57,0,0,0,311.21,77a11.14,11.14,0,0,0-1.52,5,2.64,2.64,0,0,0,2.85,3,8.8,8.8,0,0,0,5.69-2.11A25.18,25.18,0,0,0,323.64,77c2.44-3.59,4.75-7.27,7.2-10.86a42.6,42.6,0,0,1,3.58-4.57A11.18,11.18,0,0,1,341.16,58c3.32-.5,5.53,1.46,5.22,4.81a16.58,16.58,0,0,1-1.27,4.88c-2.07,4.9-5,9.31-7.88,13.77-1.59,2.46-3.21,4.89-4.82,7.34a1.58,1.58,0,0,0-.31.89c1.75-1.24,3.52-2.44,5.24-3.71a259.6,259.6,0,0,0,21.52-18.36A213.7,213.7,0,0,1,377.34,52a26,26,0,0,1,9-4.55,12.32,12.32,0,0,1,7.09.41c3.47,1.19,4.57,4.29,4.12,7.38a2.86,2.86,0,0,1-1.89,2.35,13.62,13.62,0,0,1-2.77.65c-.94.14-1.9.1-2.86.17a4.37,4.37,0,0,0-4.29,3.86c-.48,2.44,0,4.85.28,7.26.66,6.49.64,12.93-1.55,19.18-2.92,8.35-8.82,13-17.59,14.14a21,21,0,0,1-10.83-1c-4.27-1.75-7.24-4.69-7.94-9.41A30.54,30.54,0,0,1,348.09,88ZM179,64.47a2.54,2.54,0,0,0,.29-.13c.27-.26.54-.51.79-.78a160.45,160.45,0,0,0,23.23-31.3,32.93,32.93,0,0,0,3.74-8.5c.17-.71.5-1.68-.25-2a2.35,2.35,0,0,0-1.94.62,49,49,0,0,0-4.92,4.85,119.46,119.46,0,0,0-20.37,35.54C179.35,63.29,179.19,63.84,179,64.47ZM136.2,67.68l.32.2c.35-.39.67-.8,1-1.17A120.21,120.21,0,0,0,152,48.16a77,77,0,0,0,7.65-14.4,11.21,11.21,0,0,0,.61-2.41c.15-1.08-.4-1.57-1.41-1.23a5.91,5.91,0,0,0-2.24,1.23,47.91,47.91,0,0,0-4.73,5,98.85,98.85,0,0,0-12.47,22.77C138.3,62,137.28,64.84,136.2,67.68ZM356,82.22c.62,0,1.27,0,1.91,0a4,4,0,0,1,4,4.07c0,.49.07,1,.14,1.47a2,2,0,0,0,2.54,2,6,6,0,0,0,4.46-2.51A27.47,27.47,0,0,0,372,82a50.6,50.6,0,0,0,3-13.19c.17-1.36.29-2.72.43-4.08l-.24-.12Zm-103,29.2-.21-.26c-.4.15-.81.27-1.18.45-3.28,1.64-6.6,3.19-9.8,5a28.77,28.77,0,0,0-7.28,5.63,8.86,8.86,0,0,0-2.44,4.28c-.37,1.88.67,2.91,2.46,2.24a17.86,17.86,0,0,0,4-2.18,50.74,50.74,0,0,0,8.73-8.22C249.24,116.08,251.08,113.72,253,111.42Zm54.1,0-.24-.22a50.1,50.1,0,0,0-11.12,6.26,30.88,30.88,0,0,0-6.6,6.16,7.59,7.59,0,0,0-1.7,3.73c-.16,1.59.67,2.35,2.17,1.77a14.54,14.54,0,0,0,3.44-1.92,52.73,52.73,0,0,0,9.38-9.5C304,115.61,305.52,113.47,307.07,111.37ZM90.39,79l.37.11a3.18,3.18,0,0,0,.32-.16c.76-.47,1.54-.9,2.28-1.41a28,28,0,0,0,9.75-10.64,11.51,11.51,0,0,0,1-4c.12-1.4-.91-2.07-2.27-1.68a6.72,6.72,0,0,0-1.91.91,21.74,21.74,0,0,0-8,10.89C91.22,75,90.89,77,90.39,79Z"/><path class="cls-1" d="M47.81,63.15c-2.68,5-5.22,9.91-8,14.73-3.94,7-7.91,13.92-12.07,20.75a31.72,31.72,0,0,1-9.41,10.19,13.32,13.32,0,0,1-10.61,2.32A9.72,9.72,0,0,1,0,101a14.87,14.87,0,0,1,4.08-9.58c2.59-2.92,5.34-5.72,8.19-8.4A250.62,250.62,0,0,0,30,65.19,99.68,99.68,0,0,0,41.43,50.08,28.64,28.64,0,0,0,43.3,46c.29-.75.56-1.83-.27-2.27a2.69,2.69,0,0,0-2.1.42,35.71,35.71,0,0,0-9.58,8.72c-2.74,3.53-5.54,7-8.43,10.42a26.22,26.22,0,0,1-7.73,6.39,9.63,9.63,0,0,1-6,1.24,7.5,7.5,0,0,1-6.36-7.21,12.54,12.54,0,0,1,3.23-9,44,44,0,0,1,10-8.15c6.74-4.35,13.9-7.94,21-11.7A253.14,253.14,0,0,0,60.82,20.41,14.6,14.6,0,0,1,67,17.64a8.46,8.46,0,0,1,2.75,0,3.08,3.08,0,0,1,2.6,4.18,12.91,12.91,0,0,1-1.81,3.71c-6.73,9.4-12.68,19.3-18.8,29.09a6.85,6.85,0,0,0-.31.65,19,19,0,0,0,7.84-2.21,47,47,0,0,0,8.88-6.76c8.15-7.39,15-15.9,21.51-24.72,3.1-4.22,6.06-8.55,9.17-12.76A22.94,22.94,0,0,1,108.37,1a13.2,13.2,0,0,1,4.09-1c4.11-.29,7.73,3,8.29,7.34a16,16,0,0,1-4,12.93,138.74,138.74,0,0,1-10.64,10.78A196.54,196.54,0,0,1,76.22,54.2c-3.92,2.42-8,4.5-12.11,6.75.17.21.5.6.8,1C67.3,65.21,68,69,68.1,72.86c.11,4.28-.95,8.35-2,12.45q-2,7.88-3.73,15.81a18,18,0,0,0,.28,9.41,10.74,10.74,0,0,0,1.3,2.63,4,4,0,0,0,3,1.78c1.35.15,1.78.87,1.26,2.15a6.81,6.81,0,0,1-3,3.32,14.31,14.31,0,0,1-10.51,1.76c-5.52-1.21-9.86-4.1-12.21-9.45-1.35-3.06-1.32-6.29-1.09-9.54.51-7.33,3.08-14.08,5.7-20.84,1.28-3.32,2.35-6.73,3.33-10.16a10.14,10.14,0,0,0-.05-5.75A5.28,5.28,0,0,0,47.81,63.15Z"/><path class="cls-1" d="M364.51,26.51c5.31.14,8.81,4.41,8,9.73-.82,5.63-4.06,9.66-8.51,12.87a16.52,16.52,0,0,1-7.17,3.23,4.38,4.38,0,0,1-1.2,0A1.88,1.88,0,0,1,354,49.66a4.85,4.85,0,0,1,.55-1.06c.3-.43.65-.82,1-1.22,2.18-2.59,2.23-3.54,0-6-2.41-2.65-3.26-5.2-.56-9.36a11.46,11.46,0,0,1,5.27-4.49,38.29,38.29,0,0,1,4.21-1.23Z"/><path class="cls-1" d="M406.68,49.05a3.89,3.89,0,0,1-7.77.1,3.89,3.89,0,1,1,7.77-.1Zm-3.84-2.9a2.92,2.92,0,1,0,2.9,2.87A2.73,2.73,0,0,0,402.84,46.15Z"/><path class="cls-1" d="M401.31,47c1.07.18,2.22-.42,2.83.66.22.4-.13,1.12-.21,1.69l-.56.25,1.12,1c-.25.48-.71.49-1.19-.2-.25-.36-.49-.73-.74-1.1l-.27.13-.09,1.4c-.54.16-.89.09-.89-.58C401.32,49.3,401.31,48.25,401.31,47Zm1,.5v1.18l.21.2.92-.7Z"/></g></g></g></svg>