<svg xmlns="http://www.w3.org/2000/svg" viewBox="0 0 69.6 70.77"><defs><style>.cls-1{fill:#4e7eaf;}</style></defs><g id="Capa_2" data-name="Capa 2"><g id="Capa_1-2" data-name="Capa 1"><path class="cls-1" d="M33.05,44.76V68.39c0,.37.12.81,0,1.09a7.83,7.83,0,0,1-1.1,1.29C31.58,70.35,31,70,31,69.5a25.89,25.89,0,0,1,0-3.3,27.79,27.79,0,0,1-3-.32,5.69,5.69,0,0,1-4.49-5.43c0-.83-.05-1.66,0-2.49.07-1.43.08-2.65-1.45-3.61a3.75,3.75,0,0,1-1.14-2.91c.11-1.93-.61-3-2.18-4.1A22.17,22.17,0,0,1,10.23,24c.07-.27.16-.54.23-.8.2-.76.64-1.4,1.44-1a1.71,1.71,0,0,1,.53,1.53,20.86,20.86,0,0,0,.1,11.46,19.66,19.66,0,0,0,9,11.6,2.3,2.3,0,0,1,1.35,2.29c-.14,4.47-.12,4.36,4.27,4.3h3.64V9.13a19.54,19.54,0,0,0-12.19,5,36.17,36.17,0,0,0-3.39,3.81c-.47.55-.86,1.21-1.68.7s-.53-1.24-.07-1.9a22.12,22.12,0,0,1,16-9.59L30.92,7c0-1.4,0-2.73,0-4.06,0-.78.17-1.45,1.07-1.45s1.07.71,1.07,1.47V17.84l.27.1c.3-.68.61-1.34.9-2,.93-2.11,1.86-4.21,2.77-6.32a1.27,1.27,0,0,1,2-.78c1.41.66,2.85,1.26,4.32,1.9.67-.66.55-1.21,0-1.88-1.9-2.37-1.89-2,.23-4.38,1.63-1.8,1.64-1.79,3.73-.5,1.68,1,2.54.6,2.79-1.4C50.31.25,50.31.25,52.6.08l.41,0c2.69-.16,2.66-.15,3.33,2.4a2.87,2.87,0,0,0,.9,1.37c.67.56,1.24.09,1.82-.36,2.08-1.61,2.09-1.6,4.06.17l.51.46C65.1,5.43,65.1,5.46,64,7.2a9.14,9.14,0,0,0-.58.94,1.42,1.42,0,0,0,1,2.06,17.51,17.51,0,0,0,1.91.25,1.25,1.25,0,0,1,1.28,1.34l0,.83c.1,3.12.1,3.12-2.87,4a1.47,1.47,0,0,0-.8,2.25c1.78,2.6,1.78,2.6-.35,4.91-1.36,1.48-1.38,1.51-3.09.4-1-.63-1.89-1.19-2.77-.3a16.85,16.85,0,0,1,.33,4,17.21,17.21,0,0,1-1.59,3.81c.57,0,1,.08,1.43.09,3.32,0,6.64,0,10,0,1.18,0,1.66.48,1.66,1.65,0,5.58,0,11.15,0,16.73a2.65,2.65,0,0,1-.66,1.58,48.11,48.11,0,0,1-3.6,3.82,3.26,3.26,0,0,1-1.91.79c-2.34.09-4.69,0-7.23,0,1.58.65,2.49,3.58,1.56,4.82a2.62,2.62,0,0,1-1.56.7c-1.89.38-2,.74-1,2.33.36.56.79,1.59.55,1.92a11.22,11.22,0,0,1-2.83,2.53c-.26.17-1.1-.47-1.64-.81-1.23-.79-1.73-.56-2.08.84-.18.7-.53,1.85-1,1.92a10.53,10.53,0,0,1-3.79-.15c-.33-.06-.54-1.07-.67-1.68-.36-1.61-.81-1.77-2.23-.9-.58.36-1.6.83-1.92.59A10.45,10.45,0,0,1,37,65.72c-.19-.31.46-1.2.81-1.77.73-1.17.5-1.69-.84-2-.72-.18-1.88-.47-2-.89a10.5,10.5,0,0,1,0-3.79c.06-.33,1.05-.58,1.65-.72,1.68-.38,1.85-.78,1-2.19-.35-.58-.88-1.58-.65-1.9a9.18,9.18,0,0,1,2.75-2.59c.36-.22,1.34.53,2,.91.91.53,1.72.25,1.78-.72a1,1,0,0,0-.44-.83C39.85,47.73,36.57,46.3,33.05,44.76ZM38.76,11a4.41,4.41,0,0,0-.34.53c-1.7,3.88-3.4,7.75-5.08,11.64a3.88,3.88,0,0,0-.28,1.47c0,5.57,0,11.15,0,16.72a1.4,1.4,0,0,0,1,1.52c3.34,1.42,6.66,2.91,10,4.36a10.39,10.39,0,0,0,1.16.36,63.3,63.3,0,0,0,0-6.48,8,8,0,0,1,2.76-7c1.58-1.55,3-2.69,5.33-2.34a1.42,1.42,0,0,0,1.17-.58c.62-1.17,1.1-2.41,1.66-3.7l-5.38-2.37c-1.89-.83-2-1-1.16-2.88s1.57-3.58,2.37-5.43ZM65.19,52.46a4.6,4.6,0,0,0,2.31-4.4c-.17-3.67,0-7.36-.06-11.05,0-.37,0-.75-.09-1.16a4.29,4.29,0,0,0-2.18,4.51,13.58,13.58,0,0,1,0,3.31,1.55,1.55,0,0,1-1.06.94c-.28,0-.78-.52-1-.91a3.65,3.65,0,0,1-.06-1.37v-3.6H47.29c0,2.78,0,5.44,0,8.11,0,.26.18.72.35.75,1.21.25,1.19,1.25,1.38,2.13.33,1.57.79,1.74,2.14.89.56-.35,1.46-.93,1.78-.73a10.8,10.8,0,0,1,2.68,2.5c.27.35-.08,1.17-.15,1.8h7.56V49.56c0-.76.23-1.53,1.11-1.35.41.08.89.81,1,1.32A17.46,17.46,0,0,1,65.19,52.46ZM52.28,2.23c-.42,1.6-.2,3.11-2.2,4.11s-3.14-.38-4.6-.9L44.33,6.73c.23.32.37.56.55.76.93,1,1.76,2.06.75,3.53-.1.14.2.73.45.9a11.16,11.16,0,0,0,1.58.7C49.53,9,51.4,7.71,54.47,8a5.92,5.92,0,0,1,5.11,4.42c.75,3.42-.74,5.79-3.78,7.32l.94,2.3c1.34-.64,2.56-1.6,3.94-.26,1.07,1,1.84.57,2.38-.68-.81-1.31-2.1-2.21-1.29-4.35s2.37-1.95,3.88-2.54l-.11-1.68c-1.51-.46-3.09-.13-4.09-2.14s.24-3.13.9-4.59L61.06,4.63c-1.4.79-2.28,2.1-4.42,1.39s-2-2.41-2.62-3.79ZM46.54,49.62c-.32.33-.83.61-.93,1-.6,2.5-2.62,3.33-4.89,2-.35-.21-.92,0-1.6,0,.28.52.36.69.46.84,1.54,2.36.81,4.3-1.87,5.07-.3.09-.52.48-.78.73.32.25.6.65,1,.73a3,3,0,0,1,2,4.72c-.17.26-.33.53-.77,1.24.84,0,1.39.1,1.74-.11,2.19-1.28,4.25-.47,4.83,1.92.09.36.49.64.75,1,.26-.31.67-.58.76-.93A2.94,2.94,0,0,1,52,65.87c.22.15.45.28.65.4.84-.4.8-.86.33-1.55a2.89,2.89,0,0,1,1.93-4.67c1-.16,1.13-.57.78-1.35-1.17-.36-2.41-.21-3-1.82-.47-1.33-.55-2.3.36-3.39.18-.22-.1-.83-.19-1.36C49.35,54.1,47.7,53.42,46.54,49.62ZM30.83,63.8V55.57H25.55c0,1.36,0,2.64,0,3.91C25.57,62.91,27.29,64.33,30.83,63.8ZM48.94,36.47c4.39,0,8.59-.15,12.76.06,2.08.1,3-1,4.16-2.52-.66,0-1.1-.07-1.54-.07-3.69,0-7.38.15-11,0C51.19,33.77,50,34.71,48.94,36.47Zm6.45-19a3.74,3.74,0,0,0,2.2-4.37A4,4,0,0,0,53.67,10a3.88,3.88,0,0,0-3.79,3.58A17.58,17.58,0,0,1,52.94,15,19.64,19.64,0,0,1,55.39,17.47ZM53.26,19l-1.8,4.11,4.11,1.79Z"/><path class="cls-1" d="M3.61,28.49a10,10,0,0,1,2.19,0c.47.11.85.61,1.27.94-.38.38-.74,1-1.14,1.08a32,32,0,0,1-4.8,0c-.4,0-.76-.71-1.13-1.09.38-.32.72-.85,1.14-.93A13.55,13.55,0,0,1,3.61,28.49Z"/><path class="cls-1" d="M15,47.92a5.37,5.37,0,0,1-.61,1A42,42,0,0,1,11.26,52c-.36.3-1.08.17-1.64.23.06-.56-.08-1.28.22-1.64a34,34,0,0,1,3.22-3.24,1.66,1.66,0,0,1,1.23-.24C14.56,47.16,14.75,47.6,15,47.92Z"/><path class="cls-1" d="M14.62,11c-.15.23-.29.67-.55.78a1.3,1.3,0,0,1-1.13,0C11.65,10.56,10.41,9.33,9.23,8a1.27,1.27,0,0,1,0-1.21c.2-.26,1-.46,1.15-.3,1.39,1.27,2.7,2.63,4,4C14.53,10.58,14.53,10.75,14.62,11Z"/><path class="cls-1" d="M51.1,59.29a4.72,4.72,0,1,1-4.68-4.8A4.78,4.78,0,0,1,51.1,59.29Zm-4.74,2.6A2.62,2.62,0,0,0,49,59.26a2.63,2.63,0,0,0-5.26,0A2.75,2.75,0,0,0,46.36,61.89Z"/></g></g></svg>