<svg xmlns="http://www.w3.org/2000/svg" viewBox="0 0 52.66 61.23"><defs><style>.cls-1{fill:#4e7eaf;}</style></defs><g id="Capa_2" data-name="Capa 2"><g id="Capa_1-2" data-name="Capa 1"><path class="cls-1" d="M15.77,48.38h-2V42.7a3.27,3.27,0,0,0,0-1c-.08-.25-.35-.44-.53-.66-.14.23-.38.44-.39.67-.05,1,0,2,0,3v3.65h-2c0-1,.06-2.05,0-3.07A17.77,17.77,0,0,0,10.35,43c-1,.58-.39,1.53-.48,2.3a25.16,25.16,0,0,0,0,3h-2c0-.89,0-1.75,0-2.6,0-.26-.3-.49-.46-.74-.17.24-.47.47-.47.71,0,2.72-.15,5.45.07,8.15a4.57,4.57,0,0,0,1.58,2.92,3.06,3.06,0,0,1,1.31,3,12.77,12.77,0,0,0,0,1.39H8s-.14-.11-.13-.17a3.68,3.68,0,0,0-1.37-3.42,5.43,5.43,0,0,1-1.65-4.25V46.45c-1.23,0-2.37,0-3.51,0-1.33,0-1.67-.57-1.15-1.82l.16-.33c1.16-2.64,2.78-5.18,3.35-7.94s.17-5.9.17-8.87c0-5.69,0-11.38,0-17.06,0-1.08.35-1.58,1.5-1.58,9.51,0,19,0,28.53,0,.16,0,.32,0,.55.05V10.8H6V35.48H43.38V26.74h2c0,2.64-.06,5.26,0,7.88a9.73,9.73,0,0,0,.67,3.2c.91,2.29,2,4.51,3,6.78.57,1.29.2,1.83-1.24,1.84-1.07,0-2.14,0-3.4,0V49.4c0,1.36,0,2.72,0,4.08a5.47,5.47,0,0,1-1.54,4.05c-1.08,1-1.8,2.07-1.37,3.68h-2a22.14,22.14,0,0,1,0-2.83,2,2,0,0,1,.81-1.12,4.78,4.78,0,0,0,2.12-4.1c0-2.39,0-4.78,0-7.17,0-.33-.29-.65-.45-1a3,3,0,0,0-.48,1,23.55,23.55,0,0,0,0,2.39h-2c0-1.4,0-2.82,0-4.24A3.14,3.14,0,0,0,39,43a3.4,3.4,0,0,0-.46,1.11c-.06,1.39,0,2.78,0,4.23h-2V43.1a4,4,0,0,0,0-1,6.39,6.39,0,0,0-.5-1.06,3.66,3.66,0,0,0-.45,1.12c0,1.61,0,3.21,0,4.82v1.33h-2c0-1.4,0-2.83,0-4.26,0-.35-.33-.69-.5-1-.15.34-.43.67-.43,1,0,2.26,0,4.53,0,6.79,0,.48-.24,1.24-.54,1.34a2.26,2.26,0,0,1-1.48-.43c-.49-.28-.85-.79-1.33-1.09a1.11,1.11,0,0,0-1,0,1,1,0,0,0-.16,1c.9,1.66,1.82,3.32,2.85,4.91a2.33,2.33,0,0,0,1.45.8,1.23,1.23,0,0,1,1.19,1.41c0,.82,0,1.64,0,2.53h-2a10.2,10.2,0,0,1,0-1.11,1,1,0,0,0-.72-1.21,3.57,3.57,0,0,1-1.52-1.21c-1.12-1.77-2.18-3.59-3.17-5.43a2.44,2.44,0,0,1,.51-3,2.59,2.59,0,0,1,3-.65l.81.34V46.51H18.79V49c.37-.15.69-.32,1-.42a2.61,2.61,0,0,1,2.83.73,2.39,2.39,0,0,1,.56,2.84c-1,1.93-2.15,3.79-3.26,5.67a2,2,0,0,1-.61.61c-.49.34-1.21.53-1.48,1a4.55,4.55,0,0,0-.14,1.85H15.78a18.7,18.7,0,0,1,.05-2.9c.05-.38.62-.71,1-1a9.26,9.26,0,0,0,2-1.48,33.4,33.4,0,0,0,2.36-4.05c.17-.32,0-.8,0-1.21a3.38,3.38,0,0,0-1.17.22c-.52.31-.91.84-1.43,1.16a1.5,1.5,0,0,1-1.2.24,1.44,1.44,0,0,1-.57-1.09c-.05-2.1,0-4.2,0-6.3a2.74,2.74,0,0,0,0-.86A5.41,5.41,0,0,0,16.2,43c-.14.3-.4.59-.41.9C15.74,45.36,15.77,46.8,15.77,48.38Zm14.75-4c.22-2.32.79-3.09,2.26-3.42a2.21,2.21,0,0,0,1.16-.79c.91-1.27,2.61-1.67,3.62-.58a12.72,12.72,0,0,0,2.54,1.76c1.12.77,2.38,1.41,3.37,2.25s2.07.79,3.36.77c-1-2.21-1.9-4.32-2.88-6.39a1.26,1.26,0,0,0-1-.44c-1.69,0-3.38,0-5.07,0q-15.62,0-31.23,0c-.43,0-1.12.13-1.25.41-1,2.09-1.93,4.23-3,6.68a16.21,16.21,0,0,0,2.85-.55,15.92,15.92,0,0,0,2.39-1.46,3.54,3.54,0,0,1,3.15-1.71c1.4-2.48,3.16-2.6,4.8-.34.15.22.51.28.78.41.58.28,1.37.42,1.68.88A10.58,10.58,0,0,1,19,44.41Z"/><path class="cls-1" d="M51.91,10.8a7.12,7.12,0,0,1-2.77,5.8,1.85,1.85,0,0,0-.81,1.77,14.39,14.39,0,0,1,0,2,3.9,3.9,0,0,1-7.8,0,2.68,2.68,0,0,1,0-.49A4.17,4.17,0,0,0,39,15.88a7.16,7.16,0,0,1-1-9A7.48,7.48,0,0,1,51.91,10.8ZM46.15,17l-.06-.27a11.84,11.84,0,0,1,1.4-1.35,5.56,5.56,0,0,0,2.21-6.2,5.5,5.5,0,0,0-5.26-3.94,5.59,5.59,0,0,0-5.31,4.06,5.5,5.5,0,0,0,2.23,6.07A18.71,18.71,0,0,1,43.05,17Zm-3.55,2.1c-.19,1.13-.18,2.19.84,2.68a2.6,2.6,0,0,0,2,0c1-.52,1-1.57.79-2.65Z"/><path class="cls-1" d="M19.71,19.39l1,1.69-3.46,2.11,3.46,2.13-1,1.69c-1.67-1-3.29-1.93-4.86-2.94-.81-.52-.78-1.25.05-1.78C16.45,21.3,18,20.39,19.71,19.39Z"/><path class="cls-1" d="M29.62,27l-1-1.69,3.46-2.13-3.45-2.13,1-1.68c1.66,1,3.25,1.9,4.8,2.88.91.58.86,1.31-.11,1.92C32.82,25.13,31.29,26,29.62,27Z"/><path class="cls-1" d="M25.23,18.88l1.82.75L24.1,27.51l-1.84-.72Z"/><path class="cls-1" d="M43.53,0h1.83V2.05H43.53Z"/><path class="cls-1" d="M39,4.05l-1.4,1.37L36.12,3.79l1.45-1.26Z"/><path class="cls-1" d="M51.51,2.51l1.15,1.43L51.1,5.23,49.94,3.86Z"/></g></g></svg>