<svg xmlns="http://www.w3.org/2000/svg" viewBox="0 0 62.89 58.42"><defs><style>.cls-1{fill:#90b20a;}</style></defs><g id="Capa_2" data-name="Capa 2"><g id="Capa_1-2" data-name="Capa 1"><path class="cls-1" d="M23.33,47.77H2.07C.29,47.77,0,47.49,0,45.72Q0,23.88,0,2.05C0,.27.29,0,2.07,0H60.81c1.79,0,2.07.27,2.08,2V45.71c0,1.78-.3,2.06-2.06,2.06H39.58c2.12,2.64,4.08,5,5.94,7.44a12.16,12.16,0,0,1,1.16,2.5,11.52,11.52,0,0,1-2.69.67q-12.84.07-25.68,0a7.12,7.12,0,0,1-2.1-.67,7.66,7.66,0,0,1,.79-2C19,53.1,21.05,50.6,23.33,47.77Zm37-37.46H2.58V40H60.37Zm0-7.81H2.57V7.65H60.35ZM2.53,45.26h57.8V42.59H2.53ZM19.87,55.91H43c-2.22-2.74-4.26-5.3-6.36-7.81-.22-.26-.8-.29-1.22-.29q-4,0-8,0c-.41,0-1,0-1.21.29C24.14,50.61,22.1,53.17,19.87,55.91Z"/><path class="cls-1" d="M28.7,26.06c.42-1.51.82-3,1.26-4.53.25-.85.23-2.05,1.52-2s1.21,1.23,1.46,2.09a36.6,36.6,0,0,0,1.51,4.5c.46-1.79.93-3.57,1.39-5.36.08-.33.18-.66.25-1,.19-.84.67-1.38,1.56-1.13s1,1,.78,1.78L36.3,28.82a18.5,18.5,0,0,1-.73,2.7c-.19.47-.8,1.14-1.11,1.08a1.93,1.93,0,0,1-1.27-1.11c-.62-1.83-1.08-3.71-1.91-5.56-.47,1.72-.87,3.48-1.47,5.16-.22.62-.92,1.07-1.4,1.6-.43-.52-1.08-1-1.25-1.59-.95-3.51-1.78-7-2.67-10.57-.2-.82-.31-1.65.69-1.94s1.46.45,1.68,1.35c.5,2,1,4.07,1.54,6.1Z"/><path class="cls-1" d="M45.86,26.18c.5-1.79.93-3.61,1.54-5.36.18-.53.85-.9,1.29-1.34.41.43,1,.79,1.2,1.3A55.13,55.13,0,0,0,51.67,26c.45-1.75.85-3.52,1.36-5.26.27-.95.18-2.54,1.78-2.12s.77,1.76.54,2.73c-.77,3.24-1.55,6.49-2.44,9.7-.17.6-.82,1.07-1.25,1.61-.48-.53-1.17-1-1.39-1.6-.6-1.7-1-3.48-1.75-5.28-.48,1.72-1,3.43-1.43,5.14-.23.8-.41,1.88-1.46,1.65-.53-.11-1.11-1-1.29-1.65C43.4,27.49,42.59,24,41.7,20.54c-.21-.85-.31-1.64.67-1.95s1.48.45,1.7,1.33c.52,2.09,1,4.18,1.55,6.27Z"/><path class="cls-1" d="M14.24,25.36c-.64,2.3-1.09,4.16-1.7,6-.19.54-.84.92-1.28,1.37-.43-.47-1.11-.87-1.25-1.42-1-3.55-1.83-7.13-2.7-10.71-.2-.82-.38-1.76.8-2,1-.21,1.34.52,1.54,1.37a47.67,47.67,0,0,0,1.83,6.12c.45-1.57.82-3.17,1.38-4.7.25-.69.8-1.67,1.36-1.78,1.16-.23,1.24,1,1.48,1.81.46,1.6.88,3.21,1.43,5.23l1.57-6.1c.09-.34.07-.78.28-1a10.09,10.09,0,0,1,1.43-.94c.29.54.9,1.15.8,1.61-.85,3.78-1.8,7.54-2.81,11.28-.13.48-.85,1.15-1.25,1.12s-1-.69-1.21-1.2C15.33,29.55,14.87,27.66,14.24,25.36Z"/><path class="cls-1" d="M16.36,6.3H6.93c-.86,0-1.8,0-1.77-1.23S6.09,3.86,7,3.86H25.83c.87,0,1.8,0,1.84,1.18,0,1.3-1,1.25-1.88,1.26Z"/><path class="cls-1" d="M51.45,6.9c-.81-.8-1.6-1.21-1.71-1.76-.2-1,.65-1.28,1.54-1.28S53,4,52.94,5C52.89,5.57,52.15,6.05,51.45,6.9Z"/><path class="cls-1" d="M56.1,6.9c-.76-.82-1.53-1.26-1.61-1.81-.16-1,.72-1.23,1.59-1.23s1.75.19,1.6,1.21C57.61,5.62,56.85,6.08,56.1,6.9Z"/><path class="cls-1" d="M46.42,6.89C45.75,6,45,5.55,45,5c-.07-1,.84-1.15,1.69-1.14s1.73.32,1.52,1.3C48.09,5.71,47.27,6.11,46.42,6.89Z"/></g></g></svg>