<svg xmlns="http://www.w3.org/2000/svg" viewBox="0 0 64.17 59.85"><defs><style>.cls-1{fill:#4e7eaf;}</style></defs><g id="Capa_2" data-name="Capa 2"><g id="Capa_1-2" data-name="Capa 1"><path class="cls-1" d="M31.62,51.72H6.52c-2.2,0-2.27-.06-2.27-2.32q0-14.2,0-28.41c0-4,2.21-6.27,6.24-6.29,4.49,0,9,0,13.46,0a1.67,1.67,0,0,0,1.89-1.25C27,10.36,28.29,7.29,29.5,4.2,30.12,2.62,31,2,32.63,2.36a15.21,15.21,0,0,1,4.15,1.71,45.85,45.85,0,0,1,11,9.59,2.62,2.62,0,0,0,2.33,1.06,28.29,28.29,0,0,1,3.32,0A5.54,5.54,0,0,1,59,20.22c.07,10,0,19.94,0,29.91,0,1.44-.83,1.61-2,1.6Q44.33,51.7,31.62,51.72ZM50.59,17c.35.58.61,1,.84,1.4a36.19,36.19,0,0,1,2,4c.81,2.24.24,3.32-1.94,4.28-6.78,3-13.54,6-20.34,8.92-1.35.57-2.3,1.24-2.26,2.9l9.27,5c1.63.89,1.71,1.23.62,2.79l-2.23,3.17c.72,0,1.12.08,1.51.08,5.7,0,11.39,0,17.09,0,1.32,0,1.57-.46,1.56-1.65-.06-4.74,0-9.47,0-14.21,0-4.38,0-8.76,0-13.14,0-2-1-3.31-2.79-3.57A24.23,24.23,0,0,0,50.59,17Zm-26.12-.07c-4.81,0-9.29,0-13.77,0-3,0-4.24,1.24-4.24,4.21,0,8.91,0,17.82,0,26.74,0,1.28.27,1.73,1.65,1.72,8.11-.07,16.22,0,24.33,0,.42,0,.84-.07,1.65-.14l-8.81-7.29c-.83.29-1.52.78-2.07.65s-1.17-.82-1.73-1.25c-3.05,2.74-5.52,3.1-7.66,1.19s-2.11-4.26.67-8.22a3.63,3.63,0,0,0-.34-.46c-1.32-1.49-1.32-1.61.12-3.06,1-1,2.11-2,3.09-3.1.85-.92,1.69-1.44,2.89-.32Zm6-8.58c-.17.15-.28.21-.31.29-2.65,6.64-5.3,13.27-7.9,19.92a1.68,1.68,0,0,0,.3,1.43c1.33,1.45,2.71,2.85,4.17,4.16a1.88,1.88,0,0,0,1.65.29c6.38-2.75,12.73-5.57,19.08-8.38a5.62,5.62,0,0,0,.59-.34A50.92,50.92,0,0,1,30.47,8.33Zm20.78,16,.37-.37A9.23,9.23,0,0,0,50.89,22a63.45,63.45,0,0,0-4.14-6.1A42.38,42.38,0,0,0,35,5.58a24.5,24.5,0,0,0-3-1.24l-.31.41a9.28,9.28,0,0,0,.63,1.93c1,1.73,2.15,3.4,3.22,5.1a1.55,1.55,0,0,0,2.1.73c3.4-1,6.91,1.9,6,5.25-.47,1.81.16,2.58,1.43,3.37s2.52,1.66,3.83,2.39A15.38,15.38,0,0,0,51.25,24.37ZM16,32.36,23.39,40l2.77-2.52-7.39-7.66Zm.2,3.88c-1.1.86-2.28,1.84-1.7,3.41a3.56,3.56,0,0,0,2,1.92C18,42,19,41,19.74,39.84ZM27,40l-.27.41,8.51,7.06,1.58-2.21Zm11.1-25.3,3.29,3C41.68,15.47,40.5,14.3,38.07,14.7Z"/><path class="cls-1" d="M32.1,53.24q14.9,0,29.79,0c2.2,0,2.74.75,1.91,2.79A6,6,0,0,1,59,59.72a11.34,11.34,0,0,1-2.11.13q-24.79,0-49.59,0a12,12,0,0,1-3-.35A5.65,5.65,0,0,1,.63,56.56c-1.24-2.38-.68-3.32,2-3.32Q17.36,53.22,32.1,53.24ZM2.54,55.53a5.13,5.13,0,0,0,4.61,2.14q24.95,0,49.89,0a7.07,7.07,0,0,0,2.51-.4,9.43,9.43,0,0,0,1.94-1.38l-.21-.34Z"/><path class="cls-1" d="M53.7,12.8c-.4,0-.87.14-1.18,0s-1.07-.75-1-1a1.81,1.81,0,0,1,1.06-1.12,4,4,0,0,1,2.07,0,4.91,4.91,0,0,1,1.39,1,14.23,14.23,0,0,1-1.45,1.14c-.21.14-.58,0-.88,0Z"/><path class="cls-1" d="M51.35,6.39c-1.15.92-2.17,1.77-3.25,2.53-.11.08-.74-.32-.87-.62a1.25,1.25,0,0,1,.14-1.08,13.06,13.06,0,0,1,1.9-1.89,1.3,1.3,0,0,1,1.09-.12C50.66,5.33,50.84,5.76,51.35,6.39Z"/><path class="cls-1" d="M45.43,2.43c0,.35.13.78,0,1a7,7,0,0,1-1.12,1.13c-.34-.37-.85-.69-1-1.12a4.43,4.43,0,0,1,0-2.08c.15-.52.68-.93,1-1.39a10.94,10.94,0,0,1,1.07,1.39c.14.27,0,.68,0,1Z"/></g></g></svg>