<svg xmlns="http://www.w3.org/2000/svg" viewBox="0 0 67.11 59.3"><defs><style>.cls-1{fill:#90b20a;}</style></defs><g id="Capa_2" data-name="Capa 2"><g id="Capa_1-2" data-name="Capa 1"><path class="cls-1" d="M12.83,2V6.71H65.09c0-1.38,0-2.75,0-4.12,0-.2-.46-.45-.74-.53a5.15,5.15,0,0,0-1.18,0h-40c-.82,0-2.05.3-2.08-.95s1.25-1,2.1-1Q43.45,0,63.69,0C66.35,0,67.1.8,67.1,3.47q0,22.86,0,45.73c0,2.63-.65,3.33-3.28,3.52,0,3.14-2.67,4.35-4.49,6.13-.88.86-2,.38-2.92-.48-1.64-1.64-3.24-3.32-4.94-4.88a3.32,3.32,0,0,0-1.91-.78c-1.83-.11-3.67,0-5.5,0-.79,0-1.78.08-1.75-1s1-1,1.81-1h4.55c-.81-.83-1.42-1.4-2-2-.37-.41-1-.93-.92-1.36.2-2.12-1.54-2.94-2.62-4.2-.14-.16-.32-.29-.56-.52a15.83,15.83,0,0,1-14.37,1.59,15.33,15.33,0,0,1-8.45-7.44,15.85,15.85,0,0,1,4.86-20.3c5.93-4.25,15.59-4.44,22.21,3.8,0-1.69,0-3.08,0-4.47,0-2,.31-2.26,2.29-2.26.83,0,1.66,0,2.49,0,1,0,1.64.51,1.63,1.62,0,1.44.06,2.89,0,4.32,0,.43-.56.82-.86,1.23-.35-.41-.94-.79-1-1.24a35,35,0,0,1-.05-3.85H48.86V32.49h2.47V24.56c0-.69.21-1.34,1-1.19a1.52,1.52,0,0,1,.89,1.13c.08,2.84,0,5.68,0,8.51,0,1.11-.68,1.7-1.67,1.53-2.18-.38-3.43.47-4,2.54a7.28,7.28,0,0,1-.64,1.2c.92.86,1.83,1.74,2.78,2.57a1.08,1.08,0,0,0,.79.3,3.11,3.11,0,0,1,3,1.27C56,45,58.53,47.49,61.06,50c.55.54,3.11,1,3.69.54a1.33,1.33,0,0,0,.36-.89c0-.79,0-1.58,0-2.36,0-12.32,0-24.63,0-36.95,0-1.3-.3-1.68-1.66-1.67q-29.94.08-59.88,0H2.08c0,.53-.1.95-.1,1.36Q2,29.61,2,49.13c0,1.18.31,1.56,1.54,1.55,11.18,0,22.36,0,33.55,0H38.1c.73,0,1.51,0,1.49,1s-.81,1-1.54,1H2.94c-2,0-2.94-1-2.94-3V3C0,1,.91,0,2.94,0H16.83c.73,0,1.51,0,1.53,1s-.78,1-1.5,1C15.55,2,14.25,2,12.83,2Zm34,27.46c0-1.31,0-2.62,0-3.93a5.37,5.37,0,0,0-.36-1.77,13.86,13.86,0,1,0-9.52,19,14.54,14.54,0,0,0,7.72-4.88C46.81,35.45,47.19,32.58,46.84,29.49ZM61.6,53.8c-3.54-3.53-7.06-7.06-10.51-10.51l-3.23,3.22L58.27,56.92ZM10.65,6.71V2C8,2,5.42,2,2.86,2.07A1.15,1.15,0,0,0,2,2.76C2,4.05,2,5.35,2,6.71ZM44.42,41.08l2.68,3,1.37-1.26-2.75-3Z"/><path class="cls-1" d="M61.39,26.19c0,2.13,0,4.27,0,6.41,0,1.53-.42,1.95-1.91,2q-1.44,0-2.88,0A1.45,1.45,0,0,1,55,33c0-4.45,0-8.9,0-13.34A1.44,1.44,0,0,1,56.57,18c1.09,0,2.18,0,3.27,0s1.56.59,1.56,1.66C61.38,21.82,61.39,24,61.39,26.19Zm-2,6.3V20.05H56.91V32.49Z"/><path class="cls-1" d="M9,20.4c-.79,0-1.58,0-2.36,0-1.37,0-1.84-.47-1.86-1.79,0-1.66,0-3.32,0-5,0-1.18.53-1.8,1.73-1.8h5.11c1.21,0,1.74.62,1.74,1.8,0,1.65,0,3.31,0,5,0,1.33-.49,1.76-1.86,1.8C10.64,20.42,9.81,20.4,9,20.4ZM6.83,18.27h4.38V13.94H6.83Z"/><path class="cls-1" d="M9.1,31H6.35a1.4,1.4,0,0,1-1.58-1.52q0-2.75,0-5.49a1.34,1.34,0,0,1,1.46-1.48c1.88,0,3.76,0,5.63,0A1.35,1.35,0,0,1,13.31,24c0,1.83,0,3.66,0,5.49a1.4,1.4,0,0,1-1.6,1.5ZM6.88,24.47V28.9h4.35V24.47Z"/><path class="cls-1" d="M10.3,35.92c-1.39,0-2.78.08-4.17,0-.47,0-1.22-.52-1.28-.89-.14-.81.57-1,1.3-1,2.78,0,5.56,0,8.34,0a1.64,1.64,0,0,1,1.26.91c.17.84-.54,1-1.27,1Z"/><path class="cls-1" d="M10.25,44a39.05,39.05,0,0,1-4,0c-.5-.05-.94-.62-1.41-1,.47-.33.93-1,1.41-1,2.74-.1,5.48,0,8.22,0,.71,0,1.38.14,1.38,1s-.67,1-1.38,1Z"/><path class="cls-1" d="M10.49,38c1.35,0,2.71-.08,4,0,.46,0,.86.6,1.28.92-.43.33-.85.92-1.29.93C11.7,40,8.85,40,6,39.9c-.42,0-.82-.66-1.23-1,.42-.29.81-.82,1.24-.85C7.51,37.93,9,38,10.49,38Z"/><path class="cls-1" d="M8.5,46.09a16.22,16.22,0,0,1,2.61,0,1.47,1.47,0,0,1,.91,1c.05.22-.55.84-.87.85a50.63,50.63,0,0,1-5.37,0c-.35,0-.66-.63-1-1,.32-.3.61-.81,1-.86A20.83,20.83,0,0,1,8.5,46.09Z"/><path class="cls-1" d="M58.82,5.24a4.19,4.19,0,0,1-1.42,0c-.38-.13-.94-.63-.9-.86a1.48,1.48,0,0,1,.9-1,12.86,12.86,0,0,1,3.1,0,1.23,1.23,0,0,1,.8.92,1.32,1.32,0,0,1-.81.93,5.8,5.8,0,0,1-1.67,0Z"/><path class="cls-1" d="M45.12,28.59c0,1.44,0,2.88,0,4.32a2.32,2.32,0,0,1-.48,1.28c-.58.72-1.33,1.31-1.9,2a11.29,11.29,0,1,1-.94-14.82,2.66,2.66,0,0,0,2.08,1.09c.89,0,1.27.64,1.26,1.51Zm-5.64-6.52c-2.35-2.32-6.74-2.79-10.19-.89A9.28,9.28,0,0,0,33,38.58c3.51.23,7.24-1.58,8.12-3.93-2.31-.19-2.43-.33-2.43-2.71s-.06-4.89,0-7.33A11.38,11.38,0,0,1,39.48,22.07Zm1.26,2.4v8h2.38v-8Z"/><path class="cls-1" d="M37,30.79c0,3.74.31,3.85-3.78,3.79-2.47,0-2.64-.17-2.64-2.71,0-1.09,0-2.18,0-3.27a1.41,1.41,0,0,1,1.55-1.54c1,0,2.1,0,3.14,0A1.52,1.52,0,0,1,37,28.83C37,29.48,37,30.14,37,30.79Zm-4.36-1.64v3.34H35V29.15Z"/></g></g></svg>