<svg xmlns="http://www.w3.org/2000/svg" viewBox="0 0 371.7 106.49"><defs><style>.cls-1{fill:#fff;}</style></defs><g id="Capa_2" data-name="Capa 2"><g id="Capa_1-2" data-name="Capa 1"><g id="jL4B3K.tif"><path class="cls-1" d="M0,12.54c2-1.27,3.92-2.6,6-3.78C10.67,6,15.45,3.4,20.14.63A3.25,3.25,0,0,1,23.87.55q9,5.27,18.11,10.33a3.37,3.37,0,0,1,2,3.39c-.07,12.89,0,25.78,0,38.67V56a13.29,13.29,0,0,0,1.72-.65c4.68-2.64,9.33-5.34,14-7.94a2.84,2.84,0,0,0,1.66-2.89c-.07-6.37,0-12.75-.06-19.12a2.91,2.91,0,0,1,1.65-2.92C69.16,19,75.34,15.37,81.63,11.92a3.84,3.84,0,0,1,3.13,0c6.16,3.37,12.22,6.93,18.35,10.36a3.42,3.42,0,0,1,2,3.4q-.15,10.09,0,20.19a3.49,3.49,0,0,1-2.1,3.53c-5.46,3-10.82,6.22-16.3,9.2a3.42,3.42,0,0,0-2,3.55c.09,6.15,0,12.31.06,18.47a3.28,3.28,0,0,1-1.88,3.26q-19.38,11-38.68,22a3.2,3.2,0,0,1-3.59,0q-19.5-11.15-39-22.26C1,83.35.53,83,0,82.59Zm3.42,3.14c-.07,1.05-.14,1.68-.14,2.3q0,30.58,0,61.19a3,3,0,0,0,1.81,3c11.35,6.42,22.66,12.9,34,19.35a19.88,19.88,0,0,0,1.91.79c0-6-.06-11.68,0-17.33a3.13,3.13,0,0,0-1.9-3.18c-5.29-2.88-10.48-5.92-15.8-8.73a4.59,4.59,0,0,1-2.8-4.69c.11-13.6.07-27.19,0-40.79,0-.89-.27-2.23-.88-2.59C14.42,21.86,9.11,18.91,3.42,15.68ZM79.88,59.05c-.82-.57-1.25-.93-1.73-1.21-4.54-2.59-9.12-5.11-13.62-7.77a3,3,0,0,0-3.52,0C53.32,54.54,45.57,58.9,37.85,63.3,33.77,65.63,29.7,68,25.36,70.47c.81.54,1.29.92,1.83,1.22,4.56,2.56,9.15,5.07,13.68,7.68a2.74,2.74,0,0,0,3.13,0c6.9-4,13.84-7.86,20.76-11.77Zm-56.15,8.6a13.07,13.07,0,0,0,1.36-.56c4.8-2.72,9.58-5.49,14.4-8.16A2.69,2.69,0,0,0,41,56.16c0-12.68,0-25.36,0-38,0-.69-.09-1.37-.16-2.29-.8.36-1.39.57-1.92.87-4.49,2.55-8.93,5.18-13.46,7.65a3.1,3.1,0,0,0-1.84,3.2c.06,12.61,0,25.21,0,37.82C23.61,66.06,23.68,66.75,23.73,67.65Zm20.18,34.56a10.29,10.29,0,0,0,1.67-.58C57.16,95,68.75,88.46,80.28,81.78a3.23,3.23,0,0,0,1.24-2.36c.12-4.51.06-9,.06-13.53v-4a11.31,11.31,0,0,0-1.28.46C68.57,69,56.83,75.56,45.15,82.26A3.24,3.24,0,0,0,44,84.66c-.11,4.65-.05,9.31-.05,14Zm22-77.89c5.82,3.32,11.14,6.4,16.53,9.36a2.72,2.72,0,0,0,2.11-.31c4.63-2.56,9.23-5.2,13.83-7.83.58-.33,1.11-.73,2-1.29C94.64,21,89.3,18,84,15a1.67,1.67,0,0,0-1.36-.1C77.16,17.91,71.76,21,65.88,24.32ZM5.13,12.75a4.86,4.86,0,0,0,.71.75c5.09,2.93,10.17,5.89,15.32,8.71a2.92,2.92,0,0,0,2.33-.28c4.46-2.46,8.86-5,13.28-7.54.71-.41,1.4-.85,2.38-1.45-.91-.57-1.49-.95-2.09-1.3C33.33,9.5,29.48,7.54,25.9,5.18c-2.64-1.75-4.75-1.94-7.51-.11C14.18,7.85,9.65,10.16,5.13,12.75ZM81.43,56.1c.07-.87.14-1.42.14-2,0-5.16,0-10.32,0-15.47a2.8,2.8,0,0,0-1.7-2.85c-4.64-2.56-9.22-5.24-13.83-7.85a15,15,0,0,0-1.77-.69c0,6.32,0,12.32.06,18.32,0,.57.79,1.31,1.4,1.66,4.2,2.47,8.45,4.86,12.7,7.26C79.37,55,80.31,55.5,81.43,56.1ZM102,27c-4,2.28-7.41,4.64-11.13,6.19-5,2.07-6.93,5.24-6.21,10.64.52,3.92.1,8,.1,11.91.4,0,.57.13.66.08,5.25-2.95,10.49-5.89,15.71-8.88a1.89,1.89,0,0,0,.83-1.35C102,39.61,102,33.61,102,27Z"/><path class="cls-1" d="M201.11,80.69h-8.24c-.07-1.4-.13-2.79-.2-4.17-.2,0-.41-.1-.46,0-6.81,8.8-22.75,6.5-28.6-5S164,45.81,176.27,43c6-1.36,11.39-.24,15.62,4.61a4.06,4.06,0,0,0,.75.48c.07-1.55.13-2.93.2-4.45h8.27Zm-31-18.56c0,7,4.76,12.18,11.17,12.18s11.49-5.22,11.51-11.92c0-7.11-4.87-12.4-11.48-12.43C174.93,49.92,170.09,55.17,170.07,62.13Z"/><path class="cls-1" d="M265.08,48.38c.1-1.87.17-3.19.26-4.84,2.5,0,4.92-.11,7.31.09.44,0,1.11,1.3,1.12,2,.1,4.79.06,9.59.06,14.39,0,6.16-.05,12.32,0,18.47,0,1.72-.41,2.49-2.28,2.35s-4,0-6.24,0l-.25-4.3c-.22,0-.42-.06-.47,0-6.57,8.06-19.84,6.28-26.26-1.61-9.14-11.24-3.63-28.55,10.38-31.9C254.91,41.55,260.42,42.93,265.08,48.38Zm.13,14.86c0-8.35-5.64-13.94-12.28-13.21-4.94.54-8.32,3.21-9.75,7.85-1.54,5-.84,9.86,3.26,13.59a10.48,10.48,0,0,0,12,1.79A11.06,11.06,0,0,0,265.21,63.24Z"/><path class="cls-1" d="M327.42,65.29a10,10,0,0,0,5.84,8.65c5,2.62,10.32,1.18,17-4.52l5.56,4.27c-3.45,3.72-7.1,6.92-12.14,7.69-7.84,1.2-15.1,0-20.54-6.44-6.05-7.13-5.6-19.09.82-26.08s17.2-8.51,24.83-3.16c6.17,4.32,8.44,10.57,8.41,17.86,0,1.66-1,1.76-2.25,1.75-8.26,0-16.51,0-24.77,0Zm21.42-6.35a10.27,10.27,0,0,0-11.28-9.77c-5.85.45-10.26,4.78-9.85,9.77Z"/><path class="cls-1" d="M132.49,80.69V24.8h9.13v48h17.51v7.91Z"/><path class="cls-1" d="M278.82,43.52c2.59,0,5-.11,7.31.06a2.58,2.58,0,0,1,1.66,1.47c3.19,8,6.3,16.1,9.44,24.16.35.91.73,1.82,1.31,3.26,1.21-3.06,2.25-5.61,3.24-8.19,2.46-6.32,5-12.64,7.32-19a2.31,2.31,0,0,1,2.66-1.81c2.13.13,4.27,0,6.72,0-1.62,4.23-3.12,8.15-4.64,12.07-3,7.85-6.15,15.69-9.12,23.58a2.16,2.16,0,0,1-2.48,1.68c-2.58-.09-5.17.06-7.74-.08a2.51,2.51,0,0,1-1.88-1.19C288,68,283.52,56.29,279,44.63A6.8,6.8,0,0,1,278.82,43.52Z"/><path class="cls-1" d="M363.15,24.61c2.5,0,4.92-.06,7.33.05.4,0,.89.71,1.11,1.2a3.81,3.81,0,0,1,.07,1.48V78c0,2.79,0,2.8-2.84,2.8h-5.67Z"/><path class="cls-1" d="M217.22,80.71h-8.38V43.65h23.78c0,2.37.09,4.71-.09,7,0,.41-1.18,1-1.82,1.06-3.74.1-7.47.13-11.21,0-1.77,0-2.34.54-2.32,2.33.08,7.95,0,15.89,0,23.84Z"/></g></g></g></svg>