<svg xmlns="http://www.w3.org/2000/svg" viewBox="0 0 202.56 106.49"><defs><style>.cls-1{fill:#fff;}.cls-2{fill:#fefefe;}</style></defs><g id="Capa_2" data-name="Capa 2"><g id="Capa_1-2" data-name="Capa 1"><g id="a4axJO.tif"><path class="cls-1" d="M97.53,0h6.84a2.09,2.09,0,0,0,.46.12c5.28,0,10.55.37,15.8.86,3.1.29,6.18.7,9.25,1.17a160.92,160.92,0,0,1,17.35,3.61c3.25.88,6.49,1.82,9.65,3a123.8,123.8,0,0,1,11.64,4.73c2.51,1.23,5,2.44,7.43,3.85,2.65,1.56,5.24,3.2,7.72,5a68.14,68.14,0,0,1,6.52,5.47,46.38,46.38,0,0,1,4,4.27,37.71,37.71,0,0,1,5.93,9.73A35.56,35.56,0,0,1,202,47.68a11.15,11.15,0,0,0,.6,2.92V56a1,1,0,0,0-.31.71,11,11,0,0,1-.54,3.28A33.93,33.93,0,0,1,197,70.66a47.36,47.36,0,0,1-4.54,5.8,51.93,51.93,0,0,1-3.84,3.72c-1.37,1.2-2.76,2.37-4.21,3.45a86.4,86.4,0,0,1-8.63,5.64,106.17,106.17,0,0,1-12.13,5.92,130,130,0,0,1-13.09,4.58,164.64,164.64,0,0,1-19.21,4.36c-4,.65-8,1.14-12,1.53-3.55.34-7.1.64-10.65.72-6.32.15-12.64.19-19-.25-3.24-.22-6.47-.49-9.7-.83-4.22-.45-8.41-1.08-12.58-1.85a149.79,149.79,0,0,1-15.49-3.72c-10.62-3.14-20.78-7.32-30-13.47C14.58,81.43,8.2,75.68,3.9,67.92A29.58,29.58,0,0,1,4,38.44,47.56,47.56,0,0,1,15.35,25.11,78,78,0,0,1,29.05,16,126.93,126.93,0,0,1,58.51,5,172.77,172.77,0,0,1,83.14.89,134.59,134.59,0,0,1,96.61.16C96.92.16,97.27.28,97.53,0ZM80.86,59.16l.15.13c-.55,2.89-1.09,5.79-1.66,8.69-.38,2,.53,3.09,2.55,3.09,3.58,0,7.16,0,10.74,0a2.34,2.34,0,0,0,2.59-2.16Q97.92,55,100.6,41.17c.11-.56.34-.68.86-.68,2.49,0,5,0,7.49,0a11.47,11.47,0,0,1,2.09.25c1.39.29,1.54.5,1.52,1.93a34,34,0,0,1-1,5.84c-1.25,6.59-2.56,13.18-3.82,19.77a2.19,2.19,0,0,0,2.26,2.76c4.24,0,8.47,0,12.72,0a2,2,0,0,1,0,.25q-1.08,5.5-2.15,11A2.23,2.23,0,0,0,123,85.24q5.51,0,11,0a2.32,2.32,0,0,0,2.6-2.13c.72-3.7,1.45-7.39,2.13-11.09.13-.76.41-1,1.19-1,4.72,0,9.44.22,14.14-.45a23.25,23.25,0,0,0,12.55-5.66c6.77-6,9.64-13.66,8.92-22.62a14.65,14.65,0,0,0-6.4-11.2,21,21,0,0,0-12.22-3.58c-7.9-.11-15.79,0-23.69,0a2.15,2.15,0,0,0-2.29,1.88c-.29,1.35-.54,2.71-.8,4.06l-1,5c-.67-5.34-3.8-8.39-8.79-9.82a30,30,0,0,0-7.71-1.08c-2.79-.07-5.59,0-8.38,0-1,0-1,0-.78-1,.67-3.43,1.35-6.86,2-10.28A2.23,2.23,0,0,0,103,13.33H92.13a2.25,2.25,0,0,0-2.55,2.07q-2,10.17-3.94,20.33c-.16.85-.33,1.7-.5,2.55s-.33,1.64-.52,2.57a1.61,1.61,0,0,1-.12-.28c0-.2-.1-.42-.16-.63A14.94,14.94,0,0,0,77,30.26a22.6,22.6,0,0,0-11.17-2.74c-7.76-.06-15.52,0-23.28,0a2.26,2.26,0,0,0-2.45,2c-.44,2.26-.87,4.51-1.31,6.77q-3,15.27-5.93,30.53c-1,5.1-2,10.2-3,15.3-.4,2,.5,3.12,2.57,3.12q5.41,0,10.83,0a2.23,2.23,0,0,0,2.51-2c.74-3.77,1.5-7.54,2.2-11.32.12-.7.4-.84,1-.84,4.31,0,8.62.17,12.93-.29a24.26,24.26,0,0,0,12.27-4.53A29.08,29.08,0,0,0,80.86,59.16Z"/><path class="cls-2" d="M80.86,59.16a29.08,29.08,0,0,1-6.65,7.08,24.26,24.26,0,0,1-12.27,4.53c-4.31.46-8.62.26-12.93.29-.65,0-.93.14-1,.84-.7,3.78-1.46,7.55-2.2,11.32a2.23,2.23,0,0,1-2.51,2q-5.41,0-10.83,0c-2.07,0-3-1.08-2.57-3.12,1-5.1,2-10.2,3-15.3q3-15.25,5.93-30.53c.44-2.26.87-4.51,1.31-6.77a2.26,2.26,0,0,1,2.45-2c7.76,0,15.52,0,23.28,0A22.6,22.6,0,0,1,77,30.26a14.94,14.94,0,0,1,7.36,9.68c.06.21.11.43.16.63a1.61,1.61,0,0,0,.12.28c.19-.93.36-1.75.52-2.57s.34-1.7.5-2.55q2-10.17,3.94-20.33a2.25,2.25,0,0,1,2.55-2.07H103a2.23,2.23,0,0,1,2.43,2.89c-.66,3.42-1.34,6.85-2,10.28-.2,1-.21,1,.78,1,2.79,0,5.59,0,8.38,0a30,30,0,0,1,7.71,1.08c5,1.43,8.12,4.48,8.79,9.82l1-5c.26-1.35.51-2.71.8-4.06a2.15,2.15,0,0,1,2.29-1.88c7.9,0,15.79-.07,23.69,0a21,21,0,0,1,12.22,3.58,14.65,14.65,0,0,1,6.4,11.2c.72,9-2.15,16.57-8.92,22.62A23.25,23.25,0,0,1,154,70.6c-4.7.67-9.42.44-14.14.45-.78,0-1.06.21-1.19,1-.68,3.7-1.41,7.39-2.13,11.09a2.32,2.32,0,0,1-2.6,2.13q-5.49,0-11,0a2.23,2.23,0,0,1-2.39-2.92q1.08-5.5,2.15-11a2,2,0,0,0,0-.25c-4.25,0-8.48,0-12.72,0a2.19,2.19,0,0,1-2.26-2.76c1.26-6.59,2.57-13.18,3.82-19.77a34,34,0,0,0,1-5.84c0-1.43-.13-1.64-1.52-1.93a11.47,11.47,0,0,0-2.09-.25c-2.5,0-5,0-7.49,0-.52,0-.75.12-.86.68Q97.93,55,95.23,68.91a2.34,2.34,0,0,1-2.59,2.16c-3.58,0-7.16,0-10.74,0-2,0-2.93-1.13-2.55-3.09.57-2.9,1.11-5.8,1.66-8.69.06-.11.11-.22,0-.34ZM55.12,29.77V29.7c-4,0-8.09,0-12.13,0-.54,0-.77.14-.83.7-.11.83-.31,1.64-.47,2.47q-3,15.3-6,30.6c-1.21,6.24-2.41,12.48-3.66,18.72-.16.77,0,.87.75.86q5,0,10,0c.58,0,.76-.15.87-.73.8-4.26,1.66-8.5,2.46-12.75.11-.58.3-.73.88-.73,3.88,0,7.76,0,11.64,0A25.94,25.94,0,0,0,68.46,67c9-3.83,14.77-12.94,14.18-23.66A13,13,0,0,0,76,32.23a18.75,18.75,0,0,0-9.09-2.44C63,29.69,59.05,29.77,55.12,29.77Zm89.22,39.08c2.16,0,4.74.05,7.31-.19a22.58,22.58,0,0,0,9.41-2.55c8.49-4.93,12.45-12.44,12.37-22.14a13,13,0,0,0-4.9-10.54A17.56,17.56,0,0,0,157.7,29.8c-8-.25-16-.05-24-.11-.54,0-.66.22-.75.67-.54,2.88-1.12,5.74-1.67,8.61q-4.22,21.68-8.44,43.34c-.12.6,0,.73.6.73q5.08,0,10.17,0c.59,0,.79-.17.89-.73.81-4.28,1.65-8.55,2.46-12.83.09-.47.27-.66.79-.65C139.8,68.87,141.86,68.85,144.34,68.85Zm-34.42,0c3.71,0,7.32,0,10.92,0,.65,0,.85-.19,1-.81,1.31-6.86,2.67-13.71,4-20.56a34.26,34.26,0,0,0,1.07-8.19,8.39,8.39,0,0,0-5.62-8.06,22.91,22.91,0,0,0-8.11-1.47c-3.93-.07-7.87-.06-11.8-.06-.52,0-.76,0-.62-.69.87-4.24,1.67-8.5,2.51-12.74.11-.55.1-.81-.61-.8q-5.06.06-10.09,0c-.62,0-.76.24-.86.76q-2.72,14.07-5.47,28.13Q83.9,56.19,81.58,68c-.13.64,0,.85.7.84q4.92-.08,9.84,0c.69,0,.91-.19,1-.85,1.87-9.69,3.77-19.38,5.64-29.08.11-.58.34-.67.84-.66,2.83,0,5.65,0,8.47,0a14.47,14.47,0,0,1,4,.46A3.25,3.25,0,0,1,114.76,42a7.73,7.73,0,0,1-.06,1.86c-.35,2-.73,4.1-1.12,6.15C112.37,56.28,111.15,62.52,109.92,68.85Z"/><path class="cls-1" d="M80.86,59.16,81,59c.09.12,0,.23,0,.34Z"/><path class="cls-2" d="M53.15,60.43c-1.52,0-3,0-4.55,0-.55,0-.63-.16-.54-.65q2.07-10.51,4.1-21c.08-.43.19-.69.75-.68,3.31.09,6.62-.1,9.92.15a15.2,15.2,0,0,1,3.66.71,5.43,5.43,0,0,1,4,5.17,19.74,19.74,0,0,1-2.17,10.28c-1.74,3.4-4.72,5-8.35,5.65A38.75,38.75,0,0,1,53.15,60.43Zm5.34-20.11c-1.22,0-2.44,0-3.66,0-.51,0-.75.11-.85.67q-1.6,8.37-3.26,16.73c-.07.37-.06.54.39.54a56.05,56.05,0,0,0,8.19-.33c3.45-.54,6.11-2.1,7.5-5.46a20,20,0,0,0,1.55-7.18c.08-2.71-.77-3.77-3.39-4.48A25.06,25.06,0,0,0,58.49,40.32Z"/><path class="cls-2" d="M143.85,60.43c-1.49,0-3,0-4.48,0-.47,0-.64,0-.53-.61q2.1-10.59,4.12-21.2c.07-.32.13-.55.54-.54,3.88.1,7.77-.23,11.63.33a12,12,0,0,1,2.2.55c2.72,1,4,2.81,4,6a21.2,21.2,0,0,1-1.67,8.23c-1.63,4-4.73,6.1-8.9,6.82A40.84,40.84,0,0,1,143.85,60.43Zm1.1-2.19a26.55,26.55,0,0,0,5.05-.32c2.54-.42,4.94-1.2,6.45-3.48a16.64,16.64,0,0,0,2.6-10.3A3.24,3.24,0,0,0,156.52,41a12.68,12.68,0,0,0-2.37-.52c-2.9-.33-5.8-.1-8.7-.18-.46,0-.62.18-.69.59-.18,1-.39,2.08-.59,3.11q-1.32,6.78-2.65,13.55c-.11.54,0,.71.6.68C143,58.21,143.8,58.24,145,58.24Z"/><path class="cls-1" d="M58.49,40.32A25.06,25.06,0,0,1,65,40.8c2.62.71,3.47,1.77,3.39,4.48a20,20,0,0,1-1.55,7.18c-1.39,3.36-4,4.92-7.5,5.46a56.05,56.05,0,0,1-8.19.33c-.45,0-.46-.17-.39-.54Q52.37,49.34,54,41c.1-.56.34-.68.85-.67C56.05,40.35,57.27,40.32,58.49,40.32Z"/><path class="cls-1" d="M145,58.24c-1.15,0-2,0-2.83,0-.55,0-.71-.14-.6-.68q1.33-6.78,2.65-13.55c.2-1,.41-2.07.59-3.11.07-.41.23-.61.69-.59,2.9.08,5.8-.15,8.7.18a12.68,12.68,0,0,1,2.37.52,3.24,3.24,0,0,1,2.53,3.12,16.64,16.64,0,0,1-2.6,10.3c-1.51,2.28-3.91,3.06-6.45,3.48A26.55,26.55,0,0,1,145,58.24Z"/></g></g></g></svg>