<svg xmlns="http://www.w3.org/2000/svg" viewBox="0 0 472 106.49"><defs><style>.cls-1{fill:#fff;}</style></defs><g id="Capa_2" data-name="Capa 2"><g id="Capa_1-2" data-name="Capa 1"><g id="nUAiPi.tif"><path class="cls-1" d="M57.51,0c2.56.48,5.14.88,7.67,1.45A53.32,53.32,0,0,1,107,52.38c.72,27.65-21.18,51.84-48.85,53.94C29.67,108.48,5.45,89.51.68,61.32-4,33.62,16,5.64,43.88,1,45.81.7,47.73.34,49.65,0ZM2.36,53.25a51.18,51.18,0,0,0,50.89,51.14c28.28.09,51.44-22.77,51.51-50.82a51.2,51.2,0,0,0-102.4-.32Z"/><path class="cls-1" d="M472,68.58c-1.88,5.5-5.73,8.54-11.54,9-3.86.32-7.21-1.11-10.54-3.42-.51.9-.93,1.74-1.46,2.51a5.78,5.78,0,0,1-1.15,1c-.27-.41-.77-.82-.77-1.24-.06-4.15,0-8.31,0-12.42,2-.87,2,.61,2.25,1.61,1.33,4.77,4.36,7.74,9.27,8.67a10.22,10.22,0,0,0,3.17.12c2.22-.31,4.15-1.26,4.85-3.57a4.77,4.77,0,0,0-2.24-5.72c-2.7-1.68-5.62-3-8.39-4.54a29.07,29.07,0,0,1-5.75-3.65c-5.41-5-3.68-12.75,3.29-15.25,4.39-1.58,8.53-.82,12.53,1.72l2.46-2.91.8.38c0,3.57,0,7.14,0,10.7,0,.4-.57.79-.87,1.19-.41-.39-1-.69-1.2-1.16-.53-1.09-.8-2.32-1.37-3.38a7.8,7.8,0,0,0-9.33-4,6.79,6.79,0,0,0-3.58,3.2c-.85,1.79.23,3.57,1.92,4.55a93.08,93.08,0,0,0,8.46,4.42c4.17,1.86,7.64,4.34,9.27,8.79Z"/><path class="cls-1" d="M216.18,43.17c.61-.55.73-.75.85-.75,7.59.13,15.23-.16,22.77.54,5.67.52,8.77,4.81,8.39,9.92-.33,4.34-3.25,6.53-7,7.95-.75.28-1.51.53-2.74,1,4.3,4.42,7.53,9.48,13.14,11.86a16.25,16.25,0,0,0,6.2.87,3.79,3.79,0,0,0,3.9-3.41,23.09,23.09,0,0,0,.46-3.87q.07-8.07,0-16.16c0-5.28-.64-6-5.67-7.37a7.75,7.75,0,0,1-1.49-.87,6.48,6.48,0,0,1,1.63-.53c7.6.13,15.24,0,22.81.54,8.14.62,13.79,6,15,13.21,1.54,9.48-3.43,17-12.8,19.16a38.93,38.93,0,0,1-8.26,1c-9.17.12-18.35,0-27.53.09a3.9,3.9,0,0,1-3.48-1.73c-2.95-3.81-6-7.58-9.07-11.27a8.57,8.57,0,0,0-2.56-1.44,10.18,10.18,0,0,0-.72,2.61,36.25,36.25,0,0,0,.37,6.08c.48,2.9,1.63,3.75,4.62,4.11a6.07,6.07,0,0,1,1.75.79c-.58.27-1.16.77-1.75.77q-8.36.09-16.71,0c-.57,0-1.13-.55-1.69-.84a5.87,5.87,0,0,1,1.58-.72c3.36-.41,4.8-1.3,4.92-4.63.27-7.25.25-14.52,0-21.77-.12-3.15-1.32-3.85-4.56-4.38A20.46,20.46,0,0,1,216.18,43.17Zm52.61,14.71h0c0,3.75,0,7.51,0,11.26,0,1.84.36,3.55,2.59,4.18,5.58,1.59,12.34-1.56,14.39-6.95A19.54,19.54,0,0,0,287,60.92c.65-9.07-2.85-16.63-14-16a14.82,14.82,0,0,1-2.21,0c-1.5-.14-2,.49-2,2C268.84,50.53,268.79,54.2,268.79,57.88ZM230,51.81c0,.81,0,1.63,0,2.44.15,5.3-1.15,4.82,5,4.74a5.92,5.92,0,0,0,6.08-4.36c1-3,.23-6.5-2-8.28-2.55-2.07-5.61-1.7-8.41-1.1-.57.12-.53,3.15-.74,4.85A16.24,16.24,0,0,0,230,51.81Z"/><path class="cls-1" d="M405,42.29c.23,3.08.44,6,.66,9l-.71.28c-.37-.54-1-1-1.09-1.64-.62-3.16-2.72-4.59-5.7-4.75-3.16-.16-6.33,0-9.64,0V57c2.36-.32,4.71-.25,6.7-1.08,1-.43,1.4-2.44,2.11-3.71a16.74,16.74,0,0,1,1-1.5c.25.51.71,1,.72,1.54q.09,6.12,0,12.24c0,.46-.59.91-.9,1.36-.28-.32-.73-.6-.82-1-1.11-4.57-1.61-5-6.35-5.13-.73,0-1.46,0-2.88,0,.32,3.78.45,7.4,1.05,10.95A3.8,3.8,0,0,0,392,73a63.75,63.75,0,0,0,9.77-.1c2-.16,3.33-1.58,3.94-3.56.26-.87.63-1.7.95-2.55l1,.16c-.16,3-.32,6.1-.49,9.43h-2.64c-12.53,0-25.07,0-37.6,0a4.07,4.07,0,0,1-3.68-1.77c-2.92-3.83-6-7.58-9-11.27A7.47,7.47,0,0,0,351.8,62a9.67,9.67,0,0,0-.65,2.39,48.16,48.16,0,0,0,.27,5.37c.34,3.32,1.42,4.29,4.79,4.77a5.91,5.91,0,0,1,1.81,1l-.33.81c-6.38,0-12.76,0-19.13,0-.36,0-.71-.61-1.07-.94.34-.27.63-.69,1-.78,5-1.15,5.66-1.91,5.71-7q.07-8.31,0-16.64c0-5.19-.61-5.83-5.64-7-.46-.11-.83-.61-1.39-1,.47-.37.59-.55.71-.55,7.6.11,15.21,0,22.78.5,2.21.15,4.66,1.69,6.37,3.26,3.9,3.59,3.24,9.84-1.2,13a44.22,44.22,0,0,1-5.93,3c3.73,3.77,6.8,8.24,11.59,10.94a13.17,13.17,0,0,0,3.89,1.42c3.14.61,5.61-.92,5.72-4.07.25-7.4.24-14.82,0-22.22-.08-3-1.4-3.79-4.45-4.19a7.56,7.56,0,0,1-2.08-.94l.32-.71Zm-53.73,2.79V58.85c3.7,0,7.51,1,9.93-2.71a7.3,7.3,0,0,0,0-8.29C358.84,44.12,355,45,351.29,45.08Z"/><path class="cls-1" d="M133.4,77.76c-.33-.87-.71-1.72-1-2.6q-5.4-16.48-10.81-33a33.56,33.56,0,0,0-2.09-4.94,6.53,6.53,0,0,0-5.72-3.64,11,11,0,0,1-2.07-.53l.12-.75H134l.12.73a18,18,0,0,1-2.25.56c-3.35.35-4.95,2.14-4,5.27,2.34,7.71,4.94,15.34,7.46,23,.06.19.35.31.77.65,1.25-3.65,2.47-7.15,3.66-10.66,2-5.94,4-11.9,6-17.82a8.82,8.82,0,0,1,1.43-2,9,9,0,0,1,1.57,2.14c2.87,8.49,5.65,17,8.47,25.5.3.91.69,1.79,1.2,3.12a17.86,17.86,0,0,0,1-2q3.31-9.7,6.58-19.43a18.38,18.38,0,0,0,.73-2.58c.6-3.38-.61-4.85-4.08-5.18a15.53,15.53,0,0,1-2.26-.56l.12-.76h18.65l.18.61a5.94,5.94,0,0,1-1.85.68,7.15,7.15,0,0,0-7.08,5.07c-2.53,7-4.91,14-7.32,21-1.82,5.32-3.58,10.66-5.38,16-.25.74-.57,1.44-.86,2.16l-.8.07L145.59,46.13l-.68-.06q-5.31,15.84-10.64,31.69Z"/><path class="cls-1" d="M312.05,57.37c.32,4.33.47,8.54,1,12.71.38,3.15,2.84,4.15,5.68,4.37,1.09.09,2.29,0,1.52,1.78h-23l-.38-.65c.52-.36,1-1,1.59-1.06,5-.81,6.36-2,6.46-6.91q.28-13.57,0-27.15c-.1-5-1.51-6.12-6.47-6.8-.56-.08-1.05-.7-1.56-1.06l.4-1c8.89.27,17.86-.05,26.67,1,8.44,1,12.94,8.7,10.21,15.92-2,5.34-6.51,7.56-11.82,8.26C319.11,57.15,315.84,57.15,312.05,57.37Zm.25-3.95c2.75,0,5.13.15,7.48,0a7,7,0,0,0,5.82-3.58,10.49,10.49,0,0,0,.13-10.52c-1.68-3.2-4.68-4.09-8.08-4.06a21.24,21.24,0,0,0-3.66.07c-.64.13-1.6.93-1.62,1.45C312.26,42.18,312.3,47.63,312.3,53.42Z"/><path class="cls-1" d="M194,77.4c-6.33,0-11.38-2-15.51-6.11-7-7-6.9-17.33.09-24.29,8-8,22.09-8.07,30.22-.15a16.87,16.87,0,0,1-1,25.64A20.32,20.32,0,0,1,194,77.4Zm-.19-2.76c5.53,0,9.55-2.6,11.67-7.68a19.79,19.79,0,0,0,.57-14.07c-1.89-5.91-6.5-9.39-12.33-9.36s-10.32,3.37-12,9.35a27,27,0,0,0-.89,8.89C181.45,69.66,186.68,74.64,193.85,74.64Z"/><path class="cls-1" d="M433.82,43l2.2-2.49.73.41c0,3.58,0,7.15,0,10.72,0,.37-.61.73-.94,1.1-.37-.33-.88-.6-1.07-1-.58-1.25-.89-2.64-1.56-3.83a7.81,7.81,0,0,0-9.26-3.72,6.77,6.77,0,0,0-3.51,3.26c-.83,1.81.32,3.54,2,4.52,2.39,1.41,4.89,2.62,7.35,3.9,1.3.68,2.65,1.28,3.94,2,4.47,2.44,6.8,6.32,6.18,10.19a11.3,11.3,0,0,1-9.52,9.27c-4.21.75-5.84.36-12.32-2.92-.9,1.17-1.79,2.35-2.68,3.52l-.66-.45V63.88l.7-.38a9.33,9.33,0,0,1,1.42,2.25c1.42,4.75,4.46,7.72,9.38,8.55a10.25,10.25,0,0,0,4.34-.24c4.12-1.17,5.18-5.51,2-8.35a28.76,28.76,0,0,0-5.59-3.47c-2.15-1.16-4.47-2-6.58-3.25-4.66-2.69-6.74-7.31-5.35-11.45,1.46-4.35,6.54-7.34,11.66-6.56A61.63,61.63,0,0,1,433.82,43Z"/><path class="cls-1" d="M60.07,32.1a23.34,23.34,0,0,0,4.76-.63c.84-.28,1.38-1.42,2.06-2.18-.78-.57-1.54-1.63-2.33-1.64q-11.89-.2-23.8,0c-.8,0-1.58,1.22-2.37,1.88.67.67,1.4,2,2,1.92,4.38-.37,5.46,2.47,6.51,5.83,1.49,4.82,4.61,9.5,4.68,14.28S48.82,61,47.25,65.71c-1.65,4.92-3.3,9.84-5.14,15.35-5.62-16.67-11-32.71-16.52-48.95a23.57,23.57,0,0,0,4.66-.61c.86-.29,2-1.32,2.07-2.1.12-1.5-1.21-1.87-2.6-1.81-4.17.2-8.34.36-12.52.52A6,6,0,0,1,16,27.9C28.72,6.24,63,.1,83.8,19.33a8.17,8.17,0,0,0-7,5c-1.39,3.21-.6,6.25.92,9.16,1.09,2.09,2.39,4.08,3.54,6.15a21.53,21.53,0,0,1,2.24,17.21C81.28,64.62,79,72.34,76.48,80.73Z"/><path class="cls-1" d="M68.54,96.45a46.24,46.24,0,0,1-27.81.7c4.5-13,9-25.91,13.61-39.42C59.17,70.89,63.79,83.49,68.54,96.45Z"/><path class="cls-1" d="M33.19,94.08C10.32,82.84,2.29,55.81,11.64,35.27,18.84,54.91,25.92,74.23,33.19,94.08Z"/><path class="cls-1" d="M77.18,91.77c1.24-3.59,2.46-7.19,3.71-10.77,3.61-10.38,7.46-20.68,10.77-31.15,1.63-5.13,2.28-10.58,3.34-15.73A42.93,42.93,0,0,1,98.62,61.3c-2.4,13.27-9.54,23.47-20.83,30.78Z"/></g></g></g></svg>