<svg xmlns="http://www.w3.org/2000/svg" viewBox="0 0 90.98 90.98"><defs><style>.cls-1,.cls-2{fill:#90b20a;}.cls-2{opacity:0.45;}.cls-3{fill:#fff;}</style></defs><g id="Capa_2" data-name="Capa 2"><g id="Capa_1-2" data-name="Capa 1"><circle class="cls-1" cx="45.49" cy="45.49" r="40"/><circle class="cls-2" cx="45.49" cy="45.49" r="45.49"/><path class="cls-3" d="M65.85,49.13a6.07,6.07,0,0,0,0-.77l-1.22-5.42-5.49,3c0,.13,0,.25.09.26,2.4.77,2.5,1.05,1,3A47.16,47.16,0,0,1,29.72,67.49c-.16,0-.33,0-.66.07l-.25-1.85c.14-.1.2-.17.28-.19,2.47-.61,2.49-.61,2.86-3.14.67-4.54,1.36-9.09,1.93-13.64a37.46,37.46,0,0,0,0-4.62l-.5-.08-4.15,5.44a5.53,5.53,0,0,1-5.46,1.68A2.11,2.11,0,0,1,23,47.82c1.5-2.12,3.06-4.2,4.6-6.3.9-1.23,1.73-2.51,2.71-3.66s2.16-2.26,3.17-3.29a16.81,16.81,0,0,1-.72-4,5.43,5.43,0,0,1,1.42-3,5,5,0,0,1,6-1.09c2.3,1.13,3.11,3.1,2.69,6.79,2.41-1.89,4.73-3.69,7-5.51.9-.71,2-1.65,3-.72a10.06,10.06,0,0,1,2.27,3.62c.17.4-.58,1.4-1.13,1.84-2.71,2.16-5.48,4.25-8.26,6.33a1.83,1.83,0,0,0-.77,1.7c-.13,3.17,1.29,5.08,4.27,6A2.81,2.81,0,0,1,51,48.76c.48,1.79,1,3.57,1.68,5.68l5.76-6.18a21.46,21.46,0,0,1-2.58-.72A1.61,1.61,0,0,1,55,46.6a1.3,1.3,0,0,1,.59-1c3-1.74,6.12-3.44,9.2-5.12a1,1,0,0,1,1.58.74c.71,3,1.4,6.08,2,9.13.21,1-.46,1.55-1.47,1.31-2.31-.54-2.3-.54-3.68,1.39C57.56,61,50.8,67.89,41.89,72.38A41.38,41.38,0,0,1,27,76.66c-.34,0-.68,0-1.13,0v-2a40,40,0,0,0,12-2.74c8-3.24,14.42-8.57,19.88-15.12,1.77-2.13,3.41-4.38,5-6.67C63.49,49,64.21,48.09,65.85,49.13ZM24.65,49A3,3,0,0,0,28,47.71c1.68-2.42,3.52-4.73,5.34-7.05A2,2,0,0,1,34.64,40c.25,0,.76.5.79.81A52.19,52.19,0,0,1,36,48.58c-.16,3.05-.83,6.08-1.27,9.13-.32,2.21-.63,4.43-.95,6.7,2.83-.49,2.86-.49,3.3-3,.75-4.14,1.44-8.28,2.19-12.41.22-1.25.76-1.51,1.92-1a41.77,41.77,0,0,1,4.18,2.09,4.67,4.67,0,0,1,1.72,1.94c.74,1.65,1.26,3.39,2,5.52.68-.94,1.69-1.74,1.57-2.28-.83-3.65-1.35-7.62-6-8.72a.41.41,0,0,1-.23-.11c-.36-.49-.91-1-1-1.49-.34-1.7-.49-3.43-.76-5.14a1.87,1.87,0,0,1,.85-2c2.89-2.15,5.73-4.35,8.59-6.53.3-.23.57-.49.88-.76l-1.15-1.66-1.19.88c-2.35,1.84-4.68,3.72-7.08,5.51a4.65,4.65,0,0,1-2.1.8c-2.06.26-4.16.29-6.21.59A3.93,3.93,0,0,0,33,37.83C30.14,41.46,27.47,45.19,24.65,49ZM39,62.59l.29.3c2.48-1.35,5-2.69,7.43-4.09.2-.12.26-.75.16-1.07q-.78-2.41-1.68-4.77a2,2,0,0,0-.74-1c-1-.58-2.14-1.06-3.34-1.64ZM40.9,31.23a3.11,3.11,0,0,0-3.12-3.12,3.17,3.17,0,0,0-3.09,3.19,3.1,3.1,0,0,0,3.09,3A3,3,0,0,0,40.9,31.23Z"/><path class="cls-3" d="M56.28,27.61c.15-.9.26-1.81.47-2.69A2,2,0,0,0,56,22.64a13,13,0,0,1-1.72-1.76C53.58,20,53.87,19,55,19a4.79,4.79,0,0,0,5.19-3.93,1.36,1.36,0,0,1,1-.78c.35,0,.71.49,1.06.76a.26.26,0,0,1,0,.12c.69,2.53,2.21,3.86,5,3.81,1.26,0,1.68,1.18.69,1.94A5.17,5.17,0,0,0,66,27.36a1.08,1.08,0,0,1-1.7,1.16c-2.11-1.71-4.11-1.65-6.25,0A1.05,1.05,0,0,1,56.28,27.61Zm8.89-6.82c-2.15.12-3.35-.89-4.05-2.9-.42,2.23-1.92,2.84-3.92,2.86.71.83,1.51,1.4,1.75,2.15a8.25,8.25,0,0,1-.11,2.73,6.87,6.87,0,0,1,2.29-.93,8.78,8.78,0,0,1,2.62,1C62.84,23.62,63.4,22.08,65.17,20.79Z"/></g></g></svg>