<svg xmlns="http://www.w3.org/2000/svg" viewBox="0 0 90.98 90.98"><defs><style>.cls-1,.cls-2{fill:#90b20a;}.cls-2{opacity:0.45;}.cls-3{fill:#fff;}</style></defs><g id="Capa_2" data-name="Capa 2"><g id="Capa_1-2" data-name="Capa 1"><circle class="cls-1" cx="45.49" cy="45.49" r="40"/><circle class="cls-2" cx="45.49" cy="45.49" r="45.49"/><path class="cls-3" d="M63.58,57.71c-.92,2.9-1.81,3.59-5.14,4C57.48,65,56,66,52.63,65.69c-2.07,4.3-4.06,4.73-8.74,1.76-1.12,1.34-2.38,2.65-4.4,2.36A4.05,4.05,0,0,1,36,66.32c-3.14-.79-3.38-1-4.5-3.82C28.71,62,28,61.43,27.16,58.91c-4-1.09-4.84-2.41-3.89-6.41l-4.84-3a.87.87,0,0,0-.54-.16c-3.25.85-5.66-1.4-8.4-2.36-1.33-.46-1.3-1.84-.79-3.11,2.18-5.46,4.33-10.93,6.5-16.4C16.71,23.59,17,23.48,20.81,25c1.08.42,2.14.88,3.23,1.27s2.08,1,2.13,2.42a1,1,0,0,0,.53.71,23.69,23.69,0,0,0,3.75.95c3.05.38,6.12.64,9.19.89a1.69,1.69,0,0,0,1.24-.41,6.36,6.36,0,0,1,6.73-1.91,26.72,26.72,0,0,1,2.7.48c.41.14.64.79,1,1.2-.43.3-.87.87-1.29.85-1.25-.05-2.49-.52-3.72-.48a5.75,5.75,0,0,0-3.17.89c-3.42,2.66-6.68,5.53-10,8.28-.85.69-.67,1.13.09,1.65a4,4,0,0,0,4.14.34,31.78,31.78,0,0,0,4.65-2.87c1.72-1.26,2.64-1.32,4.17.14A12.74,12.74,0,0,0,57,43.05a2.89,2.89,0,0,1,1.82.62c2.82,2,5.6,4.09,8.44,6.18l4.65-3c-2.06-5.21-4.11-10.39-6.18-15.64-.94.35-1.77.6-2.56,1-2.65,1.16-5.31.65-8,.06-.39-.08-.64-.78-.95-1.19a6.32,6.32,0,0,1,1.3-.85,2.18,2.18,0,0,1,1.13.15,10.24,10.24,0,0,0,7.44-.89c.34-.16.52-.65.79-1,.53-.67.94-1.61,1.64-2A55.85,55.85,0,0,1,72,24.29a2.16,2.16,0,0,1,3.06,1.31c.94,2.27,1.87,4.55,2.67,6.87.15.45-.33,1.11-.52,1.67-.48-.29-1.21-.46-1.41-.87-.82-1.79-1.48-3.66-2.21-5.5-.19-.48-.42-.95-.66-1.51L67,28.6l7.46,18.88,6-2.35c-.86-2.19-1.66-4.25-2.48-6.3-.3-.76-.58-1.57.42-1.95s1.34.43,1.63,1.18c.76,1.93,1.54,3.85,2.28,5.78s.25,2.78-1.57,3.52A43.72,43.72,0,0,1,76,49.18a10.67,10.67,0,0,1-2.88,0,1.85,1.85,0,0,0-.89.07c-1,.61-2.07,1.25-3,2a1.19,1.19,0,0,0-.41.92C69.12,55.94,67.6,57.62,63.58,57.71Zm-21.3,1a4.15,4.15,0,0,1,4,2.42c.78,1.68.18,3.16-.86,4.62A15.17,15.17,0,0,0,47.3,67a1.91,1.91,0,0,0,2.63-.8,1.83,1.83,0,0,0-.47-2.68c-.46-.35-.92-.7-1.37-1.06-.6-.47-1.22-1-.6-1.79s1.34-.39,2,.11c1.08.82,2.13,1.68,3.25,2.42a2.15,2.15,0,0,0,3.07-.57,2,2,0,0,0-.66-2.9c-.79-.63-1.6-1.24-2.41-1.85-.62-.48-1.14-1-.51-1.81s1.27-.37,1.89.11c1.26,1,2.5,2,3.82,2.87a2.11,2.11,0,0,0,3-.5,2.08,2.08,0,0,0-.51-2.93,35.49,35.49,0,0,1-2.94-2.34c-.37-.36-.34-1.12-.49-1.7.6,0,1.35-.21,1.77.07,1.45.94,2.78,2.08,4.17,3.11s2.67.92,3.45-.14.43-2.35-.9-3.34C63,49.49,60.66,47.68,58.2,46A3.93,3.93,0,0,0,56,45.32a15,15,0,0,1-10.33-3.44c-.56-.44-1.09-.92-1.45-1.23-2.09,1.22-4,2.47-6,3.45a6.13,6.13,0,0,1-5.72-.17c-2.87-1.54-3-4-.32-5.83,2.1-1.5,4.1-3.12,6.38-4.87-4.58-1.23-9.12.2-13.2-2L19,47.21l5.85,3.7c1.32-1.5,2.36-3.26,4.61-3.27,1.92,0,3.16,1.07,4.13,3.66A4.18,4.18,0,0,1,37.88,55,4.25,4.25,0,0,1,42.28,58.73ZM16.54,47.48,24,28.6l-6-2.36L10.56,45.11Zm10.4,9c.14,0,.51,0,.67-.23A47.7,47.7,0,0,0,31.1,52.1c.23-.34-.16-1.49-.6-1.82a2,2,0,0,0-1.92-.09,22.4,22.4,0,0,0-3.36,3.92C24.53,55.15,25.54,56.52,26.94,56.51Zm2.31,2.09c.38.47.71,1.25,1.2,1.37a2.54,2.54,0,0,0,2-.41,23.34,23.34,0,0,0,2.67-3A1.66,1.66,0,0,0,35,54a1.7,1.7,0,0,0-2.56.3c-.86,1-1.71,2-2.52,3A7.45,7.45,0,0,0,29.25,58.6Zm10.84,9c.16,0,.53,0,.7-.22a41.15,41.15,0,0,0,3.42-4,1.94,1.94,0,0,0-.46-1.86,2.16,2.16,0,0,0-2-.17,21.63,21.63,0,0,0-3.31,3.78A1.71,1.71,0,0,0,40.09,67.63Zm-6.44-5.25c.4.46.74,1.19,1.24,1.33a2.35,2.35,0,0,0,1.92-.37,25.84,25.84,0,0,0,2.76-3.14,1.64,1.64,0,0,0-.15-2.45,1.69,1.69,0,0,0-2.56.2c-.9,1-1.78,2-2.61,3.07A5.76,5.76,0,0,0,33.65,62.38Z"/></g></g></svg>