<svg xmlns="http://www.w3.org/2000/svg" viewBox="0 0 90.98 90.98"><defs><style>.cls-1,.cls-2{fill:#90b20a;}.cls-2{opacity:0.45;}.cls-3{fill:#fff;}</style></defs><g id="Capa_2" data-name="Capa 2"><g id="Capa_1-2" data-name="Capa 1"><circle class="cls-1" cx="45.49" cy="45.49" r="40"/><circle class="cls-2" cx="45.49" cy="45.49" r="45.49"/><path class="cls-3" d="M65.78,44.36A19.92,19.92,0,0,1,56.51,61a3.84,3.84,0,0,0-2,3.8c.09,1.2,0,2.41,0,3.62a3.87,3.87,0,0,1-1.85,3.33A2.15,2.15,0,0,0,51.81,73a5,5,0,0,1-5,4.21c-.91,0-1.83,0-2.74,0A5,5,0,0,1,39.17,73a2.16,2.16,0,0,0-.82-1.22,3.89,3.89,0,0,1-1.87-3.45c0-1.33,0-2.67,0-4a3.31,3.31,0,0,0-1.69-3.09,19.94,19.94,0,0,1-9.54-18.35,20.27,20.27,0,0,1,40.37-1.14C65.74,42.55,65.73,43.35,65.78,44.36ZM52.2,65.42c0-.37,0-.62,0-.87a5.57,5.57,0,0,1,2.95-5.35,18,18,0,1,0-20-.44c2.42,1.62,3.84,3.46,3.58,6.42,0,.06.08.13.15.24ZM38.81,67.76c-.09,1.73.31,2.23,1.81,2.24,3.25,0,6.49,0,9.74,0,1.54,0,2-.64,1.72-2.24Zm2.7,4.55a2.53,2.53,0,0,0,2.41,2.62,27.06,27.06,0,0,0,3.12,0,2.37,2.37,0,0,0,2.36-2.62Z"/><path class="cls-3" d="M46.6,17.5a10.22,10.22,0,0,1-.05,2.35c-.1.43-.7.75-1.07,1.12-.37-.38-1-.73-1-1.14a34.21,34.21,0,0,1,0-5c0-.39.7-.74,1.07-1.1.37.37,1,.7,1,1.13A13.25,13.25,0,0,1,46.6,17.5Z"/><path class="cls-3" d="M65.79,33.5a4.57,4.57,0,0,1-.49-1.28A1.54,1.54,0,0,1,65.69,31a49.41,49.41,0,0,1,4.52-2.6,1.34,1.34,0,0,1,1.26.34c.21.29.2,1.16,0,1.3-1.59,1-3.26,2-4.91,2.9-.06,0-.16,0-.24,0Z"/><path class="cls-3" d="M25.76,31.71c0,1-.86,1.55-1.62,1.15a45.86,45.86,0,0,1-4.39-2.58,1.59,1.59,0,0,1-.26-1.47,1.42,1.42,0,0,1,1.34-.35c1.52.76,3,1.64,4.42,2.53C25.53,31.16,25.66,31.56,25.76,31.71Z"/><path class="cls-3" d="M34.78,23c-.37.43-.6.91-.94,1a1.31,1.31,0,0,1-1.19-.28c-1-1.53-1.88-3.11-2.7-4.73a1.24,1.24,0,0,1,.41-1.15c.29-.19,1.08-.2,1.22,0C32.68,19.54,33.68,21.24,34.78,23Z"/><path class="cls-3" d="M18.82,45a10.83,10.83,0,0,1-2.35,0c-.43-.1-.76-.68-1.14-1,.36-.38.71-1.06,1.1-1.09a32.85,32.85,0,0,1,5,0c.4,0,.76.7,1.13,1.07-.4.37-.76,1-1.22,1.07a11.38,11.38,0,0,1-2.48.05Z"/><path class="cls-3" d="M72.05,45A10.23,10.23,0,0,1,69.7,45c-.47-.11-.83-.68-1.24-1,.36-.38.71-1,1.1-1.08a31.59,31.59,0,0,1,5,0c.4,0,.76.69,1.14,1.07-.42.37-.78.95-1.26,1.06A10.21,10.21,0,0,1,72.05,45Z"/><path class="cls-3" d="M57.7,24.2c-1,0-1.55-.85-1.15-1.63a43.77,43.77,0,0,1,2.57-4.39,1.59,1.59,0,0,1,1.49-.26c.27.1.51,1,.34,1.35-.75,1.51-1.64,3-2.52,4.41C58.26,24,57.85,24.1,57.7,24.2Z"/><path class="cls-3" d="M25.74,56.24a3.7,3.7,0,0,1-.76.81c-1.27.78-2.57,1.5-3.86,2.24-.66.38-1.32.41-1.73-.3s-.06-1.26.61-1.64c1.29-.74,2.56-1.52,3.87-2.23C24.86,54.59,25.79,55.06,25.74,56.24Z"/><path class="cls-3" d="M70.81,59.63a5.75,5.75,0,0,1-.88-.3c-1.33-.75-2.65-1.52-4-2.29-.65-.38-1.08-1-.52-1.61A1.73,1.73,0,0,1,67,55.11a32,32,0,0,1,4.08,2.36,1.71,1.71,0,0,1,.53,1.34C71.61,59.11,71.07,59.38,70.81,59.63Z"/><path class="cls-3" d="M60,39.36a18.35,18.35,0,0,0-1.54,4.11c-.17,1.4.49,2.89.45,4.33s-1.26,2.43-2,3.58-.73,2.65-1.23,3.93a2.91,2.91,0,0,1-1.36,1.22c-1.9,1-3.75,2.46-5.77,2.76a15.75,15.75,0,0,1-6.12,0,23.45,23.45,0,0,1-7-3.87c-.73-.53-.79-2-1.17-3a4.56,4.56,0,0,0-.64-1.47,6,6,0,0,1-1.33-6.46,2.23,2.23,0,0,0-.11-1.55A7.36,7.36,0,0,1,36.09,32.4a3,3,0,0,0,1.4-1.19,5.74,5.74,0,0,1,7-2.41,2.09,2.09,0,0,0,1.84,0,5.73,5.73,0,0,1,7.13,2.44,2.86,2.86,0,0,0,1.31,1.12,7.48,7.48,0,0,1,4.91,6.87Zm-3.41,2.56a4.92,4.92,0,0,0-1.84-7.09,2.83,2.83,0,0,0-4.11.91c-.45.6-1,1-1.67.5a1.07,1.07,0,0,1-.21-1.73c.74-.86,1.59-1.62,2.52-2.54A8,8,0,0,0,50.07,31c-2-1.06-3.45-.22-3.45,2,0,7.49,0,15,0,22.46,0,.53.23,1.41.56,1.52a6.09,6.09,0,0,0,2.19-.08,7.61,7.61,0,0,1-1.31-1.55A1.59,1.59,0,0,1,48.18,54c.27-.26,1-.18,1.43-.11.24,0,.42.39.65.56a2.6,2.6,0,0,0,3.58-.4,2.56,2.56,0,0,0-.21-3.51c-.14-.14-.42-.23-.47-.39-.15-.53-.22-1.09-.32-1.64a5.57,5.57,0,0,1,1.66-.11c.43.11.78.56,1.16.86a3.42,3.42,0,0,0,.79-4.11A3.46,3.46,0,0,0,50,46.21c0,.24,0,.58-.13.72-.34.34-.8.85-1.16.82s-.86-.61-.95-1a3.87,3.87,0,0,1,.21-1.7C48.69,42.21,52.38,39.55,56.62,41.92Zm-22.29,0c.42-.19.79-.38,1.18-.53a5.72,5.72,0,0,1,7.79,4.77c.05.75,0,1.5-.91,1.63s-1.26-.58-1.34-1.41A4.13,4.13,0,0,0,41,45.9a3.52,3.52,0,0,0-3.12-2.64,3.46,3.46,0,0,0-3.41,2,3.29,3.29,0,0,0,.88,3.91,8.43,8.43,0,0,1,1.42-1,1.38,1.38,0,0,1,1.13.09,1.27,1.27,0,0,1,.4,1.06,2,2,0,0,1-.71.94A2.6,2.6,0,1,0,41,54.23c.12-.11.23-.32.36-.33.49,0,1.24-.21,1.42,0a1.74,1.74,0,0,1,.11,1.5c-.21.49-.75.85-1.42,1.55a15.32,15.32,0,0,0,2.42,0c.21,0,.48-.63.49-1q0-12,0-24.08a1.38,1.38,0,0,0-.61-1,3,3,0,0,0-3.94,1.2c.77.72,1.57,1.36,2.25,2.12.52.59.82,1.36,0,2s-1.34.06-1.82-.63a2.62,2.62,0,0,0-3.27-1.06A5,5,0,0,0,34.33,41.93Z"/></g></g></svg>