<svg xmlns="http://www.w3.org/2000/svg" viewBox="0 0 90.98 90.98"><defs><style>.cls-1,.cls-2{fill:#90b20a;}.cls-2{opacity:0.45;}.cls-3{fill:#fff;}</style></defs><g id="Capa_2" data-name="Capa 2"><g id="Capa_1-2" data-name="Capa 1"><circle class="cls-1" cx="45.49" cy="45.49" r="40"/><circle class="cls-2" cx="45.49" cy="45.49" r="45.49"/><path class="cls-3" d="M20.7,73H18.89c0-.38,0-.73,0-1.08,0-5,0-10,0-15,0-4.17,2.69-6.89,6.85-6.92,1.61,0,3.23,0,4.84,0a1.87,1.87,0,0,0,2.1-2,2.87,2.87,0,0,0-1.24-2.88,8.34,8.34,0,0,1-3.32-6.71c0-1.33-.08-2.66,0-4a1.74,1.74,0,0,1,.78-1.22c5-2.4,10-4.73,15-7.09.78-.37,1.35-.19,1.64.6a8.83,8.83,0,0,1,.8,2.66c.07,3.47.15,7-.09,10.42a7.85,7.85,0,0,1-3.6,5.76,3.17,3.17,0,0,0-.64,3.21,1.84,1.84,0,0,0,2,1.27q2.47,0,4.95,0a6.51,6.51,0,0,1,6.74,6.73,25.37,25.37,0,0,0,.13,3c.95-1.86,2.4-3.41,2.78-5.58a6.29,6.29,0,0,1,6.06-5c2.69-.06,5.38,0,8.07,0,1.08,0,1.38.38,1.3,1.48a6.37,6.37,0,0,1-5.8,5.81,1.64,1.64,0,0,0-1.52,1C64.12,62.24,61.54,67,59,71.7c-.82,1.52-.82,1.52-2.78,1.28l8.89-16.46c-1.78,0-3.38,0-5,0-.24,0-.53.42-.69.71-1.23,2.18-2.41,4.4-3.69,6.56-.24.41-.83.61-1.25.91-.24-.46-.68-.92-.69-1.39-.08-2.15,0-4.31,0-6.46,0-3-1.88-4.82-4.88-5a3.57,3.57,0,0,0-3.53,1.74c-2.19,3.15-4.58,6.16-6.9,9.22-1,1.37-1.44,1.36-2.47-.07-2.4-3.35-4.82-6.7-7.19-10.08a1.57,1.57,0,0,0-1.59-.79,15,15,0,0,1-1.5,0c-3.11,0-5,1.82-5,4.94,0,4.49,0,9,0,13.46Zm23.44-45c-4.74,2.23-9.24,4.34-13.73,6.47a1,1,0,0,0-.51.68A24,24,0,0,0,30.18,40a7.29,7.29,0,0,0,14.33-1.35c.12-2.79.05-5.59,0-8.39A15.2,15.2,0,0,0,44.14,28.06ZM30.54,52c.81,1.15,1.53,2.21,2.32,3.22a1.31,1.31,0,0,0,.91.36q3.6,0,7.2,0a1.25,1.25,0,0,0,.85-.28c.85-1,1.63-2.15,2.47-3.28-3.29-.45-3.74-1-4.41-4.87H34.5C34.65,49.84,33.61,51.7,30.54,52Zm41.39-.9c-2.68,0-5.36-.12-8,0a3.9,3.9,0,0,0-3.4,3.43c2.64,0,5.28.12,7.91,0A4,4,0,0,0,71.93,51.11ZM40.16,57.55H34.49l2.76,3.85Z"/><path class="cls-3" d="M43.69,48.19V46.47l1-.09a4.35,4.35,0,0,0,4.46-4.22A102.55,102.55,0,0,0,49,30c-.52-5.79-5.65-10.12-11.58-10.23a11.73,11.73,0,0,0-11.85,9.81,57.87,57.87,0,0,0-.24,7c0,1.62,0,3.23,0,4.85,0,3,1.72,4.8,4.74,5,.21,0,.41,0,.69.07v1.69a6.3,6.3,0,0,1-7.25-6.08,106.73,106.73,0,0,1,.1-11.73A13.72,13.72,0,0,1,51,31.17c.11,3.59.09,7.18,0,10.77A6.38,6.38,0,0,1,43.69,48.19Z"/><path class="cls-3" d="M59.31,36.26c-.83,0-1.5,0-2.18,0a4.45,4.45,0,0,1-4.24-4.33c-.06-3.19-.06-6.39,0-9.58A4.41,4.41,0,0,1,57.2,18c4.15-.09,8.32-.09,12.48,0A4.39,4.39,0,0,1,74,22.25q.14,4.83,0,9.68a4.47,4.47,0,0,1-4.37,4.33,3.55,3.55,0,0,1-.86,0,5.76,5.76,0,0,0-6.09,2.54A8.8,8.8,0,0,1,61,40.48a1.4,1.4,0,0,1-1.14.25c-.25-.09-.48-.6-.5-.94C59.27,38.69,59.31,37.58,59.31,36.26Zm1.81,1.2.45.34a9.42,9.42,0,0,1,.56-1,5.25,5.25,0,0,1,5.56-2.3,7.88,7.88,0,0,0,1.61,0,2.69,2.69,0,0,0,2.82-2.77q.07-4.57,0-9.15a2.61,2.61,0,0,0-2.8-2.76c-3.95,0-7.89,0-11.84,0a2.59,2.59,0,0,0-2.76,2.7q-.09,4.62,0,9.26a2.71,2.71,0,0,0,2.88,2.72c.71,0,1.43,0,2.15,0,1,0,1.41.34,1.36,1.32C61.09,36.35,61.12,36.91,61.12,37.46Z"/><path class="cls-3" d="M49.35,73h-2c0-1.45-.21-2.78.69-4.15a6.72,6.72,0,0,0,.26-7.06c-.27-.54-.59-1-.93-1.65l1.49-1c2.15,3,2.77,6.12,1.37,9.49C49.69,70.08,48.8,71.34,49.35,73Z"/><path class="cls-3" d="M25.62,59.25l1.13.72a30.71,30.71,0,0,0-1.36,5.12,6,6,0,0,0,.88,3.56c.93,1.41.8,2.81.77,4.36H25.42s-.12-.1-.11-.15a7.35,7.35,0,0,0-1-4A9,9,0,0,1,25.62,59.25Z"/><path class="cls-3" d="M69.36,26.24V28H57.51V26.24Z"/><path class="cls-3" d="M57.5,22.55h6.3v1.74H57.5Z"/><path class="cls-3" d="M57.48,31.65V29.92h6.33v1.73Z"/><path class="cls-3" d="M69.36,22.57V24.3H65.83V22.57Z"/></g></g></svg>