<svg xmlns="http://www.w3.org/2000/svg" viewBox="0 0 90.98 90.98"><defs><style>.cls-1,.cls-2{fill:#90b20a;}.cls-2{opacity:0.45;}.cls-3{fill:#fff;}</style></defs><g id="Capa_2" data-name="Capa 2"><g id="Capa_1-2" data-name="Capa 1"><circle class="cls-1" cx="45.49" cy="45.49" r="40"/><circle class="cls-2" cx="45.49" cy="45.49" r="45.49"/><path class="cls-3" d="M27,49.47c-2.22-2.87-1.79-5.09,1.23-7.18-1.12-3.28-.49-4.85,2.59-6.4-.09-2.93.56-4,3.09-5.16a14.55,14.55,0,0,1,.19-2.22A3.4,3.4,0,0,1,37,25.67c2.78-.27,5.52-1.21,8.42-.31a44.35,44.35,0,0,0,6.74,1.16,4.16,4.16,0,0,1,3.63,4c0,.39,0,.78,0,1.22a4.29,4.29,0,0,1,3.06,5.13c2.68,1.36,3.37,2.5,3.15,5.18,3.37,1.38,4.16,4.67,1.75,7.41,1.2,1.15,2.4,2.34,3.64,3.46a1.12,1.12,0,0,0,.92.12,4.08,4.08,0,0,1,4.42,1.21c.6.62,1.24,1.21,1.84,1.84a3.89,3.89,0,0,1,.06,5.55q-6.41,6.51-12.9,12.89a3.88,3.88,0,0,1-5.55,0c-.72-.68-1.42-1.38-2.1-2.09a4,4,0,0,1-1-4,1.57,1.57,0,0,0-.31-1.28c-1.2-1.31-2.48-2.55-3.75-3.79a1.68,1.68,0,0,0-.88-.48c-1.58-.07-3.16-.14-4.73-.07a2.85,2.85,0,0,0-1.66.7A48.57,48.57,0,0,0,38.17,67a1.59,1.59,0,0,0-.29,1.28,4.08,4.08,0,0,1-1,4.36c-.66.68-1.32,1.37-2,2a3.94,3.94,0,0,1-5.64,0c-.81-.76-1.56-1.57-2.35-2.34-.61-.6-.92-1.28-.22-2s1.37-.31,1.95.3,1.43,1.47,2.18,2.17a1.57,1.57,0,0,0,2.49,0,27.21,27.21,0,0,0,2-2,1.45,1.45,0,0,0,0-2.21C31.08,64.45,27,60.3,22.83,56.19c-1.17-1.17-1.84-1.11-3,0-.48.47-1,.94-1.42,1.42-1,1-1,1.79,0,2.76.71.74,1.44,1.46,2.17,2.18.58.57.81,1.22.18,1.86s-1.28.43-1.85-.15c-.84-.84-1.7-1.66-2.51-2.52a3.93,3.93,0,0,1,0-5.47c.72-.79,1.49-1.53,2.26-2.26a4.14,4.14,0,0,1,3.74-1,1.58,1.58,0,0,0,1.13-.21C24.69,51.78,25.82,50.62,27,49.47Zm35,1.69c-.11.09-.18.13-.24.19-.63.64-1.34,1.33-2.2.47s-.11-1.56.52-2.18,1.42-1.37,2.09-2.1a1.74,1.74,0,1,0-2.44-2.48c-.18.15-.34.33-.51.5-.63.65-1.32,1.35-2.18.45s-.09-1.56.53-2.19,1.15-1.09,1.64-1.7a1.58,1.58,0,0,0-.11-2.25,1.6,1.6,0,0,0-2.33-.14,14,14,0,0,0-1.11,1.07c-.57.57-1.23.84-1.87.21s-.41-1.34.2-1.95,1.37-1.31,2-2a1.69,1.69,0,0,0-.06-2.44,1.63,1.63,0,0,0-2.35,0c-.39.33-.74.71-1.11,1.07-.59.57-1.25.75-1.86.1A1.17,1.17,0,0,1,50.77,34c.67-.67,1.36-1.32,2-2a1.77,1.77,0,0,0,.09-2.54,1.72,1.72,0,0,0-2.54.07c-.78.73-1.48,1.54-2.27,2.24A1.71,1.71,0,0,0,47.4,34a3.64,3.64,0,0,1,0,2.07c-.49,2-2,2.9-3.94,3.16a4.27,4.27,0,0,1-3.58,4.06.93.93,0,0,0-.63.52,4.3,4.3,0,0,1-4.08,3.73c-.7,3.4-2.64,4.61-5.92,3.76a1.13,1.13,0,0,0-.91.21c-1.16,1.07-2.26,2.19-3.32,3.23l11,11.07a23.57,23.57,0,0,0,2.09-2.22c2.05-2.78,4.76-3.66,8.09-3.14A4.66,4.66,0,0,0,51,58.73a1.09,1.09,0,0,1,1.76-.14c.62.62.45,1.28-.14,1.86l-1.38,1.4,3.63,3.73L65.6,54.84ZM59,73.4a5.68,5.68,0,0,0,1.22-.71q6.31-6.24,12.57-12.54a1.58,1.58,0,0,0,0-2.42c-.62-.66-1.26-1.31-1.92-1.93a1.57,1.57,0,0,0-2.41,0q-6.35,6.3-12.65,12.64a1.51,1.51,0,0,0,0,2.31,27.23,27.23,0,0,0,2,2A6.13,6.13,0,0,0,59,73.4ZM38.12,27.55c-.65.53-1.41.84-1.54,1.33a2.46,2.46,0,0,0,.39,2c1.63,1.8,3.41,3.48,5.14,5.2a2.49,2.49,0,0,0,.77.52,1.67,1.67,0,0,0,2.15-1,1.32,1.32,0,0,0-.84-1.95,9.81,9.81,0,0,1-5-5C39,28.33,38.61,28.06,38.12,27.55ZM34.8,32.89c-.47.41-1.2.73-1.35,1.23a2.34,2.34,0,0,0,.33,1.9c1.32,1.5,2.78,2.89,4.23,4.28a1.73,1.73,0,1,0,2.48-2.41c-1.42-1.47-2.88-2.91-4.35-4.32A5.64,5.64,0,0,0,34.8,32.89Zm-3.1,5.17c-.52.45-1.21.78-1.39,1.29a2.18,2.18,0,0,0,.29,1.81,39.23,39.23,0,0,0,3.12,3.2,1.78,1.78,0,0,0,2.62.15,1.74,1.74,0,0,0-.16-2.61c-1-1-2-2-3-3A9,9,0,0,0,31.7,38.06Zm1,8.95a24.32,24.32,0,0,0-1.9-2.1,1.71,1.71,0,0,0-2.43,2.35,7.68,7.68,0,0,0,1.68,1.64C31.17,49.66,32.66,48.83,32.7,47Zm12-15.66,3.06-3-6.47-1.17A7.23,7.23,0,0,0,44.72,31.35Z"/><path class="cls-3" d="M31.65,21.19c-.27.29-.49.72-.83.84a1.38,1.38,0,0,1-1.18-.15c-1.54-1.46-3.06-2.95-4.48-4.52a1.41,1.41,0,0,1,0-1.42,1.58,1.58,0,0,1,1.51-.19c1.6,1.45,3.1,3,4.61,4.56C31.49,20.48,31.51,20.8,31.65,21.19Z"/><path class="cls-3" d="M66.07,16.61a7.53,7.53,0,0,1-.73,1.09c-1.29,1.32-2.61,2.62-3.91,3.93-.57.56-1.2.84-1.85.2s-.47-1.26.12-1.85c1.36-1.36,2.69-2.75,4.11-4.06a1.7,1.7,0,0,1,1.36-.29C65.51,15.72,65.75,16.24,66.07,16.61Z"/><path class="cls-3" d="M44.19,18.94c0-.83,0-1.65,0-2.48s.42-1.41,1.19-1.26a1.73,1.73,0,0,1,1.14,1.18,33.18,33.18,0,0,1,0,5.18,1.77,1.77,0,0,1-1.12,1.2c-.78.17-1.19-.45-1.21-1.23S44.19,19.8,44.19,18.94Z"/><path class="cls-3" d="M24.82,67.56c-.46.3-.94.85-1.39.82s-1.13-.72-1.08-1a1.71,1.71,0,0,1,1.08-1.19c.41-.07.92.52,1.39.83Z"/><path class="cls-3" d="M57.08,56c-.47.28-1,.81-1.41.77s-1.11-.77-1-1.07a1.7,1.7,0,0,1,1.13-1.14c.4-.06.89.55,1.34.87Z"/></g></g></svg>