<svg xmlns="http://www.w3.org/2000/svg" viewBox="0 0 90.98 90.98"><defs><style>.cls-1,.cls-2{fill:#90b20a;}.cls-2{opacity:0.45;}.cls-3{fill:#fff;}</style></defs><g id="Capa_2" data-name="Capa 2"><g id="Capa_1-2" data-name="Capa 1"><circle class="cls-1" cx="45.49" cy="45.49" r="40"/><circle class="cls-2" cx="45.49" cy="45.49" r="45.49"/><path class="cls-3" d="M32.91,56.18c-.82,0-1.63,0-2.44,0a5.8,5.8,0,0,1-5.7-5.43c-.06-.93,0-1.85,0-2.78a4,4,0,0,0-1.5-3.18c-4.95-4.3-6.86-9.71-5.1-16s6.21-10.1,12.72-11.18c8.08-1.35,16.27,4.82,17.32,12.94A15.24,15.24,0,0,1,42.6,44.83a3.82,3.82,0,0,0-1.47,3.08c0,1,0,1.93,0,2.89a5.79,5.79,0,0,1-5.63,5.38C34.61,56.2,33.76,56.18,32.91,56.18Zm1.37-12.41a18.34,18.34,0,0,1,2.89,0c2.06.35,3.47-.61,4.83-2a12.75,12.75,0,1,0-17.36.69c.52.46,1.06,1.15,1.65,1.21,1.71.16,3.45.06,5.29.06,0-2.61,0-5.08,0-7.55,0-.27-.37-.58-.64-.78a3.62,3.62,0,0,1,1.65-6.57A3.61,3.61,0,0,1,35,35.39c-.31.24-.7.63-.71,1C34.25,38.76,34.28,41.17,34.28,43.77Zm-6.76,6.87a2.92,2.92,0,0,0,2.7,2.83c1.81.08,3.63.09,5.44,0a2.73,2.73,0,0,0,2.59-2.83Zm-.25-4.19.22,1.44H38.41l.16-1.37c-.39,0-.67-.07-1-.07Zm7-14c-.62-.43-1-.89-1.32-.85a1.31,1.31,0,0,0-.82.93c0,.21.52.75.82.76S33.61,32.86,34.23,32.44Z"/><path class="cls-3" d="M71.45,51.05c-.39.63-.72,1.2-1.09,1.74-.85,1.27-.7,1.66.83,2,.25,0,.51.08.77.12a1.58,1.58,0,0,1,1.53,1.8c0,1.34,0,2.67,0,4a1.61,1.61,0,0,1-1.57,1.9c-2.4.23-2.68.82-1.11,2.73a1.52,1.52,0,0,1-.2,2.34c-1,.94-2,1.92-2.9,2.91a1.55,1.55,0,0,1-2.26.24c-2.26-1.49-2.3-1.48-2.83,1.19A1.5,1.5,0,0,1,61,73.37c-1.4,0-2.81,0-4.22,0A1.48,1.48,0,0,1,55,71.93c-.34-2.58-.83-2.77-2.79-1.19a1.53,1.53,0,0,1-2.34-.23c-.94-1-1.92-2-2.9-2.91a1.48,1.48,0,0,1-.19-2.25c1.5-1.9,1.46-2.55-1.16-2.8a1.49,1.49,0,0,1-1.47-1.73c0-1.37,0-2.74,0-4.11a1.55,1.55,0,0,1,1.5-1.83c2.51-.22,2.69-.86,1.13-2.81A1.48,1.48,0,0,1,47,49.82c1-1,2-1.92,2.9-2.91a1.54,1.54,0,0,1,2.35-.21c2,1.56,2.43,1.36,2.75-1.11a1.54,1.54,0,0,1,1.78-1.53c1.4,0,2.81,0,4.22,0a1.45,1.45,0,0,1,1.65,1.41c.34,2.68.92,2.78,2.86,1.17a1.44,1.44,0,0,1,2.17.17c1,1,2,2,3,3.08A7.39,7.39,0,0,1,71.45,51.05ZM68.11,66.29c-.44-.85-1.19-1.64-1.16-2.4A6.2,6.2,0,0,1,68.1,61a2.51,2.51,0,0,1,1.76-.71c1.32-.08.89-1,1-1.69s.06-1.25-.94-1.37a2.81,2.81,0,0,1-1.93-1c-1-1.57-1.61-3.3.15-4.86,0,0,0-.14,0,0l-1.78-2.13c-1.21,1.07-2.26,1.58-3.95.91s-2-1.93-2.25-3.41h-1c-1.59,0-1.6,0-1.93,1.56a2.11,2.11,0,0,1-1.27,1.52c-1.64.89-3.11,1-4.51-.39,0,0-.14,0-.21,0l-1.81,1.75c.91,1.21,1.57,2.25.85,4s-2,2-3.36,2.19v2.71c1.52.14,2.63.5,3.35,2.16s.06,2.79-.76,3.89L51.2,68a8.44,8.44,0,0,1,2.56-1.13,3.73,3.73,0,0,1,3.55,3c.12.55.32.86.94.81s1.24,0,1.91,0c.16-1.61.54-2.7,2.21-3.42s2.77,0,4,.85Z"/><path class="cls-3" d="M52.55,22.1c2.93,0,5.85,0,8.77,0a7.14,7.14,0,0,1,7.49,7.47c0,4,0,8.08,0,12.12a3.94,3.94,0,0,1,0,.77,1.28,1.28,0,0,1-1.37,1.19,1.23,1.23,0,0,1-1.26-1.29c0-1.11,0-2.22,0-3.34,0-3.11,0-6.22,0-9.33s-1.83-4.91-4.9-4.92c-2.59,0-5.19,0-7.78,0-.32,0-.64,0-1.2,0,1,.92,1.74,1.69,2.54,2.43s1,1.31.33,2.12c-.54.66-1.33.6-2.13-.15Q50.55,27,48.15,24.64c-.94-.9-.93-1.52,0-2.44q2.4-2.31,4.83-4.59c.79-.74,1.6-.79,2.13-.13a1.35,1.35,0,0,1-.27,2.05c-.82.77-1.63,1.56-2.45,2.34Z"/><path class="cls-3" d="M38.72,66c-.79-.88-1.49-1.68-2.23-2.45s-.8-1.29-.18-2a1.31,1.31,0,0,1,2,0c1.7,1.6,3.4,3.21,5.07,4.82a1.34,1.34,0,0,1,0,2.14q-2.56,2.46-5.15,4.89a1.27,1.27,0,0,1-2,0,1.29,1.29,0,0,1,.16-2c.89-.87,1.81-1.73,3-2.84H38.13c-2.81,0-5.62,0-8.44,0a7.15,7.15,0,0,1-7.51-7.55c0-1.66,0-3.33,0-5,0-.93.3-1.63,1.32-1.73.85-.09,1.35.59,1.36,1.75,0,1.67,0,3.33,0,5A4.5,4.5,0,0,0,29.6,66C32.63,66,35.66,66,38.72,66Z"/><path class="cls-3" d="M65.31,58.67a6.5,6.5,0,1,1-6.52-6.49A6.53,6.53,0,0,1,65.31,58.67ZM55,58.7a3.82,3.82,0,1,0,3.81-3.84A3.85,3.85,0,0,0,55,58.7Z"/></g></g></svg>