<svg xmlns="http://www.w3.org/2000/svg" viewBox="0 0 90.98 90.98"><defs><style>.cls-1,.cls-2{fill:#90b20a;}.cls-2{opacity:0.45;}.cls-3{fill:#fff;}</style></defs><g id="Capa_2" data-name="Capa 2"><g id="Capa_1-2" data-name="Capa 1"><circle class="cls-1" cx="45.49" cy="45.49" r="40"/><circle class="cls-2" cx="45.49" cy="45.49" r="45.49"/><path class="cls-3" d="M46.66,22.27c0,2.11,0,4.23,0,6.34,0,1.87-.16,2-2,2.16A14.48,14.48,0,0,0,31.12,42.43a14.64,14.64,0,0,0,11,17.41A14.93,14.93,0,0,0,59.77,48.93a22.38,22.38,0,0,0,.46-3.27,1.32,1.32,0,0,1,1.5-1.39H75.64c.81,0,1.51.22,1.52,1.18s-.72,1.28-1.58,1.29c-1.19,0-2.39,0-3.58,0s-1.36.31-1.51,1.38C68.93,59,63,66.26,52.53,69.8c-.39.14-.83.39-1.18.3-.51-.12-1.3-.45-1.34-.77a2.43,2.43,0,0,1,.71-1.52c.19-.23.68-.21,1-.33C61,64.39,66.42,58,68,48.37c.26-1.58.1-1.73-1.54-1.72-1.14,0-2.57-.34-3.35.21s-.74,2-1.06,3.07c-2.13,7-6.85,11.21-14,12.55-1.06.19-1.38.54-1.37,1.57,0,3.8.05,7.62,0,11.42a2.24,2.24,0,0,1-.74,1.59c-.67.48-1.51-.13-1.56-1.1a35.32,35.32,0,0,1,0-3.71c.06-1-.31-1.44-1.37-1.57A25,25,0,0,1,25.19,60.31,24.57,24.57,0,0,1,21.28,52c-.23-.86-.48-1.84.73-2.13s1.35.62,1.6,1.45c2.89,9.6,9.3,15.19,19.17,16.87,1.2.2,1.6-.18,1.53-1.35s.36-2.85-.24-3.75-2.19-.75-3.34-1.12c-6.58-2.13-10.66-6.55-12.09-13.35-.41-1.92-.37-1.93-2.32-1.93-3.54,0-7.07,0-10.61,0a3.21,3.21,0,0,1-1.62-.5,1.12,1.12,0,0,1-.21-1.09A1.74,1.74,0,0,1,15,44.29a31.23,31.23,0,0,1,4,0c1,0,1.41-.3,1.53-1.38A24.84,24.84,0,0,1,32,23.89a45.79,45.79,0,0,1,6.56-3.1c.75-.33,1.62-.38,2,.61s-.31,1.46-1.21,1.76c-9.4,3.11-14.81,9.59-16.3,19.36-.25,1.6-.12,1.76,1.5,1.75,1.14,0,2.57.33,3.34-.22s.72-2,1-3.09c2.15-7,6.87-11.2,14.07-12.52,1.07-.19,1.36-.58,1.35-1.59,0-3.81,0-7.62,0-11.43,0-.77.05-1.55,1-1.65s1.33.58,1.33,1.48Z"/><path class="cls-3" d="M60.28,36.55c-2.72-.81-4.31.28-5.84,2C52,41.21,49.35,43.7,46.8,46.28c-.6.61-1.26,1.28-2.1.47s-.28-1.55.38-2.21c3.08-3.09,6.17-6.17,9.19-9.32A2.66,2.66,0,0,0,55,33.34c-.63-3.93.79-6.85,3.88-9.25,1.76-1.37,3.18-3.18,4.83-4.71a2,2,0,0,1,1.63-.54c.41.16.7,1,.76,1.54a28.34,28.34,0,0,1,0,3.57c0,.91.35,1.23,1.22,1.21a28.85,28.85,0,0,1,3.72,0,1.88,1.88,0,0,1,1.4.79A1.76,1.76,0,0,1,72,27.49c-2.66,2.73-5.27,5.52-8.15,8C63,36.3,61.31,36.27,60.28,36.55Zm0-2.7c1.34.37,2.43-.37,3.42-1.53.8-.93,1.77-1.73,2.59-2.64A13.83,13.83,0,0,0,67.51,28a16.13,16.13,0,0,0-2-.39c-1.48-.08-1.8-.37-1.82-1.91a4.39,4.39,0,0,0,0-1,5.84,5.84,0,0,0-.39-.94,3,3,0,0,0-.94.43c-1.18,1.15-2.25,2.41-3.49,3.49a4,4,0,0,0-1.4,3.49C57.52,34.21,57.22,33.83,60.31,33.85Z"/><path class="cls-3" d="M46.48,55.66c-6.42,0-11-4.28-11.18-9.66a10.23,10.23,0,0,1,9.34-10.69c.87-.07,1.77-.06,1.91,1s-.59,1.31-1.48,1.4c-4.49.45-7.44,3.71-7.31,8.06A7.73,7.73,0,0,0,45,53.18c4.41.22,7.65-2.61,8.21-7.15,0-.18,0-.43.05-.54.41-.46.86-.88,1.3-1.31.39.48,1.1,1,1.11,1.45a9.49,9.49,0,0,1-2.83,6.94A9.6,9.6,0,0,1,46.48,55.66Z"/></g></g></svg>