<svg xmlns="http://www.w3.org/2000/svg" viewBox="0 0 90.98 90.98"><defs><style>.cls-1,.cls-2{fill:#90b20a;}.cls-2{opacity:0.45;}.cls-3{fill:#fff;}</style></defs><g id="Capa_2" data-name="Capa 2"><g id="Capa_1-2" data-name="Capa 1"><circle class="cls-1" cx="45.49" cy="45.49" r="40"/><circle class="cls-2" cx="45.49" cy="45.49" r="45.49"/><path class="cls-3" d="M55.82,64.36c-3.56-.08-7,.8-10.45-.6-3.41,1.36-6.91.52-10.5.63v4.14c0,1-.4,1.89-1.47,1.68a2.25,2.25,0,0,1-1.31-1.65c-.17-1.94,0-3.92-.12-5.86a3.84,3.84,0,0,0-1-2.15C30.05,59.6,28.85,58.94,28,58a2.27,2.27,0,0,1-.32-2.06c.48-.87,1.38-.6,2.09,0,2,1.64,3.88,3.34,5.92,4.88a5.45,5.45,0,0,0,2.61.94,19.94,19.94,0,0,0,4.23,0c.49-.05.92-.69,1.37-1.06-.45-.37-.89-.76-1.37-1.09a1,1,0,0,0-.64,0,7.84,7.84,0,0,1-8.06-3.28,33.61,33.61,0,0,0-3.58-3.58,5.53,5.53,0,0,0-6.18-1.25,5.45,5.45,0,0,0-3.65,5.3c-.05,3.75,0,7.51-.05,11.26a3.9,3.9,0,0,1-.59,1.93,1.33,1.33,0,0,1-1.29.21,1.75,1.75,0,0,1-.88-1.22c0-4.46-.22-8.93.13-13.36.26-3.4,2.44-5.76,5.73-6.87a8.22,8.22,0,0,1,8.63,1.9c1.84,1.69,3.53,3.55,5.38,5.22a4.36,4.36,0,0,0,2.13.88c1.79.32,3.6.5,5.41.74a2,2,0,0,0,.47.06c2-.25,4-.47,6.05-.8a3.05,3.05,0,0,0,1.52-.76c1.78-1.68,3.48-3.44,5.25-5.13A8.64,8.64,0,0,1,73.11,57c0,3.7,0,7.39,0,11.09,0,1,0,2.14-1.37,2.16S70.28,69.06,70.28,68c0-3.53,0-7.07,0-10.6,0-3-1.26-5.09-3.64-6A5.87,5.87,0,0,0,60,53.1c-1.74,1.79-3.6,3.48-5.32,5.29a3.37,3.37,0,0,1-2.89,1.15,20.31,20.31,0,0,0-3.74,0c-.45.05-.83.65-1.24,1,.39.38.76,1.06,1.17,1.08a46.7,46.7,0,0,0,5.55,0,2.84,2.84,0,0,0,1.37-.79c2-1.62,3.93-3.26,5.89-4.91.73-.62,1.53-1,2.28-.16a1.41,1.41,0,0,1-.53,2.32c-3.61,1.93-4.4,5-3.84,8.73a8.87,8.87,0,0,1,0,1.63c0,1-.4,1.9-1.47,1.68a2.33,2.33,0,0,1-1.3-1.66A31.09,31.09,0,0,1,55.82,64.36Z"/><path class="cls-3" d="M28.64,23.92,13.75,36.79c-.33.29-.64.75-1,.8-.62.08-1.54.13-1.83-.23s-.1-1.26.11-1.83c.15-.41.69-.68,1.06-1C17,30.26,22,26,26.88,21.69c1.26-1.12,2.17-1.2,3.47,0,4.5,4,9.11,7.93,13.68,11.89.4.35.82.69,1.34,1.13l8.28-7.15c2.35-2,4.72-4,7-6.11a1.84,1.84,0,0,1,2.84,0C68.75,26,74,30.55,79.28,35.11c.77.67,1.35,1.42.53,2.35s-1.65.4-2.4-.26L62.12,24c-.7.59-1.4,1.16-2.09,1.76-4.11,3.56-8.25,7.1-12.31,10.72a3.27,3.27,0,0,0-.95,2c-.12,2-.05,4,0,6,0,.91-.26,1.67-1.32,1.69S44,45.45,44,44.46c0-2,0-4,0-6a2.4,2.4,0,0,0-.51-1.6C38.56,32.51,33.62,28.25,28.64,23.92Z"/><path class="cls-3" d="M57.38,39.7a7.06,7.06,0,0,1,7.23-7,7.16,7.16,0,0,1,7.11,7.18A7.26,7.26,0,0,1,64.53,47,7.17,7.17,0,0,1,57.38,39.7Zm11.51.07a4.41,4.41,0,0,0-4.4-4.32,4.47,4.47,0,0,0-4.36,4.38,4.39,4.39,0,0,0,4.51,4.36A4.32,4.32,0,0,0,68.89,39.77Z"/><path class="cls-3" d="M26.22,32.69a7.06,7.06,0,0,1,7.11,7.14A7.17,7.17,0,0,1,26.22,47,7.27,7.27,0,0,1,19,39.75,7.16,7.16,0,0,1,26.22,32.69Zm0,11.5a4.39,4.39,0,0,0,4.36-4.35,4.46,4.46,0,0,0-4.35-4.39,4.41,4.41,0,0,0-4.41,4.47A4.32,4.32,0,0,0,26.22,44.19Z"/></g></g></svg>