<svg xmlns="http://www.w3.org/2000/svg" viewBox="0 0 90.98 90.98"><defs><style>.cls-1,.cls-2{fill:#90b20a;}.cls-2{opacity:0.45;}.cls-3{fill:#fff;}</style></defs><g id="Capa_2" data-name="Capa 2"><g id="Capa_1-2" data-name="Capa 1"><circle class="cls-1" cx="45.49" cy="45.49" r="40"/><circle class="cls-2" cx="45.49" cy="45.49" r="45.49"/><path class="cls-3" d="M34,69.72h6v-18c0-2.66,1-3.66,3.64-3.67,1.4,0,2.8,0,4.2,0a3,3,0,0,1,3.23,3.31q0,8.51,0,17v1.25h6V36.18c0-2.61,1-3.64,3.66-3.64,1.36,0,2.73,0,4.09,0,2.19,0,3.3,1.15,3.3,3.35q0,16.22,0,32.42v1.45h2.17c.69,0,1.22.28,1.24,1s-.54,1.1-1.28,1.11H21.36c-.84,0-1.93.19-1.93-1.08s1.11-1,1.94-1.08c.46,0,.92,0,1.48,0,0-.45.06-.83.06-1.21,0-2.69,0-5.39,0-8.08,0-2.16,1.11-3.28,3.24-3.33,1.54,0,3.08,0,4.63,0A3,3,0,0,1,34,60.46C34,63.51,34,66.55,34,69.72Zm31.88,0a3.87,3.87,0,0,0,.06-.48q0-16.71,0-33.4c0-.86-.41-1.14-1.19-1.13h-4c-1.47,0-1.55.09-1.55,1.61q0,16.15,0,32.32c0,.35,0,.69.05,1.08Zm-17,0V51.23c0-.77-.45-1-1.11-1H43.72c-1.44,0-1.54.1-1.54,1.52V68.67c0,.34,0,.69.07,1.06Zm-23.85-.06h6.79V60.34c0-.8-.46-1-1.17-1-1.48,0-3,0-4.42,0-.88,0-1.22.39-1.2,1.24,0,1.26,0,2.51,0,3.77Z"/><path class="cls-3" d="M53.63,29.46,64.16,18.92c-1.09,0-2.22,0-3.35,0-.78,0-1.4-.22-1.38-1.12s.62-1.05,1.35-1h6a1.16,1.16,0,0,1,1.33,1.31v5.81c0,.71-.3,1.23-1,1.25S66,24.56,66,23.83c0-1,0-2,0-3.29-.46.43-.74.68-1,.95l-9.83,9.82c-1.14,1.13-1.49,1.14-2.64,0S50.3,29,49.12,27.81c-.36.35-.64.6-.91.87l-17.06,17c-.25.25-.48.64-.78.71A2,2,0,0,1,29,46.35c-.24-.19-.15-.88-.07-1.33,0-.24.35-.43.55-.64L47.71,26.11c1.15-1.15,1.53-1.16,2.65,0S52.6,28.39,53.63,29.46Z"/><path class="cls-3" d="M25.79,50.65c-.26-.42-.75-.86-.72-1.26a1.34,1.34,0,0,1,1-.92,1.37,1.37,0,0,1,1,.92c0,.41-.48.84-.76,1.26Z"/></g></g></svg>