<svg xmlns="http://www.w3.org/2000/svg" viewBox="0 0 90.98 90.98"><defs><style>.cls-1,.cls-2{fill:#90b20a;}.cls-2{opacity:0.45;}.cls-3{fill:#fff;}</style></defs><g id="Capa_2" data-name="Capa 2"><g id="Capa_1-2" data-name="Capa 1"><circle class="cls-1" cx="45.49" cy="45.49" r="40"/><circle class="cls-2" cx="45.49" cy="45.49" r="45.49"/><path class="cls-3" d="M31.13,20.35a22,22,0,0,0,3.47.7c2.1.12,4.22,0,6.34,0,.68,0,1.35.17,1.22.94a1.53,1.53,0,0,1-1.19.84,70.41,70.41,0,0,1-7.55,0,11.82,11.82,0,0,1-3.53-1.24,1.37,1.37,0,0,0-1.65.2c-1.07.93-2.19,1.81-3.4,2.8l.95,1a4.52,4.52,0,0,1,1,5.68,2.16,2.16,0,0,0,0,2.26,3.87,3.87,0,0,1,.25.55c.57,1.22.84,2.85,1.79,3.52s2.49.22,3.78.24a1.91,1.91,0,0,1,2,1.69c.39,1.79.81,3.56,1.17,5.36a1.82,1.82,0,0,0,1.36,1.6c1.74.55,3.43,1.25,5.14,1.91,3.09,1.2,4.37,3.18,4.19,6.48,0,.08,0,.16,0,.25-.15,3.63,0,3.86,3.43,5.12,2.36.87,2.3,1,2.46,3.4s-1,4.4-1.53,6.58a37.24,37.24,0,0,0-.58,4,3.69,3.69,0,0,0,3.31-1.43c2.32-2.93,4.73-5.79,7.15-8.64A4.06,4.06,0,0,0,61.85,61,2.65,2.65,0,0,1,64,57.85a4.67,4.67,0,0,0,1.93-1,3.13,3.13,0,0,0,.7-1.78c0-.13-.88-.54-1.37-.55A2.33,2.33,0,0,1,63,53.12c-.62-1.28-1.32-2.52-2-3.79a3.1,3.1,0,0,0-3.12-1.9c-1,0-2.11,0-3.17,0a5.13,5.13,0,0,0-3.85,1.07,3.13,3.13,0,0,1-3.78.13q-2.43-1.41-4.77-2.94a1.7,1.7,0,0,1-.8-1,37,37,0,0,1,0-4.47,1.61,1.61,0,0,1,.8-1c1.42-.84,4.46-.19,5.51,1.11a6.32,6.32,0,0,0,.46.49c1.09-2,2.23-3.94,3.18-6a3,3,0,0,1,3.33-2,4.12,4.12,0,0,0,.93-.06c.57-1.58-.75-3.72,1.77-4.75-2.54-1.58-4.85-3.21-7.36-4.48-1.15-.58-2.67-.46-4-.62-.66-.07-1.42,0-1.4-.94s.77-.86,1.44-.9A10.34,10.34,0,0,1,53.08,23c1.74,1.2,3.54,2.3,5.29,3.49,1.57,1.07,1.48,2.45-.17,3.41a1.35,1.35,0,0,0-.46.7,1.7,1.7,0,0,0,0,.6c0,3.32,0,3.3-3.36,3.56a1.65,1.65,0,0,0-1,.75c-1.1,1.94-2.12,3.93-3.2,5.89-1,1.74-2.3,1.84-3.51.3-.8-1-.8-1-3.33-.79,0,.94,0,1.9,0,2.85a1.13,1.13,0,0,0,.54.71c1.3.84,2.61,1.64,3.94,2.44a2,2,0,0,0,2.48-.15l.39-.3c1.77-1.29,8.73-1.28,10.45.08a6.77,6.77,0,0,1,1.45,1.77A25.68,25.68,0,0,1,64,51.1a2.17,2.17,0,0,0,2.2,1.63,2.31,2.31,0,0,1,2.26,2,3.56,3.56,0,0,1-1.58,3.7c-.75.47-1.63.72-2.38,1.2a1.69,1.69,0,0,0-.76,1.13,7,7,0,0,1-1.9,5,78.16,78.16,0,0,0-5.57,7c1.1-.52,2.24-1,3.28-1.56,8.87-5.13,14-12.75,15.18-23,0-.12,0-.28,0-.36.31-.39.64-1.06,1-1.09.77,0,1,.65.81,1.32a63.46,63.46,0,0,1-2,8.61A31.16,31.16,0,0,1,14.68,50.2a31.2,31.2,0,1,1,61.74-9.09c.09.6.14,1.21.2,1.82s0,1.29-.82,1.35-.92-.59-1-1.23C74.4,41,74,39,73.6,37c-.12-.7-.47-1-1.19-1.07-1.72-.3-3.42-.7-5.12-1.13A5.53,5.53,0,0,1,63,28.27a11.74,11.74,0,0,0-.28-3c-.16-1.11-.33-2.23-.56-3.33a1.68,1.68,0,0,0-.55-.93C53.16,15,40,14.56,31.13,20.35ZM32.77,39.7c-1.26,0-2.43,0-3.6,0a2.2,2.2,0,0,1-2.36-1.51c-.63-1.5-1.29-3-2-4.45a2.92,2.92,0,0,1,0-2.68c1.07-2.34.83-3.25-1.23-4.88C16.14,34,13.2,48,20,59.91c7,12.3,20.2,16.12,28.71,14.61-.57-3,.77-5.67,1.61-8.46a6,6,0,0,0,0-3.35c-.17-.54-1.39-.75-2.14-1.1-.26-.12-.54-.18-.8-.29a4.15,4.15,0,0,1-2.71-3.6,16.36,16.36,0,0,1,0-2.8,4.05,4.05,0,0,0-2.83-4.66c-1.89-.74-3.78-1.49-5.7-2.14a2.83,2.83,0,0,1-2.07-2.42C33.7,43.71,33.22,41.75,32.77,39.7Zm31.2-17a7.27,7.27,0,0,0,.18,1,10.22,10.22,0,0,1,.64,5.59,3.16,3.16,0,0,0,2.28,3.49c1.72.54,3.51.87,5.5,1.35A29.87,29.87,0,0,0,64,22.72Z"/></g></g></svg>