<svg xmlns="http://www.w3.org/2000/svg" viewBox="0 0 87.97 88.97"><defs><style>.cls-1{fill:#90b20a;}</style></defs><g id="Capa_2" data-name="Capa 2"><g id="Capa_1-2" data-name="Capa 1"><path class="cls-1" d="M2.67,19.1V81.43c0,3.63,1.26,4.91,4.89,4.91H62.73c3.91,0,5.06-1.1,5.18-5,0-.94.14-1.82,1.33-1.8s1.23,1,1.26,1.88c.15,4.87-2.45,7.54-7.36,7.55H7.44C2.6,89,0,86.43,0,81.62Q0,51.23,0,20.84a8.15,8.15,0,0,1,2.58-6.19c4.14-4,8.21-8.15,12.27-12.27A7.58,7.58,0,0,1,20.58,0C34.86,0,49.15,0,63.43,0c4.44,0,7,2.55,7.06,7,0,5.33,0,10.65,0,16,0,.92.11,2-1.23,2.06s-1.34-1.13-1.34-2.13c0-5.21,0-10.41,0-15.62,0-3.18-1.38-4.63-4.51-4.63-14.22,0-28.45,0-42.68,0-1.24,0-1.74.31-1.7,1.65.09,3.3,0,6.6,0,9.9s-1.79,4.91-5,4.93C10.37,19.12,6.67,19.1,2.67,19.1ZM16.5,5.23,5.3,16.42c2.93,0,6.1,0,9.27,0,1.39,0,1.91-.94,1.92-2.19C16.51,11.14,16.5,8.08,16.5,5.23Z"/><path class="cls-1" d="M78.31,64.83c0,3.66,0,7.25,0,10.83,0,1.34-.15,2.58-1.45,3.3a2.9,2.9,0,0,1-3.54-.51c-2.8-2.56-5.46-2.52-8.25,0a2.89,2.89,0,0,1-3.54.49c-1.32-.73-1.41-2-1.41-3.31,0-3.13,0-6.25,0-9.38,0-1-.15-1.55-1.21-1.92a4.65,4.65,0,0,1-3.21-4.15,3.45,3.45,0,0,0-2.18-3,5,5,0,0,1-2.34-7.3,3.46,3.46,0,0,0,0-3.59c-1.58-3-.6-5.88,2.46-7.38a3.44,3.44,0,0,0,2-2.78c.57-3.59,2.91-5.1,6.58-4.63a3.9,3.9,0,0,0,2.76-.91c2.86-2.57,5.56-2.68,8.19,0a3.13,3.13,0,0,0,3.12,1,5,5,0,0,1,6.32,4.32,3.89,3.89,0,0,0,2.42,3.24A5,5,0,0,1,87.34,46a3.88,3.88,0,0,0,0,4.06,5,5,0,0,1-2.32,7,3.65,3.65,0,0,0-2.29,3.14C82.38,62.64,81.23,63.73,78.31,64.83ZM61.28,34c-1.78-.06-2.85.77-3,2.42a5.49,5.49,0,0,1-3.43,4.79c-1.83.86-2.22,2.16-1.22,4a5.53,5.53,0,0,1,0,5.76c-1,1.78-.54,3.08,1.32,3.95a5.42,5.42,0,0,1,3.36,4.66A2.55,2.55,0,0,0,61.63,62,5.38,5.38,0,0,1,67,63.65c1.58,1.64,2.89,1.66,4.42.05A5.34,5.34,0,0,1,76.73,62c2,.4,3.15-.43,3.39-2.39a5.62,5.62,0,0,1,3.34-4.7c1.93-.91,2.35-2.2,1.32-4.08a5.38,5.38,0,0,1,0-5.59c1-1.87.62-3.2-1.3-4.09a5.53,5.53,0,0,1-3.35-4.68c-.25-1.93-1.28-2.73-3.24-2.41a5.78,5.78,0,0,1-5.76-1.94,2.26,2.26,0,0,0-3.53-.26C65.76,33.85,63.7,34.68,61.28,34ZM75.64,64a19.45,19.45,0,0,0-2.46,1.64c-2.54,2.45-5.39,2.44-8,0a13.21,13.21,0,0,0-2.34-1.44V76.74A21.87,21.87,0,0,0,65.69,75c2.35-2,4.6-2.06,7,0a22.13,22.13,0,0,0,3,1.79V64Z"/><path class="cls-1" d="M56.79,16.43V11.69c-.62,0-1.19-.09-1.75-.09-7.86,0-15.72.05-23.58,0-1.66,0-2.16.52-2,2.07a25.74,25.74,0,0,1,0,2.81,7.81,7.81,0,0,1,2.35,0c.58.21,1,.87,1.48,1.32C32.87,18.24,32.47,19,32,19c-3.51.62-5-.67-5-4.17,0-5.72.12-5.85,5.79-5.85H55.79c2.69,0,3.68,1,3.72,3.63,0,1.1,0,2.2,0,3.3a3,3,0,0,1-3.19,3.13c-5.84,0-11.68,0-17.52,0-.94,0-1.83-.17-1.82-1.33s.91-1.34,1.84-1.34h18Z"/><path class="cls-1" d="M27.68,40.69H43.13c.46,0,1-.14,1.37.06s1.13.77,1.16,1.21-.59,1-1.06,1.29-.9.09-1.36.09H12.34c-.23,0-.51.09-.68,0-.6-.38-1.56-.76-1.66-1.27-.22-1.13.76-1.37,1.71-1.37Z"/><path class="cls-1" d="M27.68,52.48H12.06c-1,0-2.14.07-2.12-1.37s1.12-1.27,2.06-1.28H43.58c1,0,2.19,0,2.13,1.39s-1.25,1.26-2.24,1.26Z"/><path class="cls-1" d="M27.77,34.14H12c-.94,0-2,.09-2.05-1.25s1-1.31,2-1.31H43.66c.94,0,2-.08,2.05,1.24s-1.17,1.32-2.15,1.32Z"/><path class="cls-1" d="M27.85,59H43.64c.94,0,2-.08,2.07,1.23,0,1.46-1.15,1.33-2.13,1.34H12c-.92,0-2,.13-2.06-1.22S11.08,59,12.07,59Z"/><path class="cls-1" d="M19.42,75.05H11.8c-.93,0-1.83-.1-1.87-1.28s.86-1.37,1.79-1.37q7.78,0,15.58,0c.93,0,1.83.19,1.79,1.38s-.95,1.28-1.88,1.27Z"/><path class="cls-1" d="M69.27,37.15A10.92,10.92,0,0,1,69.15,59a10.92,10.92,0,1,1,.12-21.83ZM61,48A8.28,8.28,0,1,0,77.5,48,8.28,8.28,0,1,0,61,48Z"/></g></g></svg>