<svg xmlns="http://www.w3.org/2000/svg" viewBox="0 0 80.78 89.62"><defs><style>.cls-1{fill:#4e7eaf;}</style></defs><g id="Capa_2" data-name="Capa 2"><g id="Capa_1-2" data-name="Capa 1"><path class="cls-1" d="M80.75,28.88c0,6.61.16,13.2-1.3,19.73C76.52,61.71,69.47,72.14,59,80.4A54.94,54.94,0,0,1,44.7,88.72a10.6,10.6,0,0,1-8.34.08C16.91,80.4,4.39,66.33.74,45.09a64.1,64.1,0,0,1-.68-9.6C0,29.88,0,24.26,0,18.65,0,15.89.14,15.7,2.74,15A153.17,153.17,0,0,0,29.67,5.14c3-1.46,6.06-3,9-4.64A3,3,0,0,1,42,.45,161.92,161.92,0,0,0,78.6,15.17,2.49,2.49,0,0,1,80.77,18C80.7,21.63,80.75,25.26,80.75,28.88ZM77.53,18.77a6.54,6.54,0,0,0-.9-.45A171.9,171.9,0,0,1,41.27,4.15a2.27,2.27,0,0,0-1.89.06,167.37,167.37,0,0,1-34.69,14A1.86,1.86,0,0,0,3.6,19.54c0,7.37-.41,14.78.34,22.08C6.13,62.79,18.13,76.81,37.16,85.35a7.83,7.83,0,0,0,6.43,0,52,52,0,0,0,12.72-7.31c11-8.55,18.47-19.46,20.14-33.46C77.47,36.06,77.22,27.35,77.53,18.77Z"/><path class="cls-1" d="M74.61,33c.27,6.87-.41,14.81-3.67,22.33-5.64,13-15.3,22-28.21,27.62a6.11,6.11,0,0,1-5.39-.3C17.84,73.3,6.63,58.39,6.18,36.27c-.09-4.5,0-9,0-13.51a2.67,2.67,0,0,1,2.28-3A159.46,159.46,0,0,0,38.54,7.55a3.59,3.59,0,0,1,3.75,0,161.35,161.35,0,0,0,30,12.17A2.82,2.82,0,0,1,74.64,23C74.55,25.92,74.61,28.85,74.61,33Zm-3.53.9c0-3.81,0-6.56,0-9.31a1.68,1.68,0,0,0-1.47-1.93,173.87,173.87,0,0,1-28-11.37,3,3,0,0,0-2.37,0A172.81,172.81,0,0,1,11,22.68a1.61,1.61,0,0,0-1.35,1.84c.07,4.21-.05,8.42.07,12.63C10.29,57.08,20.68,70.41,38,79.1a4.91,4.91,0,0,0,4.65.09c11-5.21,19.48-13,24.64-24.13A46,46,0,0,0,71.08,33.88Z"/><path class="cls-1" d="M40.34,57.82c-2.86,0-5.73,0-8.59,0s-4.36-1.45-4.38-4.28c0-4.21,0-8.42,0-12.63a4.13,4.13,0,0,1,2.78-4.22,1.86,1.86,0,0,0,.93-1.31c.13-1.4,0-2.81.06-4.21.11-5.57,4-9.61,9.23-9.63s9.18,4,9.31,9.55c0,1.4-.09,2.82.06,4.21a2.09,2.09,0,0,0,1,1.42,4,4,0,0,1,2.67,3.93c0,4.33,0,8.66,0,13,0,2.71-1.53,4.16-4.3,4.19S43.26,57.82,40.34,57.82Zm9.44-3.62v-14H31v14ZM46,36.43a56.35,56.35,0,0,0-.06-7c-.32-2.58-2.89-4.37-5.58-4.35a5.43,5.43,0,0,0-5.49,4.46,60.84,60.84,0,0,0-.05,6.9Z"/><path class="cls-1" d="M28,65.52a14.71,14.71,0,0,1,1.58.86c1.83,1.35,3.63,2.73,5.45,4.09.93.7,1.55,1.54.79,2.66s-1.77,1-2.74.28c-2-1.5-4-3-5.94-4.59a2.39,2.39,0,0,1-.54-2C26.66,66.33,27.44,66,28,65.52Z"/><path class="cls-1" d="M26.5,64.37c-.66.41-1.29,1.09-2,1.17a1.37,1.37,0,0,1-1.62-1.72c.16-.64,1.06-1.53,1.63-1.53s1.35.85,2,1.33Z"/><path class="cls-1" d="M42.83,45.58a31.43,31.43,0,0,1-.89,4.54,2.07,2.07,0,0,1-1.71,1,2.81,2.81,0,0,1-1.53-1.54,6.79,6.79,0,0,1-.61-2.8,3.61,3.61,0,0,1,.78-2.44,2.92,2.92,0,0,1,2.5-.37C42.09,44.27,42.54,45.24,42.83,45.58Z"/></g></g></svg>