<svg xmlns="http://www.w3.org/2000/svg" viewBox="0 0 90.28 90.57"><defs><style>.cls-1{fill:#90b20a;}</style></defs><g id="Capa_2" data-name="Capa 2"><g id="Capa_1-2" data-name="Capa 1"><path class="cls-1" d="M45.15,22.71A22.58,22.58,0,1,1,22.58,45.2,22.69,22.69,0,0,1,45.15,22.71Zm18.76,16c-3.63.86-3.63.86-5.38,3.79a13.48,13.48,0,0,0-1.34,2.28c-1.43,4-4.25,5.24-8.32,4.64-1.33-.2-1.84-.53-1.95-1.82-.29-3.37-.83-6.73-3.77-8.93-1.56-1.18-3.42-1.95-5.06-3a5.75,5.75,0,0,1-1.88-1.89c-.83-1.52-1.45-3.16-2.22-4.92a20.32,20.32,0,0,0-8.68,15C29.4,41.59,33,42.24,36.05,45A25.38,25.38,0,0,1,41,50.87c.59,1,0,2.84-.27,4.24-.43,2-.35,3.6,1.2,5.12,1.22,1.18,2.11,2.68,3.22,4,.33.4.93.88,1.36.84,1.66-.15,3.3-.5,5-.79-.38-1.36-.61-2.39-.95-3.39a2.57,2.57,0,0,1,.59-2.67c2.66-3.59,6-5.47,10.52-4.54a1.27,1.27,0,0,0,.7,0c.39-.17.94-.35,1.08-.67A19.59,19.59,0,0,0,63.91,38.7ZM36.44,27.62c.44,1.06,1,2.11,1.33,3.22A4.73,4.73,0,0,0,40.94,34a9.63,9.63,0,0,1,3.35,1.85c3,2.78,5.18,6,5.17,10.35,0,.1.1.19.15.29,2.12.58,3.76.21,4.65-2.05.37-.92,1.08-1.7,1.5-2.6C57.1,39,59,36.78,62.35,36.23c.08,0,.15-.17.22-.26C58.56,26.82,44.64,22.33,36.44,27.62Zm5.52,37a26.64,26.64,0,0,0-2.31-3A5.62,5.62,0,0,1,38,55.19c.79-2.21.24-4.07-1.26-6-2.92-3.72-7.08-4.84-11.34-2.64C25.34,55.13,34.24,65,42,64.62ZM54.13,63a19.68,19.68,0,0,0,7.46-6.6c-2.87-.28-5.14-.38-7.06,2A3.53,3.53,0,0,0,54.13,63Z"/><path class="cls-1" d="M51.82,16.75H47.17C42,16.75,40,15,39.5,9.85a14.86,14.86,0,0,1-2.2-.48,5.88,5.88,0,0,1-4.07-5.28,3.61,3.61,0,0,1,3.16-4,43.65,43.65,0,0,1,4.44,0V2.69c-1.15,0-2.26,0-3.35,0-1.46.06-1.92.71-1.4,2.08.65,1.72,2,2.31,3.77,2.31,6.07,0,12.14,0,18.21,0a3.29,3.29,0,0,1,3,1.36c3.53,4.83,8,8.16,14.11,9a2.93,2.93,0,0,1,.72.31l-.67,2.39c-1-.24-1.84-.44-2.71-.69-4.8-1.39-9.61-2.76-14.4-4.19-1.42-.43-2.68-.4-3.29,1.07s.46,2.42,1.72,3c4.77,2.16,9.49,4.45,14.36,6.35,2,.79,4.38.77,6.6,1.08,3.31.45,6.63.87,10.11,1.33V15.5c-3.84,1-6.28-1.68-9.08-3.38C74.07,9.39,69.7,6.48,65.2,3.79a8,8,0,0,0-3.76-1.06c-5.24-.11-10.49,0-15.73,0H43.65V0H50c4.24,0,8.48-.06,12.72,0a6.31,6.31,0,0,1,2.94.86c5.51,3.4,11,6.83,16.42,10.38A8.56,8.56,0,0,0,88,13a20.86,20.86,0,0,1,2.25,0V31c-6.42-.83-12.78-1.6-19.13-2.5a13.29,13.29,0,0,1-3.27-1.28c-3.82-1.69-7.62-3.44-11.46-5.08C54,21.12,52.1,19.72,51.82,16.75Zm9.87-3.32.12-.29a13.23,13.23,0,0,1-1.29-1.42C59.38,10,57.86,9.58,55.85,9.67c-3.81.16-7.63,0-11.44.08-.68,0-1.81.3-1.92.69A2.57,2.57,0,0,0,43,12.66a5.93,5.93,0,0,0,3,1.41,37.42,37.42,0,0,0,5.8,0,3.14,3.14,0,0,0,1.71-.63,5.4,5.4,0,0,1,5-1C59.58,12.8,60.64,13.12,61.69,13.43Z"/><path class="cls-1" d="M46.74,87.89v2.57c-.6,0-1.16.09-1.72.09-5.84,0-11.67,0-17.5,0a5.64,5.64,0,0,1-2.78-.8c-5.56-3.43-11.1-6.9-16.57-10.47A8.37,8.37,0,0,0,2.4,77.62a23.82,23.82,0,0,1-2.4,0V59.55L11.34,61a26.77,26.77,0,0,0,2.8.35c4.63.07,8.64,2,12.7,3.94,2.24,1,4.5,2,6.77,3,2.51,1,4.65,2.39,4.84,5.53h5.28c4.58,0,6.79,2.14,7,6.87.4.08.84.19,1.28.26a6,6,0,0,1,5,5.4,3.69,3.69,0,0,1-3.39,4.17c-1.34.1-2.69,0-4.16,0V87.88h3.36c1.44,0,1.7-.8,1.38-2-.4-1.5-1.75-2.39-3.69-2.4-6.13,0-12.26,0-18.39,0a3.17,3.17,0,0,1-2.88-1.27c-3.75-4.9-8.22-8.69-15-8.92l.85-2.88,11.38,3.28c2,.57,4,1.1,5.93,1.72,1.39.44,2.54.18,3.09-1.18S35.17,72,34,71.46c-3.52-1.63-7.18-3-10.59-4.84-4.64-2.5-9.75-2.48-14.71-3.27-2-.31-3.94-.5-6.05-.76V74.7c.08.07.18.22.26.21,2.86-.43,5,1,7.27,2.5Q17.76,82.3,25.45,87a6.09,6.09,0,0,0,2.95.85c5.42.08,10.84,0,16.26,0ZM28.12,77a21,21,0,0,1,1.59,1.76,5,5,0,0,0,4.84,2.12c3.76-.16,7.54,0,11.31-.07.69,0,1.9-.35,1.94-.66a3.3,3.3,0,0,0-.59-2.4,3.87,3.87,0,0,0-2.39-1.26c-2.23-.17-4.48-.08-6.71-.05a1.76,1.76,0,0,0-1.11.41c-1.78,1.62-3.78,1.7-5.94,1C30.25,77.57,29.4,77.38,28.12,77Z"/><path class="cls-1" d="M20.3,39.72l-1.62,1.6L16,38.59l1.88-1.46Z"/><path class="cls-1" d="M74.4,38.56l-2.67,2.91L70,39.6l2.62-2.66Z"/><path class="cls-1" d="M13.8,44h3.7v2.54H13.8Z"/><path class="cls-1" d="M72.81,44H76.5v2.52H72.81Z"/><path class="cls-1" d="M18.85,49.19l1.56,1.59-2.93,2.79-1.34-1.72Z"/><path class="cls-1" d="M72.45,53.63l-2.61-2.7,2.09-1.51L74.35,52Z"/><path class="cls-1" d="M48.79,31.69V29.22h2.48v2.47Z"/><path class="cls-1" d="M54.06,34.26V31.92h2.53v2.34Z"/></g></g></svg>