<svg xmlns="http://www.w3.org/2000/svg" viewBox="0 0 81.33 89.78"><defs><style>.cls-1{fill:#4e7eaf;}</style></defs><g id="Capa_2" data-name="Capa 2"><g id="Capa_1-2" data-name="Capa 1"><path class="cls-1" d="M29.59,7.89a27.28,27.28,0,0,1-3.16-3c-.61-.79-1.28-2.12-1-2.85A3.86,3.86,0,0,1,28,.17c4.86-.92,10,2,12.13,6.69.22.48.42,1,.66,1.53H74.26c4.54,0,7,2.5,7,7.06a13.9,13.9,0,0,1-.07,3c-.12.52-.84,1.26-1.28,1.25a1.84,1.84,0,0,1-1.29-1.25,24,24,0,0,1-.09-3.5c-.06-2.43-1.35-3.74-3.8-3.88-.47,0-.93,0-1.4,0H41.5c-.31,2.52,1.11,5,4.42,7.67.34-.24.7-.52,1.07-.77a4.23,4.23,0,0,1,6.65,3.16,2.6,2.6,0,0,0,1,1.71c1.42.93,1.56,2.49,2.28,3.77s2.21,1.76,3.08,2.85c.47.58.32,1.66.48,2.74A5.74,5.74,0,0,1,63.35,36c.35,1.15,1.73,2,2.61,3a6.22,6.22,0,0,1,.91,7.17,6,6,0,0,1-6.25,3.26,10,10,0,0,1-3.71-1.74,10.88,10.88,0,0,1-1.9-2.3c-3.22,1.91-6.11,3.6-9,5.33a1.91,1.91,0,0,0-.78,2.38,3.63,3.63,0,0,1-3.11,4.62c-1.85.11-2.81,1.12-4,2.49H78.57V26.85c0-.41,0-.82,0-1.23,0-1,0-2.16,1.44-2.11,1.28,0,1.28,1.11,1.28,2.08v30.5c0,3.21,0,6.43,0,9.64,0,4-2.59,6.57-6.6,6.59-7.88,0-15.77,0-23.66,0H48.83l1.64,6.56c1,0,2,0,3,0a7.85,7.85,0,0,1,7.74,7.16A3.09,3.09,0,0,1,58,89.76q-17.35,0-34.7,0c-2.23,0-3.49-1.6-3.21-3.84a7.85,7.85,0,0,1,7.87-7c.88,0,1.75,0,2.82,0l1.71-6.56H7.16C2.45,72.33,0,69.9,0,65.23q0-24.9,0-49.78c0-4.56,2.48-7,7-7h8.59c1.42,0,2.86.23,4.08-1a2,2,0,0,1,1.93-.11c1.84,1.57,4,.95,6,1.07.56,0,1.13,0,1.69,0ZM17.87,11H7.37c-3.46,0-4.64,1.18-4.64,4.62q0,21.37,0,42.74v1.72a5.61,5.61,0,0,0,6.25-2c1.67-2,3.67-3.75,5.53-5.61.68-.68,1.42-1.48,2.37-.61s.26,1.78-.49,2.5c-1.91,1.84-3.84,3.67-6,5.7a6.34,6.34,0,0,0,.91.24c7.3,0,14.6,0,21.9,0a2.35,2.35,0,0,0,1.38-.52c1.24-1.07,2.4-2.21,3.4-3.15L25.92,44.53c-.56.65-1.22,1.46-1.93,2.23S22.51,48.25,21.77,49s-1.54,1.23-2.19.27a2.27,2.27,0,0,1,.31-2.08c1.2-1.42,2.64-2.64,3.89-4a2.32,2.32,0,0,0,.56-1.63c-.41-3.41,2.19-5.66,5.46-4.49,1,.35,1.5.06,1.85-.64A4.78,4.78,0,0,0,32.37,34c-.37-3.17-.61-6.28,1.83-9.48-2.4-.61-4.32-1.2-6.28-1.56a11.22,11.22,0,0,1-9.08-7.56A36.32,36.32,0,0,1,17.87,11Zm-15,52.09c-.45,5.54.51,6.59,5.76,6.59H73.41a15.34,15.34,0,0,0,1.92,0,3.49,3.49,0,0,0,3.17-3c.11-1.14,0-2.3,0-3.53ZM43,49.45c1.74-1.18,3.32-2.71,5.2-3.42,4.7-1.77,8.29-4.91,11.6-8.49a2.21,2.21,0,0,0,.56-1.8c-.16-.47-1-.86-1.58-1-1.62-.38-2.15-1.24-1.51-2.75.76-1.79.1-2.67-1.81-2.45s-2.33-.49-1.75-2.2-.14-2.5-1.94-2.3A2.32,2.32,0,0,1,50,24.48c-.25-.31-.06-1.24.24-1.69.63-.91,1.07-1.81.07-2.6s-1.83-.11-2.57.65c-2.14,2.15-4.27,4.31-6.45,6.42-1.55,1.51-3,1.53-4.65.19-.25-.2-.51-.37-1.21-.89-.25,1.84-.76,3.33-.57,4.74.41,3,.36,5.83-2.12,7.89Zm.73-28.88c0,.07,0-.06-.07-.14A7.23,7.23,0,0,0,43,19.8a13.66,13.66,0,0,1-4.66-9.11,10.18,10.18,0,0,0-.91-3.17c-1.63-3.61-6.65-5.67-9.25-4.29C29.6,4.52,31,5.72,32.22,7c2.46,2.45,2.63,5.43.51,7.59s-5.14,2-7.57-.42c-1.31-1.32-2.54-2.72-4.11-4.42a13.94,13.94,0,0,0-.26,1.88,8.75,8.75,0,0,0,7.68,8.63,14.13,14.13,0,0,1,9.33,4.57,8.39,8.39,0,0,0,.94.79ZM58.38,87c.22-3.12-1.86-5.31-5.14-5.34-5.89-.06-11.79,0-17.69,0-2.68,0-5.37-.07-8,.06A4.68,4.68,0,0,0,22.94,87ZM33.74,78.73H47.65c-.2-.8-.34-1.42-.5-2C46,72.33,46,72.31,41.4,72.35c-2,0-4.63-.58-5.9.43s-1.25,3.72-1.79,5.68C33.69,78.51,33.72,78.57,33.74,78.73Zm9-25.21a10.35,10.35,0,0,0-.91-1.16q-6-6-12-12c-.7-.7-1.47-1.61-2.47-.53s-.08,1.69.6,2.36l12,12a3.61,3.61,0,0,0,.93.78C41.73,55.38,42.73,54.72,42.71,53.52ZM62.13,39l-5,5.17c1.3,1.37,2.5,3,4.88,2.53a3.36,3.36,0,0,0,2.73-2.63C65.34,41.74,63.8,40.41,62.13,39ZM31.69,11.73l-.34-.58H26.09c1,1.24,1.82,2.54,3.42,2.14C30.32,13.1,31,12.27,31.69,11.73Z"/></g></g></svg>