<svg xmlns="http://www.w3.org/2000/svg" viewBox="0 0 88.55 88.7"><defs><style>.cls-1{fill:#90b20a;}</style></defs><g id="Capa_2" data-name="Capa 2"><g id="Capa_1-2" data-name="Capa 1"><path class="cls-1" d="M52.72,76.48a34.74,34.74,0,0,0-4.24-1.27,2.84,2.84,0,0,0-2.14.62c-.43.41-.45,1.31-.54,2a2.86,2.86,0,0,0,.31,1c1.24,3.84.14,5.8-3.93,6.73a2.38,2.38,0,0,1-1.76-.55,16.21,16.21,0,0,1-2.25-2.43,2.06,2.06,0,0,0-2.49-.87c-1.18.32-1.39,1-1.56,1.94,0,.12,0,.24-.06.36-1,4.63-1.55,5.09-6.3,4.35a3.14,3.14,0,0,1-1.82-1.63,11.88,11.88,0,0,1-.72-3c-.19-1-.45-1.72-1.7-2a1.93,1.93,0,0,0-2.32.88,1.49,1.49,0,0,1-.12.14c-3.38,3.75-3.73,3.83-7.73.77a3.16,3.16,0,0,1-.83-2.3,10.13,10.13,0,0,1,.81-2.62c.32-1,.75-1.9-.33-3s-1.86-.6-2.82-.29c-4.56,1.45-5.32,1.13-7-3.41a2.91,2.91,0,0,1,.52-2.24A11.57,11.57,0,0,1,6,67.56a2.09,2.09,0,0,0,.91-2.48c-.33-1.27-1.11-1.46-2.09-1.62a1.13,1.13,0,0,1-.18,0C0,62.47-.43,62,.27,57.17a3.07,3.07,0,0,1,1.58-1.85,11.27,11.27,0,0,1,3-.72c1-.19,1.72-.42,2.06-1.67a2,2,0,0,0-1-2.45l-.14-.12c-3.6-3.24-3.69-3.92-.6-7.76a2.8,2.8,0,0,1,2.17-.73,11.7,11.7,0,0,1,3.15,1A1.94,1.94,0,0,0,13,42.38,1.84,1.84,0,0,0,13.47,40a3.21,3.21,0,0,1-.15-.53c-1.4-4.32-.86-5.45,3.56-6.89a2.73,2.73,0,0,1,2.08.52,14.51,14.51,0,0,1,2.14,2.28c.65.76,1.17,1.34,2.45,1a2.1,2.1,0,0,0,1.67-2.05c0-.06,0-.13,0-.19,1-4.79,1.32-5,6.23-4.51a1.93,1.93,0,0,1,2,1.75c.15,1,.42,1.92.62,2.88s.33,1.77,1.62,2.1a2,2,0,0,0,2.46-.91,4.89,4.89,0,0,1,.37-.41c2.86-3.18,4.64-3.26,7.81-.2a2.53,2.53,0,0,1,.49,1.95,15.6,15.6,0,0,1-1,3.16,2.22,2.22,0,0,0,3,2.92,4.68,4.68,0,0,1,.53-.17c4.09-1.33,5.61-.53,6.81,3.74a2.51,2.51,0,0,1-.53,1.92,16.31,16.31,0,0,1-2.43,2.26,2,2,0,0,0-.88,2.32,2.08,2.08,0,0,0,2,1.71l.55.08c4.26.91,5.21,2.41,4.08,6.67a2.57,2.57,0,0,1-1.44,1.4,18.87,18.87,0,0,1-3.22.75,2.12,2.12,0,0,0-2,1.73,1.94,1.94,0,0,0,.92,2.3l.28.25c3.38,3,3.48,4.58.4,7.95A4.93,4.93,0,0,1,52.72,76.48ZM3.2,60.06a40.54,40.54,0,0,1,4.45,1,2.77,2.77,0,0,1,1.64,1.44c1.51,4.6,1.47,4.61-2,7.9-.09.09-.24.15-.27.25-.12.52-.47,1.23-.26,1.51a1.87,1.87,0,0,0,1.54.61c1.2-.23,2.32-.82,3.52-1a2.59,2.59,0,0,1,2,.48c3.62,3.23,3.6,3.26,2.21,7.86,0,.06-.07.13-.06.18.14.56.17,1.5.46,1.59a2,2,0,0,0,1.76-.37c1.94-2.88,4.26-3.83,7.59-2.3,1.08.49,1.78.9,2,2,.28,1.42.61,2.84.91,4.23h1.94c1.21-2.45.19-5.63,4.39-6.78S39.83,81,42,82.32c1.6-.31,1.87-1.16,1.26-2.53a8.17,8.17,0,0,1-.81-2.63,4.28,4.28,0,0,1,.59-2.41c2-2.92,4.52-3.85,7.75-2a.29.29,0,0,0,.17.06c.54-.18,1.36-.22,1.55-.59a1.64,1.64,0,0,0-.35-1.6c-3.06-1.93-3.81-4.39-2.35-7.74.45-1,.87-1.67,1.94-1.89,1.43-.29,2.86-.62,4.29-.94V58a42,42,0,0,1-4.41-1A2.78,2.78,0,0,1,50,55.53c-1.52-4.59-1.47-4.6,2-7.9.09-.09.24-.15.27-.25.12-.51.47-1.23.26-1.51a1.87,1.87,0,0,0-1.54-.61c-1.2.23-2.32.82-3.52,1a2.59,2.59,0,0,1-2-.48C42,42.57,42,42.55,43.36,38c0-.06.07-.13.06-.17-.14-.56-.17-1.5-.46-1.59a2,2,0,0,0-1.76.36c-1.93,2.89-4.26,3.81-7.59,2.3-1.08-.49-1.78-.9-2-2-.28-1.43-.61-2.85-.91-4.23H28.62c-.29,1.38-.6,2.68-.85,4s-.94,1.77-2.19,2.31c-3.29,1.41-5.59.54-7.38-2.34-.07-.1-.15-.24-.25-.26-.52-.09-1.18-.36-1.54-.15a1.64,1.64,0,0,0-.55,1.41c.22,1.14.83,2.21,1,3.35a3.91,3.91,0,0,1-.58,2.4c-1.95,2.94-4.53,3.83-7.75,2a.29.29,0,0,0-.17-.06c-.54.18-1.36.23-1.55.59a1.66,1.66,0,0,0,.35,1.61c3.07,1.92,4,4.46,2.25,7.69A4.15,4.15,0,0,1,7.5,57a29,29,0,0,1-4.3,1Z"/><path class="cls-1" d="M70.35,31.89c-.87-.44-2-1-3.15-1.6s-2-.45-2.31.93a15.93,15.93,0,0,0-.49,1.58c-.27,2.21-1.65,2.71-3.64,2.65-3-.08-3.08-.09-4-2.93-.16-.52-.35-1-.51-1.57-.33-1.11-1-1.3-2-.76-.27.15-.55.28-.82.42C50.24,32.3,48.85,32,46.93,28.8a3.17,3.17,0,0,1,.12-2.5c1.75-3.71,1.81-3.73-2.16-5a2.44,2.44,0,0,1-2-2.49c-.19-3.83-.11-4,3.56-5.16,2.31-.72,2.38-.9,1.28-3-.26-.49-.48-1-.77-1.47A2.18,2.18,0,0,1,47.36,6a19.32,19.32,0,0,0,1.42-1.44,2.43,2.43,0,0,1,3.43-.45C56,6.26,55.87,6.35,57,2.19,57.5.08,58.92,0,60.59,0s3.19.11,3.75,2.29c1,4,1,4,4.65,1.89a2.61,2.61,0,0,1,3.59.46c2.64,2.55,2.7,2.55,1,5.9-1.17,2.26-1.13,2.37,1.33,3.15,3.47,1.08,4.17,2.15,3.32,5.76a3.18,3.18,0,0,1-1.93,1.83c-4.41,1.39-4,1.17-2,4.93C75.17,28,72.79,31.84,70.35,31.89ZM71.63,7.75c-.6-.24-1.17-.69-1.69-.63a5.89,5.89,0,0,0-1.8.88c-2.7,1.4-5,.4-6-2.48-.32-.92,0-2.64-1.55-2.41-.62.1-1.17,1.58-1.5,2.52a4,4,0,0,1-5.92,2.43c-.89-.43-2.34-1.05-2.84-.67-1.23.94.2,1.93.62,2.81,1.29,2.72.33,5-2.52,6-.91.32-2.64,0-2.4,1.54.09.63,1.58,1.17,2.52,1.51A4,4,0,0,1,51,25.19c-.43.89-1,2.34-.67,2.84.93,1.23,1.93-.2,2.81-.62,2.74-1.3,5-.36,6,2.52.32.91,0,2.64,1.55,2.4.62-.1,1.17-1.58,1.5-2.52a4,4,0,0,1,5.92-2.43c.89.43,2.34,1.05,2.84.67,1.23-.94-.2-1.93-.62-2.81-1.28-2.7-.34-5.06,2.53-6a9.67,9.67,0,0,0,1.75-.56,1.65,1.65,0,0,0,.72-1.05c0-.29-.35-.72-.66-.91a6.32,6.32,0,0,0-1.39-.47c-3.51-1.1-4.38-3.22-2.68-6.49C70.87,9.25,71.14,8.7,71.63,7.75Z"/><path class="cls-1" d="M86.18,43.52c-2.5,3.06-1.28,4.33,1.57,5.43.68.26.82,2.49.79,3.81,0,.7-.88,1.4-1.43,2.05-.17.2-.55.23-.85.31-1.67.47-2,1.49-1.11,2.89,1.15,1.73.36,2.9-.87,4.16s-2.37,1.69-4,.74-2.37-.67-2.9,1.29-1.75,2.23-3.44,2.23-2.92-.32-3.43-2.25S69.32,62,67.4,63c-1.65.91-2.72.3-3.87-.86s-1.94-2.24-1-4c1.09-2,.87-2.46-1.39-3.11-1.88-.54-2-1.81-2-3.39s.18-2.83,2.06-3.37c2.33-.67,2.47-1.05,1.28-3.29-.92-1.75,0-2.73,1.07-3.83s2.07-1.78,3.7-.92c2.24,1.17,2.52,1.05,3.33-1.48.58-1.79,1.86-1.86,3.33-1.86s2.75.08,3.33,1.87c.82,2.56,1,2.48,3.55,1.48a3,3,0,0,1,2.48.13A22.16,22.16,0,0,1,86.18,43.52Zm-19.73,3c-.75,1.79-1,3.83-3.35,4.27-.36.07-.64.58-1,.88a4.23,4.23,0,0,0,.88.77c3,1.37,3.78,3.21,2.66,6.19a4.14,4.14,0,0,0,0,1.32,4.17,4.17,0,0,0,1.18,0c3.12-1.13,4.94-.38,6.24,2.54.16.37.59.64.89,1a4.23,4.23,0,0,0,.77-.88c1.37-3,3.22-3.78,6.19-2.65a4.15,4.15,0,0,0,1.32,0,9.81,9.81,0,0,0-.14-1.34c-.16-.76-.7-1.6-.52-2.24.48-1.66,1-3.47,3.15-3.85.36-.06.64-.57,1-.88a4.45,4.45,0,0,0-.87-.77c-3-1.4-3.7-3-2.59-6.35.11-.34.12-.94-.09-1.11a1.38,1.38,0,0,0-1.13,0c-3.16,1.13-4.78.43-6.31-2.7-.16-.32-.55-.53-.83-.79a4.18,4.18,0,0,0-.77.87c-1.4,3-3,3.69-6.35,2.58-.34-.11-.94-.11-1.11.09s-.11.78,0,1.14C65.85,45.26,66.18,45.91,66.45,46.55Z"/><path class="cls-1" d="M31.86,20.65,30.22,18.8c.32-.39.61-.76.93-1.1s.62-.56,1.21-1.09c1.45,1.56,2.94,3,4.24,4.62a2,2,0,0,1-.07,1.93c-1.26,1.56-2.71,3-4.32,4.7l-1.72-2.58,1.24-1.61c-11.92-.35-21.5,3.9-29.29,12.65L.18,34.45C8.53,24.89,19,20.41,31.86,20.65Z"/><path class="cls-1" d="M80.66,8.27l-1,3.79-2.81-.53c.5-2.51.87-4.92,1.52-7.25a2.26,2.26,0,0,1,1.86-1.19c2.35.3,4.68.89,7.17,1.4l-.57,2.82-3.6-.62c4,9.51,3.11,18.33-3,26.68-.5-.36-.84-.59-1.17-.85s-.73-.64-1.12-1C83.15,24.42,84.16,16.86,80.66,8.27Z"/><path class="cls-1" d="M29.58,75.26A16.23,16.23,0,1,1,45.89,59.19,16.27,16.27,0,0,1,29.58,75.26Zm0-29.5A13.27,13.27,0,1,0,42.93,58.92,13.31,13.31,0,0,0,29.6,45.76Z"/><path class="cls-1" d="M60.57,10.35a7.38,7.38,0,1,1-7.31,7.43A7.39,7.39,0,0,1,60.57,10.35Zm0,11.78a4.41,4.41,0,1,0-4.35-4.52A4.45,4.45,0,0,0,60.57,22.13Z"/><path class="cls-1" d="M79.81,51.56a5.9,5.9,0,1,1-5.9-5.81A5.93,5.93,0,0,1,79.81,51.56Zm-3,.18a2.94,2.94,0,1,0-3,2.84A3,3,0,0,0,76.84,51.74Z"/></g></g></svg>