<svg xmlns="http://www.w3.org/2000/svg" viewBox="0 0 88.68 88.72"><defs><style>.cls-1{fill:#4e7eaf;}</style></defs><g id="Capa_2" data-name="Capa 2"><g id="Capa_1-2" data-name="Capa 1"><path class="cls-1" d="M31.78,76.57c-7.87,0-15.6,0-23.33,0C2.9,76.57,0,73.69,0,68.18V20.38c0-5.3,3-8.24,8.25-8.25,1.5,0,3,0,4.5,0,.93,0,1.86.09,1.89,1.25s-1,1.36-2,1.37c-1.73,0-3.46-.05-5.19,0-3,.11-4.84,1.85-4.85,4.77,0,13.8,0,27.59,0,41.39a5.45,5.45,0,0,0,.14.78H86c0-.65.09-1.26.09-1.87q0-19.57,0-39.14c0-4.35-1.61-5.94-6-6H70c-.94,0-2.05,0-2.1-1.23S69,12.12,70,12.12c3.7,0,7.39,0,11.08,0a7.32,7.32,0,0,1,7.54,7.57q0,24.68,0,49.36a7.31,7.31,0,0,1-7.59,7.51c-8.13,0-16.27,0-24.41,0a.58.58,0,0,0-.16,0C57,79.52,57.59,80,60.44,80c4.24,0,7.51,2.79,7.82,6.54.12,1.45-.34,2.15-1.9,2.15q-22,0-44,0c-1.74,0-2.13-.46-2-2.21a7.42,7.42,0,0,1,6.69-6.43c.23,0,.46,0,.69,0C30.94,80,30.94,80,31.78,76.57ZM2.62,64.51c0,1.18,0,2.21,0,3.24,0,4.7,1.51,6.21,6.22,6.21h71a14.93,14.93,0,0,0,2.41-.14,4,4,0,0,0,3.58-3.31,39.92,39.92,0,0,0,.06-6ZM23.19,85.94H65.47a4.94,4.94,0,0,0-5.12-3.3c-5.65,0-11.3,0-17,0a3.5,3.5,0,0,1-1.53-.09c-.47-.26-1.08-.85-1.07-1.28s.67-1,1.16-1.18A7,7,0,0,1,44,80H54.89a21.13,21.13,0,0,0-1.26-2.56,1.94,1.94,0,0,0-1.25-.86c-5.88,0-11.75,0-17.7,0L33.5,80c.6,0,1,.07,1.39.08,1,0,2.32-.17,2.25,1.39-.07,1.41-1.31,1.21-2.26,1.22-2.36,0-4.73,0-7.09,0A4.73,4.73,0,0,0,23.19,85.94Z"/><path class="cls-1" d="M70.45,51.11c0,1.26.07,2.24,0,3.21a4.19,4.19,0,0,1-4,4c-.51,0-1,0-1.55,0h-41c-4.29,0-5.69-1.41-5.69-5.71V5.59C18.18,1.43,19.63,0,23.81,0h35.3c3.77,0,5.31,1.57,5.32,5.38V30.31c3.31,0,6.47,0,9.62,0a13,13,0,0,1,3.42.37,7.16,7.16,0,0,1,5.12,7c.08,2.88.06,5.77,0,8.65-.06,3.06-1.69,4.66-4.77,4.71C75.48,51.15,73.12,51.11,70.45,51.11Zm-8.64,4.67V50.41q0-22.51,0-45c0-2.35-.4-2.76-2.71-2.76q-17.74,0-35.5,0c-2.43,0-2.81.4-2.81,2.82V52.9c0,2.5.39,2.88,2.93,2.88H61.81Zm8.74-7.29c2.69,0,5.16,0,7.63,0A1.71,1.71,0,0,0,80,46.59c0-3.06.08-6.12,0-9.17a4.69,4.69,0,0,0-4.62-4.49,4.55,4.55,0,0,0-4.77,4.29C70.44,40.9,70.55,44.59,70.55,48.49ZM64.59,33a2.24,2.24,0,0,0-.14.44q0,9.86,0,19.71c0,1.31.15,2.59,1.8,2.56s1.67-1.27,1.67-2.52c0-4.38,0-8.76,0-13.14,0-2.42-.08-4.84,1.64-7.05Z"/><path class="cls-1" d="M44.32,70.51c-1.84,0-3.7.1-5.53-.05-.62-.06-1.58-.69-1.68-1.2-.22-1.12.74-1.36,1.7-1.36,3.69,0,7.38-.05,11.07.06a2.18,2.18,0,0,1,1.68,1.19c.23,1.14-.77,1.36-1.7,1.36Z"/><path class="cls-1" d="M25.63,27.59a15.59,15.59,0,1,1,15.5,15.73A15.62,15.62,0,0,1,25.63,27.59Zm28.55.11a13,13,0,1,0-13,13A12.93,12.93,0,0,0,54.18,27.7Z"/><path class="cls-1" d="M41.13,8.67c-3.22,0-6.44.07-9.66-.05-.66,0-1.74-.7-1.84-1.21-.2-1.07.79-1.35,1.74-1.35H51.05c1,0,1.85.24,1.81,1.36S51.93,8.69,51,8.68C47.69,8.66,44.41,8.67,41.13,8.67Z"/><path class="cls-1" d="M51.09,49.72c1.84,0,3.7-.11,5.53.06.59,0,1.12.82,1.68,1.26-.56.42-1.12,1.21-1.7,1.23-3.74.11-7.5.11-11.24,0-.58,0-1.13-.81-1.7-1.25.57-.43,1.12-1.18,1.72-1.23C47.27,49.61,49.18,49.72,51.09,49.72Z"/><path class="cls-1" d="M42.22,30.23A5.54,5.54,0,0,0,40.75,29c-4.07-1.68-4.71-5.09-1.48-8,.35-.32.34-1,.64-1.45s.82-1.13,1.33-1.24c.33-.07.86.68,1.25,1.11s.75,1,1.16,1.45c.18.21.6.28.67.5a21,21,0,0,1,.54,2.11c-.67,0-1.33.08-2,0a7.27,7.27,0,0,0-2.19-.17A1.7,1.7,0,0,0,40,24.87a3.16,3.16,0,0,0,1.59,1.53c3.63,1.41,4.36,4.85,1.63,7.68-.41.42-.4,1.23-.73,1.78s-.8,1.26-1.13,1.22c-.52-.07-1-.68-1.43-1.12s-.61-1-1.05-1.28c-.81-.51-1.78-.9-1.31-2.06s1.3-.8,2.2-.48C41.06,32.63,42.21,31.89,42.22,30.23Z"/></g></g></svg>