<svg xmlns="http://www.w3.org/2000/svg" xmlns:xlink="http://www.w3.org/1999/xlink" viewBox="0 0 106.88 109.32"><defs><style>.cls-1,.cls-2{fill:none;}.cls-2{clip-path:url(#clip-path);}.cls-3{isolation:isolate;}.cls-4{fill:url(#Degradado_sin_nombre_11);}.cls-5{fill:url(#Degradado_sin_nombre_11-2);}.cls-6{fill:url(#Degradado_sin_nombre_11-3);}.cls-7{fill:url(#Degradado_sin_nombre_11-4);}.cls-8{fill:url(#Degradado_sin_nombre_11-5);}.cls-9{fill:url(#Degradado_sin_nombre_11-6);}.cls-10{fill:url(#linear-gradient);}.cls-11{fill:url(#linear-gradient-2);}.cls-12{fill:url(#Degradado_sin_nombre_11-7);}.cls-13{fill:url(#linear-gradient-3);}.cls-14{fill:url(#Degradado_sin_nombre_11-8);}.cls-15{fill:url(#linear-gradient-4);}.cls-16,.cls-26{opacity:0.2;}.cls-16,.cls-19,.cls-26{mix-blend-mode:multiply;}.cls-17{fill:url(#Degradado_sin_nombre_27);}.cls-18{fill:url(#linear-gradient-5);}.cls-19{opacity:0.7;fill:url(#Degradado_sin_nombre_12);}.cls-20{fill:url(#Degradado_sin_nombre_11-9);}.cls-21{fill:url(#linear-gradient-6);}.cls-22{clip-path:url(#clip-path-2);}.cls-23{opacity:0.6;fill:url(#linear-gradient-7);}.cls-24{fill:url(#linear-gradient-8);}.cls-25{opacity:0.1;fill:url(#Degradado_sin_nombre_26);}.cls-26{fill:url(#Degradado_sin_nombre_27-3);}.cls-27{clip-path:url(#clip-path-4);}.cls-28{opacity:0.4;fill:url(#linear-gradient-9);}.cls-29{fill:url(#linear-gradient-10);}.cls-30{fill:url(#linear-gradient-11);}.cls-31{fill:url(#linear-gradient-12);}.cls-32{fill:url(#Degradado_sin_nombre_8);}.cls-33{clip-path:url(#clip-path-5);}.cls-34,.cls-36{fill:#fff;}.cls-35{fill:#b6b7b8;}.cls-36{font-size:5.64px;stroke:#fff;stroke-miterlimit:10;stroke-width:0.31px;font-family:AgeoPersonalUse-Regular, Ageo Personal Use;letter-spacing:0.6em;}.cls-37{letter-spacing:0.53em;}.cls-38{letter-spacing:0.6em;}</style><clipPath id="clip-path"><path class="cls-1" d="M56.35,70.53A3.56,3.56,0,0,0,58.13,70,3.63,3.63,0,0,0,59.9,66.9V37.35L53.14,33.7a3.6,3.6,0,0,0-.35,1.56V69L54.57,70A3.53,3.53,0,0,0,56.35,70.53Z"/></clipPath><linearGradient id="Degradado_sin_nombre_11" x1="15.75" y1="18.8" x2="68.91" y2="40.36" gradientUnits="userSpaceOnUse"><stop offset="0" stop-color="#c03038"/><stop offset="0.51" stop-color="#dd8020"/><stop offset="1" stop-color="#af3a7f"/></linearGradient><linearGradient id="Degradado_sin_nombre_11-2" x1="62.49" y1="16.94" x2="69.53" y2="19.79" xlink:href="#Degradado_sin_nombre_11"/><linearGradient id="Degradado_sin_nombre_11-3" x1="30.92" y1="2.78" x2="77.68" y2="21.75" xlink:href="#Degradado_sin_nombre_11"/><linearGradient id="Degradado_sin_nombre_11-4" x1="30.29" y1="4.34" x2="77.05" y2="23.3" xlink:href="#Degradado_sin_nombre_11"/><linearGradient id="Degradado_sin_nombre_11-5" x1="25.71" y1="-6.2" x2="79" y2="15.42" xlink:href="#Degradado_sin_nombre_11"/><linearGradient id="Degradado_sin_nombre_11-6" x1="19.99" y1="8.92" x2="72.99" y2="30.42" xlink:href="#Degradado_sin_nombre_11"/><linearGradient id="linear-gradient" x1="74.44" y1="23.04" x2="59.36" y2="36.12" gradientUnits="userSpaceOnUse"><stop offset="0" stop-color="#d9731e"/><stop offset="1" stop-color="#e29123"/></linearGradient><linearGradient id="linear-gradient-2" x1="70.76" y1="22.92" x2="73.28" y2="17.29" gradientUnits="userSpaceOnUse"><stop offset="0" stop-color="#d86d1c"/><stop offset="1" stop-color="#d34826"/></linearGradient><linearGradient id="Degradado_sin_nombre_11-7" x1="9.25" y1="33.81" x2="63.05" y2="55.62" xlink:href="#Degradado_sin_nombre_11"/><linearGradient id="linear-gradient-3" x1="56.35" y1="70.83" x2="56.35" y2="37.16" xlink:href="#linear-gradient-2"/><linearGradient id="Degradado_sin_nombre_11-8" x1="5.73" y1="43.92" x2="59.07" y2="65.55" xlink:href="#Degradado_sin_nombre_11"/><linearGradient id="linear-gradient-4" x1="52.25" y1="66.85" x2="32.33" y2="51.28" gradientUnits="userSpaceOnUse"><stop offset="0" stop-color="#cd2856"/><stop offset="1" stop-color="#cc2280"/></linearGradient><linearGradient id="Degradado_sin_nombre_27" x1="40.29" y1="57.51" x2="31.12" y2="49.83" gradientUnits="userSpaceOnUse"><stop offset="0" stop-color="#fff" stop-opacity="0"/><stop offset="1" stop-color="#000001"/></linearGradient><linearGradient id="linear-gradient-5" x1="21.51" y1="4.65" x2="74.52" y2="26.15" xlink:href="#linear-gradient-2"/><linearGradient id="Degradado_sin_nombre_12" x1="38.77" y1="16.99" x2="35.57" y2="22.32" gradientUnits="userSpaceOnUse"><stop offset="0" stop-color="#fff" stop-opacity="0"/><stop offset="1" stop-color="#c03038"/></linearGradient><linearGradient id="Degradado_sin_nombre_11-9" x1="11.37" y1="29.32" x2="65.14" y2="51.12" xlink:href="#Degradado_sin_nombre_11"/><linearGradient id="linear-gradient-6" x1="30.29" y1="50.05" x2="28.68" y2="24.35" gradientUnits="userSpaceOnUse"><stop offset="0" stop-color="#953a80"/><stop offset="1" stop-color="#cc2466"/></linearGradient><clipPath id="clip-path-2" transform="translate(-5.14 1.86)"><path class="cls-1" d="M86.82,19.44A3.62,3.62,0,0,0,85,16.31L58.13.49a3.49,3.49,0,0,0-3.56,0L49.19,3.65l7.13,4.17,0,0,14.8,8.71h0l5,2.93h0l7.1,4.19L85,22.58A3.64,3.64,0,0,0,86.82,19.44Z"/></clipPath><linearGradient id="linear-gradient-7" x1="71.37" y1="20.34" x2="81.5" y2="20.54" xlink:href="#linear-gradient-4"/><linearGradient id="linear-gradient-8" x1="51.51" y1="1.81" x2="51.57" y2="9.63" xlink:href="#linear-gradient-2"/><linearGradient id="Degradado_sin_nombre_26" x1="64.41" y1="14.63" x2="72.94" y2="6.04" gradientUnits="userSpaceOnUse"><stop offset="0" stop-color="#fff" stop-opacity="0.1"/><stop offset="1" stop-color="#fff"/></linearGradient><linearGradient id="Degradado_sin_nombre_27-3" x1="29.43" y1="38.47" x2="29.43" y2="50.57" xlink:href="#Degradado_sin_nombre_27"/><clipPath id="clip-path-4" transform="translate(-5.14 1.86)"><path class="cls-2" d="M56.35,70.53A3.56,3.56,0,0,0,58.13,70,3.63,3.63,0,0,0,59.9,66.9V37.35L53.14,33.7a3.6,3.6,0,0,0-.35,1.56V69L54.57,70A3.53,3.53,0,0,0,56.35,70.53Z"/></clipPath><linearGradient id="linear-gradient-9" x1="50.39" y1="65.11" x2="52.27" y2="72.22" xlink:href="#linear-gradient-4"/><linearGradient id="linear-gradient-10" x1="79.47" y1="59.01" x2="79.54" y2="39.42" xlink:href="#linear-gradient-2"/><linearGradient id="linear-gradient-11" x1="83" y1="51.5" x2="83" y2="44.59" xlink:href="#linear-gradient"/><linearGradient id="linear-gradient-12" x1="74.86" y1="57.2" x2="82.47" y2="50.59" xlink:href="#linear-gradient-2"/><linearGradient id="Degradado_sin_nombre_8" x1="83.26" y1="53.62" x2="83.26" y2="46.52" gradientUnits="userSpaceOnUse"><stop offset="0" stop-color="#d9731e"/><stop offset="1" stop-color="#e29123" stop-opacity="0"/></linearGradient><clipPath id="clip-path-5" transform="translate(-5.14 1.86)"><rect class="cls-1" y="67.54" width="112.72" height="39.16"/></clipPath></defs><g class="cls-3"><g id="Capa_2" data-name="Capa 2"><g id="Capa_1-2" data-name="Capa 1"><path class="cls-4" d="M56.35,70.53A3.53,3.53,0,0,1,54.57,70L27.65,54.22a3.63,3.63,0,0,1-1.77-3.14V19.44a3.61,3.61,0,0,1,1.77-3.13L54.57.49a3.49,3.49,0,0,1,3.56,0L85,16.31a3.65,3.65,0,0,1,0,6.27L59.9,37.35V66.9A3.63,3.63,0,0,1,58.13,70,3.56,3.56,0,0,1,56.35,70.53ZM33,49l19.8,11.64V35.26a3.62,3.62,0,0,1,1.78-3.13L76.15,19.44,56.35,7.8,33,21.53Z" transform="translate(-5.14 1.86)"/><path class="cls-1" d="M33,49l19.8,11.64V35.26a3.62,3.62,0,0,1,1.78-3.13L76.14,19.45l-5-2.94h0L56.32,7.82,33,21.53Z" transform="translate(-5.14 1.86)"/><polygon class="cls-5" points="66.01 18.36 66.01 18.36 66.01 18.36 66.01 18.36"/><polygon class="cls-6" points="51.2 9.66 51.17 9.68 66.01 18.36 51.2 9.66"/><polygon class="cls-7" points="71 21.3 66.01 18.36 70.99 21.3 71 21.3"/><path class="cls-8" d="M86.82,19.44A3.62,3.62,0,0,0,85,16.31L58.13.49a3.49,3.49,0,0,0-3.56,0L49.19,3.65l7.13,4.17,0,0,14.8,8.71h0l5,2.93h0l7.1,4.19L85,22.58A3.64,3.64,0,0,0,86.82,19.44Z" transform="translate(-5.14 1.86)"/><path class="cls-9" d="M76.14,19.45,54.57,32.13a3.5,3.5,0,0,0-1.43,1.57l6.76,3.65L83.24,23.64Z" transform="translate(-5.14 1.86)"/><path class="cls-10" d="M76.14,19.45,54.57,32.13a3.5,3.5,0,0,0-1.43,1.57l6.76,3.65L83.24,23.64Z" transform="translate(-5.14 1.86)"/><path class="cls-11" d="M76.14,19.45,54.57,32.13a3.5,3.5,0,0,0-1.43,1.57l6.76,3.65L83.24,23.64Z" transform="translate(-5.14 1.86)"/><path class="cls-12" d="M56.35,70.53A3.56,3.56,0,0,0,58.13,70,3.63,3.63,0,0,0,59.9,66.9V37.35L53.14,33.7a3.6,3.6,0,0,0-.35,1.56V69L54.57,70A3.53,3.53,0,0,0,56.35,70.53Z" transform="translate(-5.14 1.86)"/><path class="cls-13" d="M56.35,70.53A3.56,3.56,0,0,0,58.13,70,3.63,3.63,0,0,0,59.9,66.9V37.35L53.14,33.7a3.6,3.6,0,0,0-.35,1.56V69L54.57,70A3.53,3.53,0,0,0,56.35,70.53Z" transform="translate(-5.14 1.86)"/><path class="cls-14" d="M27.65,54.22,52.79,69V60.63L33,49l-6.6,4A3.71,3.71,0,0,0,27.65,54.22Z" transform="translate(-5.14 1.86)"/><path class="cls-15" d="M27.65,54.22,52.79,69V60.63L33,49l-6.6,4A3.71,3.71,0,0,0,27.65,54.22Z" transform="translate(-5.14 1.86)"/><g class="cls-16"><path class="cls-17" d="M27.65,54.22,52.79,69V60.63L33,49l-6.6,4A3.71,3.71,0,0,0,27.65,54.22Z" transform="translate(-5.14 1.86)"/><path class="cls-17" d="M27.65,54.22,52.79,69V60.63L33,49l-6.6,4A3.71,3.71,0,0,0,27.65,54.22Z" transform="translate(-5.14 1.86)"/></g><path class="cls-18" d="M56.32,7.82,49.19,3.65,27.65,16.31a3.59,3.59,0,0,0-1.39,1.5L33,21.53Z" transform="translate(-5.14 1.86)"/><path class="cls-19" d="M56.32,7.82,49.19,3.65,27.65,16.31a3.59,3.59,0,0,0-1.39,1.5L33,21.53Z" transform="translate(-5.14 1.86)"/><path class="cls-20" d="M25.88,51.08A3.68,3.68,0,0,0,26.39,53L33,49V21.53l-6.73-3.72a3.62,3.62,0,0,0-.38,1.63Z" transform="translate(-5.14 1.86)"/><path class="cls-21" d="M25.88,51.08A3.68,3.68,0,0,0,26.39,53L33,49V21.53l-6.73-3.72a3.62,3.62,0,0,0-.38,1.63Z" transform="translate(-5.14 1.86)"/><g class="cls-22"><polygon class="cls-23" points="70.99 21.3 81.36 15.21 85.3 21.81 79.1 25.82 78.09 25.5 70.99 21.3"/></g><g class="cls-22"><polygon class="cls-24" points="51.17 9.68 60.1 4.43 49.43 0 42.97 4.7 44.05 5.5 51.17 9.68"/></g><path class="cls-25" d="M57.56,1.43l26.2,15.42a1.24,1.24,0,0,1,0,2.13h0a1.18,1.18,0,0,1-1.23,0L56.73,3.57a5.45,5.45,0,0,0-2.68-.78l-1.59,0,2.27-1.33A2.81,2.81,0,0,1,57.56,1.43Z" transform="translate(-5.14 1.86)"/><path class="cls-26" d="M25.88,51.08A3.68,3.68,0,0,0,26.39,53L33,49V21.53l-6.73-3.72a3.62,3.62,0,0,0-.38,1.63Z" transform="translate(-5.14 1.86)"/><g class="cls-27"><polygon class="cls-28" points="47.65 62.49 55.34 67 56.29 71.92 55.54 73.06 53.04 74.03 48.12 73.12 47.65 71.56 47.65 70.85 47.65 62.49"/></g><path class="cls-29" d="M86.79,50.91V43.05a3.59,3.59,0,0,0-3.55-3.62h0a3.59,3.59,0,0,0-3.56,3.62v3.68A3.81,3.81,0,0,1,77.82,50L74,52.23a3.66,3.66,0,0,0-1.3,5h0a3.53,3.53,0,0,0,4.86,1.33l7.41-4.32A3.79,3.79,0,0,0,86.79,50.91Z" transform="translate(-5.14 1.86)"/><path class="cls-30" d="M86.79,43.05a3.59,3.59,0,0,0-3.55-3.62h0a3.59,3.59,0,0,0-3.56,3.62v3.68a3.91,3.91,0,0,1-.47,1.85h0l7,4.35a3.8,3.8,0,0,0,.57-2Z" transform="translate(-5.14 1.86)"/><path class="cls-31" d="M79.21,48.58A3.89,3.89,0,0,1,77.82,50L74,52.23a3.66,3.66,0,0,0-1.3,5h0a3.53,3.53,0,0,0,4.86,1.33l7.41-4.32a3.71,3.71,0,0,0,1.29-1.26l-7-4.35Z" transform="translate(-5.14 1.86)"/><path class="cls-1" d="M86.79,43.05a3.59,3.59,0,0,0-3.55-3.62h0a3.59,3.59,0,0,0-3.56,3.62v3.68a3.91,3.91,0,0,1-.47,1.85h0l7,4.35a3.8,3.8,0,0,0,.57-2Z" transform="translate(-5.14 1.86)"/><path class="cls-32" d="M79.68,46.45V57.28l5.44-3.21s2-.84,1.7-4.45V45.73Z" transform="translate(-5.14 1.86)"/><g class="cls-33"><g class="cls-33"><path class="cls-34" d="M19,83.49a1.07,1.07,0,0,0-1.15-1.17,1.26,1.26,0,0,0-.59.15L8.17,88.24V76.84A1.06,1.06,0,0,0,7,75.67a1.06,1.06,0,0,0-1.15,1.17V96.52A1.06,1.06,0,0,0,7,97.69a1.06,1.06,0,0,0,1.15-1.17v-5l9.07,6a1.13,1.13,0,0,0,1.78-1,1.11,1.11,0,0,0-.56-1L10,89.85l8.5-5.36a1.13,1.13,0,0,0,.56-1" transform="translate(-5.14 1.86)"/><path class="cls-34" d="M36,81.94a1.07,1.07,0,0,0-1.15,1.17V95.39H26.36a.62.62,0,0,1-.46-.25.89.89,0,0,1-.24-.67V83.11a1.15,1.15,0,1,0-2.3,0V94.47a3.24,3.24,0,0,0,.9,2.31,2.85,2.85,0,0,0,2.1,1H37.11V83.11A1.07,1.07,0,0,0,36,81.94" transform="translate(-5.14 1.86)"/><path class="cls-34" d="M52.23,81.91H43.34V76.8a1.15,1.15,0,1,0-2.3,0V97.73H52.26A2.44,2.44,0,0,0,55,95.05V84.66a2.49,2.49,0,0,0-2.77-2.75m.47,13.36a.37.37,0,0,1-.07.12H43.34V84.25h9.13a.46.46,0,0,1,.12.11.85.85,0,0,1,.11.16Z" transform="translate(-5.14 1.86)"/><path class="cls-34" d="M70,81.91H61.13V76.8a1.15,1.15,0,1,0-2.3,0V97.73H70.05a2.44,2.44,0,0,0,2.73-2.68V84.66A2.48,2.48,0,0,0,70,81.91m.46,13.36a1.22,1.22,0,0,1-.06.12H61.13V84.25h9.12a.46.46,0,0,1,.12.11.35.35,0,0,1,.11.16Z" transform="translate(-5.14 1.86)"/><path class="cls-34" d="M88.24,81.91h-9.3a2.1,2.1,0,0,0-1.53.7,2.22,2.22,0,0,0-.7,1.57V95.46a2.22,2.22,0,0,0,.63,1.61,2.1,2.1,0,0,0,1.6.66h9.3A2.06,2.06,0,0,0,89.87,97a2.27,2.27,0,0,0,.6-1.58V84.18a2,2,0,0,0-2.23-2.27m-.07,13.48H79V84.25h9.15Z" transform="translate(-5.14 1.86)"/><path class="cls-34" d="M107.89,95.77l-5-5.92,4.78-5.68a1.18,1.18,0,0,0,.3-.78,1.06,1.06,0,0,0-1.15-1.17,1,1,0,0,0-.86.42l-4.58,5.41L96.8,82.63a1.09,1.09,0,0,0-.85-.41,1.08,1.08,0,0,0-1.18,1.17,1.18,1.18,0,0,0,.3.78l4.78,5.68-5,5.92a1.2,1.2,0,0,0-.3.79,1.08,1.08,0,0,0,1.15,1.2,1.1,1.1,0,0,0,.85-.42l4.79-5.69,4.83,5.7a1.1,1.1,0,0,0,.85.41,1.08,1.08,0,0,0,1.15-1.2,1.2,1.2,0,0,0-.3-.79" transform="translate(-5.14 1.86)"/><path class="cls-35" d="M18.08,96.23c0,.53-.25.79-.74.79a.68.68,0,0,1-.41-.14l-9.16-6.1a.4.4,0,0,0-.24-.1c-.2,0-.3.12-.3.37v5.18a.66.66,0,0,1-.74.76H6.41a.63.63,0,0,0,.69.42.66.66,0,0,0,.74-.75V91.47c0-.25.11-.38.31-.38a.43.43,0,0,1,.23.11l9.17,6.1a.72.72,0,0,0,.4.14c.49,0,.74-.27.74-.79a.71.71,0,0,0-.37-.62l-.57-.38a.71.71,0,0,1,.33.58" transform="translate(-5.14 1.86)"/><path class="cls-35" d="M7.23,88.07c0,.25.1.38.3.38a.44.44,0,0,0,.21-.07l.1-.07V77a.65.65,0,0,0-.66-.75,1.16,1.16,0,0,1,.05.34Z" transform="translate(-5.14 1.86)"/><path class="cls-35" d="M9.73,89.69l8.59-5.42a.74.74,0,0,0,.37-.65q0-.72-.66-.75a1,1,0,0,1,0,.33.76.76,0,0,1-.37.65L9.12,89.27a.37.37,0,0,0-.21.31q0,.17.21.27l.5.34a.27.27,0,0,1-.09-.2.38.38,0,0,1,.2-.3" transform="translate(-5.14 1.86)"/><path class="cls-35" d="M24.71,94.17a1.33,1.33,0,0,0,.36,1,1.14,1.14,0,0,0,.56.36,1.36,1.36,0,0,1-.3-.9V83.24a.65.65,0,0,0-.66-.75,1.06,1.06,0,0,1,0,.33Z" transform="translate(-5.14 1.86)"/><path class="cls-35" d="M36.12,82.49a1,1,0,0,1,.05.33V97H25.83a2.3,2.3,0,0,1-1-.23,2.37,2.37,0,0,0,1.62.65H36.78V83.24a.65.65,0,0,0-.66-.75" transform="translate(-5.14 1.86)"/><path class="cls-35" d="M42.4,81.69a.3.3,0,0,0,.34.34H43v-5.1a.65.65,0,0,0-.66-.75,1,1,0,0,1,0,.33Z" transform="translate(-5.14 1.86)"/><path class="cls-35" d="M43,84.3a.3.3,0,0,1,.34-.34h9.13a.68.68,0,0,0-.13-.18.57.57,0,0,0-.38-.24H42.74a.3.3,0,0,0-.34.34V95.17a.3.3,0,0,0,.34.34H43Z" transform="translate(-5.14 1.86)"/><path class="cls-35" d="M53.5,82.66a2.38,2.38,0,0,1,.55,1.71V94.76A2,2,0,0,1,51.73,97H41.53v.42H52.34a2,2,0,0,0,2.33-2.27V84.78a2,2,0,0,0-1.17-2.12" transform="translate(-5.14 1.86)"/><path class="cls-35" d="M60.19,81.69c0,.23.11.34.33.34h.28v-5.1a.65.65,0,0,0-.66-.75,1,1,0,0,1,0,.33Z" transform="translate(-5.14 1.86)"/><path class="cls-35" d="M71.29,82.66a2.38,2.38,0,0,1,.55,1.71V94.76A2,2,0,0,1,69.52,97H59.32v.42H70.13a2,2,0,0,0,2.33-2.27V84.78a2.05,2.05,0,0,0-1.17-2.12" transform="translate(-5.14 1.86)"/><path class="cls-35" d="M60.8,84.3a.3.3,0,0,1,.34-.34h9.13a.68.68,0,0,0-.13-.18.61.61,0,0,0-.39-.24H60.52a.3.3,0,0,0-.33.34V95.17c0,.23.11.34.33.34h.28Z" transform="translate(-5.14 1.86)"/><path class="cls-35" d="M89.14,82.57a2,2,0,0,1,.39,1.31V95.17a1.91,1.91,0,0,1-.49,1.3,1.69,1.69,0,0,1-1.33.55h-9.3a2,2,0,0,1-.71-.12h0a1.74,1.74,0,0,0,1.31.53h9.3a1.7,1.7,0,0,0,1.33-.55,1.88,1.88,0,0,0,.49-1.3V84.3a1.62,1.62,0,0,0-1-1.73" transform="translate(-5.14 1.86)"/><path class="cls-35" d="M78.69,95.51V84.3c0-.23.11-.34.33-.34h9v-.08a.3.3,0,0,0-.33-.34h-9.3a.31.31,0,0,0-.34.34V95.17a.3.3,0,0,0,.34.34Z" transform="translate(-5.14 1.86)"/><path class="cls-35" d="M107.66,96.17l-5.06-6a.48.48,0,0,1-.06-.24.33.33,0,0,1,.06-.21L107.42,84a.76.76,0,0,0,.2-.52.65.65,0,0,0-.66-.75,1.16,1.16,0,0,1,.05.34.8.8,0,0,1-.2.51L102,89.34a.28.28,0,0,0-.07.2.43.43,0,0,0,.07.24l5.05,6a.77.77,0,0,1,.21.52c0,.52-.25.79-.75.79h0l.13.15a.71.71,0,0,0,.54.27c.49,0,.74-.26.74-.79a.8.8,0,0,0-.2-.51" transform="translate(-5.14 1.86)"/><path class="cls-35" d="M100.85,88.21h.07L96.57,83a.7.7,0,0,0-.48-.27l4.49,5.34a.34.34,0,0,0,.27.11" transform="translate(-5.14 1.86)"/><path class="cls-35" d="M100.85,90.88a.31.31,0,0,0-.27.14l-4.86,5.76a.69.69,0,0,1-.53.28h-.08a.65.65,0,0,0,.69.42.71.71,0,0,0,.54-.27l4.85-5.76a.29.29,0,0,1,.15-.12l-.26-.3a.31.31,0,0,0-.23-.14" transform="translate(-5.14 1.86)"/></g></g><text class="cls-36" transform="translate(0.15 107.82) scale(0.98 1)">MARKETING DIGI<tspan class="cls-37" x="89.64" y="0">T</tspan><tspan class="cls-38" x="95.62" y="0">AL</tspan></text></g></g></g></svg>