<svg xmlns="http://www.w3.org/2000/svg" xmlns:xlink="http://www.w3.org/1999/xlink" viewBox="0 0 262.48 97.71"><defs><style>.cls-1,.cls-2{fill:none;}.cls-2{clip-path:url(#clip-path);}.cls-3{isolation:isolate;}.cls-4{fill:url(#Degradado_sin_nombre_10);}.cls-5{fill:url(#Degradado_sin_nombre_10-2);}.cls-6{fill:url(#Degradado_sin_nombre_10-3);}.cls-7{fill:url(#Degradado_sin_nombre_10-4);}.cls-8{fill:url(#Degradado_sin_nombre_10-5);}.cls-9{fill:url(#Degradado_sin_nombre_10-6);}.cls-10{fill:url(#linear-gradient);}.cls-11{fill:url(#linear-gradient-2);}.cls-12{fill:url(#Degradado_sin_nombre_10-7);}.cls-13{fill:url(#linear-gradient-3);}.cls-14{fill:url(#Degradado_sin_nombre_10-8);}.cls-15{fill:url(#linear-gradient-4);}.cls-16,.cls-26{opacity:0.2;}.cls-16,.cls-19,.cls-26{mix-blend-mode:multiply;}.cls-17{fill:url(#Degradado_sin_nombre_27);}.cls-18{fill:url(#linear-gradient-5);}.cls-19{opacity:0.7;fill:url(#Degradado_sin_nombre_12);}.cls-20{fill:url(#Degradado_sin_nombre_10-9);}.cls-21{fill:url(#linear-gradient-6);}.cls-22{clip-path:url(#clip-path-2);}.cls-23{opacity:0.6;fill:url(#linear-gradient-7);}.cls-24{fill:url(#linear-gradient-8);}.cls-25{opacity:0.1;fill:url(#Degradado_sin_nombre_26);}.cls-26{fill:url(#Degradado_sin_nombre_27-3);}.cls-27{clip-path:url(#clip-path-4);}.cls-28{opacity:0.4;fill:url(#linear-gradient-9);}.cls-29{fill:url(#linear-gradient-10);}.cls-30{fill:url(#linear-gradient-11);}.cls-31{fill:url(#linear-gradient-12);}.cls-32{fill:url(#Degradado_sin_nombre_7);}.cls-33{clip-path:url(#clip-path-5);}.cls-34,.cls-36{fill:#fff;}.cls-35{fill:#b6b7b8;}.cls-36{font-size:7.45px;stroke:#fff;stroke-miterlimit:10;stroke-width:0.4px;font-family:AgeoPersonalUse-Regular, Ageo Personal Use;letter-spacing:0.6em;}.cls-37{letter-spacing:0.53em;}</style><clipPath id="clip-path"><path class="cls-1" d="M40.22,93.08a4.62,4.62,0,0,0,2.35-.64,4.79,4.79,0,0,0,2.34-4.14v-39L36,44.49a4.92,4.92,0,0,0-.46,2V91.06l2.35,1.38A4.62,4.62,0,0,0,40.22,93.08Z"/></clipPath><linearGradient id="Degradado_sin_nombre_10" x1="-13.37" y1="24.81" x2="56.8" y2="53.27" gradientUnits="userSpaceOnUse"><stop offset="0" stop-color="#a83237"/><stop offset="0.51" stop-color="#c97f1e"/><stop offset="1" stop-color="#9a397d"/></linearGradient><linearGradient id="Degradado_sin_nombre_10-2" x1="55.11" y1="22.35" x2="64.4" y2="26.12" xlink:href="#Degradado_sin_nombre_10"/><linearGradient id="Degradado_sin_nombre_10-3" x1="13.45" y1="3.68" x2="75.16" y2="28.7" xlink:href="#Degradado_sin_nombre_10"/><linearGradient id="Degradado_sin_nombre_10-4" x1="12.61" y1="5.73" x2="74.33" y2="30.75" xlink:href="#Degradado_sin_nombre_10"/><linearGradient id="Degradado_sin_nombre_10-5" x1="-0.22" y1="-8.18" x2="70.12" y2="20.35" xlink:href="#Degradado_sin_nombre_10"/><linearGradient id="Degradado_sin_nombre_10-6" x1="-7.77" y1="11.78" x2="62.18" y2="40.14" xlink:href="#Degradado_sin_nombre_10"/><linearGradient id="linear-gradient" x1="64.1" y1="30.41" x2="44.2" y2="47.67" gradientUnits="userSpaceOnUse"><stop offset="0" stop-color="#c4731b"/><stop offset="1" stop-color="#d09122"/></linearGradient><linearGradient id="linear-gradient-2" x1="59.24" y1="30.25" x2="62.56" y2="22.83" gradientUnits="userSpaceOnUse"><stop offset="0" stop-color="#c26d19"/><stop offset="1" stop-color="#ba4923"/></linearGradient><linearGradient id="Degradado_sin_nombre_10-7" x1="-21.94" y1="44.62" x2="49.06" y2="73.41" xlink:href="#Degradado_sin_nombre_10"/><linearGradient id="linear-gradient-3" x1="40.22" y1="93.49" x2="40.22" y2="49.04" xlink:href="#linear-gradient-2"/><linearGradient id="Degradado_sin_nombre_10-8" x1="-26.59" y1="57.97" x2="43.81" y2="86.52" xlink:href="#Degradado_sin_nombre_10"/><linearGradient id="linear-gradient-4" x1="34.82" y1="88.23" x2="8.52" y2="67.68" gradientUnits="userSpaceOnUse"><stop offset="0" stop-color="#b32854"/><stop offset="1" stop-color="#b11f7d"/></linearGradient><linearGradient id="Degradado_sin_nombre_27" x1="19.03" y1="75.91" x2="6.92" y2="65.77" gradientUnits="userSpaceOnUse"><stop offset="0" stop-color="#fff" stop-opacity="0"/><stop offset="1" stop-color="#000006"/></linearGradient><linearGradient id="linear-gradient-5" x1="-5.76" y1="6.14" x2="64.2" y2="34.51" xlink:href="#linear-gradient-2"/><linearGradient id="Degradado_sin_nombre_12" x1="17.02" y1="22.42" x2="12.79" y2="29.46" gradientUnits="userSpaceOnUse"><stop offset="0" stop-color="#fff" stop-opacity="0"/><stop offset="1" stop-color="#a83237"/></linearGradient><linearGradient id="Degradado_sin_nombre_10-9" x1="-19.15" y1="38.7" x2="51.82" y2="67.47" xlink:href="#Degradado_sin_nombre_10"/><linearGradient id="linear-gradient-6" x1="5.82" y1="66.06" x2="3.7" y2="32.14" gradientUnits="userSpaceOnUse"><stop offset="0" stop-color="#843a7f"/><stop offset="1" stop-color="#b22463"/></linearGradient><clipPath id="clip-path-2" transform="translate(0 2.45)"><path class="cls-1" d="M80.44,25.66a4.81,4.81,0,0,0-2.35-4.14L42.57.64a4.65,4.65,0,0,0-4.7,0l-7.1,4.17,9.41,5.51,0,0L59.76,21.78h0l6.59,3.87h0l9.37,5.53,2.38-1.4A4.8,4.8,0,0,0,80.44,25.66Z"/></clipPath><linearGradient id="linear-gradient-7" x1="66.83" y1="26.85" x2="80.2" y2="27.11" xlink:href="#linear-gradient-4"/><linearGradient id="linear-gradient-8" x1="40.62" y1="2.39" x2="40.7" y2="12.72" xlink:href="#linear-gradient-2"/><linearGradient id="Degradado_sin_nombre_26" x1="50.86" y1="19.31" x2="62.12" y2="7.97" gradientUnits="userSpaceOnUse"><stop offset="0" stop-color="#fff" stop-opacity="0.1"/><stop offset="1" stop-color="#fff"/></linearGradient><linearGradient id="Degradado_sin_nombre_27-3" x1="4.69" y1="50.78" x2="4.69" y2="66.75" xlink:href="#Degradado_sin_nombre_27"/><clipPath id="clip-path-4" transform="translate(0 2.45)"><path class="cls-2" d="M40.22,93.08a4.62,4.62,0,0,0,2.35-.64,4.79,4.79,0,0,0,2.34-4.14v-39L36,44.49a4.92,4.92,0,0,0-.46,2V91.06l2.35,1.38A4.62,4.62,0,0,0,40.22,93.08Z"/></clipPath><linearGradient id="linear-gradient-9" x1="39.14" y1="85.94" x2="41.63" y2="95.33" xlink:href="#linear-gradient-4"/><linearGradient id="linear-gradient-10" x1="70.74" y1="77.88" x2="70.82" y2="52.03" xlink:href="#linear-gradient-2"/><linearGradient id="linear-gradient-11" x1="75.4" y1="67.98" x2="75.4" y2="58.86" xlink:href="#linear-gradient"/><linearGradient id="linear-gradient-12" x1="64.65" y1="75.49" x2="74.69" y2="66.78" xlink:href="#linear-gradient-2"/><linearGradient id="Degradado_sin_nombre_7" x1="75.74" y1="70.77" x2="75.74" y2="61.41" gradientUnits="userSpaceOnUse"><stop offset="0" stop-color="#c4731b"/><stop offset="1" stop-color="#d09122" stop-opacity="0"/></linearGradient><clipPath id="clip-path-5" transform="translate(0 2.45)"><rect class="cls-1" x="114.62" y="20.3" width="148.78" height="51.68"/></clipPath></defs><g class="cls-3"><g id="Capa_2" data-name="Capa 2"><g id="OBJECTS"><path class="cls-4" d="M40.22,93.08a4.62,4.62,0,0,1-2.35-.64L2.35,71.56A4.78,4.78,0,0,1,0,67.42V25.66a4.79,4.79,0,0,1,2.35-4.14L37.87.64a4.65,4.65,0,0,1,4.7,0L78.09,21.52a4.82,4.82,0,0,1,0,8.28L44.91,49.3v39a4.79,4.79,0,0,1-2.34,4.14A4.62,4.62,0,0,1,40.22,93.08ZM9.39,64.66,35.52,80V46.54a4.81,4.81,0,0,1,2.35-4.14L66.35,25.66,40.22,10.3,9.39,28.42Z" transform="translate(0 2.45)"/><path class="cls-1" d="M9.39,64.66,35.52,80V46.54a4.81,4.81,0,0,1,2.35-4.14L66.34,25.67l-6.58-3.88h0L40.18,10.32,9.39,28.42Z" transform="translate(0 2.45)"/><polygon class="cls-5" points="59.76 24.24 59.76 24.24 59.76 24.24 59.76 24.24"/><polygon class="cls-6" points="40.22 12.75 40.18 12.77 59.76 24.24 40.22 12.75"/><polygon class="cls-7" points="66.35 28.11 59.76 24.24 66.34 28.12 66.35 28.11"/><path class="cls-8" d="M80.44,25.66a4.81,4.81,0,0,0-2.35-4.14L42.57.64a4.65,4.65,0,0,0-4.7,0l-7.1,4.17,9.41,5.51,0,0L59.76,21.78h0l6.59,3.87h0l9.37,5.53,2.38-1.4A4.8,4.8,0,0,0,80.44,25.66Z" transform="translate(0 2.45)"/><path class="cls-9" d="M66.34,25.67,37.87,42.4A4.71,4.71,0,0,0,36,44.49l8.93,4.81,30.8-18.1Z" transform="translate(0 2.45)"/><path class="cls-10" d="M66.34,25.67,37.87,42.4A4.71,4.71,0,0,0,36,44.49l8.93,4.81,30.8-18.1Z" transform="translate(0 2.45)"/><path class="cls-11" d="M66.34,25.67,37.87,42.4A4.71,4.71,0,0,0,36,44.49l8.93,4.81,30.8-18.1Z" transform="translate(0 2.45)"/><path class="cls-12" d="M40.22,93.08a4.62,4.62,0,0,0,2.35-.64,4.79,4.79,0,0,0,2.34-4.14v-39L36,44.49a4.92,4.92,0,0,0-.46,2V91.06l2.35,1.38A4.62,4.62,0,0,0,40.22,93.08Z" transform="translate(0 2.45)"/><path class="cls-13" d="M40.22,93.08a4.62,4.62,0,0,0,2.35-.64,4.79,4.79,0,0,0,2.34-4.14v-39L36,44.49a4.92,4.92,0,0,0-.46,2V91.06l2.35,1.38A4.62,4.62,0,0,0,40.22,93.08Z" transform="translate(0 2.45)"/><path class="cls-14" d="M2.35,71.56l33.17,19.5V80L9.39,64.66.68,69.9A4.66,4.66,0,0,0,2.35,71.56Z" transform="translate(0 2.45)"/><path class="cls-15" d="M2.35,71.56l33.17,19.5V80L9.39,64.66.68,69.9A4.66,4.66,0,0,0,2.35,71.56Z" transform="translate(0 2.45)"/><g class="cls-16"><path class="cls-17" d="M2.35,71.56l33.17,19.5V80L9.39,64.66.68,69.9A4.66,4.66,0,0,0,2.35,71.56Z" transform="translate(0 2.45)"/><path class="cls-17" d="M2.35,71.56l33.17,19.5V80L9.39,64.66.68,69.9A4.66,4.66,0,0,0,2.35,71.56Z" transform="translate(0 2.45)"/></g><path class="cls-18" d="M40.18,10.32,30.77,4.81,2.35,21.52a4.68,4.68,0,0,0-1.84,2l8.88,4.92Z" transform="translate(0 2.45)"/><path class="cls-19" d="M40.18,10.32,30.77,4.81,2.35,21.52a4.68,4.68,0,0,0-1.84,2l8.88,4.92Z" transform="translate(0 2.45)"/><path class="cls-20" d="M0,67.42A4.84,4.84,0,0,0,.68,69.9l8.71-5.24V28.42L.51,23.5A4.84,4.84,0,0,0,0,25.66Z" transform="translate(0 2.45)"/><path class="cls-21" d="M0,67.42A4.84,4.84,0,0,0,.68,69.9l8.71-5.24V28.42L.51,23.5A4.84,4.84,0,0,0,0,25.66Z" transform="translate(0 2.45)"/><g class="cls-22"><polygon class="cls-23" points="66.34 28.12 80.02 20.08 85.21 28.79 77.04 34.07 75.71 33.65 66.34 28.12"/></g><g class="cls-22"><polygon class="cls-24" points="40.18 12.77 51.96 5.85 37.87 0 29.34 6.2 30.77 7.27 40.18 12.77"/></g><path class="cls-25" d="M41.82,1.89,76.4,22.23a1.65,1.65,0,0,1,0,2.83h0a1.59,1.59,0,0,1-1.62,0L40.72,4.71a7.09,7.09,0,0,0-3.54-1l-2.09,0,3-1.75A3.68,3.68,0,0,1,41.82,1.89Z" transform="translate(0 2.45)"/><path class="cls-26" d="M0,67.42A4.84,4.84,0,0,0,.68,69.9l8.71-5.24V28.42L.51,23.5A4.84,4.84,0,0,0,0,25.66Z" transform="translate(0 2.45)"/><g class="cls-27"><polygon class="cls-28" points="35.52 82.47 45.67 88.43 46.93 94.92 45.94 96.43 42.65 97.71 36.15 96.51 35.52 94.45 35.52 93.51 35.52 82.47"/></g><path class="cls-29" d="M80.4,67.19V56.83a4.74,4.74,0,0,0-4.69-4.78h0A4.74,4.74,0,0,0,71,56.83v4.84A5,5,0,0,1,68.56,66l-5.09,2.93a4.82,4.82,0,0,0-1.72,6.53h0a4.64,4.64,0,0,0,6.41,1.75L78,71.52A5,5,0,0,0,80.4,67.19Z" transform="translate(0 2.45)"/><path class="cls-30" d="M80.4,56.83a4.74,4.74,0,0,0-4.69-4.78h0A4.74,4.74,0,0,0,71,56.83v4.84a5.08,5.08,0,0,1-.62,2.44h0l9.25,5.74a5,5,0,0,0,.76-2.67Z" transform="translate(0 2.45)"/><path class="cls-31" d="M70.39,64.11A5,5,0,0,1,68.56,66l-5.09,2.93a4.82,4.82,0,0,0-1.72,6.53h0a4.64,4.64,0,0,0,6.41,1.75L78,71.52a4.88,4.88,0,0,0,1.69-1.66l-9.25-5.74Z" transform="translate(0 2.45)"/><path class="cls-1" d="M80.4,56.83a4.74,4.74,0,0,0-4.69-4.78h0A4.74,4.74,0,0,0,71,56.83v4.84a5.08,5.08,0,0,1-.62,2.44h0l9.25,5.74a5,5,0,0,0,.76-2.67Z" transform="translate(0 2.45)"/><path class="cls-32" d="M71,61.3V75.6l7.18-4.23s2.61-1.12,2.25-5.88V60.36Z" transform="translate(0 2.45)"/><g class="cls-33"><g class="cls-33"><path class="cls-34" d="M139.73,41.34a1.41,1.41,0,0,0-1.52-1.54,1.72,1.72,0,0,0-.78.19l-12,7.62v-15a1.52,1.52,0,1,0-3,0v26a1.52,1.52,0,1,0,3,0V51.89l12,8a1.51,1.51,0,0,0,.84.28,1.43,1.43,0,0,0,1.52-1.59,1.47,1.47,0,0,0-.74-1.28l-11.22-7.53L139,42.67a1.53,1.53,0,0,0,.74-1.33" transform="translate(0 2.45)"/><path class="cls-34" d="M162.08,39.3a1.4,1.4,0,0,0-1.51,1.55v16.2H149.41a.87.87,0,0,1-.61-.33,1.26,1.26,0,0,1-.32-.89v-15a1.52,1.52,0,1,0-3,0v15a4.26,4.26,0,0,0,1.2,3.06,3.75,3.75,0,0,0,2.76,1.25H163.6V40.85a1.41,1.41,0,0,0-1.52-1.55" transform="translate(0 2.45)"/><path class="cls-34" d="M183.56,39.26H171.83V32.52a1.52,1.52,0,1,0-3,0V60.14H183.6c2.33,0,3.61-1.26,3.61-3.54V42.88c0-2.34-1.3-3.62-3.65-3.62m.61,17.64a.63.63,0,0,1-.08.15H171.83V42.35h12a.5.5,0,0,1,.16.14.56.56,0,0,1,.14.21Z" transform="translate(0 2.45)"/><path class="cls-34" d="M207,39.26H195.3V32.52a1.52,1.52,0,1,0-3,0V60.14h14.81c2.32,0,3.61-1.26,3.61-3.54V42.88c0-2.34-1.3-3.62-3.66-3.62m.62,17.64a1.13,1.13,0,0,1-.09.15H195.3V42.35h12a.7.7,0,0,1,.15.14.53.53,0,0,1,.15.21Z" transform="translate(0 2.45)"/><path class="cls-34" d="M231.09,39.26H218.82a2.8,2.8,0,0,0-2,.93,2.87,2.87,0,0,0-.92,2.06V57.14a3,3,0,0,0,.82,2.13,2.86,2.86,0,0,0,2.13.87h12.27a2.75,2.75,0,0,0,2.15-.91,3.06,3.06,0,0,0,.79-2.09V42.25a2.68,2.68,0,0,0-2.94-3M231,57.05H218.91V42.35H231Z" transform="translate(0 2.45)"/><path class="cls-34" d="M257,57.55l-6.62-7.81,6.31-7.49a1.62,1.62,0,0,0,.39-1,1.4,1.4,0,0,0-1.51-1.55,1.38,1.38,0,0,0-1.14.57l-6,7.14-6-7.16a1.48,1.48,0,0,0-1.12-.55,1.43,1.43,0,0,0-1.56,1.55,1.62,1.62,0,0,0,.39,1l6.31,7.49-6.57,7.81a1.58,1.58,0,0,0-.4,1A1.43,1.43,0,0,0,241,60.18a1.45,1.45,0,0,0,1.12-.55l6.32-7.52,6.38,7.52a1.48,1.48,0,0,0,2.63-1,1.62,1.62,0,0,0-.39-1" transform="translate(0 2.45)"/><path class="cls-35" d="M138.48,58.16c0,.7-.32,1-1,1A1,1,0,0,1,137,59L124.88,51a.56.56,0,0,0-.31-.13c-.27,0-.4.16-.4.5v6.83a.88.88,0,0,1-1,1h-.11a.85.85,0,0,0,.92.56.88.88,0,0,0,1-1V51.88c0-.34.13-.5.4-.5a.56.56,0,0,1,.31.13l12.09,8.06a1,1,0,0,0,.53.18c.66,0,1-.34,1-1a.93.93,0,0,0-.49-.81l-.75-.51a.92.92,0,0,1,.43.77" transform="translate(0 2.45)"/><path class="cls-35" d="M124.17,47.39c0,.33.13.5.4.5a.48.48,0,0,0,.26-.09l.15-.1v-15a.86.86,0,0,0-.88-1,1.4,1.4,0,0,1,.07.44Z" transform="translate(0 2.45)"/><path class="cls-35" d="M127.47,49.52l11.33-7.15a1,1,0,0,0,.49-.86.86.86,0,0,0-.87-1,1.46,1.46,0,0,1,.06.44,1,1,0,0,1-.49.86L126.66,49a.51.51,0,0,0-.27.41.41.41,0,0,0,.27.36l.66.44a.32.32,0,0,1-.12-.25.51.51,0,0,1,.27-.41" transform="translate(0 2.45)"/><path class="cls-35" d="M147.24,55.45a1.77,1.77,0,0,0,.47,1.26,1.4,1.4,0,0,0,.75.47,1.76,1.76,0,0,1-.41-1.18V41a.86.86,0,0,0-.87-1,1.46,1.46,0,0,1,.06.44Z" transform="translate(0 2.45)"/><path class="cls-35" d="M162.3,40a1.46,1.46,0,0,1,.06.44V59.2H148.71a3,3,0,0,1-1.33-.3,3.13,3.13,0,0,0,2.14.85h13.65V41a.87.87,0,0,0-.87-1" transform="translate(0 2.45)"/><path class="cls-35" d="M170.58,39a.4.4,0,0,0,.45.45h.36V32.68a.86.86,0,0,0-.87-1,1.51,1.51,0,0,1,.06.44Z" transform="translate(0 2.45)"/><path class="cls-35" d="M171.39,42.42a.4.4,0,0,1,.45-.46h12a1.5,1.5,0,0,0-.17-.23.78.78,0,0,0-.51-.32H171a.4.4,0,0,0-.45.46V56.76a.4.4,0,0,0,.45.45h.36Z" transform="translate(0 2.45)"/><path class="cls-35" d="M185.24,40.24A3.21,3.21,0,0,1,186,42.5V56.22c0,2-1,3-3.07,3H169.44v.55h14.27c2,0,3.07-1,3.07-3V43.05a2.72,2.72,0,0,0-1.54-2.81" transform="translate(0 2.45)"/><path class="cls-35" d="M194.06,39a.39.39,0,0,0,.44.45h.37V32.68a.86.86,0,0,0-.87-1,1.51,1.51,0,0,1,.06.44Z" transform="translate(0 2.45)"/><path class="cls-35" d="M208.71,40.24a3.17,3.17,0,0,1,.73,2.26V56.22q0,3-3.07,3H192.91v.55h14.27c2,0,3.07-1,3.07-3V43.05a2.71,2.71,0,0,0-1.54-2.81" transform="translate(0 2.45)"/><path class="cls-35" d="M194.87,42.42c0-.31.15-.46.44-.46h12.06a2.68,2.68,0,0,0-.17-.23.82.82,0,0,0-.51-.32H194.5c-.29,0-.44.15-.44.46V56.76a.39.39,0,0,0,.44.45h.37Z" transform="translate(0 2.45)"/><path class="cls-35" d="M232.27,40.14a2.61,2.61,0,0,1,.51,1.73V56.76a2.5,2.5,0,0,1-.64,1.72,2.25,2.25,0,0,1-1.76.72H218.11a2.52,2.52,0,0,1-.93-.16h0a2.26,2.26,0,0,0,1.73.7h12.27A2.25,2.25,0,0,0,233,59a2.5,2.5,0,0,0,.64-1.72V42.41a2.12,2.12,0,0,0-1.32-2.27" transform="translate(0 2.45)"/><path class="cls-35" d="M218.48,57.21V42.41a.39.39,0,0,1,.44-.45h11.91v-.09a.4.4,0,0,0-.45-.46H218.11c-.29,0-.44.15-.44.46V56.76a.39.39,0,0,0,.44.45Z" transform="translate(0 2.45)"/><path class="cls-35" d="M256.71,58.08l-6.66-7.88a.57.57,0,0,1-.09-.32.37.37,0,0,1,.09-.27l6.35-7.56a1,1,0,0,0,.27-.68c0-.62-.29-.95-.87-1a1.4,1.4,0,0,1,.06.43,1,1,0,0,1-.27.68l-6.35,7.56a.37.37,0,0,0-.09.27.55.55,0,0,0,.09.32l6.66,7.88a1,1,0,0,1,.27.68c0,.69-.33,1-1,1h-.06l.16.2a.93.93,0,0,0,.71.36c.65,0,1-.35,1-1a1,1,0,0,0-.27-.68" transform="translate(0 2.45)"/><path class="cls-35" d="M247.72,47.57h.1l-5.73-6.82a.91.91,0,0,0-.65-.35l5.93,7a.47.47,0,0,0,.35.14" transform="translate(0 2.45)"/><path class="cls-35" d="M247.72,51.1a.41.41,0,0,0-.35.18L241,58.89a.94.94,0,0,1-.72.36h-.09a.85.85,0,0,0,.9.56.94.94,0,0,0,.72-.36l6.4-7.61a.45.45,0,0,1,.19-.15l-.34-.4a.37.37,0,0,0-.31-.18" transform="translate(0 2.45)"/></g></g><text class="cls-36" transform="translate(121.61 73.45) scale(0.98 1)">MARKETING DIGI<tspan class="cls-37" x="118.31" y="0">T</tspan><tspan x="126.21" y="0">AL</tspan></text></g></g></g></svg>