<svg xmlns="http://www.w3.org/2000/svg" viewBox="0 0 102.16 102.11"><defs><style>.cls-1{fill:#e33139;}.cls-2{fill:#2f3ca9;}.cls-3{fill:#fafafa;}</style></defs><g id="Capa_2" data-name="Capa 2"><g id="Capa_1-2" data-name="Capa 1"><path class="cls-1" d="M51.08,33.24c15.2,0,30.4,0,45.6,0,1.72,0,2.53.41,3,2.11a52.09,52.09,0,0,1,0,31.59c-.45,1.43-1,2-2.65,2q-45.94-.11-91.89,0c-1.64,0-2.2-.59-2.65-2a51.71,51.71,0,0,1,0-31.8C3,33.57,3.72,33.2,5.25,33.2,20.52,33.26,35.8,33.24,51.08,33.24Z"/><path class="cls-2" d="M10.5,20.49C10.84,19,12,18.08,13,17a51.13,51.13,0,0,1,77.54,1.56c.46.57,1.16,1,1.14,1.9Z"/><path class="cls-2" d="M91.66,81.64c-.3,1.42-1.44,2.28-2.32,3.28-20.6,23.48-57.92,22.81-77.69-1.39-.46-.57-1.16-1-1.15-1.89Z"/><path class="cls-3" d="M10.5,20.49H91.66c2.25,3.55,5.19,6.68,6.4,10.86.34,1.2.14,1.53-1,1.47-.46,0-.91,0-1.37,0H6.36c-2.93,0-2.91,0-1.65-2.59A53.47,53.47,0,0,1,10.5,20.49Z"/><path class="cls-3" d="M91.66,81.64H10.5A60.11,60.11,0,0,1,4.2,70.88c-.62-1.22-.3-1.68,1-1.58.37,0,.75,0,1.13,0H95.91c2.77,0,2.78,0,1.54,2.59A51.58,51.58,0,0,1,91.66,81.64Z"/></g></g></svg>