<svg xmlns="http://www.w3.org/2000/svg" viewBox="0 0 100.44 100.35"><defs><style>.cls-1{fill:#fafafa;}.cls-2{fill:#2e3ba9;}.cls-3{fill:#fce451;}.cls-4{fill:#f6f6f6;}.cls-5{fill:#45ab55;}.cls-6{fill:#52afe0;}</style></defs><g id="Capa_2" data-name="Capa 2"><g id="Capa_1-2" data-name="Capa 1"><path class="cls-1" d="M96.81,32.71c1.39,1.56,1.68,3.58,2.11,5.47a50.94,50.94,0,0,1,1.44,14.56A53.62,53.62,0,0,1,97.46,67c-.09.24-.42.4-.65.59q-35.08,0-70.19.06c-7.68,0-15.35,0-23-.06-1.32-1-1.33-2.59-1.73-4A50.25,50.25,0,0,1,1.49,38c.42-1.77.53-3.85,2.1-5.23q24.71,0,49.41-.06Q74.9,32.66,96.81,32.71ZM65.37,50.2A15.17,15.17,0,1,0,50.23,65.34,15.41,15.41,0,0,0,65.37,50.2Z"/><path class="cls-2" d="M96.81,32.71q-21.9,0-43.81-.05-24.7,0-49.41.06c-.38-.89.2-1.59.51-2.31a50.15,50.15,0,0,1,92.2,0C96.61,31.12,97.19,31.83,96.81,32.71Z"/><path class="cls-2" d="M3.59,67.63c7.68,0,15.35.06,23,.06q35.1,0,70.19-.06c.38.89-.2,1.59-.51,2.31a50.15,50.15,0,0,1-92.2,0C3.79,69.22,3.22,68.52,3.59,67.63Z"/><path class="cls-3" d="M65.37,50.2A15.17,15.17,0,1,1,50.29,35,15.4,15.4,0,0,1,65.37,50.2ZM37.67,50A12.54,12.54,0,1,0,50.4,37.64,12.73,12.73,0,0,0,37.67,50Z"/><path class="cls-4" d="M37.67,50A12.54,12.54,0,1,1,50,62.71,12.73,12.73,0,0,1,37.67,50ZM44,53.24a6.15,6.15,0,0,1,.42-6.94c1-1.48,0-2.08-.84-2.67-1.08-.77-1.38.5-1.76,1a10,10,0,1,0,16.86.21c-.4-.64-.69-2-1.86-1.27-1,.6-1.82,1.35-.76,2.86a6,6,0,0,1,.33,6.74c-1.67-2.19-3.38-4.35-5-6.57-.86-1.18-1.53-1.15-2.38,0C47.38,48.88,45.68,51.05,44,53.24Z"/><path class="cls-5" d="M56.4,53.22a6,6,0,0,0-.33-6.74c-1.06-1.51-.24-2.26.76-2.86,1.17-.7,1.46.63,1.86,1.27a10,10,0,0,1-2,13A10,10,0,0,1,41.83,44.68c.38-.55.68-1.82,1.76-1,.83.59,1.89,1.19.84,2.67A6.15,6.15,0,0,0,44,53.24l.47.69c1.08,2.44,3.29,3.25,5.61,3.28s4.69-.76,5.84-3.28Z"/><path class="cls-3" d="M44.48,53.93,44,53.24c1.67-2.19,3.37-4.36,5-6.58.85-1.16,1.52-1.19,2.38,0,1.63,2.22,3.34,4.38,5,6.57-.16.24-.31.48-.47.71Z"/><path class="cls-6" d="M44.48,53.93H55.93c-1.15,2.52-3.43,3.3-5.84,3.28S45.56,56.37,44.48,53.93Z"/></g></g></svg>