<svg xmlns="http://www.w3.org/2000/svg" viewBox="0 0 100.72 100.48"><defs><style>.cls-1{fill:#fafafa;}.cls-2{fill:#47acf4;}.cls-3{fill:#43aa53;}.cls-4{fill:#fce34b;}</style></defs><g id="Capa_2" data-name="Capa 2"><g id="Capa_1-2" data-name="Capa 1"><path class="cls-1" d="M67.82,96.86c-1.56,1.38-3.57,1.67-5.47,2.11a51.74,51.74,0,0,1-14.57,1.44,53.79,53.79,0,0,1-14.3-2.91c-.25-.08-.4-.42-.59-.64q0-35.11-.06-70.23c0-7.68,0-15.36.06-23,1-1.32,2.59-1.33,4-1.73a50.25,50.25,0,0,1,25.71-.37c1.77.42,3.85.53,5.24,2.1q0,24.72.06,49.43Q67.88,74.93,67.82,96.86ZM50.33,65.4A15.17,15.17,0,1,0,35.18,50.26,15.41,15.41,0,0,0,50.33,65.4Z"/><rect class="cls-1" x="34.58" y="29.76" width="30.95" height="42.71"/><path class="cls-2" d="M32.37,50c0,14.89,0,29.78,0,44.67,0,1.93-.34,2.31-2.2,1.48C10.7,87.49-1.54,68,.16,46.65c1.59-20,12-34.29,30.23-42.86,1.55-.73,2-.49,2,1.3C32.34,20.06,32.37,35,32.37,50Z"/><path class="cls-2" d="M68.34,49.92V5.46c0-2.52,0-2.52,2.25-1.54,19.47,8.59,31.74,28.35,30,49.52-1.67,19.91-12,34.16-30.11,42.72-1.61.77-2.14.64-2.14-1.34C68.37,79.85,68.34,64.88,68.34,49.92Z"/><path class="cls-3" d="M62.94,49.1c0,6.85-4,11.82-9.93,13.17a12.55,12.55,0,0,1-10.56-22c.54-.42,1.41-1.84,2-.27.45,1.16,2.83,2.05.71,3.86a7.6,7.6,0,0,0-2.47,8.7A7.62,7.62,0,0,0,49.47,58a7.66,7.66,0,0,0,7.79-3.86,8,8,0,0,0-1.56-10.2c-1.11-1-.92-2.78.6-4.2,1.13-1.06,1.72.31,2.31.82A11.77,11.77,0,0,1,62.94,49.1Z"/><path class="cls-4" d="M46.76,48.43c0-4.73,0-4.65,4.82-4.75,1.79,0,2.58.32,2.41,2.29s.1,4.19-.08,6.26c-.25,2.75-2.47,1.17-3.67,1.24s-3.21,1.4-3.46-1.23C46.67,51,46.76,49.7,46.76,48.43Z"/></g></g></svg>