<svg xmlns="http://www.w3.org/2000/svg" viewBox="0 0 69.77 98.23"><defs><style>.cls-1{fill:#fff;}</style></defs><g id="Capa_2" data-name="Capa 2"><g id="Capa_1-2" data-name="Capa 1"><path class="cls-1" d="M34.89,8.61c2.32-2.58,4.38-5,6.62-7.29A4.44,4.44,0,0,1,44.28.08Q54-.07,63.8.08a3.23,3.23,0,0,1,2.42,1.25c.29.54-.22,1.83-.76,2.45-3.59,4.15-7.27,8.23-11,12.29a1.94,1.94,0,0,0-.41,2.48A12.59,12.59,0,0,1,55,23c.12,3.82.08,7.66,0,11.49a2,2,0,0,0,1.43,2.27,9.3,9.3,0,0,1,5.88,8.5A19.16,19.16,0,0,0,67,56.51c3.75,4.54,3.76,9,0,13.56a19.75,19.75,0,0,0-4.61,11.26c-.46,5.57-3.92,9-9.51,9.47a19.25,19.25,0,0,0-10.94,4.42c-4.82,4-9.22,4-14,0A19.19,19.19,0,0,0,17,90.81c-5.69-.52-9.13-3.94-9.59-9.61A19,19,0,0,0,2.93,70.27C-1,65.49-1,61.05,3,56.25A18.36,18.36,0,0,0,7.36,45.49a10,10,0,0,1,6.35-9.05,2.29,2.29,0,0,0,.94-1.72c.08-3.89-.05-7.79.08-11.68a14.06,14.06,0,0,1,1-4.61,1.86,1.86,0,0,0-.43-2.31C11.66,12.1,8,8.08,4.48,4c-.61-.71-1.18-2.1-.87-2.75S5.33.09,6.27.08c6.32-.1,12.63,0,19-.08a3.92,3.92,0,0,1,3.3,1.5C30.55,3.86,32.67,6.14,34.89,8.61ZM66.22,63.12a23.81,23.81,0,0,0-2.49-4.49A20.81,20.81,0,0,1,58.58,46c-.28-3.9-2.26-6.07-6.13-6.33A22.11,22.11,0,0,1,39.14,34.1c-2.82-2.42-5.58-2.48-8.34-.13a22.71,22.71,0,0,1-13.65,5.68c-3.63.24-5.68,2.36-5.92,5.89A22.1,22.1,0,0,1,5.69,59.05c-2.48,2.87-2.49,5.6,0,8.49a22.17,22.17,0,0,1,5.55,13.51c.23,3.56,2.35,5.64,5.9,5.9a22.28,22.28,0,0,1,13.35,5.44c3.09,2.65,5.72,2.66,8.77,0A22.2,22.2,0,0,1,52.6,87c3.5-.27,5.66-2.24,5.89-5.69a22.65,22.65,0,0,1,5.79-14C65.19,66.22,65.51,64.67,66.22,63.12Zm-37.32-42c.29.16.44.32.59.32,4.77,0,9.55.05,14.32,0a2.88,2.88,0,0,0,1.68-1c2-2.09,3.85-4.24,5.76-6.38l9-10.1c-4.11,0-7.8.25-11.43-.07-3.32-.3-5.51.82-7.6,3.37C37.34,11.94,33.08,16.41,28.9,21.08Zm-9.65-.51-.49.08V35.43a11.19,11.19,0,0,0,6.82-2.35c1.21-.93,2.39-1.91,3.67-2.75a9.51,9.51,0,0,1,11.28,0c1.43.94,2.74,2.08,4.14,3.07a10.06,10.06,0,0,0,6.32,2V20.08c-1.23,1.35-2.15,2.21-2.89,3.21a4.84,4.84,0,0,1-4.43,2c-5.36-.12-10.72-.2-16.07,0-2.94.12-5.21-.54-6.84-3.07A13.33,13.33,0,0,0,19.25,20.57ZM9.48,3.87,24.31,20.42l8-8.91c-2.16-2.41-4.17-4.7-6.24-6.95a2,2,0,0,0-1.26-.66C19.84,3.86,14.9,3.87,9.48,3.87Z"/><path class="cls-1" d="M34.83,86.33A23,23,0,1,1,57.89,63.45,23,23,0,0,1,34.83,86.33Zm0-3.85a19.2,19.2,0,1,0-19.1-19.29A19.11,19.11,0,0,0,34.81,82.48Z"/><path class="cls-1" d="M25.65,70c.82-2.57-.42-4.75-2.3-6.75a15.58,15.58,0,0,1-1.85-2.43c-.81-1.29-.49-2.65.94-2.87a14.07,14.07,0,0,0,11-8c.68-1.32,2.15-1.12,3.15.2s1.85,2.92,3,4.22a7.15,7.15,0,0,0,2.62,1.93c1.58.65,3.29.95,4.91,1.51s2.28,2,1,3.22a13.66,13.66,0,0,0-4,12.43,1.74,1.74,0,0,1-2.61,1.91,13.34,13.34,0,0,0-13,0c-1.56.8-2.69-.19-2.75-2C25.63,72.31,25.65,71.29,25.65,70Zm9.21-15.4c-1.7,3.81-4.55,5.63-8.63,6.21,3.3,2.66,3.95,6.07,3.11,10.44,3.85-2.43,7.29-2.38,11.2,0-1.2-4.52,0-7.75,3.32-10.7C39.36,60.27,36.64,58.27,34.86,54.57Z"/></g></g></svg>