<svg xmlns="http://www.w3.org/2000/svg" viewBox="0 0 98.24 98.23"><defs><style>.cls-1{fill:#fff;}</style></defs><g id="Capa_2" data-name="Capa 2"><g id="Capa_1-2" data-name="Capa 1"><path class="cls-1" d="M98.24,49V92c0,4.51-1.69,6.23-6.12,6.23H6.18C1.72,98.23,0,96.51,0,92.06V6.13C0,1.78,1.75,0,6,0H92.17c4.33,0,6.07,1.74,6.07,6.07ZM49.33,3.29h-43c-2.84,0-3.06.21-3.06,3V92c0,2.64.27,2.91,3,2.91H92c2.69,0,3-.27,3-2.91Q95,49.16,95,6.3c0-2.79-.22-3-3.06-3Z"/><path class="cls-1" d="M49.33,45.83h36a4.31,4.31,0,0,1,1.81.11c.52.27,1.2,1,1.17,1.42A2.51,2.51,0,0,1,87.12,49c-.45.28-1.19.12-1.8.12H12.92c-.54,0-1.22.18-1.6-.08A2.92,2.92,0,0,1,10,47.36c-.06-.44.77-1.15,1.35-1.44a4.38,4.38,0,0,1,1.82-.08Z"/><path class="cls-1" d="M52.39,24.52c0-3.06,0-6.12,0-9.19,0-1.53.65-2.32,2.2-2.23a28.25,28.25,0,0,1,5.06.41,7.8,7.8,0,0,1,5.82,7.31c.11,2.44.1,4.9,0,7.35A8.16,8.16,0,0,1,57.58,36c-5.19.24-5.19.24-5.19-5Zm3.36,8.11c4.41.32,6.44-1.53,6.46-5.7,0-1.7,0-3.41,0-5.11-.05-3.9-2.49-5.88-6.46-5.19Z"/><path class="cls-1" d="M49.12,24.54c0,1.7.06,3.4,0,5.1a6.53,6.53,0,0,1-13.06,0c-.1-3.4-.09-6.8,0-10.2a6.54,6.54,0,0,1,13.07,0C49.18,21.14,49.12,22.84,49.12,24.54Zm-9.81,0c0,1.57,0,3.13,0,4.7a3.28,3.28,0,0,0,3.23,3.49,3.25,3.25,0,0,0,3.27-3.45c.06-3.13.06-6.27,0-9.4a3.26,3.26,0,1,0-6.5-.05C39.27,21.4,39.31,23,39.31,24.54Z"/><path class="cls-1" d="M19.66,24.55c0-1.77-.08-3.54,0-5.31a6.52,6.52,0,0,1,6.25-6.13A6.62,6.62,0,0,1,32.7,18.7c.16,1.17,0,2.32-1.38,2.52s-1.68-.72-1.9-1.88a3.24,3.24,0,0,0-3.54-2.93A3.28,3.28,0,0,0,23,20c0,3.06,0,6.13,0,9.19a3.31,3.31,0,0,0,2.95,3.56,3.25,3.25,0,0,0,3.52-2.95c.22-1.17.64-2.06,1.91-1.87,1.42.22,1.53,1.36,1.36,2.54A6.6,6.6,0,0,1,25.92,36a6.51,6.51,0,0,1-6.24-6.14C19.58,28.1,19.66,26.33,19.66,24.55Z"/><path class="cls-1" d="M72.13,16.38v6.55a11,11,0,0,1,3.06.07c.68.2,1.17,1,1.74,1.58-.59.54-1.09,1.33-1.78,1.55a10.63,10.63,0,0,1-3,.07v6.54a26.13,26.13,0,0,1,4.43.08c.71.12,1.3,1,1.95,1.56-.65.55-1.26,1.49-2,1.57A52.92,52.92,0,0,1,70.7,36c-1.37,0-1.94-.77-1.94-2.08q0-9.4,0-18.79a1.78,1.78,0,0,1,2-2.05,53.06,53.06,0,0,1,5.92.08c.69.08,1.28,1,1.92,1.59-.66.54-1.26,1.41-2,1.54A26,26,0,0,1,72.13,16.38Z"/><path class="cls-1" d="M82,55.74h3v26H82Z"/><path class="cls-1" d="M77.09,55.75h3v26h-3Z"/><path class="cls-1" d="M13.21,81.73v-26h3v26Z"/><path class="cls-1" d="M18.15,55.75h3v26h-3Z"/><path class="cls-1" d="M49.23,55.69h3v26h-3Z"/><path class="cls-1" d="M39.43,55.74h3v26h-3Z"/><path class="cls-1" d="M34.52,55.74h3V75.22h-3Z"/><path class="cls-1" d="M29.61,55.74h3V75.22h-3Z"/><path class="cls-1" d="M23,55.69h3V75.17H23Z"/><path class="cls-1" d="M54.17,55.74h3V75.22h-3Z"/><path class="cls-1" d="M60.73,55.73h3V75.2h-3Z"/><path class="cls-1" d="M65.63,55.74h3V75.22h-3Z"/><path class="cls-1" d="M73.55,75.22h-3V55.74h3Z"/><path class="cls-1" d="M89.21,10.66C88.15,9.54,87,8.89,86.9,8.11,86.74,6.73,88,6.54,89.2,6.54s2.57.18,2.37,1.71C91.47,9,90.32,9.58,89.21,10.66Z"/><path class="cls-1" d="M9,10.66C7.91,9.57,6.77,9,6.68,8.24c-.2-1.53,1.12-1.7,2.37-1.7s2.45.2,2.29,1.57C11.24,8.89,10.09,9.54,9,10.66Z"/><path class="cls-1" d="M9.12,92.51C8,91.41,6.81,90.8,6.68,90c-.21-1.37,1-1.64,2.23-1.64s2.58.11,2.44,1.65C11.28,90.76,10.17,91.4,9.12,92.51Z"/><path class="cls-1" d="M89.21,92.51C88.15,91.39,87,90.73,86.9,90c-.16-1.37,1.12-1.57,2.3-1.57s2.57.18,2.37,1.71C91.47,90.83,90.32,91.42,89.21,92.51Z"/><path class="cls-1" d="M23,81.71v-3h3.11v3Z"/><path class="cls-1" d="M32.72,78.74v3H29.61v-3Z"/><path class="cls-1" d="M37.53,81.77H34.48v-3h3.05Z"/><path class="cls-1" d="M54.14,78.67h3v3.06h-3Z"/><path class="cls-1" d="M63.73,81.77h-3v-3h3Z"/><path class="cls-1" d="M65.58,81.75v-3h3.07v3Z"/><path class="cls-1" d="M70.49,81.75v-3h3.07v3Z"/></g></g></svg>