<svg xmlns="http://www.w3.org/2000/svg" viewBox="0 0 99.1 99.1"><defs><style>.cls-1{fill:#fff;}</style></defs><g id="Capa_2" data-name="Capa 2"><g id="Capa_1-2" data-name="Capa 1"><path class="cls-1" d="M99.1,49.83A49.55,49.55,0,1,1,50,0,49.54,49.54,0,0,1,99.1,49.83ZM81,79.74c15.87-15.88,17.3-44-1.37-61.9a43.7,43.7,0,0,0-63.68,3.78C-.35,41.33,5,67.39,18.16,79.6,30.27,52.49,68.38,52.07,81,79.74Zm-4.72,4.37c-.26-.66-.46-1.27-.71-1.85a28.23,28.23,0,0,0-52.11.08,2,2,0,0,0,.88,3,43.48,43.48,0,0,0,31.73,7.5A42.08,42.08,0,0,0,76.27,84.11Z"/><path class="cls-1" d="M49.8,52.45A18.46,18.46,0,1,1,68,33.75,18.54,18.54,0,0,1,49.8,52.45Zm-.24-5.83A12.64,12.64,0,1,0,36.89,34,12.69,12.69,0,0,0,49.56,46.62Z"/></g></g></svg>