<svg xmlns="http://www.w3.org/2000/svg" viewBox="0 0 77.77 88.69"><defs><style>.cls-1{fill:#4e7eaf;}</style></defs><g id="Capa_2" data-name="Capa 2"><g id="Capa_1-2" data-name="Capa 1"><path class="cls-1" d="M46.86,81a9,9,0,0,1-3.14-.53c-4.86-1.28-9.7-2.59-14.56-3.88a5.75,5.75,0,0,0-1.74-.27c-.75,0-1.16.27-.74,1.24,1.18,2.68.57,4.46-1.95,6s-5.09,3-7.67,4.44-4.75.85-6.28-1.78Q5.8,77.56.84,69c-1.54-2.66-1-4.84,1.72-6.44q3.74-2.22,7.53-4.34c2.61-1.47,4.56-1.05,6.23,1.43.55.82.92.61,1.54.25,2.85-1.67,5.75-3.28,8.58-5A7.58,7.58,0,0,1,32.73,54c4.38,1.23,8.8,2.31,13.17,3.57a1.93,1.93,0,0,0,2.3-.65c.83-.92,1.73-1.79,2.64-2.64a6,6,0,0,1,7.5-.87,1.62,1.62,0,0,0,1.88.07,5.9,5.9,0,0,1,7.47,1,1.4,1.4,0,0,0,1.77.49,6.12,6.12,0,0,1,5.07,11.11c-7.19,4.22-14.42,8.37-21.64,12.53C51,79.76,49.21,81.13,46.86,81Zm-16-23.89a3.87,3.87,0,0,0-2.08.36c-3.17,1.83-6.34,3.67-9.53,5.47-.6.34-.67.65-.32,1.24C20.67,67.05,22.34,70,24,72.89c.28.49.57.92,1.24.53,1.64-1,3.29-.55,5-.1,4.9,1.34,9.82,2.6,14.71,4a5.64,5.64,0,0,0,4.73-.64c3.65-2.18,7.36-4.27,11-6.4,4-2.31,8-4.63,12-6.93a2.87,2.87,0,0,0,1.66-2.71,2.6,2.6,0,0,0-1.63-2.36,3.28,3.28,0,0,0-3.18.48c-5.72,3.33-11.46,6.62-17.18,10a6.18,6.18,0,0,1-5.06.81c-4.38-1.23-8.79-2.35-13.19-3.51-1.12-.3-2.12-.79-1.8-2.14S33.7,62.35,35,62.7c3.75,1,7.54,2,11.3,3,1.46.4,2.62.21,3.16-1.34.45-1.3-.4-2.44-2.12-2.9-2.85-.78-5.71-1.5-8.57-2.26ZM56.34,62c.69.35,1.08-.16,1.51-.4Q61,59.8,64.13,57.94c.42-.25,1.23-.33,1.08-1s-.83-.79-1.43-.9a2.41,2.41,0,0,0-2.17.52C59.83,58.36,58.11,60.18,56.34,62Zm.28-5.33c-.16-.65-.62-.61-1-.68-1.2-.2-4.28,1.76-4.62,3-.23.83.68,1.12,1,1.66s.69-.08.94-.31c1-1,2.08-2.07,3.11-3.11C56.3,57,56.48,56.82,56.62,56.66Z"/><path class="cls-1" d="M46.31,50.7H24.83c-2.9,0-3.86-1.07-3.39-4a12.75,12.75,0,0,1,6.44-9.3c1-.57,1.15-.89.48-1.93a7.47,7.47,0,0,1,1.45-9.93,7.55,7.55,0,0,1,9.78.09,7.47,7.47,0,0,1,1.3,10c-.53.8-.69,1.18.3,1.69a11.78,11.78,0,0,1,4.45,4c.52.78.9.75,1.4,0a11.45,11.45,0,0,1,4.45-4c1.1-.54.73-1,.26-1.71A7.49,7.49,0,0,1,56.59,24a7.09,7.09,0,0,1,7.59,3.08,7,7,0,0,1,.26,8.17c-.73,1.17-.7,1.6.53,2.33A12.72,12.72,0,0,1,71.26,47c.39,2.51-.6,3.72-3.12,3.72-7.27,0-14.55,0-21.83,0ZM34.69,47.25c2.78,0,5.56,0,8.34,0,1.14,0,1.61-.13,1.17-1.45A10.18,10.18,0,0,0,34.77,39a10.07,10.07,0,0,0-9.57,6.61c-.42,1.22-.27,1.72,1.15,1.68C29.13,47.19,31.91,47.25,34.69,47.25Zm23.25,0v0c2.84,0,5.68,0,8.51,0,1.23,0,1.39-.46,1.07-1.5a10.06,10.06,0,0,0-19-.15c-.41,1.26-.08,1.67,1.25,1.64C52.5,47.2,55.22,47.25,57.94,47.25Z"/><path class="cls-1" d="M38.62,7.69c3.66,0,3.66,0,4.77-3.41l.81-2.54a2.17,2.17,0,0,1,4.24-.07c.48,1.46,1.05,2.9,1.39,4.39a1.86,1.86,0,0,0,2.35,1.66c1.47-.12,3,0,4.44,0a2.13,2.13,0,0,1,2.31,1.54,2.06,2.06,0,0,1-1,2.45c-1.38,1-2.75,2.05-4.17,3a1.29,1.29,0,0,0-.57,1.78c.56,1.49,1,3,1.49,4.55.36,1.14.4,2.24-.75,3s-2,.25-2.92-.43a24.1,24.1,0,0,1-2.84-2.12c-1.39-1.43-2.54-1.15-3.86.06a32.59,32.59,0,0,1-3,2.22,2.16,2.16,0,0,1-2.78.21,2.24,2.24,0,0,1-.74-2.7c.47-1.59,1-3.17,1.56-4.72a1.41,1.41,0,0,0-.65-1.93c-1.18-.79-2.31-1.65-3.46-2.48s-2.08-1.47-1.54-3,1.82-1.47,3.09-1.44Z"/></g></g></svg>