<svg xmlns="http://www.w3.org/2000/svg" viewBox="0 0 211.57 125.27"><defs><style>.cls-1{fill:#fff;}</style></defs><g id="Capa_2" data-name="Capa 2"><g id="Capa_1-2" data-name="Capa 1"><path class="cls-1" d="M22.32,106.44c-.53-10.2-9.86-9.91-9.86-9.91-4.54,0-6.71,1.4-6.71,1.4v-8H0v28.16H5.89v-1.15C6.57,118,11.74,118,11.74,118,23.48,118.27,22.32,106.44,22.32,106.44Zm-10.87,7.19a6.29,6.29,0,0,1,0-12.56,6.29,6.29,0,0,1,0,12.56Z"/><path class="cls-1" d="M41.21,97.06C35,97.06,30,101.77,30,107.57s5,10.5,11.26,10.5,11.25-4.7,11.25-10.5S47.42,97.06,41.21,97.06Zm.08,16.57a6.29,6.29,0,1,1,5.89-6.28A6.1,6.1,0,0,1,41.29,113.63Z"/><path class="cls-1" d="M82.24,96.87l0,1.31a12.83,12.83,0,0,0-5.12-1.26s-11-1.6-11.26,11.21c0,0-.92,9.94,11.16,10.38,0,0,3.53,0,4.49-.77,0,0,.15,2.61-4.83,2.85,0,0-3.57.34-4.59-2.27L66.71,120s1.45,5.36,9.76,5.27c0,0,10.24,1.16,11.4-9.18V96.87Zm-5.37,17a6.29,6.29,0,1,1,5.9-6.28A6.1,6.1,0,0,1,76.87,113.92Z"/><path class="cls-1" d="M106.08,96.86v1.57c-.9-1.74-5.89-1.57-5.89-1.57-12,0-11.1,10.78-11.1,10.78,0,11.54,10.87,10.5,10.87,10.5,4.6,0,5.83-1.31,5.83-1.31v1.31h5.51V96.86Zm-5.75,17.06a6.29,6.29,0,1,1,5.9-6.28A6.1,6.1,0,0,1,100.33,113.92Z"/><rect class="cls-1" x="22.85" y="96.53" width="5.89" height="21.53"/><rect class="cls-1" x="22.85" y="90.54" width="5.89" height="4.93"/><rect class="cls-1" x="137.19" y="96.53" width="5.89" height="21.53"/><rect class="cls-1" x="137.19" y="90.54" width="5.89" height="4.93"/><path class="cls-1" d="M177.45,97.06c-6.22,0-11.26,4.71-11.26,10.51s5,10.5,11.26,10.5,11.25-4.7,11.25-10.5S183.66,97.06,177.45,97.06Zm.07,16.57a6.29,6.29,0,1,1,5.9-6.28A6.1,6.1,0,0,1,177.52,113.63Z"/><path class="cls-1" d="M53.72,97.06h5.75v1.07a9.49,9.49,0,0,1,6.42-1.07v4.4s-6.42-.73-6.42,3.57v13H53.72Z"/><path class="cls-1" d="M98.43,91.31,107,86.1s1.45-1.14,2.39.26a1.18,1.18,0,0,1-.46,1.91l-8.74,5a1.33,1.33,0,0,1-2-.56A1.16,1.16,0,0,1,98.43,91.31Z"/><path class="cls-1" d="M113.33,96.86h5.8v1.21s1.59-1.53,6.55-1.21c0,0,9.68-.42,9.89,9.32v11.74H130.1l.08-12.25s.4-4.31-5.48-4.31c0,0-6-.43-5.9,4.93v11.63h-5.47Z"/><path class="cls-1" d="M160.25,103.64l5.36-1.3s-2.23-5.22-10-5.22c0,0-10.54-.59-11,10.4,0,0-.73,10.22,10.65,10.55,0,0,7.32.65,10.29-5.33l-5.11-1.3s-1.33,2.24-5,2.24c0,0-5.65.57-5.65-6.11,0,0-.68-5.58,5.65-6.11C155.5,101.46,158.69,101.07,160.25,103.64Z"/><path class="cls-1" d="M205.93,103l5.61-1.4s-1.74-4-10.73-4.25c0,0-10.38-1.09-11.3,6.18,0,0-1.06,5.7,10.48,6.09,0,0,6,0,5.94,2.31,0,0,.58,1.74-5.94,1.74,0,0-4.27.63-5.12-1.45l-5.39,1.45s3,4.11,10.61,4.44c0,0,11.2,1.12,11.45-6.66,0,0,1.21-6.81-10.82-5.89,0,0-5.85,1-5.95-2.08,0,0-.5-2,6-2C200.77,101.46,205.11,101.31,205.93,103Z"/><path class="cls-1" d="M76.06,76.68s-.22,5,6.13,4.24c0,0,6.88.18,6.84-7.66,0,0-1.54-26.3,26.88-25.59,0,0,25.59.59,26.89,29.36,0,0,0,4.1,3.89,4.06,0,0,9.19.66,9.08-7.71,0,0,1.76-34.91-38.44-38.92,0,0-4.1-19-23.82-18.27,0,0-20.82-.53-24.18,24.76,0,0,0,2.7,5,1.89,0,0,1.92-.38,2.12-3.9,0,0,1.77-17.68,19.46-17.09,0,0,13.08-.71,14.73,13.21C110.6,35.06,78.77,39.65,76.06,76.68Z"/><path class="cls-1" d="M113.67,22l9.67-5.88s1.63-1.28,2.69.3a1.33,1.33,0,0,1-.51,2.15l-9.86,5.61a1.51,1.51,0,0,1-2.29-.63S112.91,22.57,113.67,22Z"/><path class="cls-1" d="M92.2,11.41l-.44-9.52S91.47.17,93.07,0a1.12,1.12,0,0,1,1.38,1.25l.16,9.55s.11,1.58-1.39,1.44C93.22,12.26,92.29,12.19,92.2,11.41Z"/><path class="cls-1" d="M71,24.07l-8-5.21s-1.56-.78-.75-2.16a1.12,1.12,0,0,1,1.82-.38L72,21.78a1.26,1.26,0,0,1,.35,2A1.08,1.08,0,0,1,71,24.07Z"/></g></g></svg>