<svg xmlns="http://www.w3.org/2000/svg" viewBox="0 0 126.81 164.77"><defs><style>.cls-1{fill:#fff;}</style></defs><g id="Capa_2" data-name="Capa 2"><g id="Capa_1-2" data-name="Capa 1"><path class="cls-1" d="M59.22,43.58q5.1,3.35,8.46,10.93a65,65,0,0,1,4.71,17,86.76,86.76,0,0,1,.55,19.39,62.43,62.43,0,0,1-4.07,18.2,35.94,35.94,0,0,1-9.17,13.57A21.1,21.1,0,0,1,45,128a27.3,27.3,0,0,1-7.42-1A18.6,18.6,0,0,1,33,124.69c-.91-.69-1.17-1.35-.8-2s3.27-.59,5.51-.59q4.95,0,8.14-5.35a43.33,43.33,0,0,0,4.87-13.33,118.21,118.21,0,0,0,2.23-17.32,158.17,158.17,0,0,0,.16-17.32,96.44,96.44,0,0,0-1.43-13.32c-.7-3.57-1.52-5.35-2.48-5.35q-2.71,0-5.43,3.59a46.58,46.58,0,0,0-5.18,9.18,114.64,114.64,0,0,0-4.63,12.53q-2.16,6.94-4,13.49T26.82,101c-.86,3.72-1.5,6.6-1.92,8.62a43.68,43.68,0,0,0,3.19,6.78c1.06,1.76,1.69,3.33,2.48,4.31a4.1,4.1,0,0,1,1.07,2.35c-.05.43-.94.6-2.11.6q-9.1,0-14.85-5.18a35,35,0,0,1-9-13.65A76.59,76.59,0,0,1,1.2,85.55,201.66,201.66,0,0,1,0,63.37q0-5.11.4-11.49T1.44,39q.63-6.47,1.35-12.69T4.15,15.16q.63-4.94,1-8.06c.26-2.07.4-3.21.4-3.43a7.84,7.84,0,0,1,.47-2.23Q6.54,0,8.94,0a15.46,15.46,0,0,1,3.91.88A41.59,41.59,0,0,1,18.6,3.19a24.68,24.68,0,0,1,5.18,3.35,5.38,5.38,0,0,1,2.24,4,60.5,60.5,0,0,1-1,8.14q-1,6.07-2.23,15.17T20.59,54.67q-1,11.73-1,25a97.52,97.52,0,0,0,.72,12.53,63.09,63.09,0,0,0,2,9.82q.95-6.23,2.95-15.09t4.39-17.56q2.39-8.7,5-15.64t5-9.34a9.66,9.66,0,0,1,4.87-2.55,20.75,20.75,0,0,1,6-.4,26.12,26.12,0,0,1,5.43,1A16.73,16.73,0,0,1,59.22,43.58Z"/><path class="cls-1" d="M122.94,82.29a3.67,3.67,0,0,1,3.14,1.24,3.34,3.34,0,0,1,.67,2.7,4.77,4.77,0,0,1-1.59,2.66,5.15,5.15,0,0,1-3.55,1.19l-7.48-.35q-3.59-.18-7.12-.27a116.94,116.94,0,0,1-.27,16.47A3.52,3.52,0,0,1,105.5,109a3.36,3.36,0,0,1-2.7.62,4.77,4.77,0,0,1-2.65-1.54,5.06,5.06,0,0,1-1.2-3.59c.18-2.66.31-5.22.4-7.7s.16-5,.22-7.44c-2.65,0-5.34,0-8,.09s-5.55.15-8.5.27A3.61,3.61,0,0,1,80.45,89a2.76,2.76,0,0,1-1.1-1.82,2.57,2.57,0,0,1,.66-2A4,4,0,0,1,82.67,84c2.53-.29,5.25-.59,8.14-.88s5.84-.56,8.85-.8q0-4-.09-8c-.06-2.68-.14-5.44-.26-8.28a3.69,3.69,0,0,1,.71-2.65,2.8,2.8,0,0,1,1.81-1.11,2.56,2.56,0,0,1,2,.67,4.12,4.12,0,0,1,1.24,2.74c.3,2.48.59,5.09.89,7.83s.53,5.57.7,8.46c2.9-.12,5.71-.15,8.46-.09S120.46,82.06,122.94,82.29Z"/><path class="cls-1" d="M0,152.2V139.55a.4.4,0,0,1,.36-.42c.17,0,.34.22.34.42v9.26A6.62,6.62,0,0,1,6.62,145a6.88,6.88,0,0,1,0,13.75A6.66,6.66,0,0,1,.7,155v3.39a.37.37,0,0,1-.34.37A.35.35,0,0,1,0,158.4Zm.7-.34a6.1,6.1,0,0,0,5.92,6.21,6.18,6.18,0,0,0,0-12.35A6,6,0,0,0,.7,151.61Z"/><path class="cls-1" d="M16.87,152a.17.17,0,0,1,0-.17v-6.43a.37.37,0,0,1,.33-.36.33.33,0,0,1,.34.36V150a13.9,13.9,0,0,1,.87-1.63A6.72,6.72,0,0,1,23.88,145a.37.37,0,1,1,0,.73,5.23,5.23,0,0,0-4,1.88,12.77,12.77,0,0,0-2,3.39c-.23.62-.34,1-.34,1v6.42c0,.23-.11.37-.34.37a.35.35,0,0,1-.33-.37Z"/><path class="cls-1" d="M38.25,145.38v13a.33.33,0,0,1-.34.37.34.34,0,0,1-.36-.37V155a6.47,6.47,0,0,1-5.78,3.79,6.89,6.89,0,0,1,0-13.75,6.5,6.5,0,0,1,5.78,3.79v-3.43a.35.35,0,1,1,.7,0Zm-.7,6.51a6,6,0,0,0-5.78-6.14,6.17,6.17,0,0,0,0,12.32A6,6,0,0,0,37.55,151.89Z"/><path class="cls-1" d="M52.57,150.57a4.84,4.84,0,1,0-9.68,0v7.83a.32.32,0,0,1-.09.23.29.29,0,0,1-.25.14h-.11l-.09-.06s-.05,0-.08-.06,0,0,0-.05a.22.22,0,0,1-.06-.14v-13.1a.33.33,0,0,1,.37-.34.31.31,0,0,1,.34.34v2.52a5.53,5.53,0,0,1,10.38,2.69v7.83a.38.38,0,0,1-.37.37.33.33,0,0,1-.33-.37Z"/><path class="cls-1" d="M69.15,158.77a.36.36,0,0,1-.33-.37V155a6.66,6.66,0,0,1-5.92,3.76,6.88,6.88,0,0,1,0-13.75,6.62,6.62,0,0,1,5.92,3.79v-9.26c0-.2.16-.42.33-.42a.4.4,0,0,1,.37.42V158.4A.36.36,0,0,1,69.15,158.77Zm-.33-7.16a6.35,6.35,0,1,0,0,.25Z"/><path class="cls-1" d="M80.72,152.09v-6.71a.34.34,0,0,1,.36-.36.33.33,0,0,1,.34.36v3.4A6.51,6.51,0,0,1,87.28,145a6.81,6.81,0,0,1,0,13.61,6.6,6.6,0,0,1-5.86-3.73v9.51a.33.33,0,0,1-.34.36.34.34,0,0,1-.36-.36Zm.7-.28a6,6,0,1,0,0-.25Z"/><path class="cls-1" d="M97.19,139.49a.35.35,0,0,1,.37-.36.35.35,0,0,1,.34.36V158.4a.35.35,0,0,1-.34.37.36.36,0,0,1-.37-.37Z"/><path class="cls-1" d="M102,145.38a.35.35,0,0,1,.37-.36.37.37,0,0,1,.33.36v7.83a4.82,4.82,0,1,0,9.63,0v-7.83a.39.39,0,0,1,.36-.36.37.37,0,0,1,.37.36v7.83a5.53,5.53,0,1,1-11.06,0Z"/><path class="cls-1" d="M116.76,156.35a.3.3,0,0,1,.5,0,7.71,7.71,0,0,0,4.55,1.77,5.22,5.22,0,0,0,3-.93,2.66,2.66,0,0,0,1.23-2.13,2.37,2.37,0,0,0-1.15-1.94,9.06,9.06,0,0,0-3.17-1.12h-.08a7.43,7.43,0,0,1-3.2-1.12,2.83,2.83,0,0,1-1.38-2.33c0-2,2.16-3.48,4.69-3.48a7.27,7.27,0,0,1,4.15,1.6.36.36,0,0,1,.11.48.37.37,0,0,1-.5.11,6.86,6.86,0,0,0-3.76-1.49,4.77,4.77,0,0,0-2.86.87,2.42,2.42,0,0,0-1.1,1.91,2,2,0,0,0,1,1.74,8.57,8.57,0,0,0,3,1.06h0a9.84,9.84,0,0,1,3.45,1.18,3,3,0,0,1,1.46,2.53c0,2.16-2.3,3.76-5,3.76a8.22,8.22,0,0,1-5-2A.3.3,0,0,1,116.76,156.35Z"/></g></g></svg>