<svg xmlns="http://www.w3.org/2000/svg" viewBox="0 0 215.52 60.3"><defs><style>.cls-1{fill:#fff;}</style></defs><g id="Capa_2" data-name="Capa 2"><g id="Capa_1-2" data-name="Capa 1"><path class="cls-1" d="M62.31,47.45c1-2.77,2-5.43,3.06-8.08Q72.48,20.64,79.6,1.91c.64-1.7.86-1.85,2.69-1.85h53c-.27.76-.48,1.37-.71,2Q126.29,24,118,45.9a2.11,2.11,0,0,1-2.12,1.61L98.26,47.4a2,2,0,0,1-.4-.1l12-31.7H105.4c-3.32,0-6.63,0-9.94,0a1.89,1.89,0,0,0-2,1.4c-1,2.88-2.2,5.73-3.35,8.71h13.13c-.16.5-.26.89-.41,1.27l-5,13c-.49,1.27-.82,1.51-2.23,1.51l-9.74-.07c-1.59,0-1.93.27-2.37,1.81-.16.58-.3,1.16-.49,1.72-.68,2.08-1.48,2.63-3.66,2.58-2-.05-4-.12-6-.14-3.25,0-6.5,0-9.74,0Z"/><path class="cls-1" d="M25.69,31.73H61.1a6.71,6.71,0,0,1-.2.78c-1.72,4.62-3.42,9.24-5.21,13.83-.18.47-.87.8-1.38,1.07a2.75,2.75,0,0,1-1.08,0H0c.12-.42.17-.7.27-1Q8.77,24.26,17.3,2C17.93.38,18.62,0,20.4,0c.39,0,.79,0,1.19,0L72,.09h1.13c-.18.55-.32,1-.49,1.45Q70.31,7.78,68,14c-.48,1.29-1,1.63-2.6,1.63l-31.31,0c-1.92,0-2.31.29-3,2.08q-2.41,6.24-4.84,12.49C26.05,30.62,25.91,31.1,25.69,31.73Z"/><path class="cls-1" d="M123.87,47.26c1.41-3.73,2.75-7.31,4.11-10.9L140.85,2.41c.72-1.9,1.36-2.36,3.2-2.35l15.11,0c.62,0,1.24,0,2,.09-.13.41-.2.71-.31,1q-8.34,22-16.69,44.07c-.66,1.73-1.27,2.15-3.11,2.15-4.94,0-9.88,0-14.81,0C125.48,47.4,124.73,47.32,123.87,47.26Z"/><path class="cls-1" d="M146.76,47.22c1-2.72,2-5.35,3-8q7-18.46,14-36.91C164.51.29,164.79.09,167,.09h17.1c-.9,2.39-1.74,4.65-2.59,6.89q-7.29,19.18-14.58,38.37c-.7,1.84-1,2.07-3,2.06l-15.6,0C147.85,47.37,147.36,47.28,146.76,47.22Z"/><path class="cls-1" d="M169.77,47.27c2.2-5.83,4.34-11.49,6.48-17.14Q181.61,16,187,2c.62-1.65.92-1.86,2.7-1.86h17.44c-.14.42-.24.75-.36,1.07q-8.34,22-16.67,44c-.74,2-1.21,2.3-3.3,2.29l-15.2,0C171,47.37,170.48,47.31,169.77,47.27Z"/><path class="cls-1" d="M138.5,52.73V60c-.7.3-.95.08-.94-.66a25.41,25.41,0,0,0-.21-4.32L136,58c-.23.51-.44,1-.71,1.53-.12.23-.42.59-.54.55a1.19,1.19,0,0,1-.65-.58c-.64-1.38-1.24-2.77-1.85-4.16a.69.69,0,0,0-.38-.37v5.11H131V52.74a.86.86,0,0,1,1.31.55c.75,1.79,1.56,3.56,2.44,5.53.87-2,1.69-3.73,2.44-5.52A.88.88,0,0,1,138.5,52.73Z"/><path class="cls-1" d="M75.27,60.28c-.2-.25-.57-.5-.58-.76,0-2.24,0-4.49,0-6.76.66-.27,1.06-.16,1.35.51.77,1.81,1.59,3.61,2.45,5.55.87-1.94,1.63-3.73,2.47-5.48.18-.37.63-.6,1-.89l.29.22v7.4l-.85.06v-5L81.11,55c-.3.65-.61,1.3-.9,2-.39.87-.76,1.76-1.18,2.62a1,1,0,0,1-.61.49c-.13,0-.41-.27-.5-.48-.72-1.55-1.4-3.11-2.26-4.65V60Z"/><path class="cls-1" d="M15.59,54.12V60l-.24.22c-.24-.21-.69-.41-.7-.63-.05-2.31,0-4.63,0-6.92a.93.93,0,0,1,1.37.43c1.11,1.75,2.26,3.47,3.55,5.44V52.66c.56-.15,1-.25,1,.5,0,2.29,0,4.57,0,6.84-.7.33-1.06,0-1.41-.51C18,57.77,16.88,56.08,15.59,54.12Z"/><path class="cls-1" d="M87.42,60.19a3.72,3.72,0,0,1-3.8-3.76,3.76,3.76,0,0,1,3.73-3.93,3.85,3.85,0,0,1,.07,7.69Zm2.75-3.83a2.74,2.74,0,0,0-2.72-3,3,3,0,0,0,0,6A2.73,2.73,0,0,0,90.17,56.36Z"/><path class="cls-1" d="M157.19,60.19a3.72,3.72,0,0,1-3.78-3.78,3.76,3.76,0,0,1,3.75-3.91,3.85,3.85,0,0,1,0,7.69ZM160,56.36a2.76,2.76,0,0,0-2.73-3,3,3,0,0,0,0,6A2.73,2.73,0,0,0,160,56.36Z"/><path class="cls-1" d="M37.88,60.19a3.73,3.73,0,0,1-3.77-3.79,3.77,3.77,0,0,1,3.76-3.9,3.85,3.85,0,0,1,0,7.69Zm2.78-3.87a2.73,2.73,0,0,0-2.76-3,3,3,0,0,0,.05,6A2.74,2.74,0,0,0,40.66,56.32Z"/><path class="cls-1" d="M69.66,60.19a3.73,3.73,0,0,1-3.74-3.82,3.77,3.77,0,0,1,3.8-3.87,3.85,3.85,0,0,1-.06,7.69Zm2.82-3.86a2.74,2.74,0,0,0-2.76-3,3,3,0,0,0,0,6A2.74,2.74,0,0,0,72.48,56.33Z"/><path class="cls-1" d="M28.9,57.16V60l-.22.22c-.25-.2-.7-.4-.7-.61-.05-2.3,0-4.61,0-7,1.09,0,2.11-.08,3.11,0a2,2,0,0,1,1.87,1.76,2.14,2.14,0,0,1-1.19,2.38l-.49.25L33,60a1.06,1.06,0,0,1-1.51-.61c-.25-.54-.62-1-.87-1.55A1.19,1.19,0,0,0,28.9,57.16ZM29,53.37v2.92c1-.11,2.06.31,2.7-.66a1.82,1.82,0,0,0,.07-1.56C31.13,53,30,53.49,29,53.37Z"/><path class="cls-1" d="M162.15,52.58c1,0,1.79,0,2.62,0a2.22,2.22,0,0,1,1,4.28,2,2,0,0,0-.29.19l1.71,3a1.06,1.06,0,0,1-1.51-.61c-.24-.54-.62-1-.87-1.56a1.16,1.16,0,0,0-1.66-.72V60l-.26.22c-.24-.21-.69-.41-.7-.62C162.13,57.33,162.15,55,162.15,52.58Zm1,3.68c1-.06,2.09.36,2.73-.65a1.79,1.79,0,0,0,0-1.64c-.67-1-1.76-.5-2.72-.59Z"/><path class="cls-1" d="M101.62,57l1.74,3a1.06,1.06,0,0,1-1.51-.61c-.24-.54-.62-1-.87-1.56a1.17,1.17,0,0,0-1.66-.72V60l-.26.22c-.25-.21-.69-.41-.7-.62,0-2.3,0-4.61,0-7,1.09,0,2.1-.08,3.1,0a2,2,0,0,1,1.87,1.76,2.14,2.14,0,0,1-1.19,2.38Zm-2.27-3.66v2.88c1,0,2.07.33,2.7-.62a1.75,1.75,0,0,0,.07-1.56C101.51,53,100.37,53.49,99.35,53.37Z"/><path class="cls-1" d="M126.82,60c-.83.32-1.15-.05-1.28-.7a1,1,0,0,0-1.25-.9,3.65,3.65,0,0,1-1,0c-1-.15-1.56.12-1.79,1.16-.07.28-.57.48-.87.71l-.28-.25,2-5.72a5.11,5.11,0,0,1,.43-1.11,1.18,1.18,0,0,1,.74-.56,1,1,0,0,1,.76.52C125.19,55.43,126,57.71,126.82,60Zm-1.89-2.43-1.34-3.74-1.33,3.74Z"/><path class="cls-1" d="M146.3,60c-.77.33-1.14,0-1.26-.65a1,1,0,0,0-1.33-.94,4.65,4.65,0,0,1-1.29,0,1,1,0,0,0-1.32.95c-.13.7-.51.94-1.26.66.84-2.32,1.67-4.65,2.54-7a1,1,0,0,1,.74-.42.83.83,0,0,1,.66.4C144.64,55.36,145.47,57.7,146.3,60Zm-1.88-2.4-1.36-3.76c-.5,1.44-.9,2.56-1.31,3.76Z"/><path class="cls-1" d="M189.64,60c-.79.33-1.14,0-1.26-.66a1,1,0,0,0-1.33-.93,4.18,4.18,0,0,1-1,0,1.32,1.32,0,0,0-1.71,1.13c-.07.3-.61.49-.93.73l-.23-.26c.84-2.32,1.68-4.65,2.55-7a.81.81,0,0,1,.64-.41,1,1,0,0,1,.75.41C188,55.37,188.81,57.7,189.64,60Zm-3.22-6.18-1.33,3.75h2.65Z"/><path class="cls-1" d="M51.86,60c-.76.26-1.15,0-1.25-.63a1.05,1.05,0,0,0-1.39-1,4.18,4.18,0,0,1-1,0,1.27,1.27,0,0,0-1.65,1.07c-.08.32-.57.54-.87.8L45.4,60c.84-2.34,1.68-4.69,2.56-7a.81.81,0,0,1,.67-.37,1,1,0,0,1,.72.45C50.21,55.39,51,57.69,51.86,60ZM50,57.62l-1.34-3.77-1.34,3.77Z"/><path class="cls-1" d="M7.41,58.09a3.55,3.55,0,0,1-4.14,2,3.9,3.9,0,0,1,0-7.57,3.19,3.19,0,0,1,4,2.32,4.53,4.53,0,0,1-1.21-.66,2.7,2.7,0,0,0-4.41.61C.59,57.05,2,59.54,4.3,59.31A5.68,5.68,0,0,0,6,58.49c.41-.21.81-.46,1.22-.69Z"/><path class="cls-1" d="M175.8,54.55a4.77,4.77,0,0,1-1-.65,1.65,1.65,0,0,0-2-.42,1.28,1.28,0,0,0-.67,1,1.52,1.52,0,0,0,.69,1.06,9.78,9.78,0,0,0,1.86.66,1.86,1.86,0,0,1,1.46,1.89,2.06,2.06,0,0,1-1.52,2,2.58,2.58,0,0,1-3.54-1.83.83.83,0,0,1,1.24.47,1.66,1.66,0,0,0,2.43.3,1.14,1.14,0,0,0-.35-2,19.73,19.73,0,0,0-2-.65,1.79,1.79,0,0,1-1.34-1.87,1.92,1.92,0,0,1,1.47-1.9C174,52.21,175.92,52.67,175.8,54.55Z"/><path class="cls-1" d="M53.16,52.62h1c0,1.62,0,3.24,0,4.85A1.67,1.67,0,0,0,56,59.34c1.19,0,1.82-.63,1.84-2,0-1.55,0-3.11,0-4.66.65-.25,1-.18,1,.57,0,1.42,0,2.85,0,4.27a2.81,2.81,0,0,1-5.61,0C53.11,56,53.16,54.35,53.16,52.62Z"/><path class="cls-1" d="M10.07,55.93h2.54c.09.79.09.79-.93.79H10.06v2.55c1,.07,2,.13,2.95.22a5.46,5.46,0,0,1,0,.6H9.11V52.55c1.2,0,2.35,0,3.5,0,.19,0,.36.36.54.56l-.19.24H10.07Z"/><path class="cls-1" d="M107.35,52.62h4.88c-1.14,2.4-2.65,4.37-3.9,6.69,1.13,0,2.08,0,3,0,.25,0,.47.31.71.47l-.16.28h-4.83a7.18,7.18,0,0,1,.48-1.36c.85-1.46,1.75-2.88,2.63-4.32.16-.27.3-.55.54-1-1.08,0-2,0-2.9,0-.25,0-.47-.31-.71-.48Z"/><path class="cls-1" d="M150.33,60.1h-1.18c.71-2.9-1.17-5-2.25-7.4a.88.88,0,0,1,1.34.55c.43,1,.94,2,1.41,3,1.23-1,.89-3.19,3-3.81C151.67,55.07,149.54,57.09,150.33,60.1Z"/><path class="cls-1" d="M24.76,60c-.82.24-1,0-1-.69,0-1.94,0-3.89,0-5.92H21.88c-.29-.59-.22-.86.43-.85,1.29,0,2.57,0,3.86,0,.24,0,.46.3.69.45l-.15.3H24.76Z"/><path class="cls-1" d="M179.25,53.39h-1.92c-.26-.57-.16-.82.47-.81,1.29,0,2.58,0,3.86,0,.23,0,.45.3.68.46l-.16.3h-1.94V60c-1,.14-1,.14-1-.67C179.24,57.4,179.25,55.45,179.25,53.39Z"/><path class="cls-1" d="M96.87,53.37H94.93V60c-.79.27-1,0-1-.7,0-1.94,0-3.89,0-5.73-.6-.64-1.8.42-2.12-1,1.63,0,3.14,0,4.65,0,.19,0,.38.32.58.5Z"/><path class="cls-1" d="M59.93,52.63h4.93c.27.69-.09.77-.6.75s-.84,0-1.36,0V60.1H62V53.47c-.74-.08-1.38-.14-2-.24A3.68,3.68,0,0,1,59.93,52.63Z"/><path class="cls-1" d="M117.18,52.67v6.54c.91.12,1.75.23,2.59.37a4,4,0,0,1,0,.51h-3.55v-3c0-1.22,0-2.44,0-3.67C116.19,52.73,116.37,52.43,117.18,52.67Z"/><path class="cls-1" d="M104.94,52.62h.86v7.47h-.86Z"/><path class="cls-1" d="M169.6,60.08c-.59.14-.91.07-.9-.63,0-2.05,0-4.11,0-6.16,0-.67.26-.81.9-.65Z"/><path class="cls-1" d="M211.79,0a3.72,3.72,0,1,1-3.72,3.72A3.73,3.73,0,0,1,211.79,0Zm-3,3.72a3,3,0,1,0,3-3A3,3,0,0,0,208.83,3.72Z"/><path class="cls-1" d="M210.16,5.58V1.69h1.61a2.45,2.45,0,0,1,.76.11,1,1,0,0,1,.47.32.94.94,0,0,1,.16.42,1.27,1.27,0,0,1,0,.58.91.91,0,0,1-.52.58l-.17.06.06,0a.89.89,0,0,1,.39.3,2.36,2.36,0,0,1,.24.4c.18.35.35.71.53,1.07l0,0h-1s0,0,0,0c-.17-.33-.33-.66-.49-1a1.14,1.14,0,0,0-.15-.23.52.52,0,0,0-.38-.22h-.41V5.58Zm1-3.16v1h.51l.18,0a.39.39,0,0,0,.3-.29.88.88,0,0,0,0-.28.36.36,0,0,0-.06-.2.38.38,0,0,0-.29-.18A4.71,4.71,0,0,0,211.17,2.42Z"/></g></g></svg>