<svg xmlns="http://www.w3.org/2000/svg" viewBox="0 0 191.04 127.27"><defs><style>.cls-1{fill:#474747;}.cls-2{fill:#fff;}.cls-3{fill:#797979;}.cls-4{fill:#b5b5b5;}</style></defs><g id="Capa_2" data-name="Capa 2"><g id="Capa_1-2" data-name="Capa 1"><path class="cls-1" d="M187.76,31.8c0-.89-.07-1.78-.14-2.65,0-.44-.08-.87-.13-1.29a36.07,36.07,0,0,0-1.26-6.09A29.22,29.22,0,0,0,185,18.43a24.92,24.92,0,0,0-3.54-5.82,22,22,0,0,0-2.31-2.41,20.37,20.37,0,0,0-1.72-1.38,20.16,20.16,0,0,0-2.85-1.72,18.6,18.6,0,0,0-2-.88c-.35-.13-.7-.25-1.07-.36A22.12,22.12,0,0,0,167,5c-.53,0-1.09-.08-1.76-.08-.29,0-.59,0-.9,0a22.83,22.83,0,0,0-2.76.23A20.48,20.48,0,0,0,150.82,10a4.35,4.35,0,0,0-.6-.43l-.06,0h0l-.09-.06-2.59-1.24L147,8.07l-1.26-.47-.52-.17-.48-.15-.56-.17L143.7,7l-.62-.16-.53-.12-.64-.13-.08,0-.47-.09-.71-.11h-.1l-.46-.06-.65-.07-.22,0-.45,0-.71,0h-.2l-.42,0h-.17c-.41,0-.83,0-1.25,0a24.94,24.94,0,0,0-8.62,2c-.75.33-1.49.7-2.2,1.1-.35.2-.7.4-1,.62A24.27,24.27,0,0,0,119,14.32a24.39,24.39,0,0,0-3,3.23l-3.31-.65c-.11-.14-.23-.27-.35-.4s-.19-.22-.29-.32l-.06-.06-.38-.39-.3-.29-.06-.06c-.15-.14-.29-.28-.43-.4l-.29-.25-.09-.08-.45-.37-.39-.3-.47-.34-.4-.27-.51-.33-.47-.28-.47-.26-.44-.23-.53-.25-.46-.21-.53-.22-.47-.18-.55-.19-.49-.15-.57-.16-.5-.12-.56-.13-.54-.1-.57-.09-.54-.07-.57-.07-.55,0-.58,0H97.35a22.51,22.51,0,0,0-2.67.22,23.12,23.12,0,0,0-14.35,7.71l-.18.16v0a4.08,4.08,0,0,0-4.84-4L60.44,17.12A4.09,4.09,0,0,0,57.13,21a4.16,4.16,0,0,0-1.07-1.26A4.08,4.08,0,0,0,52.59,19L40.41,21.88a4.65,4.65,0,0,0-.63.21l-1.59.39a4,4,0,0,0-1.61.79l-.36-.07-.23,0L35.23,23l-.33,0-.75-.08h-.09l-.22,0-1.12-.08H32.6c-.31,0-.63,0-1,0h-.38l-1,0-.33,0c-.44,0-.89.06-1.32.1l-.31,0c-.37,0-.76.09-1.14.15l-.4.07c-.47.08-.95.17-1.43.28h0a27.89,27.89,0,0,0-14.18,8.14l-.47.51C3.34,38.63-.59,48.66.07,59,1,72.85,8,80.79,19.45,80.79a27.23,27.23,0,0,0,4.09-.32c.84-.13,1.63-.31,2.41-.5l0,43.22A4.09,4.09,0,0,0,30,127.27a4,4,0,0,0,1.08-.15c12.57-3.45,25.23-6.4,26.89-6.79a4,4,0,0,0,.7.06,4.67,4.67,0,0,0,.83-.08l15-3.13a4.08,4.08,0,0,0,3-2.7,31.72,31.72,0,0,0,7.29.79,42,42,0,0,0,4.56-.25,25.1,25.1,0,0,0,19.11-13.22v5.44a4.09,4.09,0,0,0,4.08,4.08l.39,0L126.53,110a4.09,4.09,0,0,0,3.69-4.06v-2.61c0-.1,0-.21,0-.31V97.5a21.72,21.72,0,0,0,4.55,6.16A20.85,20.85,0,0,0,150.13,109,20,20,0,0,0,167,99.4c4.26-4.69,6.55-11.68,6.3-19.31-.39-8.87-3.47-15.87-8.47-20.18a20.61,20.61,0,0,0,14.63-7.15,20,20,0,0,0,2-2A22,22,0,0,0,183.53,48c.41-.64.79-1.31,1.14-2a27.2,27.2,0,0,0,2-5.3c.19-.72.36-1.46.5-2.21s.26-1.48.35-2.23a31.43,31.43,0,0,0,.21-3.37C187.77,32.55,187.77,32.17,187.76,31.8Z"/><path class="cls-2" d="M191,26.9c0-.89-.07-1.78-.15-2.65,0-.43-.08-.86-.13-1.29a35.12,35.12,0,0,0-1.26-6.09,29.92,29.92,0,0,0-1.23-3.34,25,25,0,0,0-3.55-5.82,21.92,21.92,0,0,0-2.3-2.41,19,19,0,0,0-1.73-1.38,20.06,20.06,0,0,0-2.84-1.72c-.67-.33-1.36-.62-2.05-.88-.35-.13-.71-.25-1.07-.36a22.26,22.26,0,0,0-4.5-.87c-.53,0-1.09-.07-1.76-.08-.3,0-.59,0-.9,0a22.82,22.82,0,0,0-2.77.23,20.55,20.55,0,0,0-10.71,4.89,4.19,4.19,0,0,0-.59-.42l-.07,0h0l-.1,0-2.58-1.25-.45-.18L149,2.71l-.52-.18L148,2.38l-.56-.16-.5-.14-.61-.15-.53-.13-.64-.13-.08,0-.48-.08-.7-.11-.1,0-.47-.06-.65-.07-.22,0-.45,0c-.23,0-.47,0-.7,0h-.79c-.42,0-.84,0-1.26,0a24.89,24.89,0,0,0-8.61,2c-.75.33-1.49.7-2.2,1.1-.35.2-.7.41-1,.63a23.72,23.72,0,0,0-5.17,4.44,24.33,24.33,0,0,0-4.45,5.18c-.08-.14-.17-.27-.24-.39l-.21-.3-.06-.09,0-.09-.32-.45-.24-.32-.08-.11c-.11-.14-.22-.29-.34-.43l-.28-.35-.08-.08c-.11-.13-.22-.27-.34-.4l-.3-.32,0-.06-.39-.39-.29-.29-.07-.06c-.14-.14-.29-.28-.43-.4l-.29-.25-.09-.07-.45-.38-.39-.29c-.16-.13-.32-.25-.47-.35l-.4-.27-.5-.32L111,7.87l-.48-.27-.43-.22-.53-.26-.46-.21-.53-.21c-.16-.07-.32-.12-.48-.18l-.54-.19-.5-.16L106.47,6,106,5.89l-.56-.13-.53-.1-.58-.09-.53-.07-.57-.06-.56-.05-.58,0h-1.44A24.87,24.87,0,0,0,98,5.57,23.09,23.09,0,0,0,83.6,13.28l-.18.16v0a4.07,4.07,0,0,0-4.84-4L63.71,12.22a4.09,4.09,0,0,0-3.32,3.84,4,4,0,0,0-4.53-2L43.68,17a4.21,4.21,0,0,0-.63.2l-1.59.39a4,4,0,0,0-1.61.79l-.36-.07-.24,0-.76-.11-.32,0L37.41,18h-.09l-.22,0L36,17.91h-.11l-1,0a2.28,2.28,0,0,0-.38,0l-1,0-.32,0c-.44,0-.89.06-1.33.11l-.3,0c-.38,0-.76.1-1.14.16l-.41.06c-.47.08-.94.17-1.42.28h0a27.92,27.92,0,0,0-14.19,8.14l-.46.51A33.25,33.25,0,0,0,3.34,54.12c.89,13.84,8,21.77,19.37,21.77a28.67,28.67,0,0,0,4.1-.31c.83-.14,1.63-.31,2.41-.5l0,43.21a4.12,4.12,0,0,0,1.61,3.25,4.07,4.07,0,0,0,2.48.83,4,4,0,0,0,1.08-.14c12.56-3.46,25.22-6.41,26.89-6.8a4,4,0,0,0,.69.06,3.83,3.83,0,0,0,.83-.08l15-3.13a4.06,4.06,0,0,0,3-2.7,31,31,0,0,0,7.28.8,44.68,44.68,0,0,0,4.57-.25,25.11,25.11,0,0,0,19.1-13.22v5.43a4.09,4.09,0,0,0,4.08,4.08l.4,0,13.53-1.31a4.07,4.07,0,0,0,3.68-4.06V98.42c0-.1,0-.2,0-.31V92.6a21.61,21.61,0,0,0,4.56,6.16,20.84,20.84,0,0,0,15.33,5.37,20.06,20.06,0,0,0,16.83-9.63c4.25-4.69,6.54-11.68,6.29-19.3-.38-8.87-3.46-15.88-8.47-20.19a20.64,20.64,0,0,0,14.63-7.14,20.87,20.87,0,0,0,4.11-4.76,22.71,22.71,0,0,0,1.15-2,26.93,26.93,0,0,0,2-5.3c.2-.72.37-1.46.51-2.2s.25-1.49.34-2.24c.13-1.1.2-2.24.22-3.36C191,27.65,191,27.27,191,26.9Z"/><path class="cls-1" d="M61.93,111.41l15-3.12L77,64.18,62,67.26ZM44.34,71.64l-11,2.94,0,43.71c13.66-3.76,27.24-6.88,27.24-6.88V100l-16.16,3.88Zm107.38-14.2a16.44,16.44,0,0,0-15,9.72V56l-29,3V72.83l8.15-.94v30.45L129.4,101l.06-30.5,6.16-.54a26.17,26.17,0,0,0-1.19,8.85c.45,13.7,7.69,21.62,18.82,21.21,12.07-.45,17.19-11.12,16.85-21.55C169.53,65.47,162.75,57.17,151.72,57.44Zm.53,29.9c-3.29.08-5.39-3.24-5.55-8.24-.18-5.53,1.93-8.9,5.49-9,3-.07,5.11,1.82,5.31,8C157.68,83.73,156,87.25,152.25,87.34ZM187,27c-.31-13-6.85-21.94-17.09-22.84-.56,0-1.13-.08-1.7-.08h-.49a16.61,16.61,0,0,0-12.75,6c-5.23,4.34-7.57,11.72-7.41,18.56a32.63,32.63,0,0,0,1.36,8.88c-1.34-2.22-2.6-4.23-2.69-4.23h0a10.86,10.86,0,0,1-7,2.91l-.74,0C136.13,36,132.49,35,132.5,28a10.36,10.36,0,0,1,1.8-5.91,6.75,6.75,0,0,1,3.3-1.17q.42,0,.84,0a16.24,16.24,0,0,1,6.63,1.53l.94-2.76a13.24,13.24,0,0,1,1.28.53l4.12-12a23.63,23.63,0,0,0-10.88-2.94l-1,0a20.11,20.11,0,0,0-14.37,7,22.88,22.88,0,0,0-7.52,14.51c-1.31-10.76-7.38-17.41-16.43-17.41h-.48a20.81,20.81,0,0,0-2.2.18,19,19,0,0,0-12,6.57A23.42,23.42,0,0,0,79.34,28V13.41L64.47,16.23V31.64l-7.57,1.68L56.81,18,44.63,21V21l-2.22.54,0,34.19-2.79-7.28c-.27.3-5.28,5.78-9.25,6.25a8.34,8.34,0,0,1-1,.07c-2.42,0-5.52-1.16-5.92-7.44A11.19,11.19,0,0,1,25.51,40a9.29,9.29,0,0,1,2.91-1.43,12.16,12.16,0,0,1,3.36-.45,16.49,16.49,0,0,1,5.67,1.06l.41-2.78a15.57,15.57,0,0,1,1.81.56l2.09-13.9a22.9,22.9,0,0,0-7-1.1,24.14,24.14,0,0,0-5.31.6,23.84,23.84,0,0,0-12.65,7.56c-6.42,5.65-9.93,14.61-9.34,23.74.78,12.14,6.35,18,15.3,18a24.4,24.4,0,0,0,3.44-.26A27.34,27.34,0,0,0,42,62.87v0l.35-.31v4l14.53-3.45s0-.66,0-1.74h0s.12-7.21,0-13.05c2.62-.5,4.87-1.11,7.46-1.6.22,6.72.06,14.74.06,14.74l14.87-2.83V43.78C81.5,52,87,56.66,94.75,56.66h.66a21.89,21.89,0,0,0,2.23-.19A19.16,19.16,0,0,0,110,49.83a23.52,23.52,0,0,0,7.61-14.68c1.2,10.49,6.91,16.54,16,16.9,7.45,0,13.53-2.5,16.28-6.22a11.85,11.85,0,0,0,2.08-2,16.74,16.74,0,0,0,12.67,7.14c.55,0,1.12.06,1.7.06h.52a16.76,16.76,0,0,0,13-6C184.85,40.79,187.11,33.76,187,27ZM101,40.34a5.56,5.56,0,0,1-1.87.6l-.47,0h-.13c-3,0-5-3.22-5.15-8.1A13.59,13.59,0,0,1,95,25.6,5.2,5.2,0,0,1,96.84,25a4,4,0,0,1,.6-.05h.14c3.85,0,4.77,4.44,4.86,8.18A14.59,14.59,0,0,1,101,40.34Zm69.35-5.4a5,5,0,0,1-2.07.48h-.11l-.36,0c-3-.25-5.15-3.73-5.27-8.68A13.19,13.19,0,0,1,163.88,20a5,5,0,0,1,2.11-.52h.13l.46,0c4,.35,4.9,4.95,5,8.74A14.54,14.54,0,0,1,170.38,34.94ZM94.94,78.7c-4.49-.41-5.34-.56-5.39-2.06,0-1,.89-1.88,3.19-2.23,4.67-.7,10.71,1.22,10.71,1.22l3.13-10.71s-5.39-2.73-14.42-1.75A15.42,15.42,0,0,0,78.09,78.74c.28,8.66,4.48,11.47,11.29,11.83,4.8.27,5.46,1.21,5.5,2.4s.16-.61-2.22-.53c-4.75.16-9.81-2.74-9.81-2.74l-4.12,14.84s4.27,2.51,13.53,1.53,17.52-9.27,17.32-16.87C109.28,80.19,101.12,79.28,94.94,78.7Z"/><path class="cls-3" d="M172.45,75.37c-.57-13-7.36-21.32-18.39-21.05-12.06.33-17.64,10.9-17.29,21.4.45,13.69,7.69,21.61,18.82,21.2C167.67,96.48,172.79,85.81,172.45,75.37Zm-17.86,8.84C151.3,84.3,149.2,81,149,76c-.18-5.53,1.93-8.89,5.49-9,3-.08,5.11,1.82,5.31,8C160,80.61,158.29,84.12,154.59,84.21ZM46.68,71l-11,3,0,41.23c13.66-3.76,24.9-6.27,24.9-6.27V97.44L46.7,100.71Zm17.6,37.3L77,105.61,77,64.13l-12.7,2.64Zm72.48-52.43-26.69,2.83v11l8.16-.94V99.22l11.2-1.12.06-30.49,7.28-.73ZM97.28,75.58c-4.49-.42-5.34-.57-5.39-2.06,0-1,.89-1.88,3.2-2.23a21.2,21.2,0,0,1,9.3,1l3.12-10.7s-4-2.53-13-1.55A15.42,15.42,0,0,0,80.43,75.62c.29,8.65,4.48,11.47,11.29,11.83,4.8.27,5.46,1.21,5.5,2.39s-1.08,2.14-3.44,2.5C89.48,93,84,90.23,84,90.23l-2.89,11.19s4.28,2.51,13.53,1.52,15.18-8,15-15.55C109.28,78.38,103.46,76.16,97.28,75.58Z"/><path class="cls-4" d="M28.21,68.23a23.75,23.75,0,0,1-3.28.25c-8.7,0-13.47-5.69-14.19-16.91a29.09,29.09,0,0,1,4.58-17.76A22.91,22.91,0,0,1,34.71,23.07a21.83,21.83,0,0,1,5.8.78L38.77,35.49a17.54,17.54,0,0,0-4.77-.7,13.26,13.26,0,0,0-3.66.49c-5,1.42-8.43,6.52-8.07,12.13.21,3.16,1.39,8.48,7,8.48.37,0,.76,0,1.16-.07,3.2-.38,6.82-3.5,8.7-5.34L43,60.4A26.37,26.37,0,0,1,28.21,68.23ZM185.84,27c-.3-12.57-6.46-20.91-16.08-21.76-.52,0-1.06-.07-1.6-.07h-.47a15.61,15.61,0,0,0-12.92,6.93,24.67,24.67,0,0,0-3.93,14.29c.3,12.48,6.29,20.39,16,21.18.52,0,1.06.06,1.61.06h.5a15.66,15.66,0,0,0,11.43-4.78C184,39.12,186,33.34,185.84,27ZM174,32.39a6,6,0,0,1-5.64,4.14h-.13l-.45,0c-3.63-.3-6.16-4.23-6.29-9.76-.15-6.43,2.42-10.49,6.72-10.6h.16a5.12,5.12,0,0,1,.56,0c5,.43,5.92,6.33,6,9.81A17.09,17.09,0,0,1,174,32.39Zm-34.81,4.94a7.56,7.56,0,0,1-.83,0c-4.62-.46-7-3.59-7-9.3,0-5.52,3.69-10.09,8.37-10.41.3,0,.6,0,.91,0a17.06,17.06,0,0,1,6,1.15l3.43-9.95a22.66,22.66,0,0,0-9.52-2.36c-.31,0-.64,0-.95,0-11.11.64-18.88,9.75-18.9,22.16s5.48,19.74,15.09,20.14c6.72,0,12.44-2.1,15.16-5.49-.86-1.57-3.68-6.28-5-8.29A11.62,11.62,0,0,1,139.16,37.33Zm-38-26.8h-.45c-.68,0-1.37.08-2.08.17a18.12,18.12,0,0,0-13,8.5,26.94,26.94,0,0,0-4,14.83c.29,12.08,6,19.29,15.3,19.29h.62a19.56,19.56,0,0,0,2.12-.18A18.22,18.22,0,0,0,112.81,45a25.52,25.52,0,0,0,4-14.56C116.48,18.14,110.51,10.53,101.2,10.53ZM99.31,42a5.48,5.48,0,0,1-.57.05h-.18c-3.61,0-6.13-3.69-6.26-9.18-.16-6.45,2.32-10.66,6.61-11.25a4.56,4.56,0,0,1,.72-.06h.17c5,0,5.89,5.81,6,9.28C105.93,37.48,103.63,41.45,99.31,42ZM67.81,31.15V16.78l10.43-2V55.87l-10.41,2c0-2.59.08-8.4-.07-13.43l0-1.3-1.27.25c-1.29.24-3.05.64-4.75,1s-3.63.82-5,1.07l-.93.17,0,1c.12,4.84,0,11.52,0,13.87L45.68,62.94l.06-41.11,10-2.4.09,13.9V34.7l1.34-.3,9.79-2.17.87-.19Z"/></g></g></svg>