<svg xmlns="http://www.w3.org/2000/svg" xmlns:xlink="http://www.w3.org/1999/xlink" viewBox="0 0 185.99 61.94"><defs><style>.cls-1{isolation:isolate;}.cls-2{fill:url(#linear-gradient);}.cls-3{fill:#333;}.cls-4,.cls-6{fill:#707070;}.cls-4,.cls-7{fill-rule:evenodd;}.cls-4,.cls-5{mix-blend-mode:multiply;}.cls-7,.cls-8{fill:#fff;}</style><linearGradient id="linear-gradient" x1="88.15" y1="-525.9" x2="95.73" y2="-492.33" gradientTransform="matrix(1, 0.11, 0, 1, 0.36, 528.93)" gradientUnits="userSpaceOnUse"><stop offset="0" stop-color="#414141"/><stop offset="0.54" stop-color="#636363"/><stop offset="1" stop-color="#414141"/></linearGradient></defs><g class="cls-1"><g id="Capa_2" data-name="Capa 2"><g id="Capa_1-2" data-name="Capa 1"><path class="cls-2" d="M92.72,0C57.05,0,24.56,3,0,7.9L.4,54c24.65,4.93,57.2,7.93,92.86,7.94S161.43,59,186,54l-.41-46.1c-9-1.79-18.94-3.32-29.74-4.56A568.9,568.9,0,0,0,92.72,0"/><path class="cls-3" d="M.42,54c3.82-4.39,6.38-13,6.29-23S3.92,12.3,0,7.92Z"/><path class="cls-3" d="M185.57,7.94c-3.83,4.39-6.39,13-6.3,23s2.8,18.65,6.7,23Z"/><path class="cls-4" d="M31,25.47a3.26,3.26,0,0,0,2.79,1.4c2.06,0,3.35-1.26,3.34-2.86,0-2.58-3.67-6.23-10.26-6.24-7.93,0-14.17,5.64-14.11,15,0,7.57,4.08,15.32,14.35,15.35,6.76,0,9.92-4,9.91-6a1.79,1.79,0,0,0-1.81-1.81c-.67,0-.89.17-1.83.82a7,7,0,0,1-4.29,1.46,6.93,6.93,0,0,1-5.44-2.64c-1.72-2-2.63-5.2-2.66-9.09,0-5.6,2.23-8.83,5.32-8.82A4.52,4.52,0,0,1,30,24.16c.27.36.68.94.95,1.31"/><g class="cls-5"><path class="cls-6" d="M27.11,48.65h-.05c-10.93,0-14.86-8.58-14.91-15.9A15.63,15.63,0,0,1,16.42,21.3a14.44,14.44,0,0,1,10.36-4.1h0c7,0,10.81,4,10.83,6.81a3.27,3.27,0,0,1-.94,2.32,4.16,4.16,0,0,1-3,1.11h0a3.82,3.82,0,0,1-3.24-1.63h0L30,25.15l-.47-.66a3.92,3.92,0,0,0-3.28-1.9h0a3.6,3.6,0,0,0-2.61,1.12c-1.39,1.4-2.15,3.93-2.13,7.13,0,3.77.9,6.79,2.53,8.73a6.34,6.34,0,0,0,5,2.43h0A6.44,6.44,0,0,0,33,40.65l.08-.06a3.2,3.2,0,0,1,2.1-.87,2.36,2.36,0,0,1,2.37,2.37,5.21,5.21,0,0,1-1.73,3.43C34.65,46.69,32,48.65,27.11,48.65Zm-.33-30.31a13.3,13.3,0,0,0-9.55,3.76,14.51,14.51,0,0,0-3.94,10.64c.07,10.87,7.16,14.76,13.78,14.78h0c4.45,0,6.86-1.75,7.9-2.8a4.13,4.13,0,0,0,1.4-2.62,1.21,1.21,0,0,0-1.24-1.24c-.46,0-.55.06-1.44.67l-.06,0a7.65,7.65,0,0,1-4.62,1.57,7.54,7.54,0,0,1-5.88-2.85c-1.8-2.14-2.76-5.41-2.79-9.44,0-3.51.85-6.33,2.46-7.94a4.72,4.72,0,0,1,3.42-1.46h0a5,5,0,0,1,4.2,2.37c.13.19.31.43.48.66s.33.47.46.65a2.67,2.67,0,0,0,2.34,1.17,3,3,0,0,0,2.16-.78A2.08,2.08,0,0,0,36.52,24c0-2.31-3.47-5.66-9.69-5.67Z"/></g><path class="cls-4" d="M66,32.35c-.41-8.38-5.52-14.5-13.76-14.52-8.66,0-13.95,6.27-13.89,15.06.06,9.33,5.79,15.24,13.9,15.26S66.5,42.26,66,32.35m-8,0a23.34,23.34,0,0,1-.2,3.81c-.08,1-.51,4.5-2.83,6.09a4.54,4.54,0,0,1-2.64.85A5.21,5.21,0,0,1,47.75,40a10.71,10.71,0,0,1-1.1-3.65,28.5,28.5,0,0,1-.29-3.89c0-2,0-10.06,5.76-10,3.9,0,5.76,4,5.89,9.91"/><g class="cls-5"><path class="cls-6" d="M52.28,48.72h0c-8.6,0-14.41-6.38-14.47-15.82,0-4.75,1.49-8.91,4.28-11.71a13.91,13.91,0,0,1,10.13-3.93h0c8.26,0,13.88,5.94,14.33,15.06.26,5-1.12,9.21-4,12.21A14,14,0,0,1,52.28,48.72Zm-.1-30.32A12.79,12.79,0,0,0,42.86,22c-2.58,2.59-4,6.46-4,10.9.05,8.77,5.41,14.67,13.33,14.69h0a12.89,12.89,0,0,0,9.49-3.84c2.63-2.76,3.89-6.69,3.65-11.36h0c-.42-8.47-5.59-14-13.19-14Zm.18,25.29h0a5.76,5.76,0,0,1-5.1-3.39,11.11,11.11,0,0,1-1.15-3.83,30.08,30.08,0,0,1-.3-4c0-4.34.82-7.41,2.52-9.11a5.14,5.14,0,0,1,3.8-1.51h0c4,0,6.32,3.82,6.46,10.47h0a24.93,24.93,0,0,1-.2,3.87c-.12,1.41-.64,4.83-3.08,6.5A5.06,5.06,0,0,1,52.36,43.69ZM52.11,23a4,4,0,0,0-3,1.18c-1.48,1.48-2.21,4.28-2.19,8.3a27.85,27.85,0,0,0,.29,3.81,9.89,9.89,0,0,0,1,3.45,4.68,4.68,0,0,0,4.09,2.79h0a3.93,3.93,0,0,0,2.28-.74c2.12-1.45,2.53-4.71,2.6-5.68v0a23.53,23.53,0,0,0,.19-3.71c-.07-3.49-.86-9.34-5.32-9.36Z"/></g><path class="cls-4" d="M68.86,46.6c0,.78.36.9,1.08.9l5.33,0c.94,0,1.16-.25,1.21-1l-.07-9.7c0-.24,0-.86.67-.86.49,0,.76.46.9.7l5.49,10c.45.83.72.95,1.75.95l5.87,0c.49,0,1-.12,1-.65a1.78,1.78,0,0,0-.41-.86L84.06,34.44c3-1.17,6-3.5,6-7.63,0-8.47-9.87-8.5-12.69-8.5a46.78,46.78,0,0,0-7.79.55c-.63.2-.85.45-.89,1.31Zm7.46-24.16c.54,0,.9,0,1.12,0,1.93,0,5,.26,5,5.29,0,5.28-4.4,5.15-6.06,5.06Z"/><g class="cls-5"><path class="cls-6" d="M91.24,48.13h-.17l-5.85,0A2,2,0,0,1,83,46.87l-5.49-10c-.11-.19-.24-.4-.4-.4H77a1.14,1.14,0,0,0,0,.28l.07,9.69c-.06,1.14-.58,1.59-1.76,1.59H69.94c-.77,0-1.57-.17-1.65-1.44v0l-.17-26.43c0-1.08.38-1.56,1.28-1.85a46.6,46.6,0,0,1,7.91-.58h.06c8.77,0,13.22,3.08,13.26,9.07,0,3.45-2,6.23-5.72,7.89l7.26,11.08a2.09,2.09,0,0,1,.48,1.12,1.18,1.18,0,0,1-.37.88A1.52,1.52,0,0,1,91.24,48.13ZM77.08,35.37h0a1.68,1.68,0,0,1,1.4,1l5.49,10c.33.6.38.65,1.25.65l5.87,0h0a.59.59,0,0,0,.37-.05s0,0,0,0a1.92,1.92,0,0,0-.29-.51l0,0-7.61-11.6a.61.61,0,0,1-.06-.49.59.59,0,0,1,.33-.36c2.59-1,5.67-3.07,5.64-7.1,0-5.31-4-7.91-12.11-7.93a45.55,45.55,0,0,0-7.65.53c-.36.12-.45.14-.47.78l.17,26.39c0,.25.06.31.06.31a1.18,1.18,0,0,0,.45,0l5.33,0c.61,0,.61,0,.64-.48l-.07-9.67a1.52,1.52,0,0,1,.36-1.09A1.17,1.17,0,0,1,77.08,35.37Zm.12-2-.85,0a.57.57,0,0,1-.53-.57l-.07-10.31a.57.57,0,0,1,.53-.57c.53,0,.89,0,1.17,0,1.51,0,5.53,0,5.57,5.86a5.56,5.56,0,0,1-1.51,4.23A6.2,6.2,0,0,1,77.2,33.34ZM77,32.2a5.31,5.31,0,0,0,3.78-1.1,4.51,4.51,0,0,0,1.15-3.41c0-4.35-2.3-4.72-4.44-4.72h-.55Z"/></g><path class="cls-4" d="M119.57,32.49C119.16,24.11,114.06,18,105.81,18c-8.65,0-14,6.27-13.89,15.07.06,9.32,5.79,15.23,13.9,15.26s14.26-5.9,13.75-15.81m-8,0a24.52,24.52,0,0,1-.2,3.81c-.08,1-.51,4.5-2.83,6.09a4.52,4.52,0,0,1-2.64.85,5.21,5.21,0,0,1-4.59-3.08,10.48,10.48,0,0,1-1.09-3.65,26.73,26.73,0,0,1-.3-3.88c0-2,0-10.07,5.76-10,3.9,0,5.76,4,5.89,9.91"/><g class="cls-5"><path class="cls-6" d="M105.86,48.86h0c-8.59,0-14.41-6.38-14.47-15.82,0-4.75,1.49-8.9,4.28-11.71a13.91,13.91,0,0,1,10.13-3.92h0c8.26,0,13.88,5.93,14.33,15.06.26,5-1.12,9.21-4,12.2A14,14,0,0,1,105.86,48.86Zm-.1-30.32a12.8,12.8,0,0,0-9.32,3.6c-2.58,2.58-4,6.45-4,10.89.06,8.77,5.41,14.68,13.33,14.7h0a12.89,12.89,0,0,0,9.48-3.84c2.64-2.77,3.9-6.7,3.66-11.37h0c-.41-8.47-5.59-14-13.19-14ZM106,43.83h0a5.73,5.73,0,0,1-5.09-3.39,11.24,11.24,0,0,1-1.16-3.82,29.35,29.35,0,0,1-.3-4c0-4.34.82-7.4,2.52-9.11A5.17,5.17,0,0,1,105.68,22h0C108,22,112,23.4,112.16,32.5h0v0a24.82,24.82,0,0,1-.2,3.83c-.12,1.42-.64,4.83-3.07,6.5A5.05,5.05,0,0,1,106,43.83Zm-.27-20.66a4,4,0,0,0-3,1.17c-1.48,1.49-2.22,4.28-2.19,8.3a26.92,26.92,0,0,0,.29,3.81,10,10,0,0,0,1,3.45,4.69,4.69,0,0,0,4.1,2.79h0a4,4,0,0,0,2.28-.74c2.11-1.45,2.52-4.71,2.59-5.67,0,0,0,0,0,0a24,24,0,0,0,.19-3.69v0c-.07-3.49-.87-9.34-5.32-9.35Z"/></g><path class="cls-4" d="M129.43,19.67a1.66,1.66,0,0,0-1.7-.9h-4.26c-.67,0-1.16.11-1.16,1l.17,27c0,.74.28.94,1.13.94h3.63c.94,0,1.12-.32,1.11-1l-.11-17.07,12.12,17.22a1.68,1.68,0,0,0,1.8.9h2.92c.89,0,1.07-.29,1.06-.94l-.16-27c0-.62-.15-1-1.09-1h-3.72c-.72,0-1,.16-1,.9l.1,15.55Z"/><g class="cls-5"><path class="cls-6" d="M145.1,48.27h-2.94a2.21,2.21,0,0,1-2.25-1.13L128.83,31.39l.09,15.24a1.57,1.57,0,0,1-.37,1.19,1.85,1.85,0,0,1-1.31.4H123.6c-.78,0-1.68-.17-1.69-1.51l-.17-27a1.56,1.56,0,0,1,.39-1.14,1.84,1.84,0,0,1,1.34-.41h4.26a2.21,2.21,0,0,1,2.16,1.13v0l9.81,14.07-.09-13.72a1.52,1.52,0,0,1,.36-1.1,1.59,1.59,0,0,1,1.2-.36h3.71a1.65,1.65,0,0,1,1.25.37,1.55,1.55,0,0,1,.4,1.18l.17,27a1.49,1.49,0,0,1-.35,1.12A1.76,1.76,0,0,1,145.1,48.27ZM128.24,29a.56.56,0,0,1,.47.25l12.12,17.21c.48.64.5.66,1.34.66h2.91c.38,0,.47-.06.47-.06s0,0,0-.3l-.16-27a.88.88,0,0,0,0-.36s-.09-.07-.45-.06h-3.74a1.19,1.19,0,0,0-.39,0s0,.09,0,.29l.1,15.55a.56.56,0,0,1-.4.54.57.57,0,0,1-.64-.21L129,20c-.44-.61-.55-.66-1.24-.66h-4.26c-.41,0-.51.05-.53.08a.55.55,0,0,0-.06.32l.17,27a.67.67,0,0,0,0,.31,1.3,1.3,0,0,0,.52.06h3.64c.41,0,.49-.07.49-.07a.76.76,0,0,0,.05-.37l-.12-17.06a.58.58,0,0,1,.4-.55Z"/></g><path class="cls-4" d="M166.13,46.9c.28.73.55.86,1.31.86h5.91c.5,0,1,0,1-.69a1.33,1.33,0,0,0-.14-.57L163.81,19.72c-.28-.7-.46-.86-1.31-.86H159c-.8,0-1,.16-1.29.85L147.53,46.36a2,2,0,0,0-.22.73c0,.49.45.62.9.62h3.9c.8,0,1.07-.2,1.29-.86l2-5.8,8.57,0Zm-9.43-9.68,2.86-9.06,3.06,9.07Z"/><g class="cls-5"><path class="cls-6" d="M173.35,48.34h-5.91a1.64,1.64,0,0,1-1.84-1.23h0l-2-5.45-7.76,0-1.89,5.42a1.63,1.63,0,0,1-1.84,1.24h-3.91a1.78,1.78,0,0,1-.87-.2,1.08,1.08,0,0,1-.58-1,2.17,2.17,0,0,1,.25-.92L157.18,19.5A1.62,1.62,0,0,1,159,18.28h3.5a1.61,1.61,0,0,1,1.84,1.22L174.77,46.3a1.83,1.83,0,0,1,.18.78c0,1.14-1,1.22-1.46,1.26h-.14Zm-6.68-1.64c.17.47.2.49.77.49l5.89,0h.07a2.23,2.23,0,0,0,.41-.06v0a.75.75,0,0,0-.09-.35L163.27,19.93c-.19-.5-.19-.5-.77-.5H159c-.56,0-.57,0-.75.49L148.06,46.56a2.75,2.75,0,0,0-.18.52h0a.77.77,0,0,0,.32,0h3.91c.59,0,.62-.08.75-.47l2-5.81a.56.56,0,0,1,.54-.38h0l8.56,0a.56.56,0,0,1,.53.38Zm-4-8.9h0l-5.91,0a.56.56,0,0,1-.46-.23.58.58,0,0,1-.08-.51L159,28a.57.57,0,0,1,.54-.4.55.55,0,0,1,.55.39l3.06,9.07a.57.57,0,0,1-.54.75Zm-5.14-1.15h4.34L159.57,30Z"/></g><path class="cls-7" d="M30.59,24.72a3.21,3.21,0,0,0,2.79,1.4c2,0,3.35-1.26,3.34-2.85C36.7,20.69,33,17,26.46,17c-7.93,0-14.17,5.65-14.12,15,.05,7.57,4.09,15.31,14.36,15.34,6.76,0,9.92-4,9.91-6a1.78,1.78,0,0,0-1.81-1.8c-.67,0-.89.16-1.83.81a7,7,0,0,1-4.29,1.46,6.88,6.88,0,0,1-5.44-2.63c-1.72-2-2.63-5.2-2.66-9.09,0-5.61,2.23-8.83,5.32-8.82a4.51,4.51,0,0,1,3.74,2.13l.95,1.31"/><path class="cls-7" d="M65.62,31.61c-.41-8.39-5.52-14.5-13.77-14.52-8.65,0-13.94,6.26-13.88,15.06.06,9.33,5.79,15.24,13.9,15.26s14.26-5.9,13.75-15.8m-8,0a24.45,24.45,0,0,1-.2,3.8c-.08,1-.51,4.5-2.83,6.09a4.47,4.47,0,0,1-2.64.85,5.18,5.18,0,0,1-4.59-3.08,10.44,10.44,0,0,1-1.1-3.64A28.63,28.63,0,0,1,46,31.76c0-2,0-10.07,5.76-10,3.9,0,5.76,4,5.89,9.92"/><path class="cls-7" d="M68.48,45.86c0,.77.37.9,1.08.89l5.34,0c.94,0,1.16-.24,1.2-1L76,36.06c0-.25,0-.87.67-.86.49,0,.76.45.9.69l5.48,10c.46.82.73.95,1.76.95h5.87c.5,0,1-.11,1-.65,0-.24-.13-.45-.41-.86l-7.6-11.6c3-1.18,6-3.5,6-7.63,0-8.47-9.87-8.5-12.69-8.51a47,47,0,0,0-7.8.55c-.62.21-.85.45-.88,1.31ZM76,21.69c.54,0,.9,0,1.12,0,1.93,0,5,.25,5,5.29,0,5.27-4.4,5.14-6.07,5.05Z"/><path class="cls-7" d="M119.2,31.75c-.41-8.39-5.52-14.5-13.76-14.52-8.65,0-14,6.26-13.89,15.06.06,9.33,5.79,15.23,13.9,15.26s14.26-5.9,13.75-15.8m-8,0a24.45,24.45,0,0,1-.2,3.8c-.08,1-.51,4.5-2.83,6.09a4.55,4.55,0,0,1-2.64.86A5.22,5.22,0,0,1,101,39.44a10.71,10.71,0,0,1-1.1-3.65,28.5,28.5,0,0,1-.29-3.89c0-2,0-10.06,5.76-10,3.9,0,5.76,4,5.89,9.92"/><path class="cls-7" d="M129.07,18.93a1.69,1.69,0,0,0-1.71-.91H123.1c-.67,0-1.17.12-1.16,1l.17,27c0,.73.27.94,1.13.94h3.63c.94,0,1.12-.33,1.11-1l-.11-17.06L140,46a1.7,1.7,0,0,0,1.8.91h2.92c.89,0,1.07-.28,1.07-.93l-.18-27c0-.61-.14-1-1.08-1H140.8c-.72,0-1,.16-1,.89l.1,15.56Z"/><path class="cls-7" d="M165.76,46.15c.27.74.54.86,1.31.87H173c.5,0,1,0,1-.69a1.37,1.37,0,0,0-.14-.58L163.43,19c-.27-.69-.45-.86-1.3-.86h-3.49c-.81,0-1,.16-1.3.85L147.16,45.61a2,2,0,0,0-.22.74c0,.49.45.61.9.61h3.89c.81,0,1.08-.2,1.3-.85l2-5.81,8.56,0Zm-9.43-9.68,2.86-9.06,3.06,9.07Z"/><path class="cls-8" d="M78.86,10.58a2.38,2.38,0,0,1-2.4-2.43A2.39,2.39,0,0,1,78.89,5.7a2.47,2.47,0,0,1,1.85.74l-.53.61a1.9,1.9,0,0,0-1.32-.59,1.58,1.58,0,0,0-1.56,1.67,1.6,1.6,0,0,0,1.56,1.69,1.86,1.86,0,0,0,1.35-.62l.53.54A2.44,2.44,0,0,1,78.86,10.58Z"/><path class="cls-8" d="M82.29,10.5h-.81V5.58h.81V7.49a1.29,1.29,0,0,1,1.11-.62,1.22,1.22,0,0,1,1.27,1.36V10.5h-.81v-2c0-.56-.28-.87-.76-.87a.79.79,0,0,0-.81.88Z"/><path class="cls-8" d="M87.28,10.58a1.86,1.86,0,1,1,1.9-1.86A1.87,1.87,0,0,1,87.28,10.58Zm0-3a1.06,1.06,0,0,0-1.07,1.14,1.1,1.1,0,0,0,1.08,1.15,1.07,1.07,0,0,0,1.08-1.14A1.1,1.1,0,0,0,87.28,7.58Z"/><path class="cls-8" d="M91.59,10.58a1.86,1.86,0,0,1,0-3.71A1.76,1.76,0,0,1,93,7.48l-.5.54a1.2,1.2,0,0,0-.92-.44,1.08,1.08,0,0,0-1,1.14,1.08,1.08,0,0,0,1.07,1.15,1.26,1.26,0,0,0,.92-.44l.49.48A1.8,1.8,0,0,1,91.59,10.58Z"/><path class="cls-8" d="M95.31,10.58a1.86,1.86,0,1,1,1.91-1.86A1.87,1.87,0,0,1,95.31,10.58Zm0-3a1.07,1.07,0,0,0-1.07,1.14,1.1,1.1,0,0,0,1.08,1.15A1.07,1.07,0,0,0,96.4,8.73,1.1,1.1,0,0,0,95.31,7.58Z"/><path class="cls-8" d="M98,10.5V5.58h.81V10.5Z"/><path class="cls-8" d="M102,10.5v-.44a1.43,1.43,0,0,1-1.15.51,1.13,1.13,0,0,1-1.26-1.1h0c0-.77.61-1.15,1.44-1.15a3.2,3.2,0,0,1,1,.15V8.38c0-.5-.31-.77-.88-.77a2.38,2.38,0,0,0-1,.23l-.23-.66a3.18,3.18,0,0,1,1.36-.29,1.37,1.37,0,0,1,1.56,1.5V10.5ZM102,9a2.35,2.35,0,0,0-.81-.14c-.51,0-.82.2-.82.57h0c0,.34.31.53.69.53.54,0,.94-.31.94-.75Z"/><path class="cls-8" d="M104.67,9.38a.39.39,0,0,0,.44.45,1.08,1.08,0,0,0,.5-.12v.66a1.36,1.36,0,0,1-.73.19.91.91,0,0,1-1-1.05V7.64h-.45v-.7h.45V6h.81v1h1v.7h-1Z"/><path class="cls-8" d="M107.92,9.91a1.33,1.33,0,0,0,1-.42l.47.42a1.8,1.8,0,0,1-1.45.67,1.77,1.77,0,0,1-1.82-1.85,1.76,1.76,0,0,1,1.73-1.86,1.73,1.73,0,0,1,1.71,1.92,1.8,1.8,0,0,1,0,.22H106.9A1,1,0,0,0,107.92,9.91Zm.8-1.44a.93.93,0,0,0-.9-.94,1,1,0,0,0-.93.94Z"/></g></g></g></svg>