<svg xmlns="http://www.w3.org/2000/svg" viewBox="0 0 287.79 96.19"><defs><style>.cls-1{fill:#fff;}</style></defs><g id="Capa_2" data-name="Capa 2"><g id="Capa_1-2" data-name="Capa 1"><path class="cls-1" d="M286.52,75.56H81.11a1.26,1.26,0,0,1-1-.51l-7.39-9.82L65.52,75a1.23,1.23,0,0,1-1,.52h0a1.27,1.27,0,0,1-1-.53l-7.06-9.78-7.27,9.8a1.32,1.32,0,0,1-2,0l-7.3-9.82-7.27,9.82a1.28,1.28,0,0,1-1,.51H1.27a1.27,1.27,0,0,1,0-2.54h29.6l7.91-10.68a1.32,1.32,0,0,1,2,0l7.3,9.82,7.28-9.82a1.28,1.28,0,0,1,1-.51h0a1.26,1.26,0,0,1,1,.53l7.06,9.77,7.17-9.78a1.23,1.23,0,0,1,1-.52h0a1.28,1.28,0,0,1,1,.51l8,10.68H286.52a1.27,1.27,0,1,1,0,2.54Z"/><path class="cls-1" d="M137.17,14.71a7.7,7.7,0,1,1-15.4,0c0-4.25,7.7-9,7.7-14.71,0,5.76,7.7,10.46,7.7,14.71"/><path class="cls-1" d="M79,40.69q0,4.06-4.35,4.07H19V63.89q0,3.49-4.08,3.49a21.14,21.14,0,0,1-5-.31,3,3,0,0,1-2.5-3.18V26.11q0-6.43,9.83-9.9a49.53,49.53,0,0,1,16.55-2.65h8.69c2.75,0,4.13,1.51,4.13,4.51q0,3.49-4.13,3.49Q19,21.56,19,26.47v10.2H74.64q4.35,0,4.35,4"/><path class="cls-1" d="M120.78,29.42q0,3.49-4.93,3.5c-.45,0-1.1,0-2-.07s-1.51-.07-2-.07q-12.72,0-12.72,5.35V63.89a3,3,0,0,1-2.31,3.22,24.4,24.4,0,0,1-4.81.27q-3.93,0-3.93-3.54V38.13q0-8.31,10.11-11.27Q104.44,25,116.65,25c2.75,0,4.13,1.48,4.13,4.42"/><path class="cls-1" d="M135,63.89q0,3.49-4.14,3.49a18.89,18.89,0,0,1-4.71-.31A3,3,0,0,1,124,63.89V28.32c0-2.3,1.37-3.44,4.13-3.44a18.24,18.24,0,0,1,4.67.31A2.93,2.93,0,0,1,135,28.32Z"/><path class="cls-1" d="M207.7,64.28c0,1.6-1,2.57-2.89,2.92a32.91,32.91,0,0,1-5.13.18,4.52,4.52,0,0,1-2.4-.71l-24.71-15.2-24.93,15.2q-1.15.7-5.85.71c-3.15,0-4.72-1-4.72-3.1,0-1.2.78-2.28,2.36-3.22L164,46.21,139.69,31.32c-1.5-.91-2.26-2-2.26-3.22,0-1.62,1-2.61,3-3a49.85,49.85,0,0,1,5.24-.14,4.6,4.6,0,0,1,2.4.67l24.56,15.2,24-15.16q1-.71,5.76-.71t4.71,3.06c0,1.23-.75,2.31-2.25,3.22L181.1,46.08l24.29,15c1.54.94,2.31,2,2.31,3.22"/><path class="cls-1" d="M277,54.21q0,7.24-8.48,10.61-6,2.55-16,2.56H234.09a49.23,49.23,0,0,1-16.49-2.61q-9.12-3.45-9.12-10.56V38.62q0-7.11,9.06-10.78Q224.2,25,234,25h18.43Q277,25,277,38.52Zm-11.2,0V37.91q0-5-13.61-5h-18a35.28,35.28,0,0,0-9,1.06c-3.78,1-5.66,2.6-5.66,4.69V54.21c0,2,1.92,3.47,5.76,4.42a38.16,38.16,0,0,0,9,.93h18a30.94,30.94,0,0,0,8.21-1.06q5.34-1.47,5.34-4.29"/><polygon class="cls-1" points="277.49 21.31 275.6 21.31 275.6 20.63 280.22 20.63 280.22 21.31 278.31 21.31 278.31 26.86 277.49 26.86 277.49 21.31"/><path class="cls-1" d="M286,24.12c-.06-.86-.11-1.92-.11-2.69h0c-.23.73-.48,1.51-.79,2.37l-1.11,3h-.61l-1-3c-.29-.89-.54-1.69-.71-2.43h0c0,.78-.06,1.82-.12,2.76l-.17,2.67h-.77l.44-6.23h1l1.06,3c.26.77.47,1.46.64,2.11h0c.17-.64.39-1.32.66-2.11l1.12-3h1l.38,6.23h-.79Z"/><path class="cls-1" d="M3.23,91.57V96H1.65V84.5l2.15-.08q5,0,5,3.36c0,2.58-1.48,3.87-4.42,3.87-.19,0-.57,0-1.16-.08m0-5.65v4.24l1.05.08c1.94,0,2.91-.77,2.91-2.3s-1-2.1-3.11-2.1a5.14,5.14,0,0,0-.85.08"/><polygon class="cls-1" points="16.2 85.92 16.2 89.11 20 89.11 20 90.44 16.2 90.44 16.2 94.59 21.42 94.59 21.42 96 14.63 96 14.63 84.5 21.5 84.5 21.5 85.92 16.2 85.92"/><polygon class="cls-1" points="31.45 85.92 31.45 96 29.88 96 29.88 85.92 26.22 85.92 26.22 84.5 35.27 84.5 35.27 85.92 31.45 85.92"/><path class="cls-1" d="M47,96l-3.07-4.94c-.35,0-.9,0-1.67-.08v5H40.68V84.5l1.23-.06q1.14-.06,1.65-.06c2.77,0,4.14,1.11,4.14,3.3A3.15,3.15,0,0,1,47,89.63a2.84,2.84,0,0,1-1.59,1.08L48.79,96ZM42.25,85.92v3.73a8.51,8.51,0,0,0,1.1.08,3.72,3.72,0,0,0,2.07-.45,1.9,1.9,0,0,0,.64-1.63,1.51,1.51,0,0,0-.69-1.39,4.26,4.26,0,0,0-2.18-.42,8,8,0,0,0-.94.08"/><path class="cls-1" d="M53.42,90.15A6.78,6.78,0,0,1,54.67,86a4,4,0,0,1,3.38-1.67,4.49,4.49,0,0,1,3.67,1.54A6.65,6.65,0,0,1,63,90.15a7,7,0,0,1-1.28,4.44,4.41,4.41,0,0,1-3.66,1.6,4,4,0,0,1-3.4-1.69,7.16,7.16,0,0,1-1.23-4.35m1.64,0a6.36,6.36,0,0,0,.79,3.31,2.44,2.44,0,0,0,2.2,1.33,2.81,2.81,0,0,0,2.45-1.22,6,6,0,0,0,.84-3.42c0-3-1.09-4.44-3.29-4.44a2.44,2.44,0,0,0-2.22,1.19,6,6,0,0,0-.77,3.25"/><path class="cls-1" d="M76.15,84.93l-.52,1.34a4.06,4.06,0,0,0-2.38-.55A2.81,2.81,0,0,0,70.83,87a5.67,5.67,0,0,0-.92,3.35,5.14,5.14,0,0,0,.94,3.19,3.14,3.14,0,0,0,4.91.07l.86,1.2a4.78,4.78,0,0,1-3.51,1.35,4.28,4.28,0,0,1-3.55-1.62,6.69,6.69,0,0,1-1.29-4.29A6.57,6.57,0,0,1,69.64,86a4.41,4.41,0,0,1,3.58-1.71,5.72,5.72,0,0,1,2.93.63"/><polygon class="cls-1" points="89.02 96 89.02 90.44 84 90.44 84 96 82.43 96 82.43 84.5 84 84.5 84 89.11 89.02 89.11 89.02 84.5 90.59 84.5 90.59 96 89.02 96"/><polygon class="cls-1" points="98.51 85.92 98.51 89.11 102.32 89.11 102.32 90.44 98.51 90.44 98.51 94.59 103.73 94.59 103.73 96 96.95 96 96.95 84.5 103.81 84.5 103.81 85.92 98.51 85.92"/><polygon class="cls-1" points="118.23 96 116.87 88.62 114.35 96.16 113.97 96.16 111.38 88.62 110.04 96 108.55 96 110.7 84.5 111.42 84.5 114.16 92.89 116.69 84.5 117.39 84.5 119.72 96 118.23 96"/><rect class="cls-1" x="125.25" y="84.5" width="1.57" height="11.5"/><path class="cls-1" d="M140.79,84.93l-.52,1.34a4,4,0,0,0-2.37-.55A2.81,2.81,0,0,0,135.47,87a5.67,5.67,0,0,0-.92,3.35,5.14,5.14,0,0,0,.94,3.19,3.14,3.14,0,0,0,4.91.07l.87,1.2a4.82,4.82,0,0,1-3.52,1.35,4.27,4.27,0,0,1-3.55-1.62,6.69,6.69,0,0,1-1.29-4.29A6.57,6.57,0,0,1,134.29,86a4.38,4.38,0,0,1,3.57-1.71,5.72,5.72,0,0,1,2.93.63"/><path class="cls-1" d="M153.6,96l-.79-2.43h-4.28L147.69,96h-1.76l4.67-11.65H151L155.34,96Zm-2.87-8.64L149,92.42h3.41Z"/><polygon class="cls-1" points="160.57 96 160.57 84.5 162.15 84.5 162.15 94.59 167.34 94.59 167.34 96 160.57 96"/><path class="cls-1" d="M182.64,91.57V96h-1.57V84.5l2.15-.08q5,0,5,3.36c0,2.58-1.47,3.87-4.43,3.87-.18,0-.56,0-1.16-.08m0-5.65v4.24l1.06.08c1.94,0,2.91-.77,2.91-2.3s-1-2.1-3.12-2.1a5.32,5.32,0,0,0-.85.08"/><path class="cls-1" d="M200.43,96l-3.07-4.94c-.35,0-.89,0-1.65-.08v5h-1.58V84.5l1.23-.06c.74,0,1.3-.06,1.64-.06,2.77,0,4.14,1.11,4.14,3.3a3.09,3.09,0,0,1-.66,1.95,2.84,2.84,0,0,1-1.59,1.08L202.23,96Zm-4.72-10.08v3.73a8,8,0,0,0,1.09.08,3.62,3.62,0,0,0,2-.45,1.85,1.85,0,0,0,.65-1.63,1.51,1.51,0,0,0-.69-1.39,4.24,4.24,0,0,0-2.18-.42,7.74,7.74,0,0,0-.92.08"/><path class="cls-1" d="M206.86,90.15A6.78,6.78,0,0,1,208.11,86a4,4,0,0,1,3.38-1.67,4.49,4.49,0,0,1,3.67,1.54,6.59,6.59,0,0,1,1.28,4.31,6.92,6.92,0,0,1-1.29,4.44,4.4,4.4,0,0,1-3.66,1.6,4,4,0,0,1-3.4-1.69,7.22,7.22,0,0,1-1.23-4.35m1.64,0a6.46,6.46,0,0,0,.79,3.31,2.45,2.45,0,0,0,2.2,1.33,2.8,2.8,0,0,0,2.45-1.22,5.9,5.9,0,0,0,.85-3.42q0-4.44-3.3-4.44a2.47,2.47,0,0,0-2.22,1.19,6,6,0,0,0-.77,3.25"/><path class="cls-1" d="M224.57,96h-2.31V84.5c1.47,0,2.42-.08,2.83-.08a5,5,0,0,1,3.81,1.47,5.38,5.38,0,0,1,1.41,3.9q0,6.21-5.74,6.21m-.74-10.08v8.59a9.3,9.3,0,0,0,1.3.08,3.07,3.07,0,0,0,2.59-1.24,5.51,5.51,0,0,0,.94-3.43q0-4.08-3.66-4.08c-.15,0-.54,0-1.17.08"/><path class="cls-1" d="M236.12,84.5h1.57v7.87a2.33,2.33,0,0,0,2.43,2.42,2.53,2.53,0,0,0,1.83-.66,2.43,2.43,0,0,0,.66-1.8V84.5h1.58v8a3.48,3.48,0,0,1-1.1,2.72,4.24,4.24,0,0,1-3,1,4.18,4.18,0,0,1-3-1,3.52,3.52,0,0,1-1-2.74Z"/><path class="cls-1" d="M257.88,84.93l-.53,1.34a4,4,0,0,0-2.37-.55A2.81,2.81,0,0,0,252.55,87a5.74,5.74,0,0,0-.91,3.35,5.08,5.08,0,0,0,.94,3.19A2.91,2.91,0,0,0,255,94.79a3,3,0,0,0,2.5-1.15l.86,1.2a4.79,4.79,0,0,1-3.52,1.35,4.25,4.25,0,0,1-3.54-1.62,7.51,7.51,0,0,1,.08-8.56,4.38,4.38,0,0,1,3.57-1.71,5.76,5.76,0,0,1,2.94.63"/><polygon class="cls-1" points="268.35 85.92 268.35 96 266.77 96 266.77 85.92 263.12 85.92 263.12 84.5 272.17 84.5 272.17 85.92 268.35 85.92"/><path class="cls-1" d="M277.06,95.47l.57-1.44a4,4,0,0,0,1.1.53,3.76,3.76,0,0,0,1.18.23,2.1,2.1,0,0,0,1.47-.51,1.67,1.67,0,0,0,.56-1.28,2,2,0,0,0-.31-1.08,3.93,3.93,0,0,0-1.56-1.09l-.92-.42a3.67,3.67,0,0,1-1.65-1.31,3.38,3.38,0,0,1-.46-1.81,2.82,2.82,0,0,1,.9-2.14,3.33,3.33,0,0,1,2.34-.85,4.23,4.23,0,0,1,2.66.63l-.47,1.36a3.55,3.55,0,0,0-1-.44,3.94,3.94,0,0,0-1.2-.21,1.72,1.72,0,0,0-1.26.45,1.62,1.62,0,0,0-.46,1.17,2.13,2.13,0,0,0,.17.81,1.51,1.51,0,0,0,.46.6,6.77,6.77,0,0,0,1.2.68l.95.45a3.21,3.21,0,0,1,2.12,3.3,2.8,2.8,0,0,1-1,2.19,4.06,4.06,0,0,1-2.78.9,4.68,4.68,0,0,1-2.62-.72"/></g></g></svg>