<svg xmlns="http://www.w3.org/2000/svg" viewBox="0 0 230.34 66.74"><defs><style>.cls-1{fill:#fff;}</style></defs><g id="Capa_2" data-name="Capa 2"><g id="Capa_1-2" data-name="Capa 1"><path class="cls-1" d="M154.47,15.58a25.35,25.35,0,0,1-5.62-8l-18.18,5.67a32.69,32.69,0,0,0,5.89,7.9Z"/><path class="cls-1" d="M156.24,17.18l-17.93,5.61C149,32.66,166.57,35.4,185.57,33.12c10.35-1.24,21.26-6,21.26-6C184.52,30.54,166.45,25.78,156.24,17.18Z"/><path class="cls-1" d="M173.33,0c10.7,20.19,35,23.08,57,19.91,0,0-11,4.64-21.22,5.95-21.23,2.73-43.4-1.81-53.83-20.25Z"/><path class="cls-1" d="M129.56,35.86l-5.93,24.77h-7.37l5.94-24.77Z"/><path class="cls-1" d="M151.39,48l-3,12.59h-7.31l3-12.51A2,2,0,0,0,143.2,46a4.4,4.4,0,0,0-2.88-.92h-3l-3.78,15.57H126.2l4.44-18.58h13.49a9.15,9.15,0,0,1,5.24,1.44,4.3,4.3,0,0,1,2.14,3.63A3.69,3.69,0,0,1,151.39,48Z"/><path class="cls-1" d="M169.82,42.05l-.79,3h-7.48l-2.21,9.38v.47a2.17,2.17,0,0,0,1.1,1.8,4.55,4.55,0,0,0,2.61.75h3l-.72,3.17h-6.05A8.84,8.84,0,0,1,154,59.12a4.4,4.4,0,0,1-2.14-3.67,3.83,3.83,0,0,1,.12-.93l3.77-15.61h7.32l-.75,3.14Z"/><path class="cls-1" d="M192.43,48.09l-1.53,6.36H176.07a2.27,2.27,0,0,0,0,.43,2.19,2.19,0,0,0,1.1,1.83,4.68,4.68,0,0,0,2.67.75h10.4l-.69,3.17H175.9a8.57,8.57,0,0,1-5.21-1.53,4.43,4.43,0,0,1-2.11-3.69,3.67,3.67,0,0,1,.11-.92l2-8.27a4.74,4.74,0,0,1,2.52-3A9.45,9.45,0,0,1,178,42.05h7.2a8.87,8.87,0,0,1,5.23,1.52,4.45,4.45,0,0,1,2.16,3.66A3.36,3.36,0,0,1,192.43,48.09Zm-7.39-.3c.18-.71-.14-1.33-1-1.86a5.21,5.21,0,0,0-2.85-.8c-2,0-3.18.83-3.55,2.48l-.83,3.67h7.38Z"/><path class="cls-1" d="M211.15,42.05l-.71,3h-4.36q-3.18,0-3.69,2.19l-3,13.38H192l3.39-14.49a4.49,4.49,0,0,1,2.53-2.94,9.81,9.81,0,0,1,4.74-1.15Z"/><path class="cls-1" d="M26.2,42,21.66,62.45a5,5,0,0,1-2.33,3.08,8,8,0,0,1-4.45,1.21H0l.67-3.09H11.55A4.1,4.1,0,0,0,13.87,63,2.31,2.31,0,0,0,15,61.42l.14-.82H9.46A7.9,7.9,0,0,1,4.6,59.13a4.41,4.41,0,0,1-2-3.64,5.07,5.07,0,0,1,.09-.94L4.6,46.23a4.69,4.69,0,0,1,2.33-3A8.27,8.27,0,0,1,11.38,42ZM18.7,45.1H14.62a4.09,4.09,0,0,0-2.08.57,2.39,2.39,0,0,0-1.16,1.41L9.67,54.41a1.28,1.28,0,0,0-.11.48,2.26,2.26,0,0,0,1,1.85,3.9,3.9,0,0,0,2.45.77h2.85Z"/><path class="cls-1" d="M44,42l-.69,3H39.3c-2,0-3.13.73-3.43,2.2L33.08,60.6H26.2l3.17-14.49a4.36,4.36,0,0,1,2.34-2.94A8.66,8.66,0,0,1,36.14,42Z"/><path class="cls-1" d="M66.83,42,63.57,56.39a4.94,4.94,0,0,1-2.42,3,8.3,8.3,0,0,1-4.4,1.23H50a8,8,0,0,1-4.89-1.47,4.36,4.36,0,0,1-2-3.63,3.55,3.55,0,0,1,.11-.89L46.05,42H53L50.28,54.41a1.15,1.15,0,0,0-.1.48,2.17,2.17,0,0,0,1,1.83,4.42,4.42,0,0,0,2.54.71c1.86,0,2.94-.72,3.25-2.15L59.86,42Z"/><path class="cls-1" d="M90.29,48l-1.81,8.16a5,5,0,0,1-2.31,3.15,7.75,7.75,0,0,1-4.44,1.29h-8l-1.43,6.14H65.43L71,42H83.54a7.71,7.71,0,0,1,4.81,1.51,4.46,4.46,0,0,1,2,3.66A3.65,3.65,0,0,1,90.29,48Zm-6.83.13a2.32,2.32,0,0,1,0-.46,2.24,2.24,0,0,0-1-1.83,4.2,4.2,0,0,0-2.47-.74H77L74.31,57.51h4c2,0,3.11-.73,3.42-2.2Z"/><path class="cls-1" d="M115.11,48l-1.93,8.22a5,5,0,0,1-2.39,3.1,8.2,8.2,0,0,1-4.47,1.27H99.7a7.84,7.84,0,0,1-4.88-1.51,4.46,4.46,0,0,1-2-3.66,4.81,4.81,0,0,1,.1-.93L94.79,46a4.55,4.55,0,0,1,2.38-2.9,8.77,8.77,0,0,1,4.4-1.11h6.72a8.17,8.17,0,0,1,4.88,1.46,4.37,4.37,0,0,1,2,3.61A5.12,5.12,0,0,1,115.11,48Zm-6.86,0a1.91,1.91,0,0,0-.85-2,4.41,4.41,0,0,0-2.7-.84c-1.83,0-2.9.72-3.21,2.14L99.9,54.46a1.27,1.27,0,0,0-.14.49,2.1,2.1,0,0,0,1,1.79,4.18,4.18,0,0,0,2.44.69c1.94,0,3.08-.75,3.44-2.24Z"/></g></g></svg>