<svg xmlns="http://www.w3.org/2000/svg" viewBox="0 0 732.1 229.03"><defs><style>.cls-1{fill:#fff;}.cls-2{fill:none;}</style></defs><g id="Capa_2" data-name="Capa 2"><g id="Capa_1-2" data-name="Capa 1"><circle class="cls-1" cx="711.12" cy="114.52" r="20.98"/><circle class="cls-1" cx="20.98" cy="114.52" r="20.98"/><path class="cls-1" d="M432.88,130.91v16.53c0,.13,0,.25,0,.37s0,.14,0,.21,0,.15,0,.22h0v0h0a10,10,0,0,1-.67,2.46h0L432,151c0,.08-.08.17-.13.25s-.09.16-.14.24-.09.15-.14.23l-.22.33h0a2.48,2.48,0,0,1-.19.26h0l0,.06,0,0a2.75,2.75,0,0,1-.22.26,3.65,3.65,0,0,1-.27.3l0,0-.38.36-.18.16-.19.15-.15.12-.19.14-.22.15,0,0h0l-2.76,1.57-9.05,5.11-4.68,2.64a7.77,7.77,0,0,1-10.55-2.78A7.57,7.57,0,0,1,405,150.23l8.37-4.68a8.07,8.07,0,0,0,.92-.6l.21-.17c.14-.12.28-.23.41-.36s.25-.25.37-.38a6.1,6.1,0,0,0,.52-.62c.11-.14.21-.28.31-.43h0q.15-.23.27-.45h0a1.27,1.27,0,0,0,.12-.23,1.55,1.55,0,0,0,.12-.22l.11-.23c.07-.15.13-.31.19-.47s.05-.15.08-.24.05-.15.08-.23,0-.17.07-.25l.06-.24.06-.28,0-.19a2.17,2.17,0,0,0,0-.25l0-.27a0,0,0,0,0,0,0c0-.08,0-.17,0-.25s0-.34,0-.51v-7.74a7.52,7.52,0,0,1,2.27-5.38,7.74,7.74,0,0,1,13.18,5.38Z"/><path class="cls-1" d="M430.64,153a3.65,3.65,0,0,0,.27-.3l-.09.11Z"/><path class="cls-1" d="M430.91,152.65a2.75,2.75,0,0,0,.22-.26,1.34,1.34,0,0,1-.11.14l-.06.07Z"/><path class="cls-1" d="M431.21,152.29a2.48,2.48,0,0,0,.19-.26.83.83,0,0,1-.08.12A1.71,1.71,0,0,1,431.21,152.29Z"/><path class="cls-1" d="M416.75,141.86c.06-.15.13-.31.19-.47C416.88,141.55,416.82,141.71,416.75,141.86Z"/><path class="cls-1" d="M432.83,148.27h0c0,.12,0,.24,0,.36a2.07,2.07,0,0,1,0,.22,2,2,0,0,1-.05.26s0,0,0,0a1.74,1.74,0,0,1-.05.22s0,0,0,.07l-.06.23h0a1.42,1.42,0,0,1-.07.22.14.14,0,0,1,0,.07c0,.08,0,.16-.08.24l-.11.26c0,.09-.07.17-.11.26A10,10,0,0,0,432.83,148.27Z"/><path class="cls-1" d="M366.78,188.73a7.77,7.77,0,0,1-3.86-1l-58.43-33.3a7.61,7.61,0,0,1-3.87-6.6V81.22a7.61,7.61,0,0,1,3.87-6.6l58.43-33.29a7.81,7.81,0,0,1,7.72,0l58.43,33.29a7.57,7.57,0,0,1,0,13.2l-54.57,31.1V181.1a7.62,7.62,0,0,1-3.86,6.61A7.82,7.82,0,0,1,366.78,188.73Zm-50.71-45.32,43,24.49V114.52a7.59,7.59,0,0,1,3.86-6.6l46.84-26.7-43-24.49L316.07,85.62Z"/><rect class="cls-2" x="250.74" width="232.07" height="229.03"/><polyline class="cls-1" points="300.62 85.09 369.68 125.48 378.8 111.75 309.91 71.53"/><polyline class="cls-1" points="432.93 81.22 432.93 130.91 417.43 130.91 417.43 94.45"/><polyline class="cls-1" points="370.64 187.71 412.75 163.44 405.02 150.23 370.64 168.97"/><path class="cls-1" d="M232.45,130.91v16.53c0,.13,0,.25,0,.37a1.48,1.48,0,0,1,0,.21,1.64,1.64,0,0,1,0,.22h0v0h0a10.49,10.49,0,0,1-.68,2.46h0l-.12.25c0,.08-.08.17-.13.25s-.09.16-.14.24-.09.15-.14.23L231,152h0c-.07.09-.13.18-.2.26h0l-.05.06,0,0-.21.26-.27.3s0,0,0,0l-.38.36-.18.16-.19.15-.15.12-.19.14-.22.15,0,0h0l-2.76,1.57-9,5.11-4.69,2.64a7.77,7.77,0,0,1-10.55-2.78,7.58,7.58,0,0,1,2.82-10.42l8.38-4.68a7.94,7.94,0,0,0,.91-.6l.21-.17c.14-.12.28-.23.41-.36s.26-.25.38-.38a7.64,7.64,0,0,0,.51-.62c.11-.14.21-.28.31-.43h0c.1-.15.19-.3.28-.45h0l.12-.23a1.51,1.51,0,0,0,.11-.22,2.4,2.4,0,0,0,.11-.23c.07-.15.13-.31.19-.47a1.35,1.35,0,0,0,.08-.24,1.55,1.55,0,0,0,.08-.23c0-.09.05-.17.07-.25l.06-.24.06-.28a1.48,1.48,0,0,0,0-.19,2.17,2.17,0,0,0,0-.25,2.51,2.51,0,0,0,0-.27v0c0-.08,0-.17,0-.25s0-.34,0-.51v-7.74a7.51,7.51,0,0,1,2.26-5.38,7.74,7.74,0,0,1,13.18,5.38Z"/><path class="cls-1" d="M230.22,153l.27-.3a.52.52,0,0,1-.1.11Z"/><path class="cls-1" d="M230.49,152.65l.21-.26a1.34,1.34,0,0,1-.11.14l-.06.07Z"/><path class="cls-1" d="M230.78,152.29c.07-.08.13-.17.2-.26l-.09.12A.76.76,0,0,1,230.78,152.29Z"/><path class="cls-1" d="M216.32,141.86c.07-.15.13-.31.19-.47C216.45,141.55,216.39,141.71,216.32,141.86Z"/><path class="cls-1" d="M232.41,148.27h0c0,.12,0,.24,0,.36a2.07,2.07,0,0,1,0,.22,2,2,0,0,1,0,.26s0,0,0,0a1.74,1.74,0,0,1,0,.22.19.19,0,0,1,0,.07l-.06.23h0c0,.08,0,.15-.07.22l0,.07a2.25,2.25,0,0,1-.08.24c0,.09-.07.17-.1.26l-.12.26A10.49,10.49,0,0,0,232.41,148.27Z"/><path class="cls-1" d="M166.35,188.73a7.79,7.79,0,0,1-3.86-1l-58.43-33.3a7.6,7.6,0,0,1-3.86-6.6V81.22a7.6,7.6,0,0,1,3.86-6.6l58.43-33.29a7.81,7.81,0,0,1,7.72,0l58.43,33.29a7.57,7.57,0,0,1,0,13.2l-54.57,31.1V181.1a7.62,7.62,0,0,1-3.86,6.61A7.79,7.79,0,0,1,166.35,188.73Zm-50.71-45.32,43,24.49V114.52a7.59,7.59,0,0,1,3.86-6.6l46.85-26.7-43-24.49L115.64,85.62Z"/><path class="cls-1" d="M633.31,130.91v16.53c0,.13,0,.25,0,.37s0,.14,0,.21a1.64,1.64,0,0,0,0,.22h0v0h0a10,10,0,0,1-.67,2.46h0l-.12.25-.13.25-.14.24-.15.23-.22.33h0l-.19.26h0l0,.06,0,0a2.75,2.75,0,0,1-.22.26c-.08.1-.18.2-.27.3l0,0-.37.36-.18.16-.19.15-.15.12-.2.14-.21.15,0,0h0l-2.75,1.57-9,5.11-4.69,2.64a7.67,7.67,0,0,1-3.85,1,7.75,7.75,0,0,1-6.7-3.81,7.58,7.58,0,0,1,2.83-10.42l8.37-4.68a8.07,8.07,0,0,0,.92-.6l.21-.17c.14-.12.27-.23.4-.36a4.54,4.54,0,0,0,.38-.38,6.1,6.1,0,0,0,.52-.62c.11-.14.21-.28.31-.43h0c.09-.15.19-.3.27-.45h0a1.27,1.27,0,0,0,.12-.23l.12-.22a2.29,2.29,0,0,0,.1-.23c.07-.15.14-.31.2-.47s0-.15.08-.24,0-.15.08-.23.05-.17.07-.25l.06-.24.06-.28,0-.19c0-.08,0-.17,0-.25l0-.27v0a2.11,2.11,0,0,0,0-.25,4.35,4.35,0,0,0,0-.51v-7.74a7.55,7.55,0,0,1,2.26-5.38,7.74,7.74,0,0,1,13.19,5.38Z"/><path class="cls-1" d="M631.07,153c.09-.1.19-.2.27-.3l-.09.11Z"/><path class="cls-1" d="M631.34,152.65a2.75,2.75,0,0,0,.22-.26l-.11.14-.07.07A.1.1,0,0,1,631.34,152.65Z"/><path class="cls-1" d="M631.64,152.29l.19-.26-.08.12A1.71,1.71,0,0,1,631.64,152.29Z"/><path class="cls-1" d="M617.17,141.86c.07-.15.14-.31.2-.47C617.31,141.55,617.24,141.71,617.17,141.86Z"/><path class="cls-1" d="M633.26,148.27h0c0,.12,0,.24,0,.36a1.43,1.43,0,0,0,0,.22,2,2,0,0,1-.06.26v0c0,.07,0,.15,0,.22s0,0,0,.07a1.55,1.55,0,0,1-.07.23h0a1.42,1.42,0,0,1-.07.22.14.14,0,0,1,0,.07l-.09.24a2.77,2.77,0,0,1-.1.26c0,.09-.07.17-.11.26A10,10,0,0,0,633.26,148.27Z"/><path class="cls-1" d="M567.21,188.73a7.83,7.83,0,0,1-3.87-1l-58.43-33.3a7.6,7.6,0,0,1-3.86-6.6V81.22a7.6,7.6,0,0,1,3.86-6.6l58.43-33.29a7.83,7.83,0,0,1,7.73,0L629.5,74.62a7.57,7.57,0,0,1,0,13.2l-54.57,31.1V181.1a7.62,7.62,0,0,1-3.86,6.61A7.82,7.82,0,0,1,567.21,188.73ZM516.5,143.41l43,24.49V114.52a7.61,7.61,0,0,1,3.86-6.6l46.85-26.7-43-24.49L516.5,85.62Z"/></g></g></svg>