<svg xmlns="http://www.w3.org/2000/svg" viewBox="0 0 244.11 109.03"><defs><style>.cls-1{fill:#fff;}</style></defs><g id="Capa_2" data-name="Capa 2"><g id="Capa_1-2" data-name="Capa 1"><path class="cls-1" d="M121,45.53a9,9,0,1,0,9,9A9,9,0,0,0,121,45.53Z"/><path class="cls-1" d="M209.72,45.53a9,9,0,1,0,9,9A9,9,0,0,0,209.72,45.53Z"/><path class="cls-1" d="M233.65,53.26a.8.8,0,0,0,.27-.65.85.85,0,0,0-.27-.67,1,1,0,0,0-.67-.23h-.8V53.5h.8A1,1,0,0,0,233.65,53.26Z"/><path class="cls-1" d="M179.42,45.53a9,9,0,1,0,9,9A9,9,0,0,0,179.42,45.53Z"/><path class="cls-1" d="M61.25,46.63a9,9,0,1,0,9,9A9,9,0,0,0,61.25,46.63Z"/><path class="cls-1" d="M122.05,0C54.64,0,0,24.41,0,54.52S54.64,109,122.05,109,244.11,84.62,244.11,54.52,189.46,0,122.05,0ZM32.55,60.9a35,35,0,0,1-5.27-.37v6.2a2.12,2.12,0,0,1-4.24,0V48.54c0-4.12,2.59-6.78,6.6-6.78h2.91c6.93,0,11.41,3.79,11.41,9.65S39.59,60.9,32.55,60.9Zm28.7,7.94A13.23,13.23,0,1,1,74.47,55.62,13.24,13.24,0,0,1,61.25,68.84Zm28.25-.47H86.59c-4,0-6.6-2.66-6.6-6.77V43.41a2.12,2.12,0,0,1,4.24,0V61.6c0,2.23,1.2,2.54,2.36,2.54H89.5a2.12,2.12,0,1,1,0,4.23Zm15.29,0h-2.91c-4,0-6.6-2.66-6.6-6.77V43.41a2.12,2.12,0,1,1,4.24,0V61.6c0,2.23,1.19,2.54,2.36,2.54h2.91a2.12,2.12,0,1,1,0,4.23Zm16.2-.63a13.23,13.23,0,1,1,13.23-13.22A13.23,13.23,0,0,1,121,67.74Zm41.16-5.69a13.23,13.23,0,1,1-.27-15.43,2.12,2.12,0,0,1-3.39,2.53,9,9,0,1,0,.18,10.48,2.12,2.12,0,1,1,3.48,2.42Zm17.27,5.69a13.23,13.23,0,1,1,13.22-13.22A13.24,13.24,0,0,1,179.42,67.74Zm43.91-2.12a2.12,2.12,0,1,1-4.24,0V63.84a13.23,13.23,0,1,1,0-18.65V43.41a2.12,2.12,0,0,1,4.24,0Zm12.6-9a3.89,3.89,0,0,1-1.33.89,4.05,4.05,0,0,1-1.63.32,4.1,4.1,0,0,1-1.64-.32,3.93,3.93,0,0,1-1.34-.89,4.13,4.13,0,0,1-.91-1.34,4.31,4.31,0,0,1-.32-1.66,4.23,4.23,0,0,1,.32-1.63,4.34,4.34,0,0,1,.9-1.33,4.16,4.16,0,0,1,3-1.24,4.06,4.06,0,0,1,1.63.33,3.91,3.91,0,0,1,1.33.9,4.36,4.36,0,0,1,.91,1.34,4.06,4.06,0,0,1,.33,1.63,4.16,4.16,0,0,1-1.24,3Z"/><path class="cls-1" d="M32.55,46H29.64c-1.17,0-2.36.3-2.36,2.54v7.69a29.52,29.52,0,0,0,5.27.43c2.68,0,7.17-.68,7.17-5.25C39.72,46.53,34.7,46,32.55,46Z"/><path class="cls-1" d="M235.35,51.26a3.29,3.29,0,0,0-2.4-1,3.4,3.4,0,0,0-1.31.26,3.56,3.56,0,0,0-1.09.74,3.48,3.48,0,0,0-.73,1.09,3.46,3.46,0,0,0,0,2.63,3.37,3.37,0,0,0,.73,1.09,3.45,3.45,0,0,0,3.73.73,3.35,3.35,0,0,0,1.08-.74,3.61,3.61,0,0,0,.73-1.08,3.34,3.34,0,0,0,0-2.63A3.69,3.69,0,0,0,235.35,51.26ZM234.79,56a.35.35,0,0,1-.36.19.37.37,0,0,1-.35-.2L233,54.21h-.84v1.53a.33.33,0,0,1-.11.27.36.36,0,0,1-.29.12.37.37,0,0,1-.29-.12.36.36,0,0,1-.1-.27V51.39a.34.34,0,0,1,.11-.28.48.48,0,0,1,.32-.11h1.12a1.91,1.91,0,0,1,.91.21,1.49,1.49,0,0,1,.63.56,1.55,1.55,0,0,1,.23.84,1.53,1.53,0,0,1-.23.82,1.56,1.56,0,0,1-.64.58h0l.91,1.52A.4.4,0,0,1,234.79,56Z"/></g></g></svg>