<svg xmlns="http://www.w3.org/2000/svg" viewBox="0 0 209.64 52.17"><defs><style>.cls-1{fill:#fff;}</style></defs><g id="Capa_2" data-name="Capa 2"><g id="Capa_1-2" data-name="Capa 1"><path class="cls-1" d="M208.53,14.21a3.79,3.79,0,1,0,0,5.36,3.79,3.79,0,0,0,0-5.36m-.72,4.91-1.13-1.69a1.43,1.43,0,0,0-.51-2.77h-1.86v4.48h.86V17.51h.52l1.07,1.63h1a3,3,0,1,1-1.94-5.23,3,3,0,0,1,3,3A2.94,2.94,0,0,1,208,19a.86.86,0,0,1-.14.13m-1.64-2.45h-1V15.48h1a.6.6,0,0,1,0,1.19"/><path class="cls-1" d="M6.63,45.43l-1.1,1.11a2.32,2.32,0,0,0-3.3,0,2.33,2.33,0,0,0,0,3.29,2.28,2.28,0,0,0,1.65.68,2.27,2.27,0,0,0,1.65-.68l1.1,1.1a3.74,3.74,0,0,1-2.75,1.13,3.74,3.74,0,0,1-2.75-1.13,3.91,3.91,0,0,1,0-5.5A3.74,3.74,0,0,1,3.88,44.3a3.74,3.74,0,0,1,2.75,1.13"/><path class="cls-1" d="M17.85,27.14a5.82,5.82,0,0,0-1.14-2,8.23,8.23,0,0,0-1.85-1.56,14.18,14.18,0,0,0-2.56-1.26l-1.8-.72c-.63-.24-1.25-.52-1.76-.77a5.75,5.75,0,0,1-1.12-.76,1.54,1.54,0,0,1-.44-.56A2.23,2.23,0,0,1,7,18.67a1.92,1.92,0,0,1,.22-.92,1.78,1.78,0,0,1,.49-.6,2.64,2.64,0,0,1,.89-.43,3.85,3.85,0,0,1,1.19-.16A4.49,4.49,0,0,1,11,16.7a5.07,5.07,0,0,1,1,.35,5.71,5.71,0,0,1,1,.64,5.59,5.59,0,0,1,.82.78l.93,1.1L18,16.46l-.57-.74A8.3,8.3,0,0,0,16,14.33a10.18,10.18,0,0,0-1.78-1.09l-.05,0a13.09,13.09,0,0,0-2-.66,11.53,11.53,0,0,0-2.41-.23,9.39,9.39,0,0,0-3.06.48,7.84,7.84,0,0,0-2.48,1.38,6.72,6.72,0,0,0-1.66,2.07,5.79,5.79,0,0,0-.61,2.61,5.64,5.64,0,0,0,.5,2.33A6.36,6.36,0,0,0,3.74,23a8.35,8.35,0,0,0,1.93,1.36,17.6,17.6,0,0,0,2.26,1.05l1.87.77a10.49,10.49,0,0,1,1.64.8,4.44,4.44,0,0,1,1,.77,2.32,2.32,0,0,1,.47.77,2.54,2.54,0,0,1,.15.94,2.78,2.78,0,0,1-.24,1.17,3.1,3.1,0,0,1-.74,1,3.28,3.28,0,0,1-1.11.64,5.73,5.73,0,0,1-3.19,0,5.24,5.24,0,0,1-1.35-.55,6.06,6.06,0,0,1-1.18-1,5,5,0,0,1-.85-1.25l-.71-1.38L0,30.9l.35.75a7.64,7.64,0,0,0,1.39,2.08A8.62,8.62,0,0,0,3.8,35.36a9.84,9.84,0,0,0,2.53,1,11.49,11.49,0,0,0,3,.37A11.29,11.29,0,0,0,13,36.15a9.35,9.35,0,0,0,2.82-1.63,8.05,8.05,0,0,0,1.79-2.36,6.51,6.51,0,0,0,.62-2.81,6.58,6.58,0,0,0-.34-2.21"/><path class="cls-1" d="M39.83,24.82v-12h4.68v23.4H42.17L39.83,33.9a11.66,11.66,0,0,1-7,2.34,11.66,11.66,0,0,1-11.7-11.7V12.84h4.68v11.7a7,7,0,0,0,7,7,7,7,0,0,0,7-6.74"/><path class="cls-1" d="M67.47,19.66a6.65,6.65,0,0,0-4.91-2,7,7,0,0,0-7,6.74v12H50.86V13H53.2l2.34,2.34a11.66,11.66,0,0,1,7-2.34,11.23,11.23,0,0,1,9.36,4.68A11.12,11.12,0,0,1,81.28,13,11.66,11.66,0,0,1,93,24.66V36.37H88.3V24.66a7,7,0,0,0-14,0V36.37H69.58V24.66a6.6,6.6,0,0,0-2.11-5"/><path class="cls-1" d="M107.49,36.37a11.66,11.66,0,0,1-11.7-11.71A11.66,11.66,0,0,1,107.49,13a11.66,11.66,0,0,1,7,2.34V13h4.68V36.37h-2.34L114.51,34a11.45,11.45,0,0,1-7,2.34m0-4.68a7,7,0,0,0,5-12,7,7,0,0,0-9.93,9.93,6.88,6.88,0,0,0,5,2.06"/><path class="cls-1" d="M147.67,45.27a7.16,7.16,0,0,0-2.46-4.71,10.65,10.65,0,0,0-7.13-2.19,25.57,25.57,0,0,0-3.9.45,25.78,25.78,0,0,1-3.88.45c-1.89,0-2.83-.4-2.83-1.19,0-.57.45-1,1.36-1.4a9.28,9.28,0,0,1,2.17-.62l4.53-.46A11.49,11.49,0,0,0,143.2,32a11.22,11.22,0,0,0,2.92-7.86A11.48,11.48,0,0,0,144,16.92l3.29-2.49-3.58-3.38L141,14.35a11.88,11.88,0,0,0-7.14-1.88,11.62,11.62,0,0,0-8.36,3.24,10.73,10.73,0,0,0-3.38,8.09q0,7.57,6.53,10.64a9.78,9.78,0,0,0-3.83,1.79A3.56,3.56,0,0,0,123.25,39c0,3.31,2.19,5,6.59,5a21.55,21.55,0,0,0,3.79-.46,21.14,21.14,0,0,1,3.35-.46q4.17,0,5.14,2.21s.84,3,3.09,2.6c0,0,2.76,0,2.46-2.6M127.73,23.83a7.06,7.06,0,0,1,1.81-4.91,6,6,0,0,1,4.66-2,5.66,5.66,0,0,1,4.44,2,7.13,7.13,0,0,1,1.78,4.91,8.42,8.42,0,0,1-1.65,5.42,5.52,5.52,0,0,1-4.57,2.07,5.78,5.78,0,0,1-4.72-2.13,8.12,8.12,0,0,1-1.75-5.36"/><path class="cls-1" d="M165.5,29.5l3.32,3.32a11.7,11.7,0,0,1-20-8.28,11.72,11.72,0,1,1,23.21,2.34H153.89a7.52,7.52,0,0,0,1.69,2.62,7,7,0,0,0,9.92,0m-9.92-9.92a7.81,7.81,0,0,0-1.69,2.62h13.3a6.53,6.53,0,0,0-1.69-2.62,7,7,0,0,0-9.92,0"/><path class="cls-1" d="M179.91,24.26v12h-4.68V12.84h2.34l2.34,2.34a11.56,11.56,0,0,1,7-2.34,11.66,11.66,0,0,1,11.7,11.7v11.7H194V24.54a7,7,0,0,0-7-7,7,7,0,0,0-7,6.74"/><path class="cls-1" d="M52.25,4.48A4.48,4.48,0,1,1,47.77,0a4.48,4.48,0,0,1,4.48,4.48"/><path class="cls-1" d="M18.27,44l.77.78A3.89,3.89,0,0,1,21.37,44v1.55A2.36,2.36,0,0,0,19,47.9v3.88H17.49V44Z"/><path class="cls-1" d="M36.65,49.55l1.1,1.1a3.85,3.85,0,1,1,1.07-2h-6a2.37,2.37,0,0,0,.56.87,2.33,2.33,0,0,0,3.29,0m-3.29-3.29a2.45,2.45,0,0,0-.56.87h4.41a2.21,2.21,0,0,0-.56-.87,2.31,2.31,0,0,0-3.29,0"/><path class="cls-1" d="M53.65,52.06a3.88,3.88,0,1,1,0-7.76,3.8,3.8,0,0,1,2.33.78V44.3h1.55v7.76h-.77L56,51.28a3.74,3.74,0,0,1-2.33.78m0-1.55A2.34,2.34,0,1,0,52,49.83a2.27,2.27,0,0,0,1.64.68"/><path class="cls-1" d="M71.26,44.25v1.56H69.71v2.9A1.7,1.7,0,0,0,70.22,50a1.66,1.66,0,0,0,1.23.51V52a3.15,3.15,0,0,1-2.33-1,3.18,3.18,0,0,1-1-2.34V40.37h1.55v3.88Z"/><path class="cls-1" d="M83.08,40.53a1,1,0,0,1,.94.95.83.83,0,0,1-.28.65.87.87,0,0,1-.66.28.82.82,0,0,1-.65-.28.83.83,0,0,1-.28-.65.89.89,0,0,1,.28-.67.82.82,0,0,1,.65-.28m.77,11.64H82.3V44.41h1.55Z"/><polygon class="cls-1" points="96.18 44.3 98.7 50.1 101.22 44.3 102.9 44.3 99.54 52.06 97.85 52.06 94.48 44.3 96.18 44.3"/><path class="cls-1" d="M116.18,52.06a3.88,3.88,0,1,1,0-7.76,3.82,3.82,0,0,1,2.33.78V44.3h1.55v7.76h-.78l-.77-.78a3.74,3.74,0,0,1-2.33.78m0-1.55a2.34,2.34,0,1,0-1.64-.68,2.27,2.27,0,0,0,1.64.68"/></g></g></svg>