<svg xmlns="http://www.w3.org/2000/svg" viewBox="0 0 231.05 109.85"><defs><style>.cls-1{fill:#fff;}</style></defs><g id="Capa_2" data-name="Capa 2"><g id="Capa_1-2" data-name="Capa 1"><path class="cls-1" d="M10,84.32Q6.29,81.08,6.29,74.7V42.8L0,40.11H11.91a3.37,3.37,0,0,1,3.37,3.37v31a12,12,0,0,0,1.88,7.19A6.73,6.73,0,0,0,23,84.32a13.52,13.52,0,0,0,8-2.74,30.54,30.54,0,0,0,6.78-6.79v-32l-6.29-2.69H43.36a3.37,3.37,0,0,1,3.37,3.37V84L53,86.65H37.74V78A23.85,23.85,0,0,1,30,85a19.89,19.89,0,0,1-9.75,2.51Q13.74,87.55,10,84.32Z"/><path class="cls-1" d="M63,84V42.8l-6.29-2.69h11.9A3.37,3.37,0,0,1,72,43.48v6.33a26.91,26.91,0,0,1,7.82-7.68,17.83,17.83,0,0,1,9.7-2.83q6.48,0,10.2,3.23t3.73,9.62V84l6.29,2.69H89L94.42,84V52.33q0-4.68-1.89-7.24a6.8,6.8,0,0,0-5.84-2.56,12.71,12.71,0,0,0-8,3A32.35,32.35,0,0,0,72,53V84l5.39,2.69H56.68Z"/><path class="cls-1" d="M125.71,31.64H112.38l6.29,2.69V84l-6.29,2.69h21.56L127.65,84V33.58A1.94,1.94,0,0,0,125.71,31.64Z"/><path class="cls-1" d="M175.55,73a17.1,17.1,0,0,1-6.25,10.6,18.8,18.8,0,0,1-12.08,4,23.35,23.35,0,0,1-11.77-3,21.77,21.77,0,0,1-8.4-8.54,25.31,25.31,0,0,1-3.11-12.62,24.79,24.79,0,0,1,3.28-12.94,22,22,0,0,1,8.59-8.31,23.79,23.79,0,0,1,11.41-2.83,24.1,24.1,0,0,1,9.34,1.75,16.18,16.18,0,0,1,6.7,4.9,11.23,11.23,0,0,1,2.47,7.1,6.22,6.22,0,0,1-1.53,4.53,5.39,5.39,0,0,1-4,1.58,6,6,0,0,1-1-.09,5.75,5.75,0,0,1-2-.21,6,6,0,0,1-.32-11.52,6.67,6.67,0,0,0-2.51-4,11,11,0,0,0-7.05-2.11q-6.48,0-9.93,4.62t-3.46,13v9q0,8,3.37,12.85c2.25,3.24,5.58,4.85,10,4.85a17.06,17.06,0,0,0,10.65-3.46C170.89,79.81,175.55,73,175.55,73Z"/><path class="cls-1" d="M223.66,83.79a4.88,4.88,0,0,1-2.46.89,3,3,0,0,1-2.48-1,4.62,4.62,0,0,1-.85-3V54.93q0-15.63-18-15.63-7.82,0-13,3.14t-5.21,8.36a6.88,6.88,0,0,0,.57,3,6,6,0,1,0,8.23-6.3v-.07a5.41,5.41,0,0,1,2.07-4.45c1.38-1.11,3.47-1.66,6.29-1.66a13.68,13.68,0,0,1,5.84,1,6.43,6.43,0,0,1,3.19,3.59,20,20,0,0,1,1,7.24v6.92h-6a36.37,36.37,0,0,0-16.44,3.54q-7.09,3.56-7.1,12c0,4,1.23,6.94,3.69,8.94a14.39,14.39,0,0,0,9.43,3,19.2,19.2,0,0,0,9.84-2.6,16.15,16.15,0,0,0,6.6-7.19c.06,3.35,1,5.82,2.92,7.41a10.45,10.45,0,0,0,7,2.38,8.13,8.13,0,0,0,5.61-1.8,6.25,6.25,0,0,0,2-4.94A23,23,0,0,1,223.66,83.79ZM208.88,71.38a14.25,14.25,0,0,1-2.15,6.6,12.57,12.57,0,0,1-4.36,4.18,10.16,10.16,0,0,1-5,1.44q-4.49,0-6.83-2.07c-1.56-1.38-2.33-3.71-2.33-7q0-5.92,3.64-9.21t11-3.28h6Z"/><circle class="cls-1" cx="24.18" cy="43.1" r="3.8"/><path class="cls-1" d="M231.05,52.41a17.32,17.32,0,0,1-8.49,9,17.78,17.78,0,0,1-4.69,1.49V60.69a15.5,15.5,0,0,0,3.76-1.24c3.26-1.57,8.31-7,9-7A3.15,3.15,0,0,0,231.05,52.41Z"/><path class="cls-1" d="M132.63,1.31A4.45,4.45,0,0,0,128.88,0a4.66,4.66,0,0,0-2.71,1.4L122.8,4.8l-3.36-3.36A4.72,4.72,0,0,0,116.72,0,4.46,4.46,0,0,0,113,1.31a4.52,4.52,0,0,0-1.27,3.75,4.69,4.69,0,0,0,1.4,2.71l6.38,6.39a5.08,5.08,0,0,0,2.82,1.42h0l.49,0h0a4.08,4.08,0,0,0,3-1.18l6.65-6.66a4.69,4.69,0,0,0,1.4-2.71A4.49,4.49,0,0,0,132.63,1.31Zm-8.26,11.38a2.08,2.08,0,0,1-.7.48l-.07,0-.16.05-.27.06-.22,0-.15,0a2.39,2.39,0,0,1-.87-.19l-.06,0a2.11,2.11,0,0,1-.63-.44l-6.55-6.54a2.32,2.32,0,0,1,0-3.3,2.21,2.21,0,0,1,3,.07l6.74,6.73v0a4.41,4.41,0,0,0,1.92,1.1Z"/><path class="cls-1" d="M75.14,106.14a.82.82,0,0,1-.26-.62.85.85,0,0,1,.26-.63.85.85,0,0,1,1.24,0,.89.89,0,0,1,.26.63.85.85,0,0,1-.26.62.85.85,0,0,1-1.24,0Z"/><path class="cls-1" d="M155.45,106.14a.83.83,0,0,1-.27-.62.86.86,0,0,1,.27-.63.84.84,0,0,1,1.23,0,.86.86,0,0,1,.27.63.87.87,0,0,1-1.5.62Z"/><path class="cls-1" d="M88.36,103.91v1.6H91.9V107H88.36v2.87H86.73v-7.41h5.65v1.47Z"/><path class="cls-1" d="M112.1,109.85v-7.41h5.58v1.45h-4v1.51h3.5v1.45h-3.5v1.55h4v1.45Z"/><path class="cls-1" d="M143.42,109.85V105l-2.08,3.17h0l-2.07-3.13v4.8h-1.61v-7.41h1.76l2,3.14,1.95-3.14H145v7.41Z"/></g></g></svg>