<svg xmlns="http://www.w3.org/2000/svg" viewBox="0 0 74.28 85.01"><defs><style>.cls-1{fill:#fff;}</style></defs><g id="Capa_2" data-name="Capa 2"><g id="Capa_1-2" data-name="Capa 1"><path class="cls-1" d="M52.9,73c.49,0,1.36,0,2.22,0a6.06,6.06,0,0,1,6.07,6c.07,1.26,0,2.53,0,3.79.05,1.6-.67,2.25-2.29,2.24-6.77,0-13.53,0-20.3,0q-11.48,0-23,0c-2.31,0-2.62-.31-2.64-2.61,0-.95,0-1.9,0-2.85.1-4.17,2.48-6.51,6.68-6.59h2.2c0-1.09,0-2.06,0-3,.07-3.73,2.41-6.18,6.15-6.26s7.59,0,11.38,0h2.36c0-2.92.12-5.68,0-8.42a5.11,5.11,0,0,1,2.35-4.86,28.68,28.68,0,0,0,6.14-6.85A52.65,52.65,0,0,0,58,21.12c.05-.38.07-.76.12-1.13.15-1,.47-1.92,1.74-1.79s1.43,1.08,1.26,2.11c-.47,2.8-.83,5.63-1.5,8.38-.74,3.06-1.76,6-2.66,9,7.63-.06,15.91-14.85,14-25.45-3.17,0-6.38,0-9.59,0-2.32,0-2.6-.32-2.6-2.65V3.22H15.59c0,4-.23,8,.05,12A68,68,0,0,0,20.93,38c2.35,5.33,5.38,10.16,10.49,13.35a1.81,1.81,0,0,1,.88,1.15,64.27,64.27,0,0,1,0,6.8c0,.42-1,1.1-1.44,1.08s-.94-.77-1.38-1.23c-.1-.11-.08-.38-.05-.55.72-3.59-1-5.83-3.65-8.12-2.32-2-3.85-4.94-5.78-7.43a4.13,4.13,0,0,0-1.74-1.5C8.16,38.59,2.73,31.54.8,21.59A80.89,80.89,0,0,1,0,11.6C-.1,9.92.73,9.2,2.41,9.22c3.27,0,6.54,0,10.07,0,0-2.4,0-4.6,0-6.79C12.42.65,13.2,0,15,0q22.2.06,44.39,0c1.68,0,2.46.63,2.42,2.33,0,2.2,0,4.4,0,6.9h9c3.25,0,3.45.19,3.47,3.41,0,6-.76,11.85-3.64,17.24A23.16,23.16,0,0,1,56.5,41.43a4.17,4.17,0,0,0-2.22,1.71,35,35,0,0,1-8.14,9.65,3.82,3.82,0,0,0-1.21,2.48c-.15,2.69,0,5.4,0,8.19,2.59.13,5.14.44,6.27,2.75C52.1,68.16,52.29,70.48,52.9,73ZM58,81.88C58.55,77,57.67,76,53.06,76H20.82c-4.19,0-5.47,1.7-4.4,5.89ZM3.15,12.39C2.1,24.27,9,36.51,17.53,37.87a76.87,76.87,0,0,1-5.11-25.48ZM49.28,72.74c0-1.2.07-2.21,0-3.21a2.71,2.71,0,0,0-2.76-2.8c-6.24-.07-12.48-.06-18.72,0A2.67,2.67,0,0,0,25,69.3a28,28,0,0,0,0,3.44Z"/><path class="cls-1" d="M27.87,36.35a25.22,25.22,0,0,1,.63-3.62A3.08,3.08,0,0,0,27.32,29a9.94,9.94,0,0,1-2.39-2.41c-.52-.82-1.06-2.08-.77-2.85s1.5-1.45,2.4-2A2.42,2.42,0,0,1,28,21.41c3.32.29,5-1.52,6-4.43a2.12,2.12,0,0,1,.51-1c.84-.67,1.75-1.73,2.63-1.74A4.12,4.12,0,0,1,39.76,16a13.43,13.43,0,0,1,1.77,3.53,2.36,2.36,0,0,0,2.24,1.65,14.75,14.75,0,0,1,3.73.58,4.66,4.66,0,0,1,2.59,2,3.26,3.26,0,0,1-.88,2.94C46,29.15,44.78,32,46.13,36a3.49,3.49,0,0,1-1.19,3,3.26,3.26,0,0,1-3.09,0c-3.33-2.56-6.36-2.21-9.71,0C30.05,40.4,27.79,38.88,27.87,36.35ZM37.5,17.57c-1.67,2.11-7.58,6.36-10.23,7.38,4.62,2.61,5.56,6.4,3.74,11.35,4.13-3.62,8-3.26,12.17-.08-1.92-4.95-.67-8.64,3.83-11.5C41.74,24.94,38.52,22.75,37.5,17.57Z"/></g></g></svg>