<svg xmlns="http://www.w3.org/2000/svg" viewBox="0 0 99.44 88.93"><defs><style>.cls-1{fill:#fff;}</style></defs><g id="Capa_2" data-name="Capa 2"><g id="Capa_1-2" data-name="Capa 1"><path class="cls-1" d="M76.12,69.39c4.95,5,9.78,9.82,14.65,14.64a2.6,2.6,0,0,0,4,.17c1.13-1.12,1.1-2.61-.18-4C92.8,78.43,91,76.67,89.2,74.89c-1-1-1.6-2-.47-3.19s2.22-.58,3.19.39c1.82,1.84,3.7,3.62,5.47,5.51,2.71,2.88,2.7,6.77.07,9.38a6.46,6.46,0,0,1-9.38-.14c-4.77-4.65-9.46-9.39-14.15-14.13a1.83,1.83,0,0,0-2.48-.47c-9.71,4.53-19,3.66-27.25-3.16-8.38-7-11-16.11-8.12-26.71.08-.31.13-.62.26-1.2H8.75C3.12,41.16,0,38.05,0,32.39Q0,20.56,0,8.71C0,3.18,3.15.05,8.65,0h6.6c1.34,0,2.35.48,2.33,2S16.52,3.91,15.2,3.91c-2.27,0-4.53,0-6.8,0-3,0-4.48,1.46-4.49,4.37q0,12.32,0,24.64c0,2.83,1.51,4.33,4.33,4.34q14.37,0,28.73,0a2.42,2.42,0,0,0,1.73-.8,27,27,0,0,1,10.75-9.6l-3.52-6.92c-1,2.11-1.81,4-2.84,5.71a3.62,3.62,0,0,1-2.16,1.79c-.63.07-1.61-.93-2-1.68-1.62-2.87-3.07-5.83-4.59-8.75-.65-1.24-.78-2.42.66-3.14s2.18.17,2.77,1.3c1,1.93,2,3.86,3.18,6.06,1.06-2.18,1.91-4.13,3-5.95.39-.69,1.27-1.52,1.93-1.53a3,3,0,0,1,2,1.47c1.14,1.86,2.07,3.83,3.21,6,.93-1.9,1.71-3.52,2.51-5.13.65-1.32,1.13-3,3.17-2.24,1.36.51,1.41,1.69.3,4L53.54,25l10.05-.68-3.17-6.19a16.38,16.38,0,0,1-.86-1.73c-.4-1.11-.21-2.27,1-2.53a2.79,2.79,0,0,1,2.39.87c1.26,1.92,2.22,4,3.51,6.47,1-2.14,1.81-4,2.82-5.77.44-.75,1.32-1.69,2-1.71s1.64.87,2.09,1.6c1.09,1.75,2,3.64,3.1,5.83.86-1.72,1.58-3.17,2.31-4.62.31-.64.47-1.5,1-1.86.68-.49,1.84-1,2.41-.74a2.5,2.5,0,0,1,.91,2.32c-1.49,3.5-3.13,7-4.9,10.31-.82,1.55-2.56,1.31-3.51-.39-1.09-1.95-2.07-4-3.26-6.25L68.6,25.77c1.3.63,2.52,1.17,3.69,1.81a26.52,26.52,0,0,1,9.18,8.47,3.14,3.14,0,0,0,2.09,1.18c2.52.14,5,.07,7.57,0,2.84,0,4.39-1.49,4.4-4.26q0-12.42,0-24.84c0-2.89-1.61-4.26-4.81-4.26H34.42c-2.71,0-3.86-.58-3.67-2C31-.35,32.85,0,34.37,0H90.29c6.16,0,9.14,3,9.14,9.16q0,11.64,0,23.29c0,5.54-3.13,8.67-8.63,8.7H84.08C87.3,52.27,84.66,61.59,76.12,69.39Zm5.43-19.61A21.35,21.35,0,1,0,60.14,71,21.41,21.41,0,0,0,81.55,49.78Z"/><path class="cls-1" d="M25.49,21.23c1-2.12,1.94-4,2.83-5.82.57-1.19,1.32-2.26,2.81-1.58s1.31,2,.69,3.29c-1.4,2.91-2.73,5.86-4.25,8.7a3.24,3.24,0,0,1-2.08,1.63c-.6.05-1.51-.84-1.92-1.53-1.1-1.82-2-3.75-3.16-5.94-1,2.12-1.86,4.05-2.91,5.83a3.38,3.38,0,0,1-2.07,1.63c-.61.06-1.54-.83-1.93-1.52C11.86,23,10.37,20,8.82,17c-.64-1.23-.79-2.43.65-3.14s2.18.16,2.78,1.29c1,1.93,2,3.87,3.16,6.07,1-2.11,1.84-4,2.87-5.77.43-.75,1.32-1.68,2-1.69s1.63.87,2.08,1.6C23.49,17.16,24.37,19.09,25.49,21.23Z"/><path class="cls-1" d="M85.56,65.62c.85,1.35,1.74,2.15,1.69,2.88S86,70.26,85.47,70.15a2.83,2.83,0,0,1-1.8-1.89C83.58,67.66,84.6,66.89,85.56,65.62Z"/><path class="cls-1" d="M26.7,2.34c-.76.51-1.52,1.44-2.26,1.41S23.19,2.64,22.56,2c.65-.65,1.23-1.7,2-1.85.59-.11,1.4.87,2.11,1.36Z"/><path class="cls-1" d="M77.29,49.74a17.09,17.09,0,1,1-17-17.11A17.13,17.13,0,0,1,77.29,49.74ZM60.14,62.89A13.19,13.19,0,1,0,47,49.6,13.24,13.24,0,0,0,60.14,62.89Z"/><path class="cls-1" d="M61,41.07A8.56,8.56,0,0,1,68.86,49c.08,1.32-.2,2.4-1.66,2.57s-2-.73-2.14-2a4.9,4.9,0,0,0-4.71-4.75c-1.21-.15-2.15-.73-2-2.09S59.53,40.94,61,41.07Z"/></g></g></svg>