<svg xmlns="http://www.w3.org/2000/svg" viewBox="0 0 79.81 79.83"><defs><style>.cls-1{fill:#2a7eeb;}.cls-2{fill:#fefefe;}</style></defs><g id="Capa_2" data-name="Capa 2"><g id="Capa_1-2" data-name="Capa 1"><path class="cls-1" d="M33.63,79.15A33.5,33.5,0,0,1,18.47,73.5C5.64,64.93-.61,52.82.05,37.42.82,19.22,15,3.51,33.05.55A39.94,39.94,0,0,1,79.39,34.17C82.5,55.06,68,75.38,47.33,79.08a10,10,0,0,1-1.23.07c0-8.78,0-17.56,0-26.34,0-1.18.32-1.49,1.47-1.44,2.23.09,4.47,0,6.7.05.92,0,1.24-.26,1.36-1.16.41-3,.9-6.06,1.4-9.07.16-1,0-1.39-1.13-1.36-2.91.08-5.82,0-8.73.05-.81,0-1.08-.23-1.06-1.05.05-2.18,0-4.37,0-6.55.08-3.79,2.2-6,6-6.11,1.51-.07,3-.05,4.52,0,.71,0,1-.16,1-.94,0-2.65,0-5.3,0-7.95,0-.66-.13-1-.91-1.11a60.33,60.33,0,0,0-9.31-.6,13.56,13.56,0,0,0-13.52,12c-.54,3.62-.21,7.25-.23,10.88,0,1.2-.36,1.48-1.49,1.44-2.44-.09-4.88,0-7.32,0-1,0-1.37.2-1.35,1.28q.1,4.52,0,9c0,1.09.4,1.28,1.36,1.26,2.44,0,4.88.05,7.32,0,1.15,0,1.48.26,1.47,1.44C33.6,61.59,33.63,70.37,33.63,79.15Z"/><path class="cls-2" d="M33.63,79.15c0-8.78,0-17.56,0-26.34,0-1.18-.32-1.48-1.47-1.44-2.44.09-4.88,0-7.32,0-1,0-1.39-.17-1.36-1.26q.1-4.51,0-9c0-1.08.38-1.3,1.35-1.28,2.44.06,4.88,0,7.32,0,1.13,0,1.48-.24,1.49-1.44,0-3.63-.31-7.26.23-10.88a13.56,13.56,0,0,1,13.52-12,60.33,60.33,0,0,1,9.31.6c.78.09.91.45.91,1.11,0,2.65,0,5.3,0,8,0,.78-.3,1-1,.94-1.51,0-3,0-4.52,0-3.81.16-5.93,2.32-6,6.11,0,2.18,0,4.37,0,6.55,0,.82.25,1.06,1.06,1.05,2.91,0,5.82,0,8.73-.05,1.12,0,1.29.39,1.13,1.36-.5,3-1,6-1.4,9.07-.12.9-.44,1.19-1.36,1.16-2.23-.07-4.47,0-6.7-.05-1.15,0-1.48.26-1.47,1.44,0,8.78,0,17.56,0,26.34-.85.66-1.93.43-2.83.49C40.06,79.85,36.8,80.06,33.63,79.15Z"/></g></g></svg>