<svg xmlns="http://www.w3.org/2000/svg" viewBox="0 0 79.87 79.87"><defs><style>.cls-1{fill:#fff;}.cls-2{fill:#3a8ed6;}.cls-3{fill:#f9ba40;}.cls-4{fill:#36a653;}</style></defs><g id="Capa_2" data-name="Capa 2"><g id="Capa_1-2" data-name="Capa 1"><circle class="cls-1" cx="39.93" cy="39.93" r="39.93"/><path class="cls-2" d="M30.86,21.66c1.34-3.68,3.75-6.2,7.73-6.77A8.7,8.7,0,0,1,48,19.35q9.3,15.87,18.4,31.85a9.27,9.27,0,1,1-16.2,9Q45.35,52,40.58,43.67c-.19-.33-.41-.64-.62-1-2.21-3.88-4.34-7.82-6.67-11.64C31.51,28.15,30.14,25.19,30.86,21.66Z"/><path class="cls-3" d="M30.86,21.66c-.72,3.53.65,6.49,2.43,9.41,2.33,3.82,4.46,7.76,6.67,11.64Q35.69,50,31.4,57.35a2.85,2.85,0,0,1-.77,1.1,8.59,8.59,0,0,1,.08-1,9.3,9.3,0,0,0-12-10.52,16.57,16.57,0,0,0-4,2.43c1.47-3,3.24-5.73,4.88-8.58,3.49-6.07,7-12.12,10.54-18.18C30.29,22.24,30.41,21.8,30.86,21.66Z"/><path class="cls-4" d="M14.67,49.35a16.57,16.57,0,0,1,4-2.43,9.3,9.3,0,0,1,12,10.52,8.59,8.59,0,0,0-.08,1h0c-.27.09-.23.32-.24.52C28.76,62.57,26.07,64.82,22,65a8.78,8.78,0,0,1-8.39-4.48A9,9,0,0,1,13.58,51c.24-.43.53-.83.8-1.25.19-.1.33-.22.3-.46Z"/><path class="cls-3" d="M14.68,49.33c0,.24-.11.36-.3.46Z"/><path class="cls-3" d="M30.4,59c0-.2,0-.43.24-.52A.57.57,0,0,1,30.4,59Z"/></g></g></svg>