<svg xmlns="http://www.w3.org/2000/svg" xmlns:xlink="http://www.w3.org/1999/xlink" viewBox="0 0 79.83 79.83"><defs><style>.cls-1{fill:url(#Degradado_sin_nombre_4);}.cls-2{fill:url(#Degradado_sin_nombre_3);}</style><radialGradient id="Degradado_sin_nombre_4" cx="1.75" cy="78.33" r="102.16" gradientUnits="userSpaceOnUse"><stop offset="0" stop-color="#ffda79"/><stop offset="0.26" stop-color="#ff9537"/><stop offset="0.49" stop-color="#ff3172"/><stop offset="0.75" stop-color="#a530af"/><stop offset="0.99" stop-color="#5356d2"/></radialGradient><linearGradient id="Degradado_sin_nombre_3" x1="39.91" y1="12.98" x2="39.91" y2="68.85" gradientUnits="userSpaceOnUse"><stop offset="0" stop-color="#fff"/><stop offset="1" stop-color="#fff"/></linearGradient></defs><g id="Capa_2" data-name="Capa 2"><g id="Capa_1-2" data-name="Capa 1"><circle class="cls-1" cx="39.91" cy="39.91" r="39.91"/><path class="cls-2" d="M39.91,17.4c7.34,0,8.21,0,11.1.16a15.08,15.08,0,0,1,5.1.94,9.11,9.11,0,0,1,5.21,5.21,15.07,15.07,0,0,1,1,5.1c.13,2.9.16,3.77.16,11.1s0,8.21-.16,11.1a15,15,0,0,1-1,5.1,9,9,0,0,1-5.21,5.21,15,15,0,0,1-5.1,1c-2.89.13-3.76.16-11.1.16s-8.2,0-11.1-.16a15.07,15.07,0,0,1-5.1-1,9.11,9.11,0,0,1-5.21-5.21,15.08,15.08,0,0,1-.94-5.1c-.14-2.89-.16-3.76-.16-11.1s0-8.2.16-11.1a15.14,15.14,0,0,1,.94-5.1,9.19,9.19,0,0,1,5.21-5.21,15.14,15.14,0,0,1,5.1-.94c2.9-.14,3.77-.16,11.1-.16m0-4.95c-7.46,0-8.39,0-11.32.16a20,20,0,0,0-6.67,1.28,13.3,13.3,0,0,0-4.86,3.17,13.38,13.38,0,0,0-3.17,4.86,20,20,0,0,0-1.28,6.67c-.13,2.93-.16,3.86-.16,11.32s0,8.4.16,11.33a20,20,0,0,0,1.28,6.66,14.07,14.07,0,0,0,8,8,20.07,20.07,0,0,0,6.67,1.27c2.93.14,3.86.17,11.32.17s8.4,0,11.33-.17a20,20,0,0,0,6.66-1.27,14,14,0,0,0,8-8,20,20,0,0,0,1.27-6.66c.14-2.93.17-3.87.17-11.33s0-8.39-.17-11.32a20.07,20.07,0,0,0-1.27-6.67,14.07,14.07,0,0,0-8-8,20,20,0,0,0-6.66-1.28c-2.93-.13-3.87-.16-11.33-.16Zm0,13.36A14.11,14.11,0,1,0,54,39.91,14.1,14.1,0,0,0,39.91,25.81Zm0,23.26a9.16,9.16,0,1,1,9.16-9.16A9.16,9.16,0,0,1,39.91,49.07ZM54.57,22a3.3,3.3,0,1,0,3.3,3.29A3.29,3.29,0,0,0,54.57,22Z"/></g></g></svg>