<svg xmlns="http://www.w3.org/2000/svg" viewBox="0 0 81.05 81.05"><defs><style>.cls-1{fill:#fdfdfe;}.cls-2{fill:#4d8efa;}.cls-3{fill:#4b8dfa;}</style></defs><g id="Capa_2" data-name="Capa 2"><g id="Capa_1-2" data-name="Capa 1"><circle class="cls-1" cx="40.53" cy="40.53" r="40.53"/><g id="chTEJ1"><path class="cls-2" d="M67.46,27.66a23.5,23.5,0,0,1,2.44,7.15,29.93,29.93,0,1,1-33.63-24,29.28,29.28,0,0,1,17.27,2.68c.86.41,1.26.74.28,1.49a6.24,6.24,0,0,0-2,2.64c-.36.89-.78.79-1.51.49-8.47-3.51-16.54-2.69-24.07,2.5A24.53,24.53,0,1,0,64.86,37.94a24.25,24.25,0,0,0-1.56-6.33c-.16-.4-.42-.83.23-1.08A10.19,10.19,0,0,0,67.46,27.66Z"/><path class="cls-3" d="M40.52,26.94a13.65,13.65,0,1,1-13.6,13.64A13.47,13.47,0,0,1,40.52,26.94Z"/><path class="cls-2" d="M53.94,21.79A6.18,6.18,0,1,1,60,28.07,6.24,6.24,0,0,1,53.94,21.79Z"/></g></g></g></svg>