<svg xmlns="http://www.w3.org/2000/svg" viewBox="0 0 79.85 79.85"><defs><style>.cls-1{fill:#fb312e;}.cls-2{fill:#fff;}</style></defs><g id="Capa_2" data-name="Capa 2"><g id="Capa_1-2" data-name="Capa 1"><circle class="cls-1" cx="39.92" cy="39.92" r="39.92"/><g id="wfpDv1"><path class="cls-2" d="M12.78,18a1.42,1.42,0,0,1,.73-.79L24.85,10.7a1.06,1.06,0,0,1,1.16,0c3.7,2.14,7.39,4.28,11.11,6.39a1.6,1.6,0,0,1,.93,1.6c0,8,0,16.07,0,24.11v.28c.09,0,.14,0,.2-.07l9.33-5.37a.3.3,0,0,0,.18-.33c0-4.12,0-8.23,0-12.34a1.18,1.18,0,0,1,.64-1.12l11.4-6.56a1.09,1.09,0,0,1,1.2,0q5.66,3.27,11.33,6.52A1.24,1.24,0,0,1,73,25q0,6.45,0,12.91a1.16,1.16,0,0,1-.65,1.11l-10.78,6.2a.39.39,0,0,0-.24.4c0,4.1,0,8.2,0,12.29a1.15,1.15,0,0,1-.65,1.13q-11.49,6.6-23,13.22a1.23,1.23,0,0,1-1.35,0Q24.88,65.65,13.35,59a1.25,1.25,0,0,1-.57-.69ZM36.09,69.86V58.94a.37.37,0,0,0-.23-.38L25.12,52.49a1.23,1.23,0,0,1-.69-1.18q0-12.78,0-25.56a.4.4,0,0,0-.25-.41L16,20.62l-1.27-.73V57.3a.38.38,0,0,0,.23.4L34.19,68.78ZM59.4,46.51l-.25.13L38.23,58.58a.32.32,0,0,0-.2.35V69.86l.28-.15,20.88-12a.35.35,0,0,0,.21-.37c0-3.51,0-7,0-10.54Zm-1-1.69-.24-.15c-3.08-1.77-6.17-3.54-9.24-5.32a.36.36,0,0,0-.42,0L28.86,50.67l-1.49.85.17.1,9.29,5.27a.39.39,0,0,0,.45,0L57.93,45.1Zm-32,5,.17-.1,9.37-5.39a.31.31,0,0,0,.17-.32V19.9l-.24.13L26.6,25.35a.4.4,0,0,0-.23.4q0,11.91,0,23.82Zm43.69-25-.28-.17-9.22-5.31a.35.35,0,0,0-.4,0l-7.52,4.33-2,1.14.24.15c3.07,1.77,6.15,3.53,9.22,5.31a.41.41,0,0,0,.48,0l7.07-4.07Zm-35-6.59L35,18.14l-9.43-5.43a.29.29,0,0,0-.34,0l-9.28,5.34c-.07,0-.17.06-.19.16l.08.05,9.42,5.43a.3.3,0,0,0,.34,0L33,19.45ZM61.34,43.11a.34.34,0,0,0,.21-.09l9.31-5.35a.34.34,0,0,0,.19-.35V26.5l-.15.08L61.49,32a.29.29,0,0,0-.15.3V43.11ZM49.68,26.49v.17c0,3.57,0,7.14,0,10.7a.29.29,0,0,0,.18.29l9,5.16.58.33v-.29c0-3.5,0-7,0-10.49a.43.43,0,0,0-.24-.43q-4.3-2.46-8.59-4.94Z"/></g></g></g></svg>