<svg xmlns="http://www.w3.org/2000/svg" viewBox="0 0 79.87 79.87"><defs><style>.cls-1{fill:#fff;}.cls-2{fill:#1c6bcc;}</style></defs><g id="Capa_2" data-name="Capa 2"><g id="Capa_1-2" data-name="Capa 1"><circle class="cls-1" cx="39.93" cy="39.93" r="39.93"/><path class="cls-2" d="M39.93,38.59c-1.17,2.08-2.25,4.06-3.37,6a99,99,0,0,1-5.9,9.72,18.17,18.17,0,0,1-6.38,5.78c-5.08,2.56-13.56,1-15.68-7.26a32.44,32.44,0,0,1-.15-13.56,32.33,32.33,0,0,1,4.64-12.08,19.76,19.76,0,0,1,6.64-6.75c4.5-2.62,9-2.35,13.45.15a24.09,24.09,0,0,1,7.14,6.27c.44.57.6.44,1,0a26.69,26.69,0,0,1,6.38-6.3,11.92,11.92,0,0,1,13.26.18,22.17,22.17,0,0,1,8.28,10.69A38.07,38.07,0,0,1,72,47.16a22.57,22.57,0,0,1-1.68,7.67,10.54,10.54,0,0,1-16.74,3.75,39.12,39.12,0,0,1-6.32-8c-2.32-3.73-4.58-7.51-6.87-11.26C40.29,39.13,40.14,38.92,39.93,38.59ZM66.09,47a36,36,0,0,0-2.7-14.1c-1-2.46-2.22-4.87-4.35-6.6-3.4-2.77-7.61-3.26-11,.23a40.14,40.14,0,0,0-4,5.07.66.66,0,0,0,0,.85c3.21,4.82,6.26,9.75,9.29,14.68a23.57,23.57,0,0,0,5,6.12A4.49,4.49,0,0,0,61,54.44a4.36,4.36,0,0,0,4.29-3A12.6,12.6,0,0,0,66.09,47Zm-51.54-.88a15.66,15.66,0,0,0,.2,3,11.79,11.79,0,0,0,.42,1.68c1,2.85,3.6,4.27,6.19,3.3a7.36,7.36,0,0,0,2.43-1.59,38.16,38.16,0,0,0,5.57-7.15c2.47-3.7,4.77-7.5,7.07-11.31.18-.3.42-.58.13-1A21.58,21.58,0,0,0,30,26.38a6.16,6.16,0,0,0-5.66-.7,10.55,10.55,0,0,0-4.83,4.17A30.42,30.42,0,0,0,14.55,46.08Z"/></g></g></svg>