<svg xmlns="http://www.w3.org/2000/svg" xmlns:xlink="http://www.w3.org/1999/xlink" viewBox="0 0 82.24 83.61"><defs><style>.cls-1{fill:none;}.cls-2{clip-path:url(#clip-path);}.cls-3{fill:#909fce;}.cls-4{fill:#f9fafa;}.cls-5{fill:#f6f6f6;}</style><clipPath id="clip-path" transform="translate(0.58 0.99)"><ellipse class="cls-1" cx="40.37" cy="39.93" rx="40.37" ry="39.93"/></clipPath></defs><g id="Capa_2" data-name="Capa 2"><g id="Capa_1-2" data-name="Capa 1"><g id="xE1yqS"><g class="cls-2"><path class="cls-3" d="M36.11-1h8.54c.36.42.87.28,1.32.35C62,1.87,72.76,10.94,79.11,25.6c1,2.25.84,2.31-1.44,1.9l-.62-.08c-5.31-.45-10.63-.09-15.94-.2-.8,0-.89.55-1,1.15-.57,3.16-1.17,6.32-1.76,9.48-1.26,6.78-2.49,13.56-3.78,20.34-.24,1.22.11,1.63,1.32,1.56a38,38,0,0,1,4.27,0c1.05.06,1.36-.47,1.51-1.37.32-1.92.73-3.82,1-5.75.19-1.29.65-1.92,2.11-1.83,2.1.14,4.21,0,6.32,0a12.42,12.42,0,0,0,9.75-4A38.6,38.6,0,0,1,72.34,65a41,41,0,0,1-46.6,12.18,47.22,47.22,0,0,1-11.13-6.54,36.61,36.61,0,0,1-8.84-10c-.17-.27-.54-.73.07-.88.93-.23.82-1,1-1.61.39-2,.83-4,1.13-6.06.15-1,.62-1.31,1.57-1.29,2.42,0,4.85.05,7.27,0a11.8,11.8,0,0,0,9.64-4.56,18.38,18.38,0,0,0,3.47-8.38,8.88,8.88,0,0,0-7.55-10.4c-4.45-.6-8.94-.17-13.41-.24-3.48-.06-3.47,0-4.08,3.35C3.67,36.91,2.5,43.22,1.26,49.9,1,49.16.86,48.79.77,48.4a39.14,39.14,0,0,1,.09-18A38.57,38.57,0,0,1,16.46,7,44.58,44.58,0,0,1,30.63.28C32.45-.2,34.39-.11,36.11-1ZM49.53,50.91a10.4,10.4,0,0,1,1.58,0c1.57.23,2.17-.39,2.44-2,.81-4.72,1.82-9.41,2.55-14.15.66-4.36-1.21-6.84-5.6-7.33a66.81,66.81,0,0,0-8.37-.13c-1.52,0-1.79-.57-1.49-1.9.39-1.75.6-3.54,1-5.27.3-1.25-.12-1.62-1.31-1.56a40.24,40.24,0,0,1-4.11,0c-1.06-.06-1.49.38-1.66,1.4-.45,2.75-1,5.49-1.49,8.24-1.32,7.2-2.63,14.4-4,21.59-.19,1,.08,1.33,1.07,1.3,1.42,0,2.85-.06,4.26,0,1.09.05,1.57-.3,1.77-1.44.87-5.09,1.9-10.15,2.75-15.24.26-1.56.77-2.38,2.5-2.15,1.3.17,2.63.1,3.94.2,3.08.23,3.86,1.27,3.27,4.33-.67,3.51-1.37,7-2,10.55S46,50.91,49.53,50.91Z" transform="translate(0.58 0.99)"/><path class="cls-4" d="M36.11-1c-1.72.85-3.66.76-5.48,1.24A44.58,44.58,0,0,0,16.46,7,38.57,38.57,0,0,0,.86,30.39a39.14,39.14,0,0,0-.09,18c.09.39.25.76.49,1.5,1.24-6.68,2.41-13,3.57-19.31.61-3.36.6-3.41,4.08-3.35,4.47.07,9-.36,13.41.24a8.88,8.88,0,0,1,7.55,10.4,18.38,18.38,0,0,1-3.47,8.38,11.8,11.8,0,0,1-9.64,4.56c-2.42.06-4.85,0-7.27,0-1,0-1.42.28-1.57,1.29-.3,2-.74,4-1.13,6.06-.13.63,0,1.38-1,1.61-.61.15-.24.61-.07.88a36.61,36.61,0,0,0,8.84,10,47.22,47.22,0,0,0,11.13,6.54A41,41,0,0,0,72.34,65a38.6,38.6,0,0,0,8.52-18.19l.77-.33c0,10.86,0,21.72,0,32.58,0,1.08-.22,1.3-1.3,1.3q-40.45-.06-80.91,0,0-40,0-80C-.58-.78-.37-1,.72-1,12.52-.94,24.31-1,36.11-1ZM12.75,45.83c6.31.38,8.9-2.44,10-7.21.86-3.78-.58-5.71-4.42-6.15-1.79-.21-3.58-.06-5.37-.15-1.07-.06-1.47.42-1.63,1.42-.46,2.81-1,5.6-1.53,8.4C9.09,45.83,9.08,45.83,12.75,45.83Z" transform="translate(0.58 0.99)"/><path class="cls-5" d="M81.63,46.48l-.77.33a12.42,12.42,0,0,1-9.75,4c-2.11,0-4.22.11-6.32,0-1.46-.09-1.92.54-2.11,1.83-.28,1.93-.69,3.83-1,5.75-.15.9-.46,1.43-1.51,1.37a38,38,0,0,0-4.27,0c-1.21.07-1.56-.34-1.32-1.56,1.29-6.78,2.52-13.56,3.78-20.34.59-3.16,1.19-6.32,1.76-9.48.11-.6.2-1.16,1-1.15,5.31.11,10.63-.25,15.94.2l.62.08c2.28.41,2.41.35,1.44-1.9C72.76,10.94,62,1.87,46-.61c-.45-.07-1,.07-1.32-.35,11.93,0,23.87,0,35.8,0,1,0,1.2.26,1.2,1.22Q81.61,23.36,81.63,46.48Zm-14.31-.66H68.9c5.36-.11,8.64-3.31,8.89-8.66.13-2.69-1.23-4.37-3.89-4.59-2-.18-4.1-.13-6.15-.24-1-.06-1.41.39-1.57,1.32-.51,3-1.09,5.91-1.61,8.86C64,45.82,64,45.82,67.32,45.82Z" transform="translate(0.58 0.99)"/><path class="cls-5" d="M49.53,50.91c-3.58,0-3.59,0-2.91-3.54s1.37-7,2-10.55c.59-3.06-.19-4.1-3.27-4.33-1.31-.1-2.64,0-3.94-.2-1.73-.23-2.24.59-2.5,2.15-.85,5.09-1.88,10.15-2.75,15.24-.2,1.14-.68,1.49-1.77,1.44-1.41-.06-2.84,0-4.26,0-1,0-1.26-.27-1.07-1.3,1.36-7.19,2.67-14.39,4-21.59.51-2.75,1-5.49,1.49-8.24.17-1,.6-1.46,1.66-1.4a40.24,40.24,0,0,0,4.11,0c1.19-.06,1.61.31,1.31,1.56-.42,1.73-.63,3.52-1,5.27-.3,1.33,0,1.92,1.49,1.9a66.81,66.81,0,0,1,8.37.13c4.39.49,6.26,3,5.6,7.33-.73,4.74-1.74,9.43-2.55,14.15-.27,1.59-.87,2.21-2.44,2A10.4,10.4,0,0,0,49.53,50.91Z" transform="translate(0.58 0.99)"/><path class="cls-3" d="M12.75,45.83c-3.67,0-3.66,0-3-3.69.52-2.8,1.07-5.59,1.53-8.4.16-1,.56-1.48,1.63-1.42,1.79.09,3.58-.06,5.37.15,3.84.44,5.28,2.37,4.42,6.15C21.65,43.39,19.06,46.21,12.75,45.83Z" transform="translate(0.58 0.99)"/><path class="cls-3" d="M67.32,45.82c-3.3,0-3.32,0-2.75-3.31.52-2.95,1.1-5.9,1.61-8.86.16-.93.56-1.38,1.57-1.32,2,.11,4.11.06,6.15.24,2.66.22,4,1.9,3.89,4.59-.25,5.35-3.53,8.55-8.89,8.66Z" transform="translate(0.58 0.99)"/><rect class="cls-3" x="6.91" y="62.48" width="30.83" height="21.14"/></g></g></g></g></svg>