<svg xmlns="http://www.w3.org/2000/svg" viewBox="0 0 79.87 79.87"><defs><style>.cls-1{fill:#67d9f8;}.cls-2{fill:#fff;}</style></defs><g id="Capa_2" data-name="Capa 2"><g id="Capa_1-2" data-name="Capa 1"><circle class="cls-1" cx="39.93" cy="39.93" r="39.93"/><g id="ZrRDeC"><path class="cls-2" d="M24.47,8.46h2.8a.52.52,0,0,0,.13.06,15.26,15.26,0,0,1,4.94,1.83A35.22,35.22,0,0,1,39.65,16c.22.2.34.21.55,0a38.42,38.42,0,0,1,4.65-3.9A21.66,21.66,0,0,1,50.6,9c.65-.22,1.33-.34,2-.52h2.8s.08.06.12.06a6.82,6.82,0,0,1,4.87,3.8,13.63,13.63,0,0,1,1.33,6,35.3,35.3,0,0,1-1.13,9.2c-.15.61-.18.48.36.64a37.28,37.28,0,0,1,7.91,3.24,15,15,0,0,1,4.89,4.11,6.86,6.86,0,0,1,.5,7.94,12.28,12.28,0,0,1-4.07,4.07A34,34,0,0,1,61,51.59c-.6.18-.54,0-.4.67a33.06,33.06,0,0,1,1.06,10.38,13.46,13.46,0,0,1-1.13,4.58A7.06,7.06,0,0,1,53,71.34a15.17,15.17,0,0,1-5.16-1.75,34.74,34.74,0,0,1-7.5-5.65c-.38-.35-.38-.36-.75,0A38.75,38.75,0,0,1,34,68.4a16.67,16.67,0,0,1-7.25,2.95,7.2,7.2,0,0,1-4.73-1A7.7,7.7,0,0,1,18.88,66a20.91,20.91,0,0,1-.48-9.14,40.11,40.11,0,0,1,.93-4.84c.06-.24,0-.34-.24-.41-1-.28-2-.59-2.94-1a27.38,27.38,0,0,1-7.59-4,10.73,10.73,0,0,1-3.44-4.23,12.05,12.05,0,0,1-.52-1.87V39.15A.52.52,0,0,0,4.66,39a7.53,7.53,0,0,1,1.52-3.58,14.77,14.77,0,0,1,4.36-3.74,36.05,36.05,0,0,1,8.35-3.51c.62-.19.52-.08.38-.69a35.67,35.67,0,0,1-1.13-9.2A15.34,15.34,0,0,1,19,13.54,7.57,7.57,0,0,1,22.44,9.2,10.5,10.5,0,0,1,24.47,8.46ZM50.38,29.21v0h0s0,0,0,0c1.48,2.34,2.82,4.66,4.09,7.1.11-.25.2-.44.27-.63.68-1.64,1.28-3.29,1.83-5,.11-.31.09-.47-.29-.52s-1.05-.22-1.58-.32C53.23,29.57,51.83,29.34,50.38,29.21Zm-20.9,0a3.2,3.2,0,0,0-.44,0c-1.86.24-3.7.57-5.54.95-.27.06-.24.2-.18.39q.81,2.51,1.81,4.93a2.43,2.43,0,0,0,.34.71c.05-.1.1-.17.14-.24,1-1.86,2-3.68,3.11-5.47a7.89,7.89,0,0,0,.75-1.29v0Zm10.44,22c2,0,4,0,6-.17a.72.72,0,0,0,.66-.3,90.18,90.18,0,0,0,6.09-10.57.59.59,0,0,0,0-.59A88.47,88.47,0,0,0,46.52,29a.51.51,0,0,0-.45-.26c-.91,0-1.83-.11-2.75-.15a81.23,81.23,0,0,0-9.49.15.66.66,0,0,0-.55.34,87.74,87.74,0,0,0-6,10.47.66.66,0,0,0,0,.68,87.82,87.82,0,0,0,6,10.35,1,1,0,0,0,.83.48C36,51.18,38,51.26,39.92,51.23ZM72.18,39.8a3.9,3.9,0,0,0-.68-2.09,8.79,8.79,0,0,0-2.22-2.33,29.41,29.41,0,0,0-9.4-4.31c-.23-.07-.3,0-.36.23a73,73,0,0,1-3.24,8.36.48.48,0,0,0,0,.45,70.43,70.43,0,0,1,3.26,8.42c.06.2.15.24.34.18a34.41,34.41,0,0,0,7.48-3,12.57,12.57,0,0,0,3.84-3.15A4.42,4.42,0,0,0,72.18,39.8Zm-51-20.75A34.75,34.75,0,0,0,22.3,27c.08.33.26.29.48.24a71.69,71.69,0,0,1,8.75-1.36.55.55,0,0,0,.44-.26,69.61,69.61,0,0,1,5.56-6.9c.2-.22.21-.34,0-.56a39,39,0,0,0-4.31-3.6,19,19,0,0,0-5-2.66,6.73,6.73,0,0,0-3.08-.36A3.92,3.92,0,0,0,22,14.25,12.46,12.46,0,0,0,21.21,19.05Zm0,41.65a17.48,17.48,0,0,0,.1,2,9.31,9.31,0,0,0,1,3.42,3.78,3.78,0,0,0,3.57,2.15,9.91,9.91,0,0,0,4.32-1.22,31.39,31.39,0,0,0,7.3-5.4c.26-.24.28-.38,0-.64A70.24,70.24,0,0,1,32,54.18a.56.56,0,0,0-.45-.25c-1.47-.15-2.95-.32-4.41-.55s-2.92-.48-4.37-.81c-.24-.06-.37,0-.44.25A34.33,34.33,0,0,0,21.21,60.7ZM58.64,19.07a15.1,15.1,0,0,0-.09-2,9.56,9.56,0,0,0-.88-3.28,3.84,3.84,0,0,0-3.78-2.31A9.49,9.49,0,0,0,50,12.56a31,31,0,0,0-7.7,5.66c-.19.18-.09.29,0,.42a71.94,71.94,0,0,1,5.6,7,.54.54,0,0,0,.42.24c.94.1,1.87.21,2.81.33,2,.26,4,.6,6,1,.21.05.33,0,.39-.23A34.2,34.2,0,0,0,58.64,19.07Zm-51,20.81a4.29,4.29,0,0,0,1,2.64,11.7,11.7,0,0,0,3.53,3A33.74,33.74,0,0,0,20,48.71c.28.09.31-.05.37-.24a70.51,70.51,0,0,1,3.23-8.32.59.59,0,0,0,0-.52,70.51,70.51,0,0,1-3.23-8.32c-.07-.24-.18-.29-.42-.22a36.89,36.89,0,0,0-6.34,2.44A14.91,14.91,0,0,0,9,36.85,4.61,4.61,0,0,0,7.68,39.88Zm51,21.64a35.61,35.61,0,0,0-1.1-8.72c-.07-.32-.24-.27-.46-.22a72.15,72.15,0,0,1-8.78,1.35.54.54,0,0,0-.42.24,68.66,68.66,0,0,1-5.57,6.93c-.19.21-.2.33,0,.54a37.81,37.81,0,0,0,4.8,3.94A17,17,0,0,0,52,68a5.9,5.9,0,0,0,3.09.16,4,4,0,0,0,2.79-2.75A11.48,11.48,0,0,0,58.65,61.52Zm-33.18-18a1.17,1.17,0,0,0-.11.16c-.75,1.81-1.44,3.64-2,5.51-.08.25,0,.34.25.39,1.13.25,2.26.46,3.39.64.84.13,1.68.29,2.58.35C28.08,48.29,26.73,46,25.47,43.55ZM50.3,50.62c2.07-.26,4-.59,6-1,.29-.07.32-.18.24-.43-.4-1.25-.84-2.49-1.31-3.71l-.8-2C53.13,46,51.78,48.29,50.3,50.62ZM44,25.55l-.13-.23c-1.18-1.54-2.41-3-3.71-4.46-.2-.23-.31-.17-.48,0-1.3,1.42-2.52,2.9-3.68,4.43,0,.06-.11.11,0,.23C38.59,25.42,41.26,25.43,44,25.55ZM35.87,54.24a1.43,1.43,0,0,0,.09.18c1.2,1.58,2.46,3.11,3.8,4.57.18.2.25.09.37,0,1.19-1.3,2.31-2.66,3.4-4.05.15-.19.29-.4.49-.66C41.27,54.35,38.6,54.35,35.87,54.24Z"/><path class="cls-2" d="M39.94,33.61a6.3,6.3,0,1,1-6.32,6.31A6.3,6.3,0,0,1,39.94,33.61Z"/></g></g></g></svg>