<svg xmlns="http://www.w3.org/2000/svg" viewBox="0 0 79.83 79.83"><defs><style>.cls-1{fill:#38a433;}.cls-2{fill:#fbfdfb;}</style></defs><g id="Capa_2" data-name="Capa 2"><g id="Capa_1-2" data-name="Capa 1"><path class="cls-1" d="M0,39.86a39.92,39.92,0,1,1,39.74,40A39.92,39.92,0,0,1,0,39.86Zm64.61-.16a24.72,24.72,0,1,0-47.34,10,4,4,0,0,1,.32,2.67c-.8,3.54-1.5,7.1-2.22,10.66-.33,1.61.1,2,1.7,1.65,3.38-.78,6.77-1.53,10.13-2.39a4.65,4.65,0,0,1,3.14.23A24.67,24.67,0,0,0,64.61,39.7Z"/><path class="cls-2" d="M64.61,39.7A24.67,24.67,0,0,1,30.34,62.49a4.65,4.65,0,0,0-3.14-.23c-3.36.86-6.75,1.61-10.13,2.39-1.6.37-2,0-1.7-1.65.72-3.56,1.42-7.12,2.22-10.66a4,4,0,0,0-.32-2.67,24.72,24.72,0,1,1,47.34-10ZM39.94,59.07c.93-.06,1.87-.06,2.79-.19a19.38,19.38,0,1,0-20.1-10.47,4.82,4.82,0,0,1,.49,3.69c-.43,1.54-.65,3.14-1,4.71-.18.82,0,1.16.91.91,1.75-.46,3.53-.82,5.29-1.27a3.05,3.05,0,0,1,2.36.27A18.88,18.88,0,0,0,39.94,59.07Z"/><path class="cls-1" d="M39.94,59.07a18.88,18.88,0,0,1-9.25-2.35,3.05,3.05,0,0,0-2.36-.27c-1.76.45-3.54.81-5.29,1.27-.93.25-1.09-.09-.91-.91.34-1.57.56-3.17,1-4.71a4.82,4.82,0,0,0-.49-3.69,19.37,19.37,0,1,1,20.1,10.47C41.81,59,40.87,59,39.94,59.07Zm6-7.32c3.31,0,5.22-1.12,6.8-3.64.92-1.45.52-2.62-1.11-3.14-1.19-.37-2.42-.59-3.58-1a2.61,2.61,0,0,0-3.3.89c-1,1.26-2.11,1.26-3.41.43a29.39,29.39,0,0,1-6.42-5.61c-1.44-1.66-1.43-2.13-.09-3.9.55-.73,1-1.44.61-2.41-.66-1.46-1.27-3-2-4.39a1.69,1.69,0,0,0-2.81-.7c-2.37,1.92-3.72,4.26-3,7.47a13.48,13.48,0,0,0,1.8,4.44A29.1,29.1,0,0,0,40.61,50.27,12.84,12.84,0,0,0,45.89,51.75Z"/><path class="cls-2" d="M45.89,51.75a12.84,12.84,0,0,1-5.28-1.48A29.1,29.1,0,0,1,29.43,40.16a13.48,13.48,0,0,1-1.8-4.44c-.75-3.21.6-5.55,3-7.47a1.69,1.69,0,0,1,2.81.7c.71,1.44,1.32,2.93,2,4.39.43,1-.06,1.68-.61,2.41-1.34,1.77-1.35,2.24.09,3.9a29.39,29.39,0,0,0,6.42,5.61c1.3.83,2.43.83,3.41-.43a2.61,2.61,0,0,1,3.3-.89c1.16.44,2.39.66,3.58,1,1.63.52,2,1.69,1.11,3.14C51.11,50.63,49.2,51.74,45.89,51.75Z"/></g></g></svg>