<svg xmlns="http://www.w3.org/2000/svg" viewBox="0 0 79.89 79.87"><defs><style>.cls-1{fill:#fff;}</style></defs><g id="Capa_2" data-name="Capa 2"><g id="Capa_1-2" data-name="Capa 1"><g id="ICw9XE"><path d="M0,38.51c.05-.62.1-1.24.16-1.86,1.41-13.8,8.12-24.25,20-31.37A37.27,37.27,0,0,1,34.1.42,39.77,39.77,0,0,1,70.7,14.49a39.18,39.18,0,0,1,8.62,18.77,38.55,38.55,0,0,1,.21,11.89A39.38,39.38,0,0,1,65.82,70.29a39.8,39.8,0,0,1-31.1,9.22A39.42,39.42,0,0,1,11.19,67.58,38.8,38.8,0,0,1,.77,47.51C.41,45.63.3,43.69.07,41.78c0-.15,0-.29-.07-.44Zm78.08,1.42A38.13,38.13,0,1,0,39.91,78.05,38.17,38.17,0,0,0,78.08,39.93Z"/><path class="cls-1" d="M78.08,39.93A38.13,38.13,0,1,1,40,1.79,38.16,38.16,0,0,1,78.08,39.93Zm-33.37-16L57,60.59c.06-.13.09-.19.11-.25,1.58-5.26,3.18-10.52,4.75-15.79a23.59,23.59,0,0,0,1.16-5.94,15.46,15.46,0,0,0-1.63-7.56c-.89-1.75-1.93-3.42-2.9-5.13a11.19,11.19,0,0,1-1.66-5.09A6.14,6.14,0,0,1,60.64,15a16.9,16.9,0,0,1,2.3-.51C54.49,7.23,44.76,4.3,33.75,6.27,24.24,8,16.87,13.08,11.33,21.06c1.67,0,3.22.05,4.77,0,2.18-.08,4.35-.25,6.52-.36a1.36,1.36,0,0,1,1.53,1.24,1.39,1.39,0,0,1-1.3,1.62l-.7.07L19,23.9l12.42,37a1,1,0,0,0,.1-.16q3.66-11,7.31-21.95a.94.94,0,0,0,0-.55q-2.53-7-5.1-14a.41.41,0,0,0-.4-.33c-1.12-.08-2.23-.2-3.35-.31a1.25,1.25,0,0,1-1.15-.88,1.43,1.43,0,0,1,1.43-2c1.54.07,3.07.23,4.61.27,2.33.07,4.66.13,7,.09s4.37-.25,6.56-.36A1.35,1.35,0,0,1,49.88,22a1.37,1.37,0,0,1-1.3,1.57C47.31,23.68,46,23.78,44.71,23.9ZM40.55,43,30.29,72.79a34.44,34.44,0,0,0,21-.52C47.68,62.5,44.13,52.79,40.55,43ZM8.66,26.07A33.52,33.52,0,0,0,5.72,38.82a34.18,34.18,0,0,0,8.76,24c2.61,2.94,8.77,7.56,10.43,7.77Zm61.43-2.32a1.42,1.42,0,0,0,0,.24,28.08,28.08,0,0,1-.58,9.45,55.93,55.93,0,0,1-1.93,6.09Q62.46,54.25,57.39,69c0,.14-.09.28-.15.46A34.16,34.16,0,0,0,70.09,23.75Z"/><path d="M44.71,23.9c1.33-.12,2.6-.22,3.87-.36A1.37,1.37,0,0,0,49.88,22a1.35,1.35,0,0,0-1.5-1.28c-2.19.11-4.38.31-6.56.36s-4.66,0-7-.09c-1.54,0-3.07-.2-4.61-.27a1.43,1.43,0,0,0-1.43,2,1.25,1.25,0,0,0,1.15.88c1.12.11,2.23.23,3.35.31a.41.41,0,0,1,.4.33q2.55,7,5.1,14a.94.94,0,0,1,0,.55q-3.65,11-7.31,21.95a1,1,0,0,1-.1.16L19,23.9l3.16-.28.7-.07a1.39,1.39,0,0,0,1.3-1.62,1.36,1.36,0,0,0-1.53-1.24c-2.17.11-4.34.28-6.52.36-1.55.06-3.1,0-4.77,0,5.54-8,12.91-13.1,22.42-14.79,11-2,20.74,1,29.19,8.21a16.9,16.9,0,0,0-2.3.51,6.14,6.14,0,0,0-3.77,5.84,11.19,11.19,0,0,0,1.66,5.09c1,1.71,2,3.38,2.9,5.13a15.46,15.46,0,0,1,1.63,7.56,23.59,23.59,0,0,1-1.16,5.94c-1.57,5.27-3.17,10.53-4.75,15.79,0,.06,0,.12-.11.25Q50.86,42.2,44.71,23.9Z"/><path d="M40.55,43c3.58,9.81,7.13,19.52,10.69,29.29a34.44,34.44,0,0,1-21,.52Z"/><path d="M8.66,26.07,24.91,70.59c-1.66-.21-7.82-4.83-10.43-7.77a34.18,34.18,0,0,1-8.76-24A33.52,33.52,0,0,1,8.66,26.07Z"/><path d="M70.09,23.75a34.16,34.16,0,0,1-12.85,45.7c.06-.18.1-.32.15-.46q5.1-14.73,10.2-29.46a55.93,55.93,0,0,0,1.93-6.09A28.08,28.08,0,0,0,70.1,24,1.42,1.42,0,0,1,70.09,23.75Z"/></g></g></g></svg>