<svg xmlns="http://www.w3.org/2000/svg" xmlns:xlink="http://www.w3.org/1999/xlink" viewBox="0 0 79.83 79.83"><defs><style>.cls-1{fill:url(#Degradado_sin_nombre_31);}.cls-2{fill:#fff;}</style><linearGradient id="Degradado_sin_nombre_31" x1="39.91" y1="2.34" x2="39.91" y2="77.4" gradientUnits="userSpaceOnUse"><stop offset="0" stop-color="#fb0d1b"/><stop offset="1" stop-color="#9b040c"/></linearGradient></defs><g id="Capa_2" data-name="Capa 2"><g id="Capa_1-2" data-name="Capa 1"><circle class="cls-1" cx="39.91" cy="39.91" r="39.91"/><path class="cls-2" d="M67.13,26.24a7.09,7.09,0,0,0-5-5C57.68,20,39.91,20,39.91,20s-17.76,0-22.19,1.19a7.11,7.11,0,0,0-5,5c-1.18,4.43-1.18,13.67-1.18,13.67s0,9.25,1.18,13.68a7.12,7.12,0,0,0,5,5c4.43,1.19,22.19,1.19,22.19,1.19s17.77,0,22.2-1.19a7.11,7.11,0,0,0,5-5c1.19-4.43,1.19-13.68,1.19-13.68S68.32,30.67,67.13,26.24ZM34.23,48.43v-17L49,39.91Z"/></g></g></svg>