<svg xmlns="http://www.w3.org/2000/svg" viewBox="0 0 92.7 93.15"><defs><style>.cls-1{fill:#8fb10a;}</style></defs><g id="Capa_2" data-name="Capa 2"><g id="Capa_1-2" data-name="Capa 1"><g id="mx1v9G.tif"><path class="cls-1" d="M0,84.25c.4-2.56,1.93-4.4,3.71-6.16q13.85-13.77,27.65-27.6a1.09,1.09,0,0,0,.22-1.59,30.72,30.72,0,0,1-4.07-19.38C28.93,17.7,35,8.84,45.65,3.54c10-4.93,20.07-4.67,29.83.54A31,31,0,0,1,92,26.35c2.3,12-1.17,22.34-10.14,30.69a31.29,31.29,0,0,1-18.38,8.28,31.94,31.94,0,0,1-19.26-3.88l-.56-.3c-.06,0-.12,0-.38-.26a5.39,5.39,0,0,1-.62.91Q28.84,75.65,15,89.5c-1.74,1.75-3.57,3.25-6.1,3.65H7.09A3.45,3.45,0,0,0,6.67,93,8,8,0,0,1,1.8,90.15,9.71,9.71,0,0,1,0,86.06Zm87-51.4a27,27,0,1,0-27,27A27,27,0,0,0,87,32.85ZM35.42,54.48l-.42.39Q20.84,69,6.69,83.18a5.23,5.23,0,0,0-.54.61,2.26,2.26,0,0,0,1.53,3.59,2.65,2.65,0,0,0,2.38-1q14-14,28-28.06c.21-.21.41-.43.5-.53Z"/><path class="cls-1" d="M71.9,35.68H68.83c-2.85,0-5.7,0-8.54,0a2.85,2.85,0,0,1-3.09-3,2.72,2.72,0,0,1,2.18-2.57A5.91,5.91,0,0,1,60.64,30q6.94,0,13.9,0c2.53,0,3.57,1.11,3.45,3.65A18,18,0,1,1,56.66,15.12a17.62,17.62,0,0,1,13.12,2.56,2.85,2.85,0,0,1,1.17,4,2.8,2.8,0,0,1-4.1.88A12.34,12.34,0,1,0,71.9,36,2.09,2.09,0,0,0,71.9,35.68Z"/></g></g></g></svg>