<svg xmlns="http://www.w3.org/2000/svg" viewBox="0 0 86.96 87.22"><defs><style>.cls-1{fill:#90b20a;}</style></defs><g id="Capa_2" data-name="Capa 2"><g id="Capa_1-2" data-name="Capa 1"><path class="cls-1" d="M51.05,64.06c-.34-.17-.7-.37-1.07-.52L37.5,58.35a5.87,5.87,0,0,0-.61.66,15,15,0,0,1-13.6,7.16,1.51,1.51,0,0,0-1.77,1.21,10,10,0,0,1-.72,1.79,3.48,3.48,0,0,0,.41,4.48c2,2.47,1.59,6.15-.55,8.55A7.09,7.09,0,0,1,8.45,75.89c.64-3,3.42-5.58,6.49-5.39,2.17.14,2.84-.82,3.32-2.5.23-.78.58-1.52.93-2.41-5.62-2.2-9.41-6-10.49-12.1s1.1-11,5.76-15L9.55,30.85c-1.9,0-3.57.32-5.06-.06a6.1,6.1,0,0,1-4.12-8,6.29,6.29,0,0,1,8.1-3.85,6.16,6.16,0,0,1,3.64,8.28,2.63,2.63,0,0,0,.33,3c1.44,2.12,2.8,4.3,4.2,6.46.06.09.19.13.39.27a15.28,15.28,0,0,1,9.8-1.22,14.3,14.3,0,0,1,3.62,1.22,1.79,1.79,0,0,0,2.75-.53C35,34,37,31.83,39,29.49a17.08,17.08,0,0,1-5.31-14A16.58,16.58,0,0,1,39.07,4.58,17,17,0,0,1,65,26.19c-4,6.34-13.55,11-23.79,5.12L34.3,39.36c4.51,4.61,6,10,4.22,16.34l13.61,5.68A18.35,18.35,0,0,1,64.86,51.2a17.58,17.58,0,0,1,12.71,1.86A18.21,18.21,0,0,1,64.14,86.61C54.39,84,49.54,75.72,51.05,64.06ZM68.82,53.59A15.42,15.42,0,1,0,84.16,69,15.44,15.44,0,0,0,68.82,53.59Zm-4.3-36.35a14,14,0,1,0-14.17,13.9A14,14,0,0,0,64.52,17.24ZM32.37,59.78c3.6-2.76,5-8.35,3.41-13.1a12.6,12.6,0,0,0-23.91.19c-1.53,4.71-.06,10.3,3.61,13a50.26,50.26,0,0,1,0-5.51c.23-2.11,1.81-3.14,3.74-3.66-1.55-3.39-1.16-6,1.11-7.8a5.6,5.6,0,0,1,6.84-.1c2.35,1.76,2.79,4.4,1.25,7.92C33.7,51.94,31.89,56.34,32.37,59.78Zm-8.44-6.19c-1.28,0-2.56,0-3.84,0s-1.85.53-1.84,1.77c0,1.93-.06,3.85.05,5.77a1.89,1.89,0,0,0,1,1.34,11.55,11.55,0,0,0,9.17,0,1.89,1.89,0,0,0,1-1.35c.11-1.91,0-3.84.05-5.76,0-1.25-.64-1.78-1.86-1.76S25.16,53.59,23.93,53.59ZM11.25,77.28a4.19,4.19,0,1,0,4.37-4A4.24,4.24,0,0,0,11.25,77.28ZM9.81,24.76a3.54,3.54,0,0,0-3.66-3.41,3.49,3.49,0,0,0,.34,7A3.53,3.53,0,0,0,9.81,24.76ZM26.64,47.21a2.79,2.79,0,1,0-2.73,2.85A2.81,2.81,0,0,0,26.64,47.21Z"/><path class="cls-1" d="M58.91,68.86c0-2.57,0-5.14,0-7.7,0-1.42.62-2,2-2,5.19,0,10.39,0,15.58,0,1.51,0,2.09.63,2.08,2.11,0,5.13,0,10.27,0,15.4,0,1.59-.63,2.18-2.2,2.16q-7.69-.06-15.41,0c-1.5,0-2.1-.62-2.07-2.1C59,74.11,58.91,71.48,58.91,68.86Zm14-6.79c0,2.23,0,4.27,0,6.31S72,70.88,70.4,70a3,3,0,0,0-3.24,0c-1.75,1-2.61.38-2.63-1.63s0-4.16,0-6.21H61.85V75.87H75.64V62.07Zm-5.56,0v4.28H70V62.07Z"/><path class="cls-1" d="M49.11,14.82l2.68-1.3c2-.95,2.31-.83,3.16,1.19,1-.51,2.07-1.06,3.14-1.51,1.31-.57,2.2,0,2.22,1.4,0,3.56,0,7.11,0,10.67,0,1.17-.63,1.68-1.76,1.68H43.85c-1.25,0-1.77-.64-1.77-1.86q0-7.95,0-15.92c0-1.34.64-1.88,1.94-1.87,5.62,0,5.09-.58,5.09,4.85Zm-2.82-4.41L45.74,10c-.28.4-.79.79-.8,1.2-.08,2.15,0,4.31,0,6.46V24H57.44V16.66c-1,.51-1.88.94-2.76,1.36-1.79.86-2.18.7-3-1.27-1,.48-2,1-3,1.44-1.52.68-2.36.17-2.4-1.5C46.26,14.6,46.29,12.5,46.29,10.41Z"/></g></g></svg>