<svg xmlns="http://www.w3.org/2000/svg" viewBox="0 0 106.65 86.51"><defs><style>.cls-1{fill:#4e7eaf;}</style></defs><g id="Capa_2" data-name="Capa 2"><g id="Capa_1-2" data-name="Capa 1"><path class="cls-1" d="M47.35,77.33H57.83V75c0-6.65,0-13.31,0-20,0-2.45.63-3.09,3.07-3.1q12,0,23.94,0c2.4,0,3.06.69,3.06,3.12,0,7.34,0,14.69,0,22.22H98.55V69c0-1.87,0-3.74,0-5.62,0-1.14-.23-2.62,1.5-2.65s1.6,1.38,1.6,2.58c0,3.95,0,7.9,0,11.86v2.11l1.5.33a4.27,4.27,0,0,1,3.46,4.92,4.18,4.18,0,0,1-4.32,3.93c-3.81.07-7.63,0-11.45,0H58.79c-.48,0-1.06.16-1.44,0a14,14,0,0,1-1.93-1.46,12.67,12.67,0,0,1,2-1.63c.43-.23,1.09,0,1.64,0h41.43a5.15,5.15,0,0,0,1.85-.09,1.78,1.78,0,0,0,1-1.2,1.84,1.84,0,0,0-1-1.27,4,4,0,0,0-1.64-.07H5.81a3.69,3.69,0,0,0-1.64.08,2,2,0,0,0-.91,1.35c0,.35.51,1,.92,1.1a5.66,5.66,0,0,0,1.85.1H47.67a4.72,4.72,0,0,1,1.85.07,8.41,8.41,0,0,1,1.69,1.49,20.8,20.8,0,0,1-1.81,1.59c-.23.17-.68,0-1,0H5.07c-3.16,0-5-1.53-5.07-4.25a4.25,4.25,0,0,1,4.17-4.72c.74-.06,1.49-.07,2.42-.11V74.72q0-21.86,0-43.7c0-3.81.86-5,4.49-6.22L82.51.5c3.77-1.28,5.4-.13,5.41,3.8,0,2-.11,3.9,0,5.83.07.89.76,1.72,1,2.63.15.69.25,1.72-.13,2.15-1.36,1.48-1.37,2.7,0,4.16.38.4.49,1.75.22,1.94-1.8,1.25-.92,3-1.13,4.87h9c4.22,0,4.75.54,4.75,4.82q0,11.23,0,22.48c0,.55.19,1.22-.06,1.64a9,9,0,0,1-1.55,1.6c-.48-.5-1.24-.94-1.38-1.52a8.72,8.72,0,0,1-.08-3.1c.26-2-.38-2.71-2.58-2.69-13.6.11-27.2.06-40.8.06H47.35Zm-32.77,0V74.9q0-12.27,0-24.56c0-3.33,1-4.28,4.36-4.28,5.34,0,10.68,0,16,0,3.26,0,4.23.95,4.23,4.18q0,12.38,0,24.76v2.3h4.9V74.7q0-22.28,0-44.54c0-3.6.66-4.28,4.21-4.28H82.25c.8,0,1.6-.08,2.46-.13v-4H81.34c-2.63,0-5.28.1-7.9-.08-.74-.05-1.42-1-2.12-1.46a9.64,9.64,0,0,1,2-1.57,5.43,5.43,0,0,1,2.06-.05h9.27V15.34c-3.48,0-6.8,0-10.11,0-1.3,0-3.21.5-3.16-1.6,0-1.92,1.87-1.43,3.11-1.44,3.37,0,6.74,0,10.18,0V3.17c-.69.19-1.21.31-1.72.49q-35.52,12.06-71,24.11c-1.77.6-2.3,1.59-2.3,3.37.06,14.78,0,29.56,0,44.33,0,.6.07,1.2.12,1.89ZM47.32,29.13V45.92H98.43V29.13ZM71.09,77.32v-22H61v22Zm3.51-22.1V77.33H84.69V55.22ZM35.93,53.81v-4.5H17.84v4.5ZM17.86,69.49H36V65H17.86Zm0-7.72c5.86,0,11.58,0,17.3-.05.32,0,.86-.64.9-1a34.5,34.5,0,0,0,0-3.54H17.87ZM36,72.86H17.87v4.42H36Z"/><path class="cls-1" d="M60,35.92a19.93,19.93,0,0,1,1.91-3.07A2.9,2.9,0,0,1,64,32c.38,0,.93,1.09,1,1.71.1,2.76.11,5.54,0,8.3,0,.58-.79,1.12-1.21,1.69-.43-.55-1.14-1.07-1.22-1.66a36.24,36.24,0,0,1-.06-4.46c-2.59,2.62-2.59,2.62-4.83-.39A43.24,43.24,0,0,1,57.52,42a2.23,2.23,0,0,1-1.16,1.66c-1.26.27-1.36-.76-1.35-1.74,0-2.7,0-5.4.05-8.09,0-.64.6-1.79.88-1.77a3.57,3.57,0,0,1,2.23.94A16.36,16.36,0,0,1,60,35.92Z"/><path class="cls-1" d="M72.3,41.35c-1.84-.18-3.58-.64-4,1.81,0,.22-1.07.47-1.54.34a1.38,1.38,0,0,1-.69-1.21c.89-3.19,1.82-6.37,2.91-9.5a2.29,2.29,0,0,1,1.79-1,2,2,0,0,1,1.58,1c1.06,3.07,2,6.17,2.85,9.3a1.69,1.69,0,0,1-.85,1.44c-.4.11-1.1-.39-1.5-.8S72.48,41.87,72.3,41.35Zm-1.47-5.66-.35-.09-1,3.58h2.27Z"/><path class="cls-1" d="M78.89,41.53a21.08,21.08,0,0,1,3.33.06c.42.07.89.71,1,1.17.06.22-.63.9-1,.93a24.05,24.05,0,0,1-4.57,0,2,2,0,0,1-1.29-1.39q-.18-4.45,0-8.93c0-.51.8-1,1.23-1.48.43.55,1.21,1.07,1.24,1.64C79,36.12,78.89,38.74,78.89,41.53Z"/><path class="cls-1" d="M87,41.52a19.63,19.63,0,0,1,3.12,0c.46.08.83.67,1.24,1-.39.38-.74,1-1.16,1.08a23.85,23.85,0,0,1-4.55,0,1.79,1.79,0,0,1-1.16-1.27c-.1-3-.11-6.08,0-9.12,0-.48.8-.94,1.24-1.41.42.5,1.18,1,1.2,1.49C87.06,36,87,38.59,87,41.52Z"/></g></g></svg>