<svg xmlns="http://www.w3.org/2000/svg" viewBox="0 0 87.23 87.18"><defs><style>.cls-1{fill:#90b20a;}</style></defs><g id="Capa_2" data-name="Capa 2"><g id="Capa_1-2" data-name="Capa 1"><path class="cls-1" d="M82.52,67.4h2.09V61.82c0-1,0-2.14,1.35-2.1s1.23,1.09,1.22,2.05c0,2-.08,4.09,0,6.13.08,1.67-.66,2.26-2.23,2.16-.85,0-1.7,0-2.55,0-2.35,0-2.55-.19-2.55-2.5q0-12,0-24V39c-.67.54-1.07.82-1.42,1.15C65.77,52.29,59.06,66.9,59.9,84.67c0,.28.13.63,0,.83a18.86,18.86,0,0,1-1.26,1.68c-.43-.5-1.21-1-1.24-1.51a67.32,67.32,0,0,1,0-8.16c1.29-16.6,8.88-30,21.2-40.87a3,3,0,0,0,1.12-3.38c-2.24.24-2.44.07-2.54-2-7.56-1-14.63,1-21.52,3.75C32.42,44.18,17.75,60.9,11.91,85.27c-.05.22-.06.51-.2.64-.48.45-1,.84-1.52,1.25-.32-.63-.95-1.3-.88-1.89a30.32,30.32,0,0,1,1.07-4.45c7-24,22.5-40,45.72-48.79a5.1,5.1,0,0,0,1.61-.88H7.34v2.14q0,17.12,0,34.22c0,2.34-.2,2.54-2.51,2.54C-.71,70.05,0,70.5,0,65.22q0-26.05,0-52.1c0-4.73.05-4.78,4.76-5.5,0-1.54,0-3.11,0-4.69C4.8.74,5.46,0,7.58,0H66.3c1,0,2,.06,2,1.31s-1.06,1.27-2,1.27H7.45V5.71c.49.07,1,.12,1.47.2a6.74,6.74,0,0,1,5.67,4.54,5.16,5.16,0,0,0,5.26,3.94,6.64,6.64,0,0,1,6.19,5c.15.58-.37,1.34-.58,2-.59-.38-1.51-.62-1.71-1.15a4.84,4.84,0,0,0-4.65-3.34c-3.46-.17-5.63-2-6.79-5.23-.88-2.42-2.39-3.32-4.88-3V28.43H34.82a4.08,4.08,0,0,0-3.41-2.95A15.44,15.44,0,0,1,28.57,25c-.52-.2-.82-1-1.22-1.52a5.83,5.83,0,0,1,1.75-.9,8.19,8.19,0,0,1,2.17.23,7.08,7.08,0,0,1,6,4.43c.24.54,1,1.22,1.45,1.22,13.56.05,27.12,0,40.68,0,0,0,.11,0,.33-.1V2.6H76.23a29.94,29.94,0,0,1-3.91-.06c-.56-.08-1-.76-1.56-1.16.52-.45,1-1.26,1.58-1.29C74.88,0,77.44,0,80,0a2.15,2.15,0,0,1,2.42,2.42c0,1.69,0,3.39,0,5,.18.15.26.27.35.28,4.08.38,4.41.74,4.41,4.9V54.53a3.31,3.31,0,0,1,0,1.34,7.43,7.43,0,0,1-1.2,1.38c-.43-.42-1-.78-1.26-1.29a4.29,4.29,0,0,1-.07-1.69c0-14,0-28,0-42.05,0-1.53-.35-2.29-2.11-1.72Zm-77.83,0V10.51C3,10,2.56,10.6,2.57,12.18c0,17.86,0,35.72,0,53.58,0,.54.07,1.08.11,1.65Z"/><path class="cls-1" d="M60.83,19.08c-.25.27-.57.93-.95,1s-1.42-.36-1.47-.68C58,16.61,56,16.92,54.08,17a9.63,9.63,0,0,1-1.52,0,1.45,1.45,0,0,0-1.84,1.24,1.88,1.88,0,0,1-.45,1.08,7.63,7.63,0,0,1-1.66.77c-.21-.56-.74-1.23-.6-1.68.66-2.1,1.5-4.14,2.28-6.2s1.6-4.36,2.51-6.48a2.16,2.16,0,0,1,1.42-1.17,1.92,1.92,0,0,1,1.55,1C57.46,9.74,59,14,60.65,18.32,60.71,18.48,60.73,18.65,60.83,19.08Zm-4.42-4.8L54.32,8.82l-2.07,5.46Z"/><path class="cls-1" d="M70.53,10.19a12,12,0,0,1,0-2.84c.16-.61.83-1.09,1.27-1.64.43.5,1.22,1,1.23,1.5.1,3.84.08,7.69,0,11.53,0,1-.74,1.82-1.65,1.29a2.5,2.5,0,0,0-2.32,0,5.32,5.32,0,0,1-5.68-2.11,5.4,5.4,0,0,1,0-6.05A5.21,5.21,0,0,1,69.15,9.8Zm-2.69,7.45a2.75,2.75,0,0,0,2.67-2.73,2.65,2.65,0,0,0-2.82-2.7A2.72,2.72,0,0,0,65.08,15,2.81,2.81,0,0,0,67.84,17.64Z"/><path class="cls-1" d="M32.71,6.47c2.66,0,5.33,0,8,0,1,0,1.88.24,1.71,1.31a2.16,2.16,0,0,1-1.67,1.16q-8.09.12-16.16,0c-.58,0-1.14-.77-1.71-1.18.56-.42,1.1-1.19,1.68-1.22C27.26,6.39,30,6.47,32.71,6.47Z"/><path class="cls-1" d="M62.65,25.77c-2.09,0-4.19,0-6.29,0-.89,0-1.82-.12-1.83-1.27s.85-1.32,1.79-1.31c4.19,0,8.39-.05,12.58.06a2.25,2.25,0,0,1,1.78,1.22c.19,1.06-.81,1.3-1.73,1.3Z"/><path class="cls-1" d="M49.06,50.48c-.3-.25-.81-.47-.91-.81a1.6,1.6,0,0,1,.19-1.37,52.68,52.68,0,0,1,4.43-3.89,1.75,1.75,0,0,1,1.61.2,1.47,1.47,0,0,1,.09,1.45c-1.49,1.45-3.08,2.79-4.65,4.14A2.54,2.54,0,0,1,49.06,50.48Z"/><path class="cls-1" d="M39.88,62.25c-.28.55-.46,1-.68,1.34-.77,1.38-1.47,2.8-2.37,4.09-.29.42-1.09.48-1.65.71-.21-.57-.76-1.29-.58-1.67a47.17,47.17,0,0,1,2.91-5.14A1.66,1.66,0,0,1,39,61.22C39.33,61.31,39.59,61.89,39.88,62.25Z"/><path class="cls-1" d="M34.6,72.49c-.8,2.12-1.46,4-2.28,5.87a1.49,1.49,0,0,1-1.37.5c-.43-.24-.95-1-.83-1.4a45.44,45.44,0,0,1,2.15-5.66c.15-.34,1.08-.57,1.55-.46S34.39,72.15,34.6,72.49Z"/><path class="cls-1" d="M75.05,34.69c-.59.22-1.19.42-1.77.67-1.51.64-3,1.41-4.53,1.9-.56.18-1.33-.3-2-.48.3-.59.44-1.45.92-1.71a47.91,47.91,0,0,1,4.79-2.15c1-.42,1.62,0,1.87,1Z"/><path class="cls-1" d="M41.22,59.14c-.25-.75-.84-1.64-.61-2a48.41,48.41,0,0,1,3.91-4.89,1.52,1.52,0,0,1,1.49,0,1.71,1.71,0,0,1,.24,1.61C45.1,55.51,43.8,57,42.52,58.52,42.32,58.75,41.93,58.81,41.22,59.14Z"/><path class="cls-1" d="M64.09,39.2a3.35,3.35,0,0,1-.74.94,48.07,48.07,0,0,1-4.47,2.77c-.45.23-1.19-.08-1.8-.15.13-.64,0-1.56.43-1.86A37.6,37.6,0,0,1,62.07,38C63.1,37.39,64,37.91,64.09,39.2Z"/><path class="cls-1" d="M14.53,18.82a9.61,9.61,0,0,1,2.52.06,2,2,0,0,1,1.21,1.3c.06.31-.71,1.11-1.14,1.15a34.08,34.08,0,0,1-5.25,0c-.43,0-1.18-.86-1.11-1.17A2.05,2.05,0,0,1,12,18.87,9.78,9.78,0,0,1,14.53,18.82Z"/><path class="cls-1" d="M14.5,26.25A10.15,10.15,0,0,1,12,26.2c-.5-.14-.86-.82-1.29-1.26.41-.39.79-1.1,1.22-1.13a35.25,35.25,0,0,1,5.24,0c.43,0,.8.75,1.2,1.16-.43.43-.81,1.09-1.32,1.23A10.08,10.08,0,0,1,14.5,26.25Z"/><path class="cls-1" d="M31.05,83.14a18.77,18.77,0,0,1-.81,3.08c-.2.44-1.06,1-1.35.87a2,2,0,0,1-1-1.43,6.76,6.76,0,0,1,.64-2.76,1.93,1.93,0,0,1,1.54-.8C30.48,82.13,30.82,82.86,31.05,83.14Z"/></g></g></svg>