<svg xmlns="http://www.w3.org/2000/svg" viewBox="0 0 86.37 86.42"><defs><style>.cls-1{fill:#4e7eaf;}</style></defs><g id="Capa_2" data-name="Capa 2"><g id="Capa_1-2" data-name="Capa 1"><path class="cls-1" d="M19.67,76.72c1.88,1.82,3.59,3.46,5.27,5.13,1.29,1.29,1.26,1.92-.06,3.17a4.29,4.29,0,0,1-6.35,0c-1.24-1.2-2.35-2.54-3.1-3.37-2.31.7-4,1.54-5.77,1.67a6,6,0,0,1-6.08-3.82,6.53,6.53,0,0,1,.89-7.18,3.28,3.28,0,0,1,.59-.64c4.38-3.39,6.27-8.18,7.53-13.33.3-1.24.62-2.48,1-3.68a3,3,0,0,1,5-1.33,37.32,37.32,0,0,1,3,2.94A2,2,0,0,0,24,57a4.46,4.46,0,0,1,5.47,5.35,2.16,2.16,0,0,0,.76,2.53c.82.73,1.58,1.53,2.34,2.33,2.09,2.2,1.33,4.68-1.6,5.53-3.1.9-6.18,1.9-9.25,2.91A13.62,13.62,0,0,0,19.67,76.72Zm-4.51-16.4c-1,2.49-2.07,5-3,7.52a1.56,1.56,0,0,0,.18,1.32C14,71,15.81,72.82,17.44,74.48l8.32-3.54ZM9.62,70.88c-.9,1-2,2-2.95,3.17a4,4,0,0,0,5.57,5.63c1.15-1,2.2-2.05,3.18-3Zm20.86-.66,0-.35L16.31,55.62c-.54.68-.29,1.33.45,2.06,3.91,3.85,7.76,7.77,11.69,11.61A6.64,6.64,0,0,0,30.48,70.22ZM17.29,78.69c-.05.15-.36.58-.25.83.59,1.41,4.13,4,4.91,3.87Z"/><path class="cls-1" d="M76.49,19.87a9.94,9.94,0,1,1,9.88-10A9.92,9.92,0,0,1,76.49,19.87Zm-3.95-10c-.89-2.23-.63-4,1-5.4A4.52,4.52,0,0,1,78.7,4c2,1.2,2.39,2.86,1.6,6.35l2.51,2.39a6.72,6.72,0,0,0-2-8.38,7.07,7.07,0,0,0-9.11.27,6.52,6.52,0,0,0-1.62,8.11Zm8.2,5.61c-.84-2.26-2.36-3.36-4.53-3.27a4.18,4.18,0,0,0-4,3.36A6.54,6.54,0,0,0,80.74,15.46Zm-4.43-9.9c-.67,1-1.46,1.7-1.35,2.17.15.63,1,1.09,1.55,1.62.5-.59,1.3-1.13,1.39-1.78C78,7.1,77.09,6.5,76.31,5.56Z"/><path class="cls-1" d="M9.88,0A9.94,9.94,0,1,1,0,10,9.93,9.93,0,0,1,9.88,0ZM6.05,9.87c-.9-2.25-.63-4,1-5.43A4.42,4.42,0,0,1,12.21,4c2.48,1.63,2.51,3.92,1.52,6.25l2.59,2.47a6.74,6.74,0,0,0-2.14-8.49,7.06,7.06,0,0,0-9.11.51c-2.34,2.2-3,5.58-1.48,7.94Zm8.21,5.64c-.89-2.35-2.41-3.43-4.59-3.32a4.14,4.14,0,0,0-4,3.39A6.69,6.69,0,0,0,14.26,15.51Zm-2-7.7C11.16,7,10.52,6.21,10,6.29A2.35,2.35,0,0,0,8.47,7.78c-.08.42.86,1.43,1.39,1.47S11.12,8.53,12.23,7.81Z"/><path class="cls-1" d="M76.5,66.53a9.94,9.94,0,1,1-10,9.9A9.94,9.94,0,0,1,76.5,66.53Zm3.68,10.19,2.67,2.54a6.92,6.92,0,0,0-2.49-8.76,7.12,7.12,0,0,0-9.07,1c-2.13,2.23-2.63,5.63-1.23,7.53L72.5,76.4c-.85-2.52-.47-4.38,1.35-5.7a4.44,4.44,0,0,1,5.34.14C80.9,72.21,81.23,74.08,80.18,76.72ZM80.71,82a4.42,4.42,0,0,0-8.56,0A6.54,6.54,0,0,0,80.71,82Zm-2-7.73c-1.06-.76-1.71-1.58-2.2-1.49A2.31,2.31,0,0,0,75,74.31c-.08.42.87,1.43,1.4,1.46S77.62,75,78.72,74.3Z"/><path class="cls-1" d="M43.13,19.87a9.94,9.94,0,1,1,10-9.92A9.94,9.94,0,0,1,43.13,19.87Zm6.59-7.2A7.1,7.1,0,0,0,38.51,4.55a6.76,6.76,0,0,0-1.87,7.9l2.6-2.58c-.8-2.54-.46-4.27,1.25-5.61a4.46,4.46,0,0,1,6.63,5.65Zm-2.28,2.82a4.39,4.39,0,0,0-8.51,0A6.44,6.44,0,0,0,47.44,15.49ZM45.5,7.84c-1.06-.79-1.69-1.62-2.19-1.55s-1.15.92-1.72,1.43c.49.54.95,1.49,1.49,1.53S44.36,8.55,45.5,7.84Z"/><path class="cls-1" d="M86.37,43.19a9.93,9.93,0,1,1-10-9.92A10,10,0,0,1,86.37,43.19Zm-13.7.29c-1-2.73-.67-4.65,1.13-6A4.35,4.35,0,0,1,79,37.41c1.84,1.31,2.25,3.3,1.24,6.09L82.81,46a6.74,6.74,0,0,0-2-8.37,7.18,7.18,0,0,0-9.12.26,6.51,6.51,0,0,0-1.61,8.09Zm-.57,5.26a6.59,6.59,0,0,0,8.61,0,4.41,4.41,0,0,0-4.16-3.28C74.55,45.35,73,46.48,72.1,48.74Zm4.72-9.58h-.75c-.4.63-1.14,1.28-1.11,1.9a2,2,0,0,0,1.45,1.39,2,2,0,0,0,1.49-1.36C77.94,40.48,77.22,39.81,76.82,39.16Z"/><path class="cls-1" d="M54,38.21a5.75,5.75,0,1,1-5.66-5.82A5.76,5.76,0,0,1,54,38.21Zm-5.68-3a2.95,2.95,0,1,0,2.88,3A3,3,0,0,0,48.31,35.19Z"/><path class="cls-1" d="M50.15,65.11a5.71,5.71,0,0,1,5.77,5.69,5.82,5.82,0,0,1-5.72,5.79,5.75,5.75,0,0,1-5.74-5.74A5.65,5.65,0,0,1,50.15,65.11Zm0,8.68a3,3,0,0,0,3-3,2.92,2.92,0,0,0-2.91-2.85,2.84,2.84,0,0,0-2.93,2.81A2.93,2.93,0,0,0,50.15,73.79Z"/><path class="cls-1" d="M21.36,36.07a5.65,5.65,0,0,1-5.65,5.78A5.71,5.71,0,0,1,9.89,36.2a5.83,5.83,0,0,1,5.69-5.83A5.74,5.74,0,0,1,21.36,36.07Zm-2.81.1a3,3,0,0,0-3-3A3,3,0,0,0,12.7,36.1a2.93,2.93,0,0,0,3,2.95A2.85,2.85,0,0,0,18.55,36.17Z"/><path class="cls-1" d="M67.1,20.83a9.44,9.44,0,0,1-.83,1.22C63,25.39,59.64,28.7,56.32,32c-.68.69-1.43,1.1-2.25.29s-.41-1.57.28-2.25c3.32-3.32,6.62-6.66,10-9.93a2.61,2.61,0,0,1,1.83-.48C66.49,19.68,66.76,20.37,67.1,20.83Z"/><path class="cls-1" d="M43.05,44.81a6.74,6.74,0,0,1-.8,1.26c-3.34,3.38-6.71,6.73-10.07,10.09-.71.72-1.6,1.06-2.19.14a2.21,2.21,0,0,1,.27-2.06c3.29-3.43,6.66-6.78,10.07-10.09A2.24,2.24,0,0,1,42,43.7C42.37,43.75,42.66,44.37,43.05,44.81Z"/><path class="cls-1" d="M15.08,26.94c-.31.31-.73,1.06-1.21,1.1a1.89,1.89,0,0,1-1.55-.92,11.2,11.2,0,0,1-.76-3.53,1.82,1.82,0,0,1,1-1.45,1.83,1.83,0,0,1,1.54.91A28,28,0,0,1,15.08,26.94Z"/><path class="cls-1" d="M63.14,75.06a34.61,34.61,0,0,1-4.06-1,1.71,1.71,0,0,1-.81-1.45,1.91,1.91,0,0,1,1.44-1.1,11.37,11.37,0,0,1,3.55.75,2,2,0,0,1,1,1.53C64.22,74.28,63.47,74.71,63.14,75.06Z"/><path class="cls-1" d="M37.2,66.59a29.06,29.06,0,0,1,4,1A1.93,1.93,0,0,1,42,69.2c0,.37-.92.94-1.38.9a14.21,14.21,0,0,1-3.71-.8,1.7,1.7,0,0,1-.84-1.44C36.19,67.35,36.87,66.94,37.2,66.59Z"/><path class="cls-1" d="M19.91,49.06c-.33.32-.72,1-1.18,1a1.77,1.77,0,0,1-1.52-.72,15.57,15.57,0,0,1-.81-3.89,1.65,1.65,0,0,1,1.07-1.24,1.73,1.73,0,0,1,1.45.82A31.24,31.24,0,0,1,19.91,49.06Z"/><path class="cls-1" d="M35.84,28.18c.3.62.95,1.31.88,1.92A7.6,7.6,0,0,1,35.59,33a1.77,1.77,0,0,1-1.41.67c-.37,0-1.08-.73-1-.94a39.57,39.57,0,0,1,1.56-4.09C34.79,28.46,35.14,28.44,35.84,28.18Z"/><path class="cls-1" d="M31.73,38.47c.34.7,1,1.39.91,2a7.54,7.54,0,0,1-1.11,2.88,1.65,1.65,0,0,1-1.41.64c-.43-.09-1.15-.83-1.07-1.1a28,28,0,0,1,1.48-3.81C30.62,38.88,31,38.82,31.73,38.47Z"/><path class="cls-1" d="M54,53.51c-.43-.36-1.09-.66-1.17-1.07a1.82,1.82,0,0,1,.52-1.58,9.72,9.72,0,0,1,3-1.21,1.81,1.81,0,0,1,1.44.85A1.5,1.5,0,0,1,57.49,52,27.17,27.17,0,0,1,54,53.51Z"/><path class="cls-1" d="M48.12,54.86c-.64.71-.9,1.2-1.31,1.41a10,10,0,0,1-2.74,1c-.47.08-1.4-.32-1.51-.69a1.93,1.93,0,0,1,.5-1.73,7.49,7.49,0,0,1,3-1.16C46.64,53.67,47.28,54.37,48.12,54.86Z"/><path class="cls-1" d="M36,57.56c.43.39,1,.69,1.16,1.12a1.63,1.63,0,0,1-.46,1.47,12.11,12.11,0,0,1-3.18,1.25,1.54,1.54,0,0,1-1.34-.71,1.78,1.78,0,0,1,.38-1.63A24.5,24.5,0,0,1,36,57.56Z"/><path class="cls-1" d="M28.81,50.53a17.4,17.4,0,0,1-1.34,3.15,2,2,0,0,1-1.7.57c-.36-.08-.81-1-.72-1.47a8.43,8.43,0,0,1,1.1-2.87,1.74,1.74,0,0,1,1.53-.65C28.17,49.41,28.49,50.13,28.81,50.53Z"/></g></g></svg>