<svg xmlns="http://www.w3.org/2000/svg" viewBox="0 0 60.2 60.11"><defs><style>.cls-1{fill:#fff;}</style></defs><g id="Capa_2" data-name="Capa 2"><g id="Capa_1-2" data-name="Capa 1"><path class="cls-1" d="M1.93,55.2a2.45,2.45,0,0,0,2.4,3.08c.82,0,1.64,0,2.46,0q17.87,0,35.73,0c.75,0,1.91-.34,1.87.93s-1.14.83-1.86.83H4.69A4.45,4.45,0,0,1,0,55.93a2.13,2.13,0,0,1,2.3-2.58c1.09,0,2.17,0,3.11,0V27.14c0-3.35,1-4.37,4.3-4.4l1,0c-.3-.35-.5-.62-.74-.85L1.42,13.28C0,11.89-.35,10.5.32,9.05A3.65,3.65,0,0,1,4.06,7Q10.52,7,17,7a4.81,4.81,0,0,0,1.46-.48A7.07,7.07,0,0,1,19.87,6c.78-.07,1.56,0,2.37,0,.43-1.62,1.91-2,3.11-2.68a1.12,1.12,0,0,1,1,.35c.14.26-.11.74-.21,1.12,0,.06-.12.11-.19.13C24,5.49,23.92,7,24,8.7s0,3.53.06,5.28a1.8,1.8,0,0,0,.73,1.28c2.07,1.27,4.19,2.45,6.3,3.64.25.14.67.31.86.2,2.17-1.21,4.31-2.47,6.54-3.76-.71-1-1.33-1.33-2.33-.68a24.73,24.73,0,0,1-3.46,2,2.68,2.68,0,0,1-1.93,0,24.76,24.76,0,0,1-4-2.28,2.56,2.56,0,0,1-.93-1.69,24.61,24.61,0,0,1,0-4.46,2.55,2.55,0,0,1,.93-1.7,23.94,23.94,0,0,1,4-2.3,2.65,2.65,0,0,1,1.94,0,21.1,21.1,0,0,1,3.37,1.9c1,.66,1.63.35,2.44-.51-.41-.29-.73-.54-1.08-.74-1.63-1-3.27-1.85-4.88-2.82a1.4,1.4,0,0,0-1.72,0A6.4,6.4,0,0,1,29.2,3c-.35.11-.82-.13-1.23-.21.1-.41.06-1,.32-1.19A10.49,10.49,0,0,1,31,.08a2.83,2.83,0,0,1,2,.29c1.91,1,3.75,2.1,5.62,3.18,1.41.82,1.86,2,1.23,3.2a3.29,3.29,0,0,1-3.75,1.4,39.71,39.71,0,0,1-3.48-2,1.48,1.48,0,0,0-1.8,0c-3.43,2-3.46,2-3.23,5.95,0,.37.41.73.63,1.1,0,0,.06,0,.1.06,1.16.62,2.33,1.73,3.5,1.72s2.29-1.06,3.34-1.8a3.08,3.08,0,0,1,4,.13,2.15,2.15,0,0,1,0,3.65c-2.09,1.31-4.21,2.57-6.41,3.69a2.78,2.78,0,0,1-2.19-.07c-2.39-1.24-4.71-2.64-7-4-.27-.16-.64-.35-.7-.6-.36-1.31-1.38-1-2.33-1.14a11.65,11.65,0,0,1-2.28-.67c-.18-.06-.34-.25-.51-.25-1.86,0-3.71,0-5.9,0,2.15,2.14,4,4.05,6,5.92a1.31,1.31,0,0,0,1,.13A6.4,6.4,0,0,1,24.59,22a2.07,2.07,0,0,0,1.73.71q12.17,0,24.32,0c3,0,4.12,1.13,4.12,4.11v26.5c.86,0,1.9,0,2.94,0,1.86,0,2.72,1,2.46,2.88a4.45,4.45,0,0,1-4.37,3.84c-2.74,0-5.48,0-8.23,0-.67,0-1.34,0-1.32-.92s.67-.86,1.29-.86c2.7,0,5.4,0,8.1,0a2.46,2.46,0,0,0,2.63-3.08Zm47.43-5.46V28.19H26.47V49.74Zm-34.43,0h9.72V28.25c0-.63,0-1.26,0-1.88a4.89,4.89,0,0,0-4.11-4.61A4.74,4.74,0,0,0,15.22,25a7.34,7.34,0,0,0-.28,2.2c0,7.08,0,14.16,0,21.24ZM26.45,26.28h1.41c7.25,0,14.49,0,21.74,0,1,0,1.67.15,1.66,1.39q0,11.28,0,22.57c0,1-.42,1.38-1.42,1.38H10.35c-1,0-1.42-.36-1.42-1.38Q9,39,8.93,27.66c0-1,.44-1.41,1.42-1.39s1.85,0,2.75,0c.18-1.49,0-1.71-1.28-1.73-.82,0-1.64,0-2.47,0-1.78,0-2.11.33-2.11,2.13q0,12.23,0,24.45c0,1.9.3,2.21,2.16,2.21H50.77c1.88,0,2.19-.3,2.19-2.19V26.82c0-2-.28-2.27-2.22-2.27H26.15ZM16.12,20.76,4.63,9.27A1.49,1.49,0,0,0,4.25,9a1.59,1.59,0,0,0-2.4,1.42A2.85,2.85,0,0,0,2.67,12c3.51,3.57,7.06,7.1,10.61,10.64a7.22,7.22,0,0,0,.68.56l-.25-.38Zm-3,29V28.16H10.84V49.74ZM17.63,8.9h-11c1.09,1,2,1.89,2.85,2.71.22.21.49.48.75.48,2.44,0,4.89,0,7.36,0Zm1.95-1.07V13h2.64V7.83Z"/><path class="cls-1" d="M42.7,46.56c-.66-.31-1.06-.46-1.42-.68-.63-.39-1-.26-1.21.46-.53,1.66-.74,1.74-2.64,1.77a1.87,1.87,0,0,1-2.13-1.7c-.15-.9-.62-.82-1.26-.47-1.33.74-1.66.66-2.84-.53s-1.21-1.49-.45-2.85c.38-.67.2-1-.48-1.21-1.6-.53-1.78-.78-1.77-2.4s.17-1.83,1.82-2.37c.68-.23.81-.59.41-1.13a1.89,1.89,0,0,1,.29-2.8c1.34-1.3,1.5-1.38,3.13-.57.63.32,1,.13,1.09-.51a1.91,1.91,0,0,1,2.17-1.8c1.83,0,2,.1,2.61,1.82.22.63.58.83,1.14.42a1.89,1.89,0,0,1,2.8.28c1.28,1.31,1.36,1.48.58,3.12-.29.62-.13.93.5,1.13,1.68.54,1.75.71,1.77,2.63a1.85,1.85,0,0,1-1.69,2.13c-1,.18-.68.71-.43,1.38a2.54,2.54,0,0,1,.1,1.92A11.43,11.43,0,0,1,42.7,46.56ZM32.12,34.17c.08.17.17.38.28.58A2.22,2.22,0,0,1,31,38.22c-.9.23-.68.76-.57,1.31,2.46.67,2.94,1.84,1.74,4.3l.75.71c2.1-1.23,3.27-.84,4.12,1.24a1,1,0,0,0,.75.49.92.92,0,0,0,.62-.62,2.27,2.27,0,0,1,1.33-1.6c1.14-.68,1.9-.07,2.83.5l.72-.7a3.56,3.56,0,0,0-.11-.36c-1.11-1.9-.66-3.11,1.37-3.9a.94.94,0,0,0,.48-.74.92.92,0,0,0-.62-.62,2.23,2.23,0,0,1-1.62-1.32c-.62-1.14-.1-1.92.51-2.8l-.74-.81-.82.47a2.32,2.32,0,0,1-3.33-1.32c-.11-.32-.46-.57-.7-.85-.27.29-.67.54-.78.88a2.31,2.31,0,0,1-3.25,1.36C33,33.4,32.53,33.38,32.12,34.17Z"/><path class="cls-1" d="M19.72,23.37a3.43,3.43,0,0,1,.09,6.86,3.43,3.43,0,1,1-.09-6.86Zm1.68,3.42a1.69,1.69,0,0,0-1.64-1.67,1.67,1.67,0,0,0-1.67,1.75,1.65,1.65,0,0,0,1.69,1.6A1.69,1.69,0,0,0,21.4,26.79Z"/><path class="cls-1" d="M41.43,39a3.72,3.72,0,0,1-3.8,3.76A3.78,3.78,0,1,1,41.43,39Zm-3.81,2a2.07,2.07,0,0,0,2.07-2,2,2,0,0,0-2-2,2,2,0,0,0-2,1.95A2,2,0,0,0,37.62,41Z"/></g></g></svg>