<svg xmlns="http://www.w3.org/2000/svg" viewBox="0 0 96.52 98.15"><defs><style>.cls-1{fill:#fff;}</style></defs><g id="Capa_2" data-name="Capa 2"><g id="Capa_1-2" data-name="Capa 1"><path class="cls-1" d="M45.83,62.07V94.84c0,.51.17,1.12,0,1.51a12.27,12.27,0,0,1-1.53,1.8c-.46-.59-1.23-1.14-1.31-1.78a36.42,36.42,0,0,1-.06-4.56,40.38,40.38,0,0,1-4.14-.45,7.87,7.87,0,0,1-6.22-7.54c-.05-1.14-.06-2.3,0-3.45.1-2,.12-3.67-2-5-1-.64-1.66-2.68-1.58-4,.15-2.68-.85-4.14-3-5.68A30.72,30.72,0,0,1,14.19,33.22c.1-.37.21-.74.31-1.11.28-1,.9-1.93,2-1.34a2.39,2.39,0,0,1,.74,2.12,29,29,0,0,0,.13,15.9A27.25,27.25,0,0,0,29.91,64.87,3.16,3.16,0,0,1,31.78,68c-.19,6.21-.17,6,5.92,6,1.65,0,3.3,0,5.06,0V12.66A27,27,0,0,0,25.85,19.6a50.54,50.54,0,0,0-4.71,5.28c-.64.76-1.19,1.68-2.32,1s-.74-1.72-.09-2.63A30.64,30.64,0,0,1,40.84,9.91l2-.25c0-2,0-3.8,0-5.64,0-1.08.23-2,1.48-2s1.48,1,1.48,2v20.7l.38.13c.42-.93.84-1.86,1.25-2.79,1.28-2.92,2.58-5.84,3.84-8.77.56-1.32,1.37-1.7,2.72-1.07,2,.91,4,1.74,6,2.63.92-.91.75-1.68,0-2.62C57.38,9,57.4,9.43,60.34,6.19c2.26-2.5,2.27-2.49,5.18-.7,2.32,1.43,3.52.83,3.86-1.93C69.77.34,69.77.34,72.94.12l.57,0c3.73-.22,3.69-.21,4.62,3.34A3.87,3.87,0,0,0,79.38,5.3c.93.78,1.72.13,2.52-.49,2.88-2.24,2.89-2.22,5.63.23l.71.65c2,1.84,2,1.89.54,4.29-.27.43-.58.85-.81,1.3a2,2,0,0,0,1.43,2.87c.88.15,1.77.28,2.66.35a1.7,1.7,0,0,1,1.76,1.85c0,.38,0,.76.05,1.15.14,4.33.14,4.33-4,5.55a2,2,0,0,0-1.12,3.12c2.48,3.61,2.48,3.61-.48,6.81-1.89,2.05-1.92,2.09-4.29.55-1.35-.87-2.62-1.65-3.84-.41.2,2,.74,3.85.46,5.58S79.26,42.09,78.42,44c.79,0,1.39.12,2,.12,4.6,0,9.2,0,13.8,0,1.65,0,2.31.68,2.31,2.29,0,7.74,0,15.48-.06,23.21a3.68,3.68,0,0,1-.91,2.19,67.4,67.4,0,0,1-5,5.29,4.49,4.49,0,0,1-2.65,1.1c-3.25.12-6.51,0-10,0,2.19.89,3.45,5,2.16,6.68a3.77,3.77,0,0,1-2.16,1c-2.62.51-2.82,1-1.45,3.21.49.79,1.09,2.22.75,2.67a15.61,15.61,0,0,1-3.91,3.51c-.37.23-1.54-.65-2.28-1.13-1.71-1.09-2.4-.78-2.89,1.17-.25,1-.73,2.56-1.32,2.66a14.24,14.24,0,0,1-5.24-.2c-.46-.09-.75-1.49-.94-2.33-.5-2.24-1.12-2.46-3.1-1.25-.79.49-2.21,1.15-2.66.82a14.86,14.86,0,0,1-3.53-3.88c-.26-.42.64-1.66,1.13-2.45,1-1.62.68-2.34-1.17-2.8-1-.25-2.62-.65-2.74-1.23a14.77,14.77,0,0,1,.06-5.26c.08-.45,1.46-.8,2.28-1,2.34-.53,2.57-1.09,1.37-3-.49-.8-1.22-2.19-.9-2.64a12.91,12.91,0,0,1,3.81-3.59c.5-.3,1.86.74,2.77,1.27,1.27.73,2.39.34,2.47-1a1.44,1.44,0,0,0-.6-1.15C55.26,66.19,50.71,64.21,45.83,62.07Zm7.92-46.75a7,7,0,0,0-.47.73c-2.36,5.38-4.72,10.75-7,16.14a5.2,5.2,0,0,0-.39,2c0,7.73,0,15.46-.05,23.19a2,2,0,0,0,1.43,2.11c4.63,2,9.23,4,13.85,6a16.81,16.81,0,0,0,1.62.49,86.27,86.27,0,0,0-.06-9c-.43-4,.94-7,3.82-9.78,2.2-2.15,4.19-3.73,7.39-3.24a2,2,0,0,0,1.63-.81c.86-1.62,1.52-3.34,2.3-5.13-2.57-1.14-5-2.22-7.46-3.29-2.62-1.15-2.73-1.42-1.6-4s2.17-5,3.29-7.52ZM90.4,72.75c2.35-1.62,3.33-3.41,3.2-6.1-.23-5.1-.06-10.21-.07-15.32,0-.52-.08-1-.13-1.61a6,6,0,0,0-3,6.25,18,18,0,0,1-.06,4.58,2.08,2.08,0,0,1-1.47,1.31c-.38.06-1.08-.72-1.32-1.26a5.19,5.19,0,0,1-.08-1.9c0-1.69,0-3.38,0-5H65.58c0,3.86,0,7.56,0,11.25,0,.37.26,1,.49,1,1.69.35,1.65,1.73,1.92,3,.46,2.18,1.1,2.41,3,1.24.77-.49,2-1.3,2.47-1a15,15,0,0,1,3.72,3.47c.37.48-.11,1.62-.2,2.5H87.44c0-2.22,0-4.32,0-6.41,0-1.06.31-2.12,1.53-1.88.58.11,1.24,1.13,1.37,1.83A24.56,24.56,0,0,1,90.4,72.75ZM72.51,3.09c-.6,2.22-.29,4.32-3.06,5.7s-4.35-.53-6.39-1.25L61.48,9.33c.32.45.51.78.76,1.06,1.29,1.43,2.44,2.85,1,4.89-.14.2.27,1,.63,1.24a13.06,13.06,0,0,0,2.19,1c2.59-5.07,5.18-6.81,9.44-6.4a8.2,8.2,0,0,1,7.08,6.13c1,4.73-1,8-5.24,10.14l1.31,3.2c1.85-.89,3.54-2.23,5.46-.37,1.48,1.44,2.55.79,3.29-.94-1.11-1.82-2.9-3.07-1.78-6S89,20.52,91,19.71c-.05-.8-.1-1.55-.16-2.33-2.09-.64-4.27-.18-5.66-3s.33-4.34,1.25-6.36L84.68,6.42c-2,1.09-3.17,2.92-6.14,1.93S75.73,5,74.92,3.09Zm-8,65.72c-.44.46-1.16.85-1.29,1.38-.84,3.46-3.63,4.61-6.78,2.78-.48-.28-1.27,0-2.22,0,.39.73.5,1,.64,1.17,2.13,3.26,1.12,6-2.59,7-.42.12-.73.67-1.08,1,.43.35.82.91,1.31,1,3.21.75,4.53,3.87,2.72,6.55-.24.36-.45.73-1.06,1.72,1.16,0,1.92.13,2.4-.15,3-1.79,5.89-.67,6.71,2.66.12.49.68.88,1,1.31.36-.42.94-.8,1-1.29.82-3.34,3.83-4.55,6.67-2.61.31.21.64.39.91.57,1.16-.57,1.11-1.21.46-2.16a4,4,0,0,1,2.68-6.48c1.36-.22,1.56-.79,1.08-1.87-1.63-.49-3.35-.29-4.13-2.52-.65-1.85-.76-3.19.5-4.71.26-.3-.14-1.14-.26-1.89C68.44,75,66.15,74.08,64.54,68.81ZM42.76,88.48V77.06H35.43c0,1.89,0,3.66,0,5.43C35.45,87.24,37.84,89.22,42.76,88.48Zm25.1-37.91c6.1,0,11.91-.2,17.7.09,2.89.14,4.18-1.41,5.77-3.49-.91-.05-1.52-.1-2.14-.1-5.1,0-10.22.2-15.32-.08C71,46.83,69.39,48.13,67.86,50.57Zm9-26.34a5.18,5.18,0,0,0,3-6.06,5.53,5.53,0,0,0-5.43-4.26c-2.74.06-4.78,1.93-5.26,5a25.36,25.36,0,0,1,4.24,1.94A26.87,26.87,0,0,1,76.82,24.23Zm-3,2.17-2.49,5.7,5.69,2.47Z"/><path class="cls-1" d="M5,39.51a14,14,0,0,1,3,.05c.65.16,1.18.86,1.76,1.31-.52.52-1,1.45-1.58,1.49a43.55,43.55,0,0,1-6.66,0c-.55,0-1-1-1.56-1.5.52-.45,1-1.18,1.58-1.29A18.57,18.57,0,0,1,5,39.51Z"/><path class="cls-1" d="M20.85,66.45A8.61,8.61,0,0,1,20,67.82a57,57,0,0,1-4.37,4.29c-.5.42-1.51.24-2.28.33.08-.78-.11-1.79.31-2.29a47,47,0,0,1,4.45-4.48,2.26,2.26,0,0,1,1.72-.34C20.19,65.39,20.46,66,20.85,66.45Z"/><path class="cls-1" d="M20.28,15.27c-.22.32-.4.92-.77,1.08a1.82,1.82,0,0,1-1.57-.06c-1.78-1.64-3.51-3.35-5.14-5.14a1.76,1.76,0,0,1,0-1.68c.28-.36,1.36-.64,1.6-.41,1.92,1.75,3.74,3.64,5.57,5.5C20.14,14.68,20.15,14.91,20.28,15.27Z"/><path class="cls-1" d="M70.87,82.22a6.55,6.55,0,1,1-6.5-6.65A6.63,6.63,0,0,1,70.87,82.22Zm-6.58,3.6a3.65,3.65,0,1,0-3.66-3.7A3.81,3.81,0,0,0,64.29,85.82Z"/></g></g></svg>