<svg xmlns="http://www.w3.org/2000/svg" viewBox="0 0 61.41 65.4"><defs><style>.cls-1{fill:#fff;}</style></defs><g id="Capa_2" data-name="Capa 2"><g id="Capa_1-2" data-name="Capa 1"><path class="cls-1" d="M16.48,48c1.62-1.24,3-2.27,4.3-3.31a1.17,1.17,0,0,0,.33-.53c.84-2.39,2.61-3.34,5-3.26a8.7,8.7,0,0,0,.89,0c.08,0,.15-.06.35-.16v-17c0-3-1.54-4.53-4.58-4.53H6.46c-2.95,0-4.48,1.53-4.52,4.47a5.46,5.46,0,0,1-.06,1.52c-.11.36-.54.84-.84.85a1.21,1.21,0,0,1-.94-.75c-.64-4.82,1.78-8,6.31-8H24.82V16c0-3,0-6,0-8.94a7,7,0,0,1,6.8-7C36.09,0,40.56,0,45,.06A1.58,1.58,0,0,1,46.25,1c.18.85-.56,1-1.25,1H32.87c-4.17,0-6.16,2-6.16,6.21,0,3,0,6,0,8.94a2.83,2.83,0,0,0,.73,1.73,6.36,6.36,0,0,1,1.83,4.61c0,3.1.05,6.21,0,9.32a1.41,1.41,0,0,0,1.32,1.65,11.08,11.08,0,0,0,1.9.16c3.49,0,7,0,10.47,0,1.21,0,1.72.44,1.64,1.66-.06.91,0,1.84,0,3.06,1.89-1.45,3.5-2.76,5.2-3.94A6.17,6.17,0,0,1,52,34.6a9.59,9.59,0,0,1,1.78,0c3.59,0,5.72-2.12,5.73-5.72q0-9.9,0-19.79a19.7,19.7,0,0,0-.09-2.55A5.09,5.09,0,0,0,54.63,2C53.7,1.93,52.76,2,51.83,2c-.71,0-1.42-.19-1.27-1A1.6,1.6,0,0,1,51.79.07a16.11,16.11,0,0,1,3.93.16,7,7,0,0,1,5.67,6.91q0,11.12,0,22.22a7,7,0,0,1-7.13,7.12,7.36,7.36,0,0,0-5.4,1.93,48.83,48.83,0,0,1-4.36,3.34,1.48,1.48,0,0,1-1.23.24,1.52,1.52,0,0,1-.54-1.15c-.07-1.36,0-2.72,0-4.39H29.39v4.49c2.76,0,5.47,0,8.19,0a4.46,4.46,0,0,1,4.56,3.36,11.05,11.05,0,0,1,.12,2.16,24.36,24.36,0,0,1,0,3.31c-.06.45-.6.83-.92,1.24-.3-.42-.83-.83-.87-1.28-.13-1.26,0-2.55,0-3.83,0-2.06-.92-3-2.94-3H25.82c-2,0-2.95.93-3,3q0,5.74,0,11.5a2.58,2.58,0,0,0,2.9,2.92H31c2,0,2,0,2.36,2,.48-.36.94-.66,1.34-1a3.73,3.73,0,0,1,2.88-1.05c1.77.06,2.73-1,2.8-2.75A5.44,5.44,0,0,1,40.44,56a1.38,1.38,0,0,1,.94-.76,1.13,1.13,0,0,1,.83.72c.47,3.49-.92,6.12-4.63,6.3a3.55,3.55,0,0,0-1.72.64c-1,.66-1.88,1.46-2.84,2.15s-1.67.31-1.75-.81c-.05-.59,0-1.19,0-2H27.69c-.85,0-1.71,0-2.56,0A4.32,4.32,0,0,1,21,57.74c0-3.45,0-6.89,0-10.63-.81.6-1.47,1.06-2.12,1.55C18,49.3,17.19,50,16.32,50.6s-1.67.28-1.72-.84,0-2,0-3.28H12.3c-2.05,0-4.09,0-6.13,0a5.87,5.87,0,0,1-6.12-6.1c0-2.94,0-5.88,0-8.82,0-.7,0-1.49.92-1.51s1,.84,1,1.57c0,2.77,0,5.54,0,8.3,0,3.13,1.49,4.59,4.64,4.59h8c1.71,0,1.85.14,1.86,1.8Z"/><path class="cls-1" d="M39.35,15.31a21.3,21.3,0,0,0,2.42-2.83A10.38,10.38,0,0,0,43,9.21c.23-1.06.56-1.89,1.7-2.1A2,2,0,0,1,47,8.51a8.14,8.14,0,0,1,0,6.58c1.53,0,2.92,0,4.3,0a2.55,2.55,0,0,1,2.86,2.82q0,4.27,0,8.55a2.49,2.49,0,0,1-2.8,2.73c-2.94,0-5.87,0-8.8,0a1.72,1.72,0,0,1-.51,0c-2.73-1-5.54-.18-8.31-.33C32.54,28.79,32,28.4,32,27.19Q32.1,22,32,16.86c0-1.15.45-1.6,1.6-1.57C35.46,15.36,37.27,15.31,39.35,15.31Zm6-5.67a47.17,47.17,0,0,1-2.49,4.57c-1.08,1.56-2.93,2.75-3.54,4.43s0,3.88-.2,5.82C39,26,39.82,26.6,41,27a5.09,5.09,0,0,0,1.63.29c2.81,0,5.62,0,8.42,0,.91,0,1.18-.35,1.17-1.22,0-2.64-.05-5.28,0-7.91,0-.89-.29-1.22-1.18-1.2-1.7,0-3.4,0-5.1,0-1.36,0-1.65-.51-1.14-1.79.2-.51.44-1,.63-1.53A5,5,0,0,0,45.34,9.64ZM34,17.27v9.52h3.21c0-2.82,0-5.57,0-8.33,0-.37,0-.74-.07-1.19Z"/><path class="cls-1" d="M15.24,35.39c-2.17-.33-2.17-.33-2.53,1.64a6,6,0,0,1-.32,1.62c-.19.36-.7.56-1.07.84-.26-.38-.74-.77-.73-1.14A26.18,26.18,0,0,1,11,35.24H8.65c-.71,0-1.43-.21-1.29-1,.07-.39.84-.69,1.34-1,.2-.1.5,0,.76,0,2,0,2,0,2.18-2.32a21.9,21.9,0,0,1-3.14-.05c-.44-.06-.81-.62-1.21-1,.4-.29.78-.79,1.21-.84a34.39,34.39,0,0,1,3.54,0,26.68,26.68,0,0,1,.59-3.15c.14-.45.7-1.06,1.08-1.07.83,0,.92.68.78,1.4-.16.87-.27,1.75-.42,2.73h2.25a23.42,23.42,0,0,1,.61-3.15c.13-.43.74-.69,1.13-1,.23.43.65.87.65,1.31a22.66,22.66,0,0,1-.38,3,14.7,14.7,0,0,1,2.59.05c.41.07.75.59,1.12.9-.38.31-.73.83-1.15.89A19.48,19.48,0,0,1,18,31l-.42,2.32a23.31,23.31,0,0,1,3.15,0c.46.07,1.16.52,1.23.9.16.81-.55,1-1.25,1H17.29a27.26,27.26,0,0,1-.63,3.26c-.12.4-.68.67-1.05,1-.26-.41-.73-.83-.73-1.24A19.79,19.79,0,0,1,15.24,35.39Zm-1.88-2.28c2.25.46,2.56.2,2.48-2.06H13.72Z"/><path class="cls-1" d="M26.12,50.79a3.45,3.45,0,0,1,5-3.3,1.09,1.09,0,0,0,.9,0,3.33,3.33,0,0,1,4,.61,3.65,3.65,0,0,1,.84,4.12c-.85,2.36-2.93,3.41-5,4.46a.76.76,0,0,1-.37,0C29.24,56.54,26.11,53.09,26.12,50.79Zm9.07-.34c-.18-.24-.47-1-1-1.18a2.06,2.06,0,0,0-1.7.51c-.78.74-1.23.55-1.9-.12a1.78,1.78,0,0,0-1.52-.47,2,2,0,0,0-1,1.3c-.31,1.41,2.07,4.16,3.49,4.17C32.79,54.67,35.17,52.15,35.19,50.45Z"/></g></g></svg>