<svg xmlns="http://www.w3.org/2000/svg" viewBox="0 0 105.66 98.15"><defs><style>.cls-1{fill:#fff;}</style></defs><g id="Capa_2" data-name="Capa 2"><g id="Capa_1-2" data-name="Capa 1"><path class="cls-1" d="M39.2,80.26H3.48c-3,0-3.47-.46-3.47-3.45Q0,40.13,0,3.44C0,.45.48,0,3.48,0h98.68c3,0,3.49.46,3.49,3.42q0,36.69,0,73.37c0,3-.49,3.46-3.46,3.46H66.49c3.56,4.42,6.87,8.38,10,12.49A21.47,21.47,0,0,1,78.42,97c-1.51.4-3,1.12-4.52,1.13q-21.57.14-43.14,0c-1.17,0-2.35-.73-3.52-1.12a12.86,12.86,0,0,1,1.31-3.44C31.88,89.21,35.36,85,39.2,80.26Zm62.22-62.94H4.33V67.14h97.09Zm0-13.13H4.33v8.65H101.4ZM4.25,76h97.11V71.55H4.25ZM33.39,93.94H72.26C68.54,89.33,65.1,85,61.57,80.81c-.37-.43-1.35-.49-2-.5q-6.69-.06-13.39,0c-.7,0-1.67.07-2,.5C40.56,85,37.13,89.33,33.39,93.94Z"/><path class="cls-1" d="M48.21,43.78c.71-2.53,1.38-5.08,2.13-7.61.42-1.43.38-3.45,2.55-3.38s2,2.07,2.45,3.51a60,60,0,0,0,2.54,7.56q1.15-4.5,2.33-9c.14-.56.3-1.11.42-1.68.32-1.41,1.12-2.31,2.62-1.9s1.66,1.64,1.31,3Q62.76,41.35,61,48.42A31.63,31.63,0,0,1,59.76,53c-.32.78-1.34,1.9-1.88,1.81a3.21,3.21,0,0,1-2.12-1.87c-1-3.06-1.82-6.23-3.2-9.34-.81,2.9-1.47,5.84-2.48,8.67-.37,1-1.54,1.8-2.35,2.7-.72-.89-1.82-1.68-2.09-2.69-1.6-5.88-3-11.82-4.49-17.74-.35-1.39-.53-2.78,1.16-3.28s2.45.76,2.82,2.28c.83,3.42,1.71,6.83,2.58,10.25Z"/><path class="cls-1" d="M77.05,44c.84-3,1.56-6.06,2.58-9,.31-.89,1.43-1.5,2.18-2.24.69.72,1.72,1.32,2,2.18a92.72,92.72,0,0,0,3,8.82c.75-2.94,1.43-5.91,2.28-8.83.46-1.59.3-4.27,3-3.57s1.3,3,.91,4.59c-1.29,5.45-2.61,10.89-4.1,16.29-.28,1-1.38,1.81-2.1,2.7-.8-.88-2-1.64-2.34-2.68-1-2.86-1.69-5.84-2.93-8.86Q80.3,47.68,79.11,52c-.38,1.35-.68,3.15-2.45,2.77-.9-.19-1.87-1.69-2.17-2.78-1.58-5.8-2.93-11.66-4.43-17.49-.36-1.41-.53-2.75,1.13-3.27C73,30.66,73.66,32,74,33.47c.88,3.51,1.74,7,2.61,10.53Z"/><path class="cls-1" d="M23.92,42.61c-1.07,3.85-1.82,7-2.86,10-.31.9-1.41,1.54-2.15,2.3-.72-.79-1.85-1.47-2.1-2.38-1.62-6-3.07-12-4.53-18-.34-1.39-.63-3,1.35-3.37,1.71-.35,2.24.88,2.59,2.3a78.27,78.27,0,0,0,3.07,10.28c.75-2.64,1.37-5.33,2.31-7.9.42-1.16,1.35-2.79,2.29-3,1.95-.38,2.08,1.66,2.48,3,.78,2.68,1.48,5.39,2.4,8.78,1-3.85,1.83-7.05,2.65-10.25.15-.56.12-1.3.47-1.64a16.16,16.16,0,0,1,2.41-1.58c.47.91,1.51,1.94,1.34,2.7-1.43,6.35-3,12.67-4.73,19-.22.81-1.42,1.92-2.1,1.88s-1.75-1.17-2-2C25.75,49.65,25,46.47,23.92,42.61Z"/><path class="cls-1" d="M27.49,10.58H11.65c-1.46,0-3-.05-3-2.05s1.56-2,3-2H43.39c1.47,0,3,0,3.1,2,.08,2.18-1.64,2.1-3.16,2.11Z"/><path class="cls-1" d="M86.44,11.59c-1.37-1.33-2.7-2-2.88-2.95-.33-1.67,1.1-2.15,2.58-2.15s3,.23,2.8,1.95C88.85,9.36,87.62,10.17,86.44,11.59Z"/><path class="cls-1" d="M94.25,11.6c-1.29-1.38-2.57-2.12-2.71-3-.27-1.71,1.22-2.06,2.67-2.06s2.94.32,2.7,2C96.78,9.45,95.51,10.21,94.25,11.6Z"/><path class="cls-1" d="M78,11.58c-1.13-1.43-2.34-2.26-2.4-3.18C75.47,6.69,77,6.47,78.42,6.49S81.33,7,81,8.68C80.79,9.6,79.41,10.27,78,11.58Z"/></g></g></svg>