<svg xmlns="http://www.w3.org/2000/svg" viewBox="0 0 64.52 64.53"><defs><style>.cls-1{fill:#fff;}</style></defs><g id="Capa_2" data-name="Capa 2"><g id="Capa_1-2" data-name="Capa 1"><path class="cls-1" d="M26,14.2V4.91C26,1.61,27.59,0,30.84,0c7.89,0,15.77,0,23.65,0A4.52,4.52,0,0,1,59,2.62a1.67,1.67,0,0,0,1,.6c1.88.53,3.58,2.25,3.39,3.94A15.89,15.89,0,0,1,62,10.83c1,.8,2.47,1.82,2.46,3.81s-1.68,2.92-2.8,4.26C63.1,20,64.52,21,64.5,23s-1.71,2.9-2.77,4.21c.57.5,1.15.94,1.66,1.46a3.49,3.49,0,0,1,0,5.11c-1,1.1-2.1,2.19-3.23,3.2a2.7,2.7,0,0,0-.91,2.27c.06,2.78,0,5.55,0,8.32A4.16,4.16,0,0,1,54.84,52c-2.86,0-5.72,0-8.57,0a3.08,3.08,0,0,0-1.89.8c-3.62,3.54-7.16,7.17-10.8,10.7a3.43,3.43,0,0,1-2.11.91c-4.33.08-8.66.07-13,0a3.22,3.22,0,0,1-2-.84C11.21,58.47,6,53.25.82,48-.27,47-.27,46.7.82,45.6c3.15-3.16,6.29-6.33,9.47-9.46a20.43,20.43,0,0,0,6.37-15.38c0-1.77,0-3.55,0-5.32,0-2.67,1.48-4.58,3.83-5s4.25.89,5.18,3.35l.15.43Zm6.34-7.94V45.67H53a2.73,2.73,0,0,0,0-.37c0-1.25,0-2.51,0-3.76a3.06,3.06,0,0,0-1-2.62,3.39,3.39,0,0,1,0-5.08c.55-.57,1.17-1.09,1.79-1.66-1.61-1.18-3.28-2.32-2.81-4.25.37-1.54,1.57-2.89,2.41-4.35-3.09-2.26-3.32-3.93-.81-7.11a1.68,1.68,0,0,0-.29-.25c-2.74-1.77-3.55-4.57-.62-7,.14-.11.24-.26.38-.36a2.07,2.07,0,0,0,.77-2.56c-1.38,0-2.76,0-4.13,0a1.41,1.41,0,0,0-1,.49,4,4,0,0,1-4.09,1.58,12.55,12.55,0,0,0-2.6,0A3.54,3.54,0,0,1,37.72,7a2,2,0,0,0-1.28-.69C35.11,6.21,33.77,6.26,32.36,6.26ZM26,49.11V44.87c0-5.93-.18-11.86.06-17.78.18-4.56-1.44-8.66-2.51-12.9a2.35,2.35,0,0,0-2.75-1.66A2.44,2.44,0,0,0,18.76,15c0,2.21,0,4.42,0,6.62A22,22,0,0,1,15,33.72c-.62.92-1.33,1.79-1.87,2.53ZM57.12,3.69c-.35-1.27-1.31-1.6-2.56-1.6-7.93,0-15.86,0-23.78,0-2,0-2.67.7-2.67,2.65v42.5c0,2,.71,2.67,2.64,2.68H45.57c3.08,0,6.15,0,9.23,0,1.46,0,2.36-.7,2.39-2,.06-2.59,0-5.18,0-7.85l-2,.61a1.8,1.8,0,0,0-.06.31c0,1.26,0,2.51,0,3.77,0,2.5-.57,3.09-3,3.09h-19c-2.37,0-3-.61-3-3V7.17c0-.39-.12-.86.05-1.16.34-.6.79-1.55,1.27-1.6,2.1-.2,4.22-.14,6.33-.13.21,0,.47.25.6.46,1,1.45,2.36,1.7,4,1.53.69-.08,1.4.06,2.08,0a2.41,2.41,0,0,0,1.45-.59,3.85,3.85,0,0,1,3.75-1.48,13.58,13.58,0,0,0,2.47,0c1.3-.08,2.42.16,3,1.55ZM2.69,47,13.5,57.79c1.53,1.52,2.83,3.64,4.68,4.4s4.34.21,6.54.23h4.74L8.36,41.33ZM10,39.32l22.2,22.21,1.41-1L11.27,38.13Zm25.3,19.07L41.72,52H28.92C31,54,33.22,56.26,35.33,58.39ZM53.92,14.78a7.68,7.68,0,0,0,1.4-.83c1.83-1.78,3.64-3.59,5.42-5.41.9-.93.84-1.64-.09-2.58S59,5,58.08,5.84c-1.83,1.78-3.66,3.57-5.39,5.44a2.08,2.08,0,0,0-.43,1.81C52.55,13.75,53.32,14.21,53.92,14.78Zm8.73-.3c-.56-.61-1-1.38-1.64-1.7a2,2,0,0,0-1.81.33c-1.91,1.75-3.73,3.62-5.54,5.48-.87.9-.79,1.64.17,2.57s1.65.94,2.58,0c1.79-1.75,3.56-3.54,5.32-5.33A9,9,0,0,0,62.65,14.48Zm0,8.31c-.59-.63-1-1.4-1.69-1.7a2,2,0,0,0-1.81.36c-1.85,1.69-3.59,3.51-5.35,5.29-1,1-1,1.71-.06,2.67s1.71,1,2.76,0C58.25,27.7,60,26,61.66,24.25A11.1,11.1,0,0,0,62.67,22.79Zm0,8.32c-.59-.63-1-1.4-1.69-1.7a2,2,0,0,0-1.81.36c-1.85,1.7-3.59,3.51-5.35,5.29-1,1-1,1.71-.06,2.67s1.71,1,2.76,0C58.25,36,60,34.3,61.66,32.57A11.1,11.1,0,0,0,62.67,31.11Z"/><path class="cls-1" d="M51.25,16.49a10.41,10.41,0,0,1-.85,1.16c-.87.91-1.72,1.83-2.66,2.65a1.32,1.32,0,0,0-.35,1.8,24,24,0,0,1,1.24,3.13c.14.46.13,1.34-.12,1.47a2,2,0,0,1-1.59-.07,28,28,0,0,1-3.34-2,1.44,1.44,0,0,0-1.86,0,35.29,35.29,0,0,1-3.45,2.06c-.39.2-1.17.27-1.37.05a1.76,1.76,0,0,1-.24-1.46c.37-1.19,1-2.32,1.32-3.51a1.65,1.65,0,0,0-.28-1.31c-.88-1-1.9-1.88-2.79-2.89a1.62,1.62,0,0,1-.41-1.32c.15-.34.8-.47,1.24-.67a1.27,1.27,0,0,1,.39,0c1.24,0,2.75.32,3.65-.26s1-2.1,1.48-3.21a3.88,3.88,0,0,1,.4-1c.26-.31.65-.74,1-.71a1.51,1.51,0,0,1,1,.74A31.48,31.48,0,0,1,45,14.59a1.28,1.28,0,0,0,1.49,1.05,17.53,17.53,0,0,1,3.24,0C50.23,15.71,50.66,16.15,51.25,16.49ZM39.72,23.34c2-1.79,3.87-1.69,5.61,0-.13-1.16-.61-2.3-.26-3.07s1.52-1.41,2.33-2.1l-.13-.58c-2.87.93-4-.68-4.5-3.24-.63,1.29-.87,2.5-1.6,3s-2,.37-3.14.53C39.63,19.39,41.73,20.63,39.72,23.34Z"/><path class="cls-1" d="M43.7,32.28c0,1.51.06,3,0,4.53a5.57,5.57,0,0,1-.6,1.58c-.54-.23-1.1-.45-1.64-.69a.47.47,0,0,1-.19-.18,5,5,0,0,0-5.11-2.18c-.53.08-1.12-.37-1.69-.58a5.37,5.37,0,0,1,.71-1.63q3.15-3.27,6.41-6.41c.36-.34,1.14-.73,1.39-.57a2.07,2.07,0,0,1,.71,1.47C43.76,29.17,43.7,30.72,43.7,32.28Zm-2.2,2.13v-4.2l-2.93,2.85Z"/><path class="cls-1" d="M38.56,43.62V41.69h8.21v1.93Z"/><path class="cls-1" d="M11.46,47.84A2.08,2.08,0,0,1,7.31,48a2.08,2.08,0,1,1,4.15-.11Z"/></g></g></svg>