<svg xmlns="http://www.w3.org/2000/svg" viewBox="0 0 106 98.15"><defs><style>.cls-1{fill:#fff;}</style></defs><g id="Capa_2" data-name="Capa 2"><g id="Capa_1-2" data-name="Capa 1"><path class="cls-1" d="M25.42,94.89h3.15V61.78c0-4.23,1.32-5.53,5.6-5.54q6,0,12,0c3.9,0,5.26,1.36,5.26,5.22q0,15.56,0,31.12v2.3h3.19V45.38c0-4.66,3.86-7.23,8.22-5.42a1.79,1.79,0,0,1,1,1.37,2,2,0,0,1-1.09,1.44,8.65,8.65,0,0,1-2.88.17c-1.61-.1-2.2.56-2.18,2.18.06,5.11,0,10.23,0,15.35V94.82H74.43v-49c0-2.82,0-2.78-2.91-2.85-1.28,0-3.2.52-3.22-1.56s1.9-1.54,3.18-1.55c4.93,0,6.06,1.11,6.06,6.1V94.82h3.15V29.37c0-4.81,1.18-6,6-6,3.87,0,7.74,0,11.61,0s5.31,1.49,5.31,5.24q0,13.59,0,27.18c0,.48.13,1.09-.1,1.42A2.91,2.91,0,0,1,102,58.5c-.42,0-1.14-.67-1.37-1.2a5.28,5.28,0,0,1-.15-2c0-8.71,0-17.43,0-26.14,0-1.93-.48-2.7-2.55-2.62-4,.15-8,.08-12,0-1.44,0-2.15.36-2.14,2q.06,32.88,0,65.75a3.75,3.75,0,0,0,.11.57h16.44c0-.68.09-1.4.09-2.13V66.33a4.29,4.29,0,0,1,.09-1.84,7.3,7.3,0,0,1,1.57-1.57,7.94,7.94,0,0,1,1.46,1.68,4.49,4.49,0,0,1,.07,1.84V94.8c.43.09.91,0,1.15.26.51.46,1.26,1.08,1.22,1.59s-.86,1.06-1.46,1.36a4,4,0,0,1-1.64.08H3.15c-.41,0-.91.13-1.22,0A18,18,0,0,1,0,96.6c.52-.53,1-1.09,1.58-1.59.17-.15.51-.11.9-.18,0-5.64,0-11.23,0-16.82,0-3.94,1.45-5.38,5.38-5.39,4.22,0,8.44,0,12.65,0,3.33,0,4.86,1.5,4.89,4.8,0,5,0,10.09,0,15.14Zm22.73,0a2.82,2.82,0,0,0,.21-.58q0-16.57,0-33.13c0-1.47-.67-1.91-2-1.89-4,0-8,.12-12,0-2.09-.07-2.74.61-2.72,2.71.09,10.28,0,20.56.05,30.85,0,.67,0,1.34.08,2.07Zm-25.82,0c0-5.74,0-11.31,0-16.89,0-1.78-.66-2.26-2.32-2.23-4,.08-8,.1-12,0-1.76,0-2.48.45-2.4,2.32.13,3.17,0,6.35,0,9.53v7.27Z"/><path class="cls-1" d="M83.19,5.21a9.22,9.22,0,0,1-.87-2.86A2.34,2.34,0,0,1,84.94,0c2.77,0,5.53,0,8.29.17s3.53,1.6,2.58,4.07c-.81,2.13-1.67,4.24-2.53,6.35-1.48,3.67-3.2,3.95-5.89.79-.65.41-1.33.82-2,1.26L17.12,57.72a19.81,19.81,0,0,1-1.74,1.12,3.66,3.66,0,0,1-4.09-6.05,18.73,18.73,0,0,1,1.86-1.3l68.1-45ZM13,55.52l.4.66c.74-.41,1.51-.77,2.21-1.23Q50.39,32,85.13,9.08c.85-.56,1.79-1.44,2.67-1.41s1.69,1,2.63,1.66l2.35-6H86.32c1.14,2.82,1.14,2.82-1.44,4.52L15.07,54C14.37,54.45,13.72,55,13,55.52Z"/></g></g></svg>