<svg xmlns="http://www.w3.org/2000/svg" viewBox="0 0 111.05 98.15"><defs><style>.cls-1{fill:#fff;}</style></defs><g id="Capa_2" data-name="Capa 2"><g id="Capa_1-2" data-name="Capa 1"><path class="cls-1" d="M21.22,3.37V11.1h86.5c0-2.28,0-4.55,0-6.82,0-.32-.76-.75-1.23-.86a7.83,7.83,0,0,0-1.94,0q-33.07,0-66.14,0c-1.36,0-3.38.51-3.44-1.56C34.86-.52,37,.07,38.4.07q33.49,0,67,0c4.4,0,5.65,1.27,5.65,5.69V81.42c0,4.36-1.07,5.52-5.44,5.83.06,5.19-4.41,7.2-7.42,10.15-1.45,1.42-3.4.63-4.84-.81-2.71-2.71-5.35-5.48-8.17-8.07A5.43,5.43,0,0,0,82,87.23c-3-.17-6.07-.06-9.11-.06-1.31,0-2.93.14-2.88-1.71s1.69-1.62,3-1.63c2.31,0,4.61,0,7.54,0-1.34-1.36-2.36-2.31-3.28-3.35-.61-.69-1.59-1.55-1.53-2.25.33-3.51-2.54-4.87-4.33-7-.24-.27-.53-.49-.93-.86C63,75,55,76.12,46.7,73.05a25.43,25.43,0,0,1-14-12.32,26.22,26.22,0,0,1,8-33.58c9.81-7,25.81-7.36,36.76,6.28,0-2.79,0-5.09,0-7.4,0-3.23.52-3.73,3.8-3.75,1.37,0,2.75,0,4.12,0,1.7.05,2.7.84,2.69,2.67,0,2.39.11,4.78-.07,7.15-.06.71-.93,1.37-1.42,2.05-.57-.69-1.55-1.32-1.63-2.06A61,61,0,0,1,85,25.74H80.86v28h4.08V50.18c0-3.18,0-6.36,0-9.54,0-1.14.35-2.22,1.64-2a2.5,2.5,0,0,1,1.49,1.86c.12,4.7.07,9.4.06,14.1,0,1.83-1.13,2.81-2.77,2.52-3.6-.62-5.68.79-6.64,4.2a10.73,10.73,0,0,1-1.06,2c1.53,1.42,3,2.87,4.6,4.26a1.91,1.91,0,0,0,1.32.49c2.15-.42,3.53.69,4.91,2.1,4.16,4.22,8.37,8.39,12.57,12.58.9.9,5.13,1.59,6.09.89a2.2,2.2,0,0,0,.6-1.48c.08-1.29,0-2.6,0-3.9,0-20.38,0-40.76,0-61.15,0-2.15-.49-2.77-2.74-2.76q-49.54.12-99.1,0H3.44c-.06.87-.16,1.57-.16,2.26,0,21.54,0,43.08,0,64.61,0,2,.52,2.59,2.55,2.58,18.51-.08,37,0,55.52,0H63c1.21,0,2.51.08,2.47,1.71S64.18,87.17,63,87.17q-29.07,0-58.12,0c-3.35,0-4.85-1.57-4.85-5Q0,43.61,0,5C0,1.6,1.51.07,4.87.06c7.66,0,15.32,0,23,0,1.21,0,2.5,0,2.53,1.63S29.09,3.36,27.9,3.36ZM77.52,48.8c0-2.16.06-4.33,0-6.5a8.54,8.54,0,0,0-.59-2.92A22.94,22.94,0,1,0,61.16,70.86a24,24,0,0,0,12.76-8.07C77.47,58.67,78.1,53.92,77.52,48.8ZM101.94,89,84.54,71.65,79.2,77,96.43,94.19ZM17.63,11.11V3.38c-4.41,0-8.65,0-12.89.05-.49,0-1.35.72-1.37,1.15C3.22,6.7,3.3,8.85,3.3,11.11ZM73.5,68,78,73l2.27-2.08-4.56-5Z"/><path class="cls-1" d="M101.6,43.33c0,3.54,0,7.08,0,10.61,0,2.55-.69,3.24-3.17,3.28-1.59,0-3.18,0-4.76,0A2.4,2.4,0,0,1,91,54.53c0-7.36,0-14.72,0-22.08a2.37,2.37,0,0,1,2.64-2.7c1.8,0,3.61,0,5.41,0s2.59,1,2.58,2.76C101.58,36.12,101.6,39.73,101.6,43.33ZM98.23,53.77V33.18h-4V53.77Z"/><path class="cls-1" d="M14.86,33.76c-1.31,0-2.61,0-3.91,0-2.26,0-3-.77-3.07-3,0-2.74,0-5.49,0-8.23,0-1.95.86-3,2.86-3q4.23,0,8.45,0c2,0,2.89,1,2.88,3,0,2.74,0,5.49,0,8.24,0,2.19-.8,2.91-3.07,3C17.6,33.79,16.23,33.76,14.86,33.76Zm-3.55-3.52h7.24V23.07H11.31Z"/><path class="cls-1" d="M15.06,51.23H10.51a2.31,2.31,0,0,1-2.62-2.5c0-3,0-6.06,0-9.09a2.23,2.23,0,0,1,2.43-2.46c3.1,0,6.2,0,9.31,0A2.24,2.24,0,0,1,22,39.66c0,3,.06,6.07,0,9.1a2.3,2.3,0,0,1-2.63,2.47C17.94,51.21,16.5,51.23,15.06,51.23ZM11.38,40.5v7.33h7.21V40.5Z"/><path class="cls-1" d="M17.05,59.45c-2.3,0-4.61.13-6.9-.07-.78-.07-2-.86-2.13-1.48-.23-1.34,1-1.72,2.16-1.72,4.6,0,9.21-.06,13.81.08a2.7,2.7,0,0,1,2.08,1.49c.28,1.39-.9,1.71-2.11,1.71C21.66,59.44,19.36,59.45,17.05,59.45Z"/><path class="cls-1" d="M17,72.83c-2.24,0-4.48.15-6.69-.07-.83-.09-1.57-1-2.35-1.59.78-.56,1.55-1.57,2.35-1.6,4.53-.16,9.07-.08,13.6-.08,1.17,0,2.28.23,2.28,1.68S25,72.84,23.87,72.83Z"/><path class="cls-1" d="M17.35,62.89c2.25,0,4.5-.13,6.72.07.75.07,1.41,1,2.12,1.54C25.47,65,24.78,66,24.05,66c-4.69.14-9.4.14-14.09,0-.69,0-1.35-1.08-2-1.66C8.61,63.87,9.27,63,10,63,12.43,62.78,14.9,62.89,17.35,62.89Z"/><path class="cls-1" d="M14.07,76.27a25.9,25.9,0,0,1,4.32.08,2.38,2.38,0,0,1,1.5,1.6c.08.37-.9,1.38-1.44,1.41a87.67,87.67,0,0,1-8.88,0c-.58,0-1.1-1-1.64-1.6.53-.49,1-1.34,1.59-1.42A34.47,34.47,0,0,1,14.07,76.27Z"/><path class="cls-1" d="M97.34,8.67A7,7,0,0,1,95,8.61c-.63-.23-1.57-1-1.49-1.43A2.39,2.39,0,0,1,95,5.52a21,21,0,0,1,5.13,0,2.06,2.06,0,0,1,1.33,1.53,2.18,2.18,0,0,1-1.34,1.54,9.46,9.46,0,0,1-2.77.07Z"/><path class="cls-1" d="M74.68,47.31c0,2.38.06,4.77,0,7.15a3.91,3.91,0,0,1-.79,2.12c-1,1.2-2.21,2.17-3.15,3.38a18.68,18.68,0,1,1-1.55-24.53c1,1,1.84,1.86,3.44,1.81s2.09,1.06,2.09,2.49Q74.66,43.53,74.68,47.31ZM65.33,36.52c-3.89-3.83-11.15-4.61-16.85-1.47a15.36,15.36,0,0,0,6.17,28.8c5.81.38,12-2.61,13.43-6.51-3.82-.32-4-.54-4-4.49s-.1-8.08,0-12.12C64.16,39.41,64.85,38.12,65.33,36.52Zm2.09,4V53.7h3.94V40.5Z"/><path class="cls-1" d="M61.22,51c.05,6.19.51,6.36-6.25,6.27-4.1,0-4.38-.29-4.38-4.48,0-1.81,0-3.61,0-5.41a2.33,2.33,0,0,1,2.57-2.56c1.73-.05,3.46,0,5.2,0,2,0,2.92,1,2.85,3C61.19,48.79,61.22,49.88,61.22,51ZM54,48.23v5.53h3.9V48.23Z"/></g></g></svg>