<svg xmlns="http://www.w3.org/2000/svg" viewBox="0 0 63.1 58.42"><defs><style>.cls-1{fill:#fff;}</style></defs><g id="Capa_2" data-name="Capa 2"><g id="Capa_1-2" data-name="Capa 1"><path class="cls-1" d="M15.13,56.48H17V55.17q0-9.2,0-18.4c0-2.51.78-3.29,3.33-3.29H27.5c2.32,0,3.13.81,3.13,3.11q0,9.25,0,18.52v1.37h1.9V27a3.33,3.33,0,0,1,4.89-3.22,1,1,0,0,1,.58.81,1.18,1.18,0,0,1-.65.86,5.42,5.42,0,0,1-1.71.1c-1-.06-1.32.33-1.3,1.29,0,3,0,6.1,0,9.14V56.44H44.3V27.26c0-1.68,0-1.66-1.73-1.7-.76,0-1.91.31-1.92-.93s1.14-.91,1.9-.92c2.93,0,3.61.66,3.61,3.63v29.1H48v-39c0-2.86.7-3.55,3.57-3.56,2.31,0,4.61,0,6.92,0s3.16.88,3.16,3.12c0,5.39,0,10.78,0,16.17,0,.29.08.65-.06.85a1.75,1.75,0,0,1-.93.75c-.25,0-.68-.4-.81-.71a3.07,3.07,0,0,1-.09-1.22c0-5.18,0-10.37,0-15.56,0-1.15-.29-1.6-1.52-1.56-2.38.09-4.77.05-7.16,0-.86,0-1.28.21-1.27,1.17q0,19.56,0,39.14a3.1,3.1,0,0,0,.06.34h9.79c0-.41.05-.84.05-1.28,0-5.22,0-10.45,0-15.68,0-.37-.11-.8.05-1.09a4.59,4.59,0,0,1,.93-.94,4.77,4.77,0,0,1,.87,1,2.68,2.68,0,0,1,0,1.1V56.43c.26,0,.54,0,.69.15.3.27.75.65.73,1s-.52.63-.87.81a2.44,2.44,0,0,1-1,0H1.88c-.25,0-.55.08-.73,0A9.56,9.56,0,0,1,0,57.5c.31-.32.61-.65.94-1,.1-.08.3-.06.54-.1,0-3.36,0-6.69,0-10,0-2.34.87-3.2,3.21-3.21,2.51,0,5,0,7.53,0,2,0,2.88.89,2.9,2.85,0,3,0,6,0,9Zm13.53,0a1.55,1.55,0,0,0,.12-.35q0-9.85,0-19.72c0-.87-.4-1.13-1.22-1.12-2.38,0-4.77.07-7.15,0-1.24,0-1.63.37-1.62,1.61.06,6.12,0,12.25,0,18.37,0,.4,0,.8.05,1.23Zm-15.37,0c0-3.41,0-6.73,0-10,0-1.06-.39-1.35-1.37-1.33-2.39,0-4.77.06-7.15,0-1,0-1.48.27-1.44,1.38.08,1.89,0,3.78,0,5.67v4.33Z"/><path class="cls-1" d="M49.52,3.1A5.53,5.53,0,0,1,49,1.4,1.39,1.39,0,0,1,50.56,0c1.65,0,3.29,0,4.93.1s2.1,1,1.54,2.43c-.48,1.26-1,2.52-1.5,3.77-.89,2.19-1.91,2.36-3.51.47l-1.19.75L10.19,34.36a10.15,10.15,0,0,1-1,.66,2.18,2.18,0,0,1-2.43-3.6,10.94,10.94,0,0,1,1.11-.77L48.36,3.88ZM7.76,33.05l.24.39c.44-.24.9-.46,1.31-.73Q30,19.06,50.67,5.41c.51-.34,1.07-.86,1.59-.84s1,.61,1.56,1L55.22,2H51.38c.68,1.67.68,1.68-.85,2.69L9,32.13C8.55,32.41,8.16,32.74,7.76,33.05Z"/></g></g></svg>