<svg xmlns="http://www.w3.org/2000/svg" viewBox="0 0 92.15 98.15"><defs><style>.cls-1{fill:#fff;}</style></defs><g id="Capa_2" data-name="Capa 2"><g id="Capa_1-2" data-name="Capa 1"><path class="cls-1" d="M24.73,72.09c2.43-1.87,4.46-3.41,6.46-5a1.76,1.76,0,0,0,.48-.8c1.27-3.58,3.92-5,7.57-4.89.45,0,.89,0,1.34,0a2.6,2.6,0,0,0,.52-.24V59.36q0-11.88,0-23.77c0-4.51-2.31-6.79-6.87-6.79q-12.27,0-24.53,0c-4.43,0-6.74,2.29-6.79,6.71a8.22,8.22,0,0,1-.08,2.28C2.65,38.32,2,39,1.56,39.06A1.83,1.83,0,0,1,.15,37.94c-1-7.24,2.66-12.06,9.47-12,9.13,0,18.26,0,27.62,0v-2c0-4.47-.05-8.94,0-13.41A10.56,10.56,0,0,1,47.46.08C54.16-.06,60.87,0,67.58.1a2.38,2.38,0,0,1,1.83,1.32c.26,1.28-.84,1.5-1.88,1.5H49.32c-6.25,0-9.24,3-9.24,9.31,0,4.47-.06,9,.05,13.41a4.28,4.28,0,0,0,1.09,2.6A9.52,9.52,0,0,1,44,35.17c0,4.66.07,9.33,0,14a2.11,2.11,0,0,0,2,2.48,17,17,0,0,0,2.85.24c5.24,0,10.47,0,15.71,0,1.81,0,2.58.67,2.46,2.5-.09,1.37,0,2.75,0,4.58,2.84-2.17,5.25-4.14,7.8-5.9A8.9,8.9,0,0,1,78,51.93a14.07,14.07,0,0,1,2.68,0c5.39,0,8.58-3.18,8.6-8.58,0-9.9,0-19.8,0-29.7a28.73,28.73,0,0,0-.14-3.83A7.62,7.62,0,0,0,82,3c-1.39-.11-2.8-.07-4.21-.07-1.06,0-2.12-.29-1.9-1.51A2.44,2.44,0,0,1,77.71.1a24.3,24.3,0,0,1,5.91.25,10.4,10.4,0,0,1,8.5,10.37q.06,16.67,0,33.34a10.48,10.48,0,0,1-10.7,10.69,11,11,0,0,0-8.1,2.89,75.94,75.94,0,0,1-6.54,5,2.16,2.16,0,0,1-1.85.35,2.27,2.27,0,0,1-.82-1.71c-.09-2,0-4.08,0-6.59h-20v6.74c4.13,0,8.21,0,12.28,0,3.46,0,6.16,2,6.84,5a16.6,16.6,0,0,1,.19,3.24,37.58,37.58,0,0,1-.06,5c-.09.66-.9,1.24-1.38,1.85-.46-.63-1.25-1.24-1.32-1.92-.18-1.9,0-3.82-.07-5.74,0-3.09-1.38-4.49-4.41-4.5q-8.72,0-17.44,0c-3.05,0-4.42,1.38-4.44,4.47q0,8.63,0,17.24c0,2.94,1.46,4.37,4.36,4.39,2.62,0,5.23,0,7.85,0,3,0,3,0,3.55,3.06.72-.54,1.41-1,2-1.53a5.71,5.71,0,0,1,4.32-1.58c2.67.1,4.11-1.43,4.2-4.11a7.8,7.8,0,0,1,.1-2.28,2.07,2.07,0,0,1,1.4-1.15c.38,0,1.19.64,1.25,1.08.71,5.25-1.37,9.19-7,9.45a5.47,5.47,0,0,0-2.57,1c-1.48,1-2.82,2.19-4.28,3.23s-2.49.45-2.62-1.22c-.07-.89,0-1.78,0-3H41.55c-1.28,0-2.56,0-3.83-.06a6.47,6.47,0,0,1-6.23-6.72c0-5.17,0-10.34,0-15.94-1.22.89-2.21,1.59-3.18,2.32-1.27,1-2.5,2-3.8,2.91s-2.5.42-2.57-1.26c-.07-1.52,0-3,0-4.91H18.45c-3.06,0-6.13,0-9.19,0C3.8,69.68.11,66,.08,60.59c0-4.41,0-8.82,0-13.22,0-1.06-.08-2.25,1.36-2.27,1.6,0,1.48,1.26,1.48,2.36,0,4.15,0,8.3,0,12.45,0,4.69,2.23,6.88,7,6.89,4,0,8.05,0,12.08,0,2.55,0,2.76.22,2.78,2.7Z"/><path class="cls-1" d="M59.05,23a33.37,33.37,0,0,0,3.64-4.25,15.57,15.57,0,0,0,1.8-4.91c.35-1.59.85-2.83,2.56-3.15s2.76.64,3.44,2.1c1.49,3.19,1.3,6.42,0,9.88,2.29,0,4.37,0,6.45,0,2.8,0,4.26,1.43,4.28,4.23q.06,6.42,0,12.83c0,2.68-1.48,4.08-4.2,4.1-4.4,0-8.81,0-13.21,0a2.14,2.14,0,0,1-.76,0c-4.1-1.51-8.32-.26-12.47-.48-1.78-.1-2.54-.68-2.52-2.5q.09-7.75,0-15.51c0-1.72.66-2.4,2.4-2.34C53.21,23,55.93,23,59.05,23Zm9-8.52a65.18,65.18,0,0,1-3.73,6.86C62.68,23.66,59.9,25.45,59,28s0,5.82-.3,8.73c-.23,2.36,1.06,3.21,2.83,3.84A7.46,7.46,0,0,0,64,41c4.21,0,8.42,0,12.64,0,1.35,0,1.76-.52,1.74-1.82q-.09-5.94,0-11.88c0-1.33-.43-1.82-1.76-1.79-2.55,0-5.11,0-7.66-.05-2,0-2.47-.76-1.71-2.68.31-.77.67-1.52.94-2.3A7.45,7.45,0,0,0,68,14.46Zm-17,11.46V40.21h4.81c0-4.24,0-8.37,0-12.51,0-.56-.07-1.12-.12-1.78Z"/><path class="cls-1" d="M22.87,53.1c-3.25-.49-3.25-.49-3.8,2.47A8.89,8.89,0,0,1,18.59,58c-.29.55-1.05.85-1.6,1.26-.39-.56-1.11-1.14-1.1-1.7a38.56,38.56,0,0,1,.68-4.66H13c-1.06,0-2.15-.32-1.94-1.49.11-.59,1.27-1,2-1.44.29-.16.75,0,1.13,0,3.08,0,3.08,0,3.28-3.47a35.31,35.31,0,0,1-4.72-.07c-.66-.09-1.21-.94-1.81-1.45.6-.44,1.17-1.19,1.81-1.25a51.8,51.8,0,0,1,5.32-.06A39.09,39.09,0,0,1,19,38.89c.21-.67,1.05-1.59,1.62-1.6,1.23,0,1.37,1,1.17,2.1-.24,1.3-.41,2.62-.63,4.09h3.36a38.44,38.44,0,0,1,.92-4.73c.21-.63,1.12-1,1.71-1.54.34.66,1,1.31,1,2a34.2,34.2,0,0,1-.58,4.46,23.69,23.69,0,0,1,3.89.06c.62.12,1.12.89,1.68,1.36-.57.47-1.09,1.25-1.72,1.34a29.41,29.41,0,0,1-4.33.06l-.62,3.49a34.9,34.9,0,0,1,4.72.06c.7.1,1.75.79,1.86,1.36.23,1.21-.84,1.52-1.89,1.53H26A45.33,45.33,0,0,1,25,57.77c-.19.6-1,1-1.58,1.49-.39-.62-1.1-1.24-1.1-1.87A30,30,0,0,1,22.87,53.1Zm-2.82-3.42c3.38.7,3.84.31,3.72-3.09H20.59Z"/><path class="cls-1" d="M39.2,76.21c-.08-4.47,4.54-6.79,7.52-4.94a1.67,1.67,0,0,0,1.35,0,5,5,0,0,1,6,.91,5.47,5.47,0,0,1,1.26,6.19c-1.27,3.54-4.39,5.12-7.47,6.69a1.09,1.09,0,0,1-.57,0C43.88,84.85,39.19,79.66,39.2,76.21Zm13.61-.5c-.27-.36-.71-1.51-1.46-1.77a3.07,3.07,0,0,0-2.55.77c-1.17,1.1-1.84.82-2.85-.19a2.72,2.72,0,0,0-2.28-.71,2.94,2.94,0,0,0-1.47,2C41.73,77.88,45.3,82,47.44,82,49.2,82,52.77,78.25,52.81,75.71Z"/></g></g></svg>